g Cylinder002

usemtl colours.png

v 0.0345464 0 -0.000228617
vn 0.8976383 0 -0.4330711
vt 0.8076282 0.7862343
v 0.0213889 0 -0.02755052
vn 0.8976383 0 -0.4330711
vt 0.8093699 0.7862343
v 0.0213889 0.0802537 -0.02755052
vn 0.8976383 0 -0.4330711
vt 0.8093699 0.7936365
v 0.0345464 0.0802537 -0.000228616
vn 0.8976383 0 -0.4330711
vt 0.8076282 0.7936365
v 0.0213889 0 -0.02755052
vn 0.2204726 0 -0.9763785
vt 0.8093699 0.7862343
v -0.008175818 0 -0.03429842
vn 0.2204726 0 -0.9763785
vt 0.8110825 0.7862343
v -0.008175818 0.0802537 -0.03429842
vn 0.2204726 0 -0.9763785
vt 0.8110825 0.7936365
v 0.0213889 0.0802537 -0.02755052
vn 0.2204726 0 -0.9763785
vt 0.8093699 0.7936365
v -0.008175818 0 -0.03429842
vn -0.6220476 0 -0.779528
vt 0.7990648 0.7862343
v -0.0318849 0 -0.01539112
vn -0.6220476 0 -0.779528
vt 0.8007774 0.7862343
v -0.0318849 0.0802537 -0.01539112
vn -0.6220476 0 -0.779528
vt 0.8007774 0.7936365
v -0.008175818 0.0802537 -0.03429842
vn -0.6220476 0 -0.779528
vt 0.7990648 0.7936365
v -0.0318849 0 -0.01539112
vn -1.000001 0 0
vt 0.8007774 0.7862343
v -0.0318849 0 0.01493388
vn -1.000001 0 0
vt 0.8024901 0.7862343
v -0.0318849 0.0802537 0.01493388
vn -1.000001 0 0
vt 0.8024901 0.7936365
v -0.0318849 0.0802537 -0.01539112
vn -1.000001 0 0
vt 0.8007774 0.7936365
v -0.0318849 0 0.01493388
vn -0.6220476 0 0.779528
vt 0.8024901 0.7862343
v -0.008175818 0 0.03384118
vn -0.6220476 0 0.779528
vt 0.8042028 0.7862343
v -0.008175818 0.0802537 0.03384118
vn -0.6220476 0 0.779528
vt 0.8042028 0.7936365
v -0.0318849 0.0802537 0.01493388
vn -0.6220476 0 0.779528
vt 0.8024901 0.7936365
v -0.008175818 0 0.03384118
vn 0.2204726 0 0.9763785
vt 0.8042028 0.7862343
v 0.0213889 0 0.02709328
vn 0.2204726 0 0.9763785
vt 0.8059155 0.7862343
v 0.0213889 0.0802537 0.02709328
vn 0.2204726 0 0.9763785
vt 0.8059155 0.7936365
v -0.008175818 0.0802537 0.03384118
vn 0.2204726 0 0.9763785
vt 0.8042028 0.7936365
v 0.0213889 0 0.02709328
vn 0.8976383 0 0.4330711
vt 0.8059155 0.7862343
v 0.0345464 0 -0.000228617
vn 0.8976383 0 0.4330711
vt 0.8076282 0.7862343
v 0.0345464 0.0802537 -0.000228616
vn 0.8976383 0 0.4330711
vt 0.8076282 0.7936365
v 0.0213889 0.0802537 0.02709328
vn 0.8976383 0 0.4330711
vt 0.8059155 0.7936365
v 0.0345464 0.0802537 -0.000228616
vn 0.8976383 0 -0.4330711
vt 0.8117211 0.9347435
v 0.0213889 0.0802537 -0.02755052
vn 0.8976383 0 -0.4330711
vt 0.8134338 0.9347435
v 0.0213889 0.137419 -0.02755052
vn 0.8976383 0 -0.4330711
vt 0.8134338 0.9421167
v 0.0345464 0.137419 -0.000228616
vn 0.8976383 0 -0.4330711
vt 0.8117211 0.9421167
v 0.0213889 0.0802537 -0.02755052
vn 0.2204726 0 -0.9763785
vt 0.8134338 0.9347435
v -0.008175818 0.0802537 -0.03429842
vn 0.2204726 0 -0.9763785
vt 0.8151755 0.9347435
v -0.008175818 0.137419 -0.03429842
vn 0.2204726 0 -0.9763785
vt 0.8151755 0.9421167
v 0.0213889 0.137419 -0.02755052
vn 0.2204726 0 -0.9763785
vt 0.8134338 0.9421167
v -0.008175818 0.0802537 -0.03429842
vn -0.6220476 0 -0.779528
vt 0.8031578 0.9347435
v -0.0318849 0.0802537 -0.01539112
vn -0.6220476 0 -0.779528
vt 0.8048705 0.9347435
v -0.0318849 0.137419 -0.01539112
vn -0.6220476 0 -0.779528
vt 0.8048705 0.9421167
v -0.008175818 0.137419 -0.03429842
vn -0.6220476 0 -0.779528
vt 0.8031578 0.9421167
v -0.0318849 0.0802537 -0.01539112
vn -1.000001 0 0
vt 0.8048705 0.9347435
v -0.0318849 0.0802537 0.01493388
vn -1.000001 0 0
vt 0.8065832 0.9347435
v -0.0318849 0.137419 0.01493388
vn -1.000001 0 0
vt 0.8065832 0.9421167
v -0.0318849 0.137419 -0.01539112
vn -1.000001 0 0
vt 0.8048705 0.9421167
v -0.0318849 0.0802537 0.01493388
vn -0.6220476 0 0.779528
vt 0.8065832 0.9347435
v -0.008175818 0.0802537 0.03384118
vn -0.6220476 0 0.779528
vt 0.8082958 0.9347435
v -0.008175818 0.137419 0.03384118
vn -0.6220476 0 0.779528
vt 0.8082958 0.9421167
v -0.0318849 0.137419 0.01493388
vn -0.6220476 0 0.779528
vt 0.8065832 0.9421167
v -0.008175818 0.0802537 0.03384118
vn 0.2204726 0 0.9763785
vt 0.8082958 0.9347435
v 0.0213889 0.0802537 0.02709328
vn 0.2204726 0 0.9763785
vt 0.8100085 0.9347435
v 0.0213889 0.137419 0.02709328
vn 0.2204726 0 0.9763785
vt 0.8100085 0.9421167
v -0.008175818 0.137419 0.03384118
vn 0.2204726 0 0.9763785
vt 0.8082958 0.9421167
v 0.0213889 0.0802537 0.02709328
vn 0.8976383 0 0.4330711
vt 0.8100085 0.9347435
v 0.0345464 0.0802537 -0.000228616
vn 0.8976383 0 0.4330711
vt 0.8117211 0.9347435
v 0.0345464 0.137419 -0.000228616
vn 0.8976383 0 0.4330711
vt 0.8117211 0.9421167
v 0.0213889 0.137419 0.02709328
vn 0.8976383 0 0.4330711
vt 0.8100085 0.9421167
v 0.0213889 0.137419 -0.02755052
vn 0.8976383 0 -0.4330711
vt 0.8093699 0.8010097
v 0.0213889 0.193347 -0.02755052
vn 0.8976383 0 -0.4330711
vt 0.8093699 0.8047253
v 0.0345464 0.193347 -0.0002286148
vn 0.8976383 0 -0.4330711
vt 0.8076282 0.8047253
v 0.0345464 0.137419 -0.000228616
vn 0.8976383 0 -0.4330711
vt 0.8076282 0.8010097
v -0.008175818 0.137419 -0.03429842
vn 0.2204726 0 -0.9763785
vt 0.8110825 0.8010097
v -0.008175818 0.193347 -0.03429842
vn 0.2204726 0 -0.9763785
vt 0.8110825 0.8047253
v 0.0213889 0.193347 -0.02755052
vn 0.2204726 0 -0.9763785
vt 0.8093699 0.8047253
v 0.0213889 0.137419 -0.02755052
vn 0.2204726 0 -0.9763785
vt 0.8093699 0.8010097
v -0.0318849 0.137419 -0.01539112
vn -0.6220476 0 -0.779528
vt 0.8007774 0.8010097
v -0.0318849 0.193347 -0.01539112
vn -0.6220476 0 -0.779528
vt 0.8007774 0.8047253
v -0.008175818 0.193347 -0.03429842
vn -0.6220476 0 -0.779528
vt 0.7990648 0.8047253
v -0.008175818 0.137419 -0.03429842
vn -0.6220476 0 -0.779528
vt 0.7990648 0.8010097
v -0.0318849 0.137419 0.01493388
vn -1.000001 0 0
vt 0.8024901 0.8010097
v -0.0318849 0.193347 0.01493388
vn -1.000001 0 0
vt 0.8024901 0.8047253
v -0.0318849 0.193347 -0.01539112
vn -1.000001 0 0
vt 0.8007774 0.8047253
v -0.0318849 0.137419 -0.01539112
vn -1.000001 0 0
vt 0.8007774 0.8010097
v -0.008175818 0.137419 0.03384118
vn -0.6220476 0 0.779528
vt 0.8042028 0.8010097
v -0.008175818 0.193347 0.03384118
vn -0.6220476 0 0.779528
vt 0.8042028 0.8047253
v -0.0318849 0.193347 0.01493388
vn -0.6220476 0 0.779528
vt 0.8024901 0.8047253
v -0.0318849 0.137419 0.01493388
vn -0.6220476 0 0.779528
vt 0.8024901 0.8010097
v 0.0213889 0.137419 0.02709328
vn 0.2204726 0 0.9763785
vt 0.8059155 0.8010097
v 0.0213889 0.193347 0.02709328
vn 0.2204726 0 0.9763785
vt 0.8059155 0.8047253
v -0.008175818 0.193347 0.03384118
vn 0.2204726 0 0.9763785
vt 0.8042028 0.8047253
v -0.008175818 0.137419 0.03384118
vn 0.2204726 0 0.9763785
vt 0.8042028 0.8010097
v 0.0345464 0.137419 -0.000228616
vn 0.8976383 0 0.4330711
vt 0.8076282 0.8010097
v 0.0345464 0.193347 -0.0002286148
vn 0.8976383 0 0.4330711
vt 0.8076282 0.8047253
v 0.0213889 0.193347 0.02709328
vn 0.8976383 0 0.4330711
vt 0.8059155 0.8047253
v 0.0213889 0.137419 0.02709328
vn 0.8976383 0 0.4330711
vt 0.8059155 0.8010097
v 0.0393181 0.193413 -0.0002286161
vn 0.8976383 0 -0.4330711
vt 0.9414781 0.9431618
v 0.024364 0.193413 -0.03128122
vn 0.8976383 0 -0.4330711
vt 0.9463258 0.9431618
v 0.024364 0.228663 -0.03128122
vn 0.8976383 0 -0.4330711
vt 0.9463258 0.9509124
v 0.0393181 0.228663 -0.0002286172
vn 0.8976383 0 -0.4330711
vt 0.9414781 0.9509124
v 0.024364 0.193413 -0.03128122
vn 0.2204726 0 -0.9763785
vt 0.9463258 0.9431618
v -0.009237627 0.193413 -0.03895052
vn 0.2204726 0 -0.9763785
vt 0.9511736 0.9431618
v -0.009237627 0.228663 -0.03895052
vn 0.2204726 0 -0.9763785
vt 0.9511736 0.9509124
v 0.024364 0.228663 -0.03128122
vn 0.2204726 0 -0.9763785
vt 0.9463258 0.9509124
v -0.009237627 0.193413 -0.03895052
vn -0.6220476 0 -0.779528
vt 0.9172104 0.9431618
v -0.036184 0.193413 -0.01746152
vn -0.6220476 0 -0.779528
vt 0.9220581 0.9431618
v -0.036184 0.228663 -0.01746152
vn -0.6220476 0 -0.779528
vt 0.9220581 0.9509124
v -0.009237627 0.228663 -0.03895052
vn -0.6220476 0 -0.779528
vt 0.9172104 0.9509124
v -0.036184 0.193413 -0.01746152
vn -1.000001 0 0
vt 0.9220581 0.9431618
v -0.036184 0.193413 0.01700428
vn -1.000001 0 0
vt 0.9269059 0.9431618
v -0.036184 0.228663 0.01700428
vn -1.000001 0 0
vt 0.9269059 0.9509124
v -0.036184 0.228663 -0.01746152
vn -1.000001 0 0
vt 0.9220581 0.9509124
v -0.036184 0.193413 0.01700428
vn -0.6220476 0 0.779528
vt 0.9269059 0.9431618
v -0.009237627 0.193413 0.03849328
vn -0.6220476 0 0.779528
vt 0.9317536 0.9431618
v -0.009237627 0.228663 0.03849328
vn -0.6220476 0 0.779528
vt 0.9317536 0.9509124
v -0.036184 0.228663 0.01700428
vn -0.6220476 0 0.779528
vt 0.9269059 0.9509124
v -0.009237627 0.193413 0.03849328
vn 0.2204726 0 0.9763785
vt 0.9317536 0.9431618
v 0.024364 0.193413 0.03082398
vn 0.2204726 0 0.9763785
vt 0.9366304 0.9431618
v 0.024364 0.228663 0.03082398
vn 0.2204726 0 0.9763785
vt 0.9366304 0.9509124
v -0.009237627 0.228663 0.03849328
vn 0.2204726 0 0.9763785
vt 0.9317536 0.9509124
v 0.024364 0.193413 0.03082398
vn 0.8976383 0 0.4330711
vt 0.9366304 0.9431618
v 0.0393181 0.193413 -0.0002286161
vn 0.8976383 0 0.4330711
vt 0.9414781 0.9431618
v 0.0393181 0.228663 -0.0002286172
vn 0.8976383 0 0.4330711
vt 0.9414781 0.9509124
v 0.024364 0.228663 0.03082398
vn 0.8976383 0 0.4330711
vt 0.9366304 0.9509124
v -0.008175818 0 0.03384118
vn 0 -1.000001 0
vt 0.810502 0.7977295
v -0.0318849 0 0.01493388
vn 0 -1.000001 0
vt 0.8072508 0.7877147
v -0.0318849 0 -0.01539112
vn 0 -1.000001 0
vt 0.8020257 0.7877147
v -0.008175818 0 -0.03429842
vn 0 -1.000001 0
vt 0.7987745 0.7977295
v 0.0213889 0 -0.02755052
vn 0 -1.000001 0
vt 0.7999356 0.8102407
v 0.0345464 0 -0.000228617
vn 0 -1.000001 0
vt 0.8046382 0.8157852
v 0.0213889 0 0.02709328
vn 0 -1.000001 0
vt 0.8093408 0.8102407
v 0.024364 0.228663 -0.03128122
vn 0 1.000001 0
vt 0.9197068 0.9450777
v -0.009237627 0.228663 -0.03895052
vn 0 1.000001 0
vt 0.9164266 0.9319859
v -0.036184 0.228663 -0.01746152
vn 0 1.000001 0
vt 0.9255996 0.9214776
v -0.036184 0.228663 0.01700428
vn 0 1.000001 0
vt 0.940346 0.9214776
v -0.009237627 0.228663 0.03849328
vn 0 1.000001 0
vt 0.949548 0.9319859
v 0.024364 0.228663 0.03082398
vn 0 1.000001 0
vt 0.9462678 0.9450777
v 0.0393181 0.228663 -0.0002286172
vn 0 1.000001 0
vt 0.9329728 0.9509124
v 0.024364 0.193413 -0.03128122
vn 0.00787402 -1.000001 -0.00787402
vt 0.8093699 0.808412
v 0.0393181 0.193413 -0.0002286161
vn 0.01574804 -1.000001 0
vt 0.8076282 0.808412
v 0.0345464 0.193347 -0.0002286148
vn 0.01574804 -1.000001 0
vt 0.8076282 0.8047253
v 0.0213889 0.193347 -0.02755052
vn 0.00787402 -1.000001 -0.01574804
vt 0.8093699 0.8047253
v -0.009237627 0.193413 -0.03895052
vn 0 -1.000001 -0.01574804
vt 0.8110825 0.808412
v -0.008175818 0.193347 -0.03429842
vn -0.00787402 -1.000001 -0.01574804
vt 0.8110825 0.8047253
v -0.036184 0.193413 -0.01746152
vn -0.00787402 -1.000001 -0.00787402
vt 0.8007774 0.808412
v -0.009237627 0.193413 -0.03895052
vn 0 -1.000001 -0.01574804
vt 0.7990648 0.808412
v -0.008175818 0.193347 -0.03429842
vn -0.00787402 -1.000001 -0.01574804
vt 0.7990648 0.8047253
v -0.0318849 0.193347 -0.01539112
vn -0.01574804 -1.000001 0
vt 0.8007774 0.8047253
v -0.036184 0.193413 0.01700428
vn -0.01574804 -1.000001 0.00787402
vt 0.8024901 0.808412
v -0.0318849 0.193347 0.01493388
vn -0.00787402 -1.000001 0.00787402
vt 0.8024901 0.8047253
v -0.009237627 0.193413 0.03849328
vn -0.00787402 -1.000001 0.01574804
vt 0.8042028 0.808412
v -0.008175818 0.193347 0.03384118
vn 0 -1.000001 0.01574804
vt 0.8042028 0.8047253
v 0.024364 0.193413 0.03082398
vn 0.00787402 -1.000001 0.01574804
vt 0.8059155 0.808412
v 0.0213889 0.193347 0.02709328
vn 0.00787402 -1.000001 0.00787402
vt 0.8059155 0.8047253

f 1/1/1 2/2/2 3/3/3
f 3/3/3 4/4/4 1/1/1
f 5/5/5 6/6/6 7/7/7
f 7/7/7 8/8/8 5/5/5
f 9/9/9 10/10/10 11/11/11
f 11/11/11 12/12/12 9/9/9
f 13/13/13 14/14/14 15/15/15
f 15/15/15 16/16/16 13/13/13
f 17/17/17 18/18/18 19/19/19
f 19/19/19 20/20/20 17/17/17
f 21/21/21 22/22/22 23/23/23
f 23/23/23 24/24/24 21/21/21
f 25/25/25 26/26/26 27/27/27
f 27/27/27 28/28/28 25/25/25
f 29/29/29 30/30/30 31/31/31
f 31/31/31 32/32/32 29/29/29
f 33/33/33 34/34/34 35/35/35
f 35/35/35 36/36/36 33/33/33
f 37/37/37 38/38/38 39/39/39
f 39/39/39 40/40/40 37/37/37
f 41/41/41 42/42/42 43/43/43
f 43/43/43 44/44/44 41/41/41
f 45/45/45 46/46/46 47/47/47
f 47/47/47 48/48/48 45/45/45
f 49/49/49 50/50/50 51/51/51
f 51/51/51 52/52/52 49/49/49
f 53/53/53 54/54/54 55/55/55
f 55/55/55 56/56/56 53/53/53
f 57/57/57 58/58/58 59/59/59
f 59/59/59 60/60/60 57/57/57
f 61/61/61 62/62/62 63/63/63
f 63/63/63 64/64/64 61/61/61
f 65/65/65 66/66/66 67/67/67
f 67/67/67 68/68/68 65/65/65
f 69/69/69 70/70/70 71/71/71
f 71/71/71 72/72/72 69/69/69
f 73/73/73 74/74/74 75/75/75
f 75/75/75 76/76/76 73/73/73
f 77/77/77 78/78/78 79/79/79
f 79/79/79 80/80/80 77/77/77
f 81/81/81 82/82/82 83/83/83
f 83/83/83 84/84/84 81/81/81
f 85/85/85 86/86/86 87/87/87
f 87/87/87 88/88/88 85/85/85
f 89/89/89 90/90/90 91/91/91
f 91/91/91 92/92/92 89/89/89
f 93/93/93 94/94/94 95/95/95
f 95/95/95 96/96/96 93/93/93
f 97/97/97 98/98/98 99/99/99
f 99/99/99 100/100/100 97/97/97
f 101/101/101 102/102/102 103/103/103
f 103/103/103 104/104/104 101/101/101
f 105/105/105 106/106/106 107/107/107
f 107/107/107 108/108/108 105/105/105
f 109/109/109 110/110/110 111/111/111
f 111/111/111 112/112/112 109/109/109
f 113/113/113 114/114/114 115/115/115
f 115/115/115 116/116/116 117/117/117
f 115/115/115 117/117/117 118/118/118
f 113/113/113 115/115/115 118/118/118
f 119/119/119 113/113/113 118/118/118
f 120/120/120 121/121/121 122/122/122
f 122/122/122 123/123/123 124/124/124
f 122/122/122 124/124/124 125/125/125
f 120/120/120 122/122/122 125/125/125
f 126/126/126 120/120/120 125/125/125
f 127/127/127 128/128/128 129/129/129
f 129/129/129 130/130/130 127/127/127
f 131/131/131 127/127/127 130/130/130
f 130/130/130 132/132/132 131/131/131
f 133/133/133 134/134/134 135/135/135
f 135/135/135 136/136/136 133/133/133
f 137/137/137 133/133/133 136/136/136
f 136/136/136 138/138/138 137/137/137
f 139/139/139 137/137/137 138/138/138
f 138/138/138 140/140/140 139/139/139
f 141/141/141 139/139/139 140/140/140
f 140/140/140 142/142/142 141/141/141
f 128/128/128 141/141/141 142/142/142
f 142/142/142 129/129/129 128/128/128

