g Cylinder001

usemtl colours.png

v 0.06660932 0 4.94942E-05
vn 0.968504 0 -0.2598425
vt 0.9470394 0.9432531
v 0.05745914 0 -0.03409935
vn 0.968504 0 -0.2598425
vt 0.9497396 0.9432531
v 0.05745914 0.163856 -0.03409935
vn 0.968504 0 -0.2598425
vt 0.9497396 0.9617442
v 0.06660932 0.163856 4.94942E-05
vn 0.968504 0 -0.2598425
vt 0.9470394 0.9617442
v 0.05745914 0 -0.03409935
vn 0.7086614 0 -0.7086614
vt 0.9497396 0.9432531
v 0.03246047 0 -0.05909801
vn 0.7086614 0 -0.7086614
vt 0.95244 0.9432531
v 0.03246047 0.163856 -0.05909801
vn 0.7086614 0 -0.7086614
vt 0.95244 0.9617442
v 0.05745914 0.163856 -0.03409935
vn 0.7086614 0 -0.7086614
vt 0.9497396 0.9617442
v 0.03246047 0 -0.05909801
vn 0.2598425 0 -0.968504
vt 0.95244 0.9432531
v -0.001688373 0 -0.06824819
vn 0.2598425 0 -0.968504
vt 0.9551109 0.9432531
v -0.001688373 0.163856 -0.06824819
vn 0.2598425 0 -0.968504
vt 0.9551109 0.9617442
v 0.03246047 0.163856 -0.05909801
vn 0.2598425 0 -0.968504
vt 0.95244 0.9617442
v -0.001688373 0 -0.06824819
vn -0.2598425 0 -0.968504
vt 0.9228248 0.9432531
v -0.03583721 0 -0.05909801
vn -0.2598425 0 -0.968504
vt 0.9254957 0.9432531
v -0.03583721 0.163856 -0.05909801
vn -0.2598425 0 -0.968504
vt 0.9254957 0.9617442
v -0.001688373 0.163856 -0.06824819
vn -0.2598425 0 -0.968504
vt 0.9228248 0.9617442
v -0.03583721 0 -0.05909801
vn -0.7086614 0 -0.7086614
vt 0.9254957 0.9432531
v -0.06083588 0 -0.03409935
vn -0.7086614 0 -0.7086614
vt 0.928196 0.9432531
v -0.06083588 0.163856 -0.03409935
vn -0.7086614 0 -0.7086614
vt 0.928196 0.9617442
v -0.03583721 0.163856 -0.05909801
vn -0.7086614 0 -0.7086614
vt 0.9254957 0.9617442
v -0.06083588 0 -0.03409935
vn -0.968504 0 -0.2598425
vt 0.928196 0.9432531
v -0.06998605 0 4.948389E-05
vn -0.968504 0 -0.2598425
vt 0.9308963 0.9432531
v -0.06998605 0.163856 4.948389E-05
vn -0.968504 0 -0.2598425
vt 0.9308963 0.9617442
v -0.06083588 0.163856 -0.03409935
vn -0.968504 0 -0.2598425
vt 0.928196 0.9617442
v -0.06998605 0 4.948389E-05
vn -0.968504 0 0.2598425
vt 0.9308963 0.9432531
v -0.06083588 0 0.03419834
vn -0.968504 0 0.2598425
vt 0.9335673 0.9432531
v -0.06083588 0.163856 0.03419834
vn -0.968504 0 0.2598425
vt 0.9335673 0.9617442
v -0.06998605 0.163856 4.948389E-05
vn -0.968504 0 0.2598425
vt 0.9308963 0.9617442
v -0.06083588 0 0.03419834
vn -0.7086614 0 0.7086614
vt 0.9335673 0.9432531
v -0.03583721 0 0.059197
vn -0.7086614 0 0.7086614
vt 0.9362676 0.9432531
v -0.03583721 0.163856 0.059197
vn -0.7086614 0 0.7086614
vt 0.9362676 0.9617442
v -0.06083588 0.163856 0.03419834
vn -0.7086614 0 0.7086614
vt 0.9335673 0.9617442
v -0.03583721 0 0.059197
vn -0.2598425 0 0.968504
vt 0.9362676 0.9432531
v -0.001688402 0 0.06834718
vn -0.2598425 0 0.968504
vt 0.9389678 0.9432531
v -0.001688402 0.163856 0.06834718
vn -0.2598425 0 0.968504
vt 0.9389678 0.9617442
v -0.03583721 0.163856 0.059197
vn -0.2598425 0 0.968504
vt 0.9362676 0.9617442
v -0.001688402 0 0.06834718
vn 0.2598425 0 0.968504
vt 0.9389678 0.9432531
v 0.03246047 0 0.059197
vn 0.2598425 0 0.968504
vt 0.9416682 0.9432531
v 0.03246047 0.163856 0.059197
vn 0.2598425 0 0.968504
vt 0.9416682 0.9617442
v -0.001688402 0.163856 0.06834718
vn 0.2598425 0 0.968504
vt 0.9389678 0.9617442
v 0.03246047 0 0.059197
vn 0.7086614 0 0.7086614
vt 0.9416682 0.9432531
v 0.05745914 0 0.03419834
vn 0.7086614 0 0.7086614
vt 0.9443391 0.9432531
v 0.05745914 0.163856 0.03419834
vn 0.7086614 0 0.7086614
vt 0.9443391 0.9617442
v 0.03246047 0.163856 0.059197
vn 0.7086614 0 0.7086614
vt 0.9416682 0.9617442
v 0.05745914 0 0.03419834
vn 0.968504 0 0.2598425
vt 0.9443391 0.9432531
v 0.06660932 0 4.94942E-05
vn 0.968504 0 0.2598425
vt 0.9470394 0.9432531
v 0.06660932 0.163856 4.94942E-05
vn 0.968504 0 0.2598425
vt 0.9470394 0.9617442
v 0.05745914 0.163856 0.03419834
vn 0.968504 0 0.2598425
vt 0.9443391 0.9617442
v 0.05745914 0.163856 -0.03409935
vn 0 1 0
vt 0.9205354 0.9357392
v 0.03246047 0.163856 -0.05909801
vn 0 1 0
vt 0.9146359 0.9323639
v -0.001688373 0.163856 -0.06824819
vn 0 1 0
vt 0.9124639 0.9277264
v -0.03583721 0.163856 -0.05909801
vn 0 1 0
vt 0.9146359 0.9231183
v -0.06083588 0.163856 -0.03409935
vn 0 1 0
vt 0.9205354 0.9197429
v -0.06998605 0.163856 4.948389E-05
vn 0 1 0
vt 0.9286363 0.9184809
v -0.06083588 0.163856 0.03419834
vn 0 1 0
vt 0.9367078 0.9197429
v -0.03583721 0.163856 0.059197
vn 0 1 0
vt 0.9426073 0.9231183
v -0.001688402 0.163856 0.06834718
vn 0 1 0
vt 0.9447793 0.9277264
v 0.03246047 0.163856 0.059197
vn 0 1 0
vt 0.9426073 0.9323639
v 0.05745914 0.163856 0.03419834
vn 0 1 0
vt 0.9367078 0.9357392
v 0.06660932 0.163856 4.94942E-05
vn 0 1 0
vt 0.9286363 0.936972

f 1/1/1 2/2/2 3/3/3
f 3/3/3 4/4/4 1/1/1
f 5/5/5 6/6/6 7/7/7
f 7/7/7 8/8/8 5/5/5
f 9/9/9 10/10/10 11/11/11
f 11/11/11 12/12/12 9/9/9
f 13/13/13 14/14/14 15/15/15
f 15/15/15 16/16/16 13/13/13
f 17/17/17 18/18/18 19/19/19
f 19/19/19 20/20/20 17/17/17
f 21/21/21 22/22/22 23/23/23
f 23/23/23 24/24/24 21/21/21
f 25/25/25 26/26/26 27/27/27
f 27/27/27 28/28/28 25/25/25
f 29/29/29 30/30/30 31/31/31
f 31/31/31 32/32/32 29/29/29
f 33/33/33 34/34/34 35/35/35
f 35/35/35 36/36/36 33/33/33
f 37/37/37 38/38/38 39/39/39
f 39/39/39 40/40/40 37/37/37
f 41/41/41 42/42/42 43/43/43
f 43/43/43 44/44/44 41/41/41
f 45/45/45 46/46/46 47/47/47
f 47/47/47 48/48/48 45/45/45
f 49/49/49 50/50/50 51/51/51
f 51/51/51 52/52/52 53/53/53
f 53/53/53 54/54/54 55/55/55
f 51/51/51 53/53/53 55/55/55
f 55/55/55 56/56/56 57/57/57
f 57/57/57 58/58/58 59/59/59
f 55/55/55 57/57/57 59/59/59
f 51/51/51 55/55/55 59/59/59
f 49/49/49 51/51/51 59/59/59
f 60/60/60 49/49/49 59/59/59

