g matches

usemtl colours.png

v -0.2021737 0 -0.0526882
vn 0 -1 0
vt 0.7900362 0.9465882
v 0.2021737 0 -0.0526882
vn 0 -1 0
vt 0.7900362 0.9108191
v 0.2021737 0 0.0526882
vn 0 -1 0
vt 0.8292688 0.9108191
v -0.2021737 0 0.0526882
vn 0 -1 0
vt 0.8292688 0.9465882
v -0.2021737 0.03517145 -0.0526882
vn 0 1 0
vt 0.8292688 0.9465882
v -0.2021737 0.03517145 0.0526882
vn 0 1 0
vt 0.7900362 0.9465882
v 0.2021737 0.03517145 0.0526882
vn 0 1 0
vt 0.7900362 0.9108191
v 0.2021737 0.03517145 -0.0526882
vn 0 1 0
vt 0.8292688 0.9108191
v 0.2021737 0.03517145 -0.0526882
vn 1 0 0
vt 0.2088525 0.9536606
v 0.2021737 0.03517145 0.0526882
vn 1 0 0
vt 0.1696199 0.9536606
v 0.2021737 0 0.0526882
vn 1 0 0
vt 0.1696199 0.9178914
v 0.2021737 0 -0.0526882
vn 1 0 0
vt 0.2088525 0.9178914
v -0.2021737 0.03517145 -0.0526882
vn 0 0 -1
vt 0.210948 0.8146002
v 0.2021737 0.03517145 -0.0526882
vn 0 0 -1
vt 0.1717154 0.8146002
v 0.2021737 0 -0.0526882
vn 0 0 -1
vt 0.1717154 0.7788311
v -0.2021737 0 -0.0526882
vn 0 0 -1
vt 0.210948 0.7788311
v -0.2021737 0.03517145 0.0526882
vn -1 0 0
vt 0.2088525 0.9536606
v -0.2021737 0.03517145 -0.0526882
vn -1 0 0
vt 0.1696199 0.9536606
v -0.2021737 0 -0.0526882
vn -1 0 0
vt 0.1696199 0.9178914
v -0.2021737 0 0.0526882
vn -1 0 0
vt 0.2088525 0.9178914
v 0.2021737 0.03517145 0.0526882
vn 0 0 1
vt 0.210948 0.8146002
v -0.2021737 0.03517145 0.0526882
vn 0 0 1
vt 0.1717154 0.8146002
v -0.2021737 0 0.0526882
vn 0 0 1
vt 0.1717154 0.7788311
v 0.2021737 0 0.0526882
vn 0 0 1
vt 0.210948 0.7788311

f 1/1/1 2/2/2 3/3/3
f 3/3/3 4/4/4 1/1/1
f 5/5/5 6/6/6 7/7/7
f 7/7/7 8/8/8 5/5/5
f 9/9/9 10/10/10 11/11/11
f 11/11/11 12/12/12 9/9/9
f 13/13/13 14/14/14 15/15/15
f 15/15/15 16/16/16 13/13/13
f 17/17/17 18/18/18 19/19/19
f 19/19/19 20/20/20 17/17/17
f 21/21/21 22/22/22 23/23/23
f 23/23/23 24/24/24 21/21/21

