g matches

usemtl colours.png

v -0.0376182 0 0.0526882
vn 0 -1.000001 0
vt 0.9724131 0.949145
v -0.0376182 0 -0.0526882
vn 0 -1.000001 0
vt 0.9331872 0.949145
v 0.0858622 0 -0.0526882
vn 0 -1.000001 0
vt 0.9331872 0.9271845
v 0.0858622 0 0.0526882
vn 0 -1.000001 0
vt 0.9724131 0.9271845
v 0.0858622 0.0537246 -0.0526882
vn 0 1.000001 0
vt 0.9724131 0.9271845
v -0.0376182 0.0537246 -0.0526882
vn 0 1.000001 0
vt 0.9724131 0.949145
v -0.0376182 0.0537246 0.0526882
vn 0 1.000001 0
vt 0.9331872 0.949145
v 0.0858622 0.0537246 0.0526882
vn 0 1.000001 0
vt 0.9331872 0.9271845
v 0.0858622 0.0537246 -0.0526882
vn 1.000001 0 0
vt 0.9511657 0.9557124
v 0.0858622 0.0537246 0.0526882
vn 1.000001 0 0
vt 0.9119697 0.9557124
v 0.0858622 0 0.0526882
vn 1.000001 0 0
vt 0.9119697 0.9199337
v 0.0858622 0 -0.0526882
vn 1.000001 0 0
vt 0.9511657 0.9199337
v -0.0376182 0 -0.0526882
vn 0 0 -1.000001
vt 0.9541077 0.9240346
v -0.0376182 0.0537246 -0.0526882
vn 0 0 -1.000001
vt 0.9541077 0.9597836
v 0.0858622 0.0537246 -0.0526882
vn 0 0 -1.000001
vt 0.9344948 0.9638844
v 0.0858622 0 -0.0526882
vn 0 0 -1.000001
vt 0.9344948 0.9281058
v -0.0858622 0.0537246 0.0526882
vn -1.000001 0 0
vt 0.8121222 0.8289121
v -0.0858622 0.0537246 -0.0526882
vn -1.000001 0 0
vt 0.7728965 0.8289121
v -0.0858622 0 -0.0526882
vn -1.000001 0 0
vt 0.7728965 0.7931631
v -0.0858622 0 0.0526882
vn -1.000001 0 0
vt 0.8121222 0.7931631
v -0.0376182 0 0.0526882
vn 0 0 1.000001
vt 0.8150642 0.8013352
v -0.0376182 0.0537246 0.0526882
vn 0 0 1.000001
vt 0.8150642 0.8370841
v -0.0858622 0.0537246 0.0526882
vn 0 0 1.000001
vt 0.7954513 0.8370841
v -0.0858622 0 0.0526882
vn 0 0 1.000001
vt 0.7954513 0.8013352
v -0.0858622 0 0.0526882
vn 0 -1.000001 0
vt 0.8333398 0.840234
v -0.0858622 0 -0.0526882
vn 0 -1.000001 0
vt 0.7941437 0.840234
v -0.0376182 0 -0.0526882
vn 0 -1.000001 0
vt 0.7941437 0.8223745
v -0.0376182 0 0.0526882
vn 0 -1.000001 0
vt 0.8333398 0.8223745
v -0.0858622 0.0537246 -0.0526882
vn 0 1.000001 0
vt 0.8333398 0.840234
v -0.0858622 0.0537246 0.0526882
vn 0 1.000001 0
vt 0.7941437 0.840234
v -0.0376182 0.0537246 0.0526882
vn 0 1.000001 0
vt 0.7941437 0.8223745
v -0.0376182 0.0537246 -0.0526882
vn 0 1.000001 0
vt 0.8333398 0.8223745
v -0.0858622 0 -0.0526882
vn 0 0 -1.000001
vt 0.9737206 0.9240346
v -0.0858622 0.0537246 -0.0526882
vn 0 0 -1.000001
vt 0.9737206 0.9597836
v 0.0858622 0 0.0526882
vn 0 0 1.000001
vt 0.9737206 0.9240346
v 0.0858622 0.0537246 0.0526882
vn 0 0 1.000001
vt 0.9737206 0.9597836
v -0.0376182 0.0537246 0.0526882
vn 0 0 1.000001
vt 0.9541077 0.9638844
v -0.0376182 0 0.0526882
vn 0 0 1.000001
vt 0.9541077 0.9281058

f 1/1/1 2/2/2 3/3/3
f 3/3/3 4/4/4 1/1/1
f 5/5/5 6/6/6 7/7/7
f 7/7/7 8/8/8 5/5/5
f 9/9/9 10/10/10 11/11/11
f 11/11/11 12/12/12 9/9/9
f 13/13/13 14/14/14 15/15/15
f 15/15/15 16/16/16 13/13/13
f 17/17/17 18/18/18 19/19/19
f 19/19/19 20/20/20 17/17/17
f 21/21/21 22/22/22 23/23/23
f 23/23/23 24/24/24 21/21/21
f 25/25/25 26/26/26 27/27/27
f 27/27/27 28/28/28 25/25/25
f 29/29/29 30/30/30 31/31/31
f 31/31/31 32/32/32 29/29/29
f 33/33/33 34/34/34 14/14/14
f 14/14/14 13/13/13 33/33/33
f 35/35/35 36/36/36 37/37/37
f 37/37/37 38/38/38 35/35/35

