g Cylinder001

usemtl colours.png

v 0.2400825 0.0149536 -0.06481757
vn 0.8661417 0 -0.503937
vt 0.1881763 0.7984831
v 0.1759805 0.0149536 -0.1758465
vn 0.8661417 0 -0.503937
vt 0.192521 0.7984831
v 0.1759805 0.0477591 -0.1758465
vn 0.8661417 0 -0.503937
vt 0.192521 0.8218182
v 0.2400825 0.0477591 -0.06481757
vn 0.8661417 0 -0.503937
vt 0.1881763 0.8218182
v 0.0661332 0.0149536 -0.2392665
vn 0 0 -1
vt 0.192521 0.7984831
v -0.0620722 0.0149536 -0.2392665
vn 0 0 -1
vt 0.1968658 0.7984831
v -0.0620722 0.0477591 -0.2392665
vn 0 0 -1
vt 0.1968658 0.8218182
v 0.0661332 0.0477591 -0.2392665
vn 0 0 -1
vt 0.192521 0.8218182
v -0.1719195 0.0149536 -0.1758465
vn -0.8661417 0 -0.503937
vt 0.1707973 0.7984831
v -0.2360215 0.0149536 -0.06481757
vn -0.8661417 0 -0.503937
vt 0.175142 0.7984831
v -0.2360215 0.0477591 -0.06481757
vn -0.8661417 0 -0.503937
vt 0.175142 0.8218182
v -0.1719195 0.0477591 -0.1758465
vn -0.8661417 0 -0.503937
vt 0.1707973 0.8218182
v -0.2360215 0.0149536 0.06202273
vn -0.8661417 0 0.503937
vt 0.175142 0.7984831
v -0.1719195 0.0149536 0.1730515
vn -0.8661417 0 0.503937
vt 0.1794868 0.7984831
v -0.1719195 0.0477591 0.1730515
vn -0.8661417 0 0.503937
vt 0.1794868 0.8218182
v -0.2360215 0.0477591 0.06202273
vn -0.8661417 0 0.503937
vt 0.175142 0.8218182
v -0.0620722 0.0149536 0.2364715
vn 0 0 1
vt 0.1794868 0.7984831
v 0.0661332 0.0149536 0.2364715
vn 0 0 1
vt 0.1838315 0.7984831
v 0.0661332 0.0477591 0.2364715
vn 0 0 1
vt 0.1838315 0.8218182
v -0.0620722 0.0477591 0.2364715
vn 0 0 1
vt 0.1794868 0.8218182
v 0.1759805 0.0149536 0.1730515
vn 0.8661417 0 0.503937
vt 0.1838315 0.7984831
v 0.2400825 0.0149536 0.06202273
vn 0.8661417 0 0.503937
vt 0.1881763 0.7984831
v 0.2400825 0.0477591 0.06202273
vn 0.8661417 0 0.503937
vt 0.1881763 0.8218182
v 0.1759805 0.0477591 0.1730515
vn 0.8661417 0 0.503937
vt 0.1838315 0.8218182
v 0.1601435 0 -0.00139747
vn 0.8661417 0 -0.503937
vt 0.1881763 0.7984831
v 0.0810868 0 -0.1383275
vn 0.8661417 0 -0.503937
vt 0.192521 0.7984831
v 0.0885637 0.00200379 -0.1253765
vn 0.8661417 0 -0.503937
vt 0.192521 0.7984831
v 0.1526665 0.00200379 -0.01434767
vn 0.8661417 0 -0.503937
vt 0.1881763 0.7984831
v 0.0810868 0.0627128 -0.1383275
vn 0.8661417 0 -0.503937
vt 0.192521 0.8218182
v 0.0885637 0.0600749 -0.1253765
vn 0.8661417 0 -0.503937
vt 0.192521 0.8218182
v 0.1601435 0.0627128 -0.00139747
vn 0.8661417 0 -0.503937
vt 0.1881763 0.8218182
v 0.1526665 0.0600749 -0.01434767
vn 0.8661417 0 -0.503937
vt 0.1881763 0.8218182
v 0.0810868 0 -0.1383275
vn 0 0 -1
vt 0.192521 0.7984831
v -0.0770258 0 -0.1383275
vn 0 0 -1
vt 0.1968658 0.7984831
v -0.0620722 0.00200379 -0.1383275
vn 0 0 -1
vt 0.1968658 0.7984831
v 0.0661332 0.00200379 -0.1383275
vn 0 0 -1
vt 0.192521 0.7984831
v -0.0770258 0.0627128 -0.1383275
vn 0 0 -1
vt 0.1968658 0.8218182
v -0.0620722 0.0600749 -0.1383275
vn 0 0 -1
vt 0.1968658 0.8218182
v 0.0810868 0.0627128 -0.1383275
vn 0 0 -1
vt 0.192521 0.8218182
v 0.0661332 0.0600749 -0.1383275
vn 0 0 -1
vt 0.192521 0.8218182
v -0.0770258 0 -0.1383275
vn -0.8661417 0 -0.503937
vt 0.1707973 0.7984831
v -0.1560825 0 -0.001397456
vn -0.8661417 0 -0.503937
vt 0.175142 0.7984831
v -0.1486055 0.00200379 -0.01434767
vn -0.8661417 0 -0.503937
vt 0.175142 0.7984831
v -0.0845027 0.00200379 -0.1253765
vn -0.8661417 0 -0.503937
vt 0.1707973 0.7984831
v -0.1560825 0.0627128 -0.001397456
vn -0.8661417 0 -0.503937
vt 0.175142 0.8218182
v -0.1486055 0.0600749 -0.01434767
vn -0.8661417 0 -0.503937
vt 0.175142 0.8218182
v -0.0770258 0.0627128 -0.1383275
vn -0.8661417 0 -0.503937
vt 0.1707973 0.8218182
v -0.0845027 0.0600749 -0.1253765
vn -0.8661417 0 -0.503937
vt 0.1707973 0.8218182
v -0.1560825 0 -0.001397456
vn -0.8661417 0 0.503937
vt 0.175142 0.7984831
v -0.0770258 0 0.1355325
vn -0.8661417 0 0.503937
vt 0.1794868 0.7984831
v -0.0845026 0.00200379 0.1225815
vn -0.8661417 0 0.503937
vt 0.1794868 0.7984831
v -0.1486055 0.00200379 0.01155273
vn -0.8661417 0 0.503937
vt 0.175142 0.7984831
v -0.0770258 0.0627128 0.1355325
vn -0.8661417 0 0.503937
vt 0.1794868 0.8218182
v -0.0845026 0.0600749 0.1225815
vn -0.8661417 0 0.503937
vt 0.1794868 0.8218182
v -0.1560825 0.0627128 -0.001397456
vn -0.8661417 0 0.503937
vt 0.175142 0.8218182
v -0.1486055 0.0600749 0.01155273
vn -0.8661417 0 0.503937
vt 0.175142 0.8218182
v -0.0770258 0 0.1355325
vn 0 0 1
vt 0.1794868 0.7984831
v 0.0810868 0 0.1355325
vn 0 0 1
vt 0.1838315 0.7984831
v 0.0661332 0.00200379 0.1355325
vn 0 0 1
vt 0.1838315 0.7984831
v -0.0620722 0.00200379 0.1355325
vn 0 0 1
vt 0.1794868 0.7984831
v 0.0810868 0.0627128 0.1355325
vn 0 0 1
vt 0.1838315 0.8218182
v 0.0661332 0.0600749 0.1355325
vn 0 0 1
vt 0.1838315 0.8218182
v -0.0770258 0.0627128 0.1355325
vn 0 0 1
vt 0.1794868 0.8218182
v -0.0620722 0.0600749 0.1355325
vn 0 0 1
vt 0.1794868 0.8218182
v 0.0810868 0 0.1355325
vn 0.8661417 0 0.503937
vt 0.1838315 0.7984831
v 0.1601435 0 -0.00139747
vn 0.8661417 0 0.503937
vt 0.1881763 0.7984831
v 0.1526665 0.00200379 0.01155273
vn 0.8661417 0 0.503937
vt 0.1881763 0.7984831
v 0.0885636 0.00200379 0.1225815
vn 0.8661417 0 0.503937
vt 0.1838315 0.7984831
v 0.1601435 0.0627128 -0.00139747
vn 0.8661417 0 0.503937
vt 0.1881763 0.8218182
v 0.1526665 0.0600749 0.01155273
vn 0.8661417 0 0.503937
vt 0.1881763 0.8218182
v 0.0810868 0.0627128 0.1355325
vn 0.8661417 0 0.503937
vt 0.1838315 0.8218182
v 0.0885636 0.0600749 0.1225815
vn 0.8661417 0 0.503937
vt 0.1838315 0.8218182
v 0.1526665 0.00200379 -0.01434767
vn 0.1102362 -0.992126 -0.06299213
vt 0.1881763 0.7984831
v 0.0885637 0.00200379 -0.1253765
vn 0.1102362 -0.992126 -0.06299213
vt 0.192521 0.7984831
v 0.1759805 0.0149536 -0.1758465
vn 0.1102362 -0.992126 -0.06299213
vt 0.192521 0.7984831
v 0.2400825 0.0149536 -0.06481757
vn 0.1102362 -0.992126 -0.06299213
vt 0.1881763 0.7984831
v 0.0885637 0.00200379 -0.1253765
vn -0.503937 0 -0.8661417
vt 0.192521 0.7984831
v 0.0885637 0.0600749 -0.1253765
vn -0.503937 0 -0.8661417
vt 0.192521 0.8218182
v 0.1759805 0.0477591 -0.1758465
vn -0.503937 0 -0.8661417
vt 0.192521 0.8218182
v 0.1759805 0.0149536 -0.1758465
vn -0.503937 0 -0.8661417
vt 0.192521 0.7984831
v 0.0885637 0.0600749 -0.1253765
vn 0.1023622 0.992126 -0.06299213
vt 0.192521 0.8218182
v 0.1526665 0.0600749 -0.01434767
vn 0.1023622 0.992126 -0.06299213
vt 0.1881763 0.8218182
v 0.2400825 0.0477591 -0.06481757
vn 0.1023622 0.992126 -0.06299213
vt 0.1881763 0.8218182
v 0.1759805 0.0477591 -0.1758465
vn 0.1023622 0.992126 -0.06299213
vt 0.192521 0.8218182
v 0.1526665 0.0600749 -0.01434767
vn 0.503937 0 0.8661417
vt 0.1881763 0.8218182
v 0.1526665 0.00200379 -0.01434767
vn 0.503937 0 0.8661417
vt 0.1881763 0.7984831
v 0.2400825 0.0149536 -0.06481757
vn 0.503937 0 0.8661417
vt 0.1881763 0.7984831
v 0.2400825 0.0477591 -0.06481757
vn 0.503937 0 0.8661417
vt 0.1881763 0.8218182
v 0.0661332 0.00200379 -0.1383275
vn 0 -0.992126 -0.1259843
vt 0.192521 0.7984831
v -0.0620722 0.00200379 -0.1383275
vn 0 -0.992126 -0.1259843
vt 0.1968658 0.7984831
v -0.0620722 0.0149536 -0.2392665
vn 0 -0.992126 -0.1259843
vt 0.1968658 0.7984831
v 0.0661332 0.0149536 -0.2392665
vn 0 -0.992126 -0.1259843
vt 0.192521 0.7984831
v -0.0620722 0.00200379 -0.1383275
vn -1 0 0
vt 0.1968658 0.7984831
v -0.0620722 0.0600749 -0.1383275
vn -1 0 0
vt 0.1968658 0.8218182
v -0.0620722 0.0477591 -0.2392665
vn -1 0 0
vt 0.1968658 0.8218182
v -0.0620722 0.0149536 -0.2392665
vn -1 0 0
vt 0.1968658 0.7984831
v -0.0620722 0.0600749 -0.1383275
vn 0 0.992126 -0.1181102
vt 0.1968658 0.8218182
v 0.0661332 0.0600749 -0.1383275
vn 0 0.992126 -0.1181102
vt 0.192521 0.8218182
v 0.0661332 0.0477591 -0.2392665
vn 0 0.992126 -0.1181102
vt 0.192521 0.8218182
v -0.0620722 0.0477591 -0.2392665
vn 0 0.992126 -0.1181102
vt 0.1968658 0.8218182
v 0.0661332 0.0600749 -0.1383275
vn 1 0 0
vt 0.192521 0.8218182
v 0.0661332 0.00200379 -0.1383275
vn 1 0 0
vt 0.192521 0.7984831
v 0.0661332 0.0149536 -0.2392665
vn 1 0 0
vt 0.192521 0.7984831
v 0.0661332 0.0477591 -0.2392665
vn 1 0 0
vt 0.192521 0.8218182
v -0.0845027 0.00200379 -0.1253765
vn -0.1102362 -0.992126 -0.06299213
vt 0.1707973 0.7984831
v -0.1486055 0.00200379 -0.01434767
vn -0.1102362 -0.992126 -0.06299213
vt 0.175142 0.7984831
v -0.2360215 0.0149536 -0.06481757
vn -0.1102362 -0.992126 -0.06299213
vt 0.175142 0.7984831
v -0.1719195 0.0149536 -0.1758465
vn -0.1102362 -0.992126 -0.06299213
vt 0.1707973 0.7984831
v -0.1486055 0.00200379 -0.01434767
vn -0.503937 0 0.8661417
vt 0.175142 0.7984831
v -0.1486055 0.0600749 -0.01434767
vn -0.503937 0 0.8661417
vt 0.175142 0.8218182
v -0.2360215 0.0477591 -0.06481757
vn -0.503937 0 0.8661417
vt 0.175142 0.8218182
v -0.2360215 0.0149536 -0.06481757
vn -0.503937 0 0.8661417
vt 0.175142 0.7984831
v -0.1486055 0.0600749 -0.01434767
vn -0.1023622 0.992126 -0.06299213
vt 0.175142 0.8218182
v -0.0845027 0.0600749 -0.1253765
vn -0.1023622 0.992126 -0.06299213
vt 0.1707973 0.8218182
v -0.1719195 0.0477591 -0.1758465
vn -0.1023622 0.992126 -0.06299213
vt 0.1707973 0.8218182
v -0.2360215 0.0477591 -0.06481757
vn -0.1023622 0.992126 -0.06299213
vt 0.175142 0.8218182
v -0.0845027 0.0600749 -0.1253765
vn 0.503937 0 -0.8661417
vt 0.1707973 0.8218182
v -0.0845027 0.00200379 -0.1253765
vn 0.503937 0 -0.8661417
vt 0.1707973 0.7984831
v -0.1719195 0.0149536 -0.1758465
vn 0.503937 0 -0.8661417
vt 0.1707973 0.7984831
v -0.1719195 0.0477591 -0.1758465
vn 0.503937 0 -0.8661417
vt 0.1707973 0.8218182
v -0.1486055 0.00200379 0.01155273
vn -0.1102362 -0.992126 0.06299213
vt 0.175142 0.7984831
v -0.0845026 0.00200379 0.1225815
vn -0.1102362 -0.992126 0.06299213
vt 0.1794868 0.7984831
v -0.1719195 0.0149536 0.1730515
vn -0.1102362 -0.992126 0.06299213
vt 0.1794868 0.7984831
v -0.2360215 0.0149536 0.06202273
vn -0.1102362 -0.992126 0.06299213
vt 0.175142 0.7984831
v -0.0845026 0.00200379 0.1225815
vn 0.503937 0 0.8661417
vt 0.1794868 0.7984831
v -0.0845026 0.0600749 0.1225815
vn 0.503937 0 0.8661417
vt 0.1794868 0.8218182
v -0.1719195 0.0477591 0.1730515
vn 0.503937 0 0.8661417
vt 0.1794868 0.8218182
v -0.1719195 0.0149536 0.1730515
vn 0.503937 0 0.8661417
vt 0.1794868 0.7984831
v -0.0845026 0.0600749 0.1225815
vn -0.1023622 0.992126 0.06299213
vt 0.1794868 0.8218182
v -0.1486055 0.0600749 0.01155273
vn -0.1023622 0.992126 0.06299213
vt 0.175142 0.8218182
v -0.2360215 0.0477591 0.06202273
vn -0.1023622 0.992126 0.06299213
vt 0.175142 0.8218182
v -0.1719195 0.0477591 0.1730515
vn -0.1023622 0.992126 0.06299213
vt 0.1794868 0.8218182
v -0.1486055 0.0600749 0.01155273
vn -0.503937 0 -0.8661417
vt 0.175142 0.8218182
v -0.1486055 0.00200379 0.01155273
vn -0.503937 0 -0.8661417
vt 0.175142 0.7984831
v -0.2360215 0.0149536 0.06202273
vn -0.503937 0 -0.8661417
vt 0.175142 0.7984831
v -0.2360215 0.0477591 0.06202273
vn -0.503937 0 -0.8661417
vt 0.175142 0.8218182
v -0.0620722 0.00200379 0.1355325
vn 0 -0.992126 0.1259843
vt 0.1794868 0.7984831
v 0.0661332 0.00200379 0.1355325
vn 0 -0.992126 0.1259843
vt 0.1838315 0.7984831
v 0.0661332 0.0149536 0.2364715
vn 0 -0.992126 0.1259843
vt 0.1838315 0.7984831
v -0.0620722 0.0149536 0.2364715
vn 0 -0.992126 0.1259843
vt 0.1794868 0.7984831
v 0.0661332 0.00200379 0.1355325
vn 1 0 0
vt 0.1838315 0.7984831
v 0.0661332 0.0600749 0.1355325
vn 1 0 0
vt 0.1838315 0.8218182
v 0.0661332 0.0477591 0.2364715
vn 1 0 0
vt 0.1838315 0.8218182
v 0.0661332 0.0149536 0.2364715
vn 1 0 0
vt 0.1838315 0.7984831
v 0.0661332 0.0600749 0.1355325
vn 0 0.992126 0.1181102
vt 0.1838315 0.8218182
v -0.0620722 0.0600749 0.1355325
vn 0 0.992126 0.1181102
vt 0.1794868 0.8218182
v -0.0620722 0.0477591 0.2364715
vn 0 0.992126 0.1181102
vt 0.1794868 0.8218182
v 0.0661332 0.0477591 0.2364715
vn 0 0.992126 0.1181102
vt 0.1838315 0.8218182
v -0.0620722 0.0600749 0.1355325
vn -1 0 0
vt 0.1794868 0.8218182
v -0.0620722 0.00200379 0.1355325
vn -1 0 0
vt 0.1794868 0.7984831
v -0.0620722 0.0149536 0.2364715
vn -1 0 0
vt 0.1794868 0.7984831
v -0.0620722 0.0477591 0.2364715
vn -1 0 0
vt 0.1794868 0.8218182
v 0.0885636 0.00200379 0.1225815
vn 0.1102362 -0.992126 0.06299213
vt 0.1838315 0.7984831
v 0.1526665 0.00200379 0.01155273
vn 0.1102362 -0.992126 0.06299213
vt 0.1881763 0.7984831
v 0.2400825 0.0149536 0.06202273
vn 0.1102362 -0.992126 0.06299213
vt 0.1881763 0.7984831
v 0.1759805 0.0149536 0.1730515
vn 0.1102362 -0.992126 0.06299213
vt 0.1838315 0.7984831
v 0.1526665 0.00200379 0.01155273
vn 0.503937 0 -0.8661417
vt 0.1881763 0.7984831
v 0.1526665 0.0600749 0.01155273
vn 0.503937 0 -0.8661417
vt 0.1881763 0.8218182
v 0.2400825 0.0477591 0.06202273
vn 0.503937 0 -0.8661417
vt 0.1881763 0.8218182
v 0.2400825 0.0149536 0.06202273
vn 0.503937 0 -0.8661417
vt 0.1881763 0.7984831
v 0.1526665 0.0600749 0.01155273
vn 0.1023622 0.992126 0.06299213
vt 0.1881763 0.8218182
v 0.0885636 0.0600749 0.1225815
vn 0.1023622 0.992126 0.06299213
vt 0.1838315 0.8218182
v 0.1759805 0.0477591 0.1730515
vn 0.1023622 0.992126 0.06299213
vt 0.1838315 0.8218182
v 0.2400825 0.0477591 0.06202273
vn 0.1023622 0.992126 0.06299213
vt 0.1881763 0.8218182
v 0.0885636 0.0600749 0.1225815
vn -0.503937 0 0.8661417
vt 0.1838315 0.8218182
v 0.0885636 0.00200379 0.1225815
vn -0.503937 0 0.8661417
vt 0.1838315 0.7984831
v 0.1759805 0.0149536 0.1730515
vn -0.503937 0 0.8661417
vt 0.1838315 0.7984831
v 0.1759805 0.0477591 0.1730515
vn -0.503937 0 0.8661417
vt 0.1838315 0.8218182
v 0.0810868 0 0.1355325
vn 0 -1 0
vt 0.1929526 0.8159772
v -0.0770258 0 0.1355325
vn 0 -1 0
vt 0.1929526 0.8043241
v -0.0401896 0 0.07172993
vn 0 -1 0
vt 0.1929526 0.8043241
v 0.0442506 0 0.07172993
vn 0 -1 0
vt 0.1929526 0.8159772
v -0.1560825 0 -0.001397456
vn 0 -1 0
vt 0.1816735 0.7984831
v -0.0824097 0 -0.001397466
vn 0 -1 0
vt 0.1816735 0.7984831
v -0.0770258 0 -0.1383275
vn 0 -1 0
vt 0.1703657 0.8043241
v -0.0401896 0 -0.07452486
vn 0 -1 0
vt 0.1703657 0.8043241
v 0.0810868 0 -0.1383275
vn 0 -1 0
vt 0.1703657 0.8159772
v 0.0442506 0 -0.07452486
vn 0 -1 0
vt 0.1703657 0.8159772
v 0.1601435 0 -0.00139747
vn 0 -1 0
vt 0.1816735 0.8218182
v 0.0864707 0 -0.00139747
vn 0 -1 0
vt 0.1816735 0.8218182
v 0.1601435 0.0627128 -0.00139747
vn 0 1 0
vt 0.1816735 0.8218182
v 0.0810868 0.0627128 -0.1383275
vn 0 1 0
vt 0.1703657 0.8159772
v 0.0442506 0.0627128 -0.07452486
vn 0 1 0
vt 0.1703657 0.8159772
v 0.0864707 0.0627128 -0.00139747
vn 0 1 0
vt 0.1816735 0.8218182
v -0.0770258 0.0627128 -0.1383275
vn 0 1 0
vt 0.1703657 0.8043241
v -0.0401896 0.0627128 -0.07452486
vn 0 1 0
vt 0.1703657 0.8043241
v -0.1560825 0.0627128 -0.001397456
vn 0 1 0
vt 0.1816735 0.7984831
v -0.0824097 0.0627128 -0.001397463
vn 0 1 0
vt 0.1816735 0.7984831
v -0.0770258 0.0627128 0.1355325
vn 0 1 0
vt 0.1929526 0.8043241
v -0.0401896 0.0627128 0.07172993
vn 0 1 0
vt 0.1929526 0.8043241
v 0.0810868 0.0627128 0.1355325
vn 0 1 0
vt 0.1929526 0.8159772
v 0.0442506 0.0627128 0.07172993
vn 0 1 0
vt 0.1929526 0.8159772
v -0.0824097 0.0627128 -0.001397463
vn 0.8661417 0 0.503937
vt 0.1860758 0.9428092
v -0.0824097 0 -0.001397466
vn 0.8661417 0 0.503937
vt 0.1817311 0.9194454
v -0.0401896 0 -0.07452486
vn 0.8661417 0 0.503937
vt 0.1860758 0.9194454
v -0.0401896 0.0627128 -0.07452486
vn 0.8661417 0 0.503937
vt 0.1904206 0.9428092
v -0.0401896 0.0627128 0.07172993
vn 0.8661417 0 -0.503937
vt 0.1904206 0.9194454
v -0.0401896 0 0.07172993
vn 0.8661417 0 -0.503937
vt 0.1773864 0.9428092
v -0.0824097 0 -0.001397466
vn 0.8661417 0 -0.503937
vt 0.1817311 0.9194454
v -0.0824097 0.0627128 -0.001397463
vn 0.8661417 0 -0.503937
vt 0.1860758 0.9428092
v 0.0442506 0.0627128 0.07172993
vn 0 0 -1
vt 0.1947653 0.9194454
v 0.0442506 0 0.07172993
vn 0 0 -1
vt 0.1817311 0.9428092
v -0.0401896 0 0.07172993
vn 0 0 -1
vt 0.1773864 0.9428092
v -0.0401896 0.0627128 0.07172993
vn 0 0 -1
vt 0.1904206 0.9194454
v 0.0864707 0.0627128 -0.00139747
vn -0.8661417 0 -0.503937
vt 0.1860758 0.9194454
v 0.0864707 0 -0.00139747
vn -0.8661417 0 -0.503937
vt 0.1817311 0.9428092
v 0.0442506 0 0.07172993
vn -0.8661417 0 -0.503937
vt 0.1817311 0.9428092
v 0.0442506 0.0627128 0.07172993
vn -0.8661417 0 -0.503937
vt 0.1947653 0.9194454
v 0.0442506 0.0627128 -0.07452486
vn -0.8661417 0 0.503937
vt 0.1904206 0.9194454
v 0.0442506 0 -0.07452486
vn -0.8661417 0 0.503937
vt 0.1860758 0.9428092
v 0.0864707 0 -0.00139747
vn -0.8661417 0 0.503937
vt 0.1817311 0.9428092
v 0.0864707 0.0627128 -0.00139747
vn -0.8661417 0 0.503937
vt 0.1860758 0.9194454
v -0.0401896 0.0627128 -0.07452486
vn 0 0 1
vt 0.1904206 0.9428092
v -0.0401896 0 -0.07452486
vn 0 0 1
vt 0.1860758 0.9194454
v 0.0442506 0 -0.07452486
vn 0 0 1
vt 0.1860758 0.9428092
v 0.0442506 0.0627128 -0.07452486
vn 0 0 1
vt 0.1904206 0.9194454

f 1/1/1 2/2/2 3/3/3
f 3/3/3 4/4/4 1/1/1
f 5/5/5 6/6/6 7/7/7
f 7/7/7 8/8/8 5/5/5
f 9/9/9 10/10/10 11/11/11
f 11/11/11 12/12/12 9/9/9
f 13/13/13 14/14/14 15/15/15
f 15/15/15 16/16/16 13/13/13
f 17/17/17 18/18/18 19/19/19
f 19/19/19 20/20/20 17/17/17
f 21/21/21 22/22/22 23/23/23
f 23/23/23 24/24/24 21/21/21
f 25/25/25 26/26/26 27/27/27
f 27/27/27 28/28/28 25/25/25
f 26/26/26 29/29/29 30/30/30
f 30/30/30 27/27/27 26/26/26
f 29/29/29 31/31/31 32/32/32
f 32/32/32 30/30/30 29/29/29
f 31/31/31 25/25/25 28/28/28
f 28/28/28 32/32/32 31/31/31
f 33/33/33 34/34/34 35/35/35
f 35/35/35 36/36/36 33/33/33
f 34/34/34 37/37/37 38/38/38
f 38/38/38 35/35/35 34/34/34
f 37/37/37 39/39/39 40/40/40
f 40/40/40 38/38/38 37/37/37
f 39/39/39 33/33/33 36/36/36
f 36/36/36 40/40/40 39/39/39
f 41/41/41 42/42/42 43/43/43
f 43/43/43 44/44/44 41/41/41
f 42/42/42 45/45/45 46/46/46
f 46/46/46 43/43/43 42/42/42
f 45/45/45 47/47/47 48/48/48
f 48/48/48 46/46/46 45/45/45
f 47/47/47 41/41/41 44/44/44
f 44/44/44 48/48/48 47/47/47
f 49/49/49 50/50/50 51/51/51
f 51/51/51 52/52/52 49/49/49
f 50/50/50 53/53/53 54/54/54
f 54/54/54 51/51/51 50/50/50
f 53/53/53 55/55/55 56/56/56
f 56/56/56 54/54/54 53/53/53
f 55/55/55 49/49/49 52/52/52
f 52/52/52 56/56/56 55/55/55
f 57/57/57 58/58/58 59/59/59
f 59/59/59 60/60/60 57/57/57
f 58/58/58 61/61/61 62/62/62
f 62/62/62 59/59/59 58/58/58
f 61/61/61 63/63/63 64/64/64
f 64/64/64 62/62/62 61/61/61
f 63/63/63 57/57/57 60/60/60
f 60/60/60 64/64/64 63/63/63
f 65/65/65 66/66/66 67/67/67
f 67/67/67 68/68/68 65/65/65
f 66/66/66 69/69/69 70/70/70
f 70/70/70 67/67/67 66/66/66
f 69/69/69 71/71/71 72/72/72
f 72/72/72 70/70/70 69/69/69
f 71/71/71 65/65/65 68/68/68
f 68/68/68 72/72/72 71/71/71
f 73/73/73 74/74/74 75/75/75
f 75/75/75 76/76/76 73/73/73
f 77/77/77 78/78/78 79/79/79
f 79/79/79 80/80/80 77/77/77
f 81/81/81 82/82/82 83/83/83
f 83/83/83 84/84/84 81/81/81
f 85/85/85 86/86/86 87/87/87
f 87/87/87 88/88/88 85/85/85
f 89/89/89 90/90/90 91/91/91
f 91/91/91 92/92/92 89/89/89
f 93/93/93 94/94/94 95/95/95
f 95/95/95 96/96/96 93/93/93
f 97/97/97 98/98/98 99/99/99
f 99/99/99 100/100/100 97/97/97
f 101/101/101 102/102/102 103/103/103
f 103/103/103 104/104/104 101/101/101
f 105/105/105 106/106/106 107/107/107
f 107/107/107 108/108/108 105/105/105
f 109/109/109 110/110/110 111/111/111
f 111/111/111 112/112/112 109/109/109
f 113/113/113 114/114/114 115/115/115
f 115/115/115 116/116/116 113/113/113
f 117/117/117 118/118/118 119/119/119
f 119/119/119 120/120/120 117/117/117
f 121/121/121 122/122/122 123/123/123
f 123/123/123 124/124/124 121/121/121
f 125/125/125 126/126/126 127/127/127
f 127/127/127 128/128/128 125/125/125
f 129/129/129 130/130/130 131/131/131
f 131/131/131 132/132/132 129/129/129
f 133/133/133 134/134/134 135/135/135
f 135/135/135 136/136/136 133/133/133
f 137/137/137 138/138/138 139/139/139
f 139/139/139 140/140/140 137/137/137
f 141/141/141 142/142/142 143/143/143
f 143/143/143 144/144/144 141/141/141
f 145/145/145 146/146/146 147/147/147
f 147/147/147 148/148/148 145/145/145
f 149/149/149 150/150/150 151/151/151
f 151/151/151 152/152/152 149/149/149
f 153/153/153 154/154/154 155/155/155
f 155/155/155 156/156/156 153/153/153
f 157/157/157 158/158/158 159/159/159
f 159/159/159 160/160/160 157/157/157
f 161/161/161 162/162/162 163/163/163
f 163/163/163 164/164/164 161/161/161
f 165/165/165 166/166/166 167/167/167
f 167/167/167 168/168/168 165/165/165
f 169/169/169 170/170/170 171/171/171
f 171/171/171 172/172/172 169/169/169
f 170/170/170 173/173/173 174/174/174
f 174/174/174 171/171/171 170/170/170
f 173/173/173 175/175/175 176/176/176
f 176/176/176 174/174/174 173/173/173
f 175/175/175 177/177/177 178/178/178
f 178/178/178 176/176/176 175/175/175
f 177/177/177 179/179/179 180/180/180
f 180/180/180 178/178/178 177/177/177
f 179/179/179 169/169/169 172/172/172
f 172/172/172 180/180/180 179/179/179
f 181/181/181 182/182/182 183/183/183
f 183/183/183 184/184/184 181/181/181
f 182/182/182 185/185/185 186/186/186
f 186/186/186 183/183/183 182/182/182
f 185/185/185 187/187/187 188/188/188
f 188/188/188 186/186/186 185/185/185
f 187/187/187 189/189/189 190/190/190
f 190/190/190 188/188/188 187/187/187
f 189/189/189 191/191/191 192/192/192
f 192/192/192 190/190/190 189/189/189
f 191/191/191 181/181/181 184/184/184
f 184/184/184 192/192/192 191/191/191
f 193/193/193 194/194/194 195/195/195
f 195/195/195 196/196/196 193/193/193
f 197/197/197 198/198/198 199/199/199
f 199/199/199 200/200/200 197/197/197
f 201/201/201 202/202/202 203/203/203
f 203/203/203 204/204/204 201/201/201
f 205/205/205 206/206/206 207/207/207
f 207/207/207 208/208/208 205/205/205
f 209/209/209 210/210/210 211/211/211
f 211/211/211 212/212/212 209/209/209
f 213/213/213 214/214/214 215/215/215
f 215/215/215 216/216/216 213/213/213

