g ChamferBox001

usemtl colours.png

v -0.04755615 0.07070822 0.04120412
vn 0 0.976378 -0.2204724
vt 0.8159434 0.8163537
v 0.04755615 0.07070822 0.04120412
vn 0 0.976378 -0.2204724
vt 0.8353865 0.8163537
v 0.04755615 0.0387839 -0.101765
vn 0 0.976378 -0.2204724
vt 0.8353865 0.8296921
v -0.04755615 0.0387839 -0.101765
vn 0 0.976378 -0.2204724
vt 0.8159434 0.8296921
v -0.04755615 0.0387839 -0.101765
vn -0.5590551 0.3937008 -0.7322835
vt 0.8159434 0.8296921
v -0.04755615 0.02345522 -0.1099721
vn -0.5590551 0.3937008 -0.7322835
vt 0.8159434 0.8325136
v -0.05825432 0.02345522 -0.101765
vn -0.5590551 0.3937008 -0.7322835
vt 0.8108389 0.8296921
v -0.04755615 0.0387839 -0.101765
vn -0.9448819 0.3307087 -0.03937008
vt 0.8159434 0.8296921
v -0.05825432 0.02345522 -0.101765
vn -0.8188976 0.5748032 -0.02362205
vt 0.8108389 0.8296921
v -0.05825432 0.03290216 0.101765
vn -0.9370078 0.3543307 -0.01574803
vt 0.8108389 0.8030155
v -0.04755615 0.04852675 0.101765
vn -0.8110236 0.5511811 0.2047244
vt 0.8159434 0.8030155
v -0.04755615 0.07070822 0.04120412
vn -0.968504 0.2519685 -0.01574803
vt 0.8159434 0.8163537
v -0.04755615 0.04852675 0.101765
vn -0.6299213 0.4330709 0.6456693
vt 0.8159434 0.8030155
v -0.05825432 0.03290216 0.101765
vn -0.6299213 0.4330709 0.6456693
vt 0.8108389 0.8030155
v -0.04755615 0.03290216 0.1121568
vn -0.6299213 0.4330709 0.6456693
vt 0.8159434 0.8001939
v 0.04755615 0.03290216 0.1121568
vn 0 0.5511811 0.8346457
vt 0.8353865 0.8001939
v 0.04755615 0.04852675 0.101765
vn 0 0.5511811 0.8346457
vt 0.8353865 0.8030155
v -0.04755615 0.04852675 0.101765
vn 0 0.5511811 0.8346457
vt 0.8159434 0.8030155
v -0.04755615 0.03290216 0.1121568
vn 0 0.5511811 0.8346457
vt 0.8159434 0.8001939
v 0.04755615 0.04852675 0.101765
vn 0.6299213 0.4330709 0.6456693
vt 0.8353865 0.8030155
v 0.04755615 0.03290216 0.1121568
vn 0.6299213 0.4330709 0.6456693
vt 0.8353865 0.8001939
v 0.05825432 0.03290216 0.101765
vn 0.6299213 0.4330709 0.6456693
vt 0.8404909 0.8030155
v 0.04755615 0.04852675 0.101765
vn 0.9527559 0.2913386 0.01574803
vt 0.8353865 0.8030155
v 0.05825432 0.03290216 0.101765
vn 0.8267717 0.5669291 -0.02362205
vt 0.8404909 0.8030155
v 0.05825432 0.02345522 -0.101765
vn 0.9370078 0.3543307 -0.01574803
vt 0.8404909 0.8296921
v 0.04755615 0.0387839 -0.101765
vn 0.8110236 0.5669291 -0.1259843
vt 0.8353865 0.8296921
v 0.04755615 0.07070822 0.04120412
vn 0.968504 0.2598425 -0.01574803
vt 0.8353865 0.8163537
v 0.04755615 0.0387839 -0.101765
vn 0.5590551 0.3937008 -0.7322835
vt 0.8353865 0.8296921
v 0.05825432 0.02345522 -0.101765
vn 0.5590551 0.3937008 -0.7322835
vt 0.8404909 0.8296921
v 0.04755615 0.02345522 -0.1099721
vn 0.5590551 0.3937008 -0.7322835
vt 0.8353865 0.8325136
v -0.04755615 0.02345522 -0.1099721
vn 0 0.472441 -0.8818898
vt 0.8159434 0.8325136
v -0.04755615 0.0387839 -0.101765
vn 0 0.472441 -0.8818898
vt 0.8159434 0.8296921
v 0.04755615 0.0387839 -0.101765
vn 0 0.472441 -0.8818898
vt 0.8353865 0.8296921
v 0.04755615 0.02345522 -0.1099721
vn 0 0.472441 -0.8818898
vt 0.8353865 0.8325136
v -0.05825432 0.01537785 -0.101765
vn -0.6062992 0 -0.7952756
vt 0.8119932 0.8001939
v -0.05825432 0.02345522 -0.101765
vn -0.6062992 0 -0.7952756
vt 0.8119932 0.8325136
v -0.04755615 0.02345522 -0.1099721
vn -0.6062992 0 -0.7952756
vt 0.8108389 0.8325136
v -0.04755615 0.01537785 -0.1099721
vn -0.6062992 0 -0.7952756
vt 0.8108389 0.8001939
v -0.05825432 0.02154766 0.101765
vn -1 0 0
vt 0.8197396 0.8001939
v -0.05825432 0.03290216 0.101765
vn -1 0 0
vt 0.8197396 0.8325136
v -0.05825432 0.02345522 -0.101765
vn -1 0 0
vt 0.8119932 0.8325136
v -0.05825432 0.01537785 -0.101765
vn -1 0 0
vt 0.8119932 0.8001939
v -0.04755615 0.02154766 0.1121568
vn -0.6929134 0 0.7165354
vt 0.8209196 0.8001939
v -0.04755615 0.03290216 0.1121568
vn -0.6929134 0 0.7165354
vt 0.8209196 0.8325136
v -0.05825432 0.03290216 0.101765
vn -0.6929134 0 0.7165354
vt 0.8197396 0.8325136
v -0.05825432 0.02154766 0.101765
vn -0.6929134 0 0.7165354
vt 0.8197396 0.8001939
v 0.04755615 0.02154766 0.1121568
vn 0 0 1
vt 0.8240232 0.8001939
v 0.04755615 0.03290216 0.1121568
vn 0 0 1
vt 0.8240232 0.8325136
v -0.04755615 0.03290216 0.1121568
vn 0 0 1
vt 0.8209196 0.8325136
v -0.04755615 0.02154766 0.1121568
vn 0 0 1
vt 0.8209196 0.8001939
v 0.05825432 0.02154766 0.101765
vn 0.6929134 0 0.7165354
vt 0.8251776 0.8001939
v 0.05825432 0.03290216 0.101765
vn 0.6929134 0 0.7165354
vt 0.8251776 0.8325136
v 0.04755615 0.03290216 0.1121568
vn 0.6929134 0 0.7165354
vt 0.8240232 0.8325136
v 0.04755615 0.02154766 0.1121568
vn 0.6929134 0 0.7165354
vt 0.8240232 0.8001939
v 0.05825432 0.01537785 -0.101765
vn 1 0 0
vt 0.832924 0.8001939
v 0.05825432 0.02345522 -0.101765
vn 1 0 0
vt 0.832924 0.8325136
v 0.05825432 0.03290216 0.101765
vn 1 0 0
vt 0.8251776 0.8325136
v 0.05825432 0.02154766 0.101765
vn 1 0 0
vt 0.8251776 0.8001939
v 0.04755615 0.01537785 -0.1099721
vn 0.6062992 0 -0.7952756
vt 0.8341039 0.8001939
v 0.04755615 0.02345522 -0.1099721
vn 0.6062992 0 -0.7952756
vt 0.8341039 0.8325136
v 0.05825432 0.02345522 -0.101765
vn 0.6062992 0 -0.7952756
vt 0.832924 0.8325136
v 0.05825432 0.01537785 -0.101765
vn 0.6062992 0 -0.7952756
vt 0.832924 0.8001939
v -0.04755615 0.01537785 -0.1099721
vn 0 0 -1
vt 0.8404909 0.8001939
v -0.04755615 0.02345522 -0.1099721
vn 0 0 -1
vt 0.8404909 0.8325136
v 0.04755615 0.02345522 -0.1099721
vn 0 0 -1
vt 0.8341039 0.8325136
v 0.04755615 0.01537785 -0.1099721
vn 0 0 -1
vt 0.8341039 0.8001939
v -0.04755615 0.01537785 -0.1099721
vn -0.5590551 -0.3937008 -0.7322835
vt 0.8159434 0.8001939
v -0.04755615 4.926967E-05 -0.101765
vn -0.5590551 -0.3937008 -0.7322835
vt 0.8159434 0.8030155
v -0.05825432 0.01537785 -0.101765
vn -0.5590551 -0.3937008 -0.7322835
vt 0.8108389 0.8030155
v -0.04755615 0 0.101765
vn -0.8661417 -0.503937 0.007874016
vt 0.8159434 0.8296921
v -0.05825432 0.02154766 0.101765
vn -0.8976378 -0.4409449 0.01574803
vt 0.8108389 0.8296921
v -0.05825432 0.01537785 -0.101765
vn -0.8661417 -0.503937 0.007874016
vt 0.8108389 0.8030155
v -0.04755615 4.926967E-05 -0.101765
vn -0.8188976 -0.5748032 0
vt 0.8159434 0.8030155
v -0.05825432 0.02154766 0.101765
vn -0.6614173 -0.3307087 0.6771653
vt 0.8108389 0.8296921
v -0.04755615 0 0.101765
vn -0.6614173 -0.3307087 0.6771653
vt 0.8159434 0.8296921
v -0.04755615 0.02154766 0.1121568
vn -0.6614173 -0.3307087 0.6771653
vt 0.8159434 0.8325136
v 0.04755615 0 0.101765
vn 0 -0.4330709 0.8976378
vt 0.8353865 0.8296921
v 0.04755615 0.02154766 0.1121568
vn 0 -0.4330709 0.8976378
vt 0.8353865 0.8325136
v -0.04755615 0.02154766 0.1121568
vn 0 -0.4330709 0.8976378
vt 0.8159434 0.8325136
v -0.04755615 0 0.101765
vn 0 -0.4330709 0.8976378
vt 0.8159434 0.8296921
v 0.04755615 0.02154766 0.1121568
vn 0.6614173 -0.3307087 0.6771653
vt 0.8353865 0.8325136
v 0.04755615 0 0.101765
vn 0.6614173 -0.3307087 0.6771653
vt 0.8353865 0.8296921
v 0.05825432 0.02154766 0.101765
vn 0.6614173 -0.3307087 0.6771653
vt 0.8404909 0.8296921
v 0.04755615 4.926967E-05 -0.101765
vn 0.8661417 -0.503937 0.007874016
vt 0.8353865 0.8030155
v 0.05825432 0.01537785 -0.101765
vn 0.8188976 -0.5748032 0.01574803
vt 0.8404909 0.8030155
v 0.05825432 0.02154766 0.101765
vn 0.8661417 -0.503937 0.007874016
vt 0.8404909 0.8296921
v 0.04755615 0 0.101765
vn 0.8976378 -0.4409449 0
vt 0.8353865 0.8296921
v 0.05825432 0.01537785 -0.101765
vn 0.5590551 -0.3937008 -0.7322835
vt 0.8404909 0.8030155
v 0.04755615 4.926967E-05 -0.101765
vn 0.5590551 -0.3937008 -0.7322835
vt 0.8353865 0.8030155
v 0.04755615 0.01537785 -0.1099721
vn 0.5590551 -0.3937008 -0.7322835
vt 0.8353865 0.8001939
v -0.04755615 4.926967E-05 -0.101765
vn 0 -0.472441 -0.8818898
vt 0.8159434 0.8030155
v -0.04755615 0.01537785 -0.1099721
vn 0 -0.472441 -0.8818898
vt 0.8159434 0.8001939
v 0.04755615 0.01537785 -0.1099721
vn 0 -0.472441 -0.8818898
vt 0.8353865 0.8001939
v 0.04755615 4.926967E-05 -0.101765
vn 0 -0.472441 -0.8818898
vt 0.8353865 0.8030155
v -0.04755615 0 0.101765
vn 0 -1 0
vt 0.8159434 0.8296921
v -0.04755615 4.926967E-05 -0.101765
vn 0 -1 0
vt 0.8159434 0.8030155
v 0.04755615 4.926967E-05 -0.101765
vn 0 -1 0
vt 0.8353865 0.8030155
v 0.04755615 0 0.101765
vn 0 -1 0
vt 0.8353865 0.8296921
v -0.04755615 0.04852675 0.101765
vn 0 0.9370078 0.3464567
vt 0.8159434 0.8030155
v 0.04755615 0.04852675 0.101765
vn 0 0.9370078 0.3464567
vt 0.8353865 0.8030155
v 0.04755615 0.07070822 0.04120412
vn 0 0.9370078 0.3464567
vt 0.8353865 0.8163537
v -0.04755615 0.07070822 0.04120412
vn 0 0.9370078 0.3464567
vt 0.8159434 0.8163537

f 1/1/1 2/2/2 3/3/3
f 3/3/3 4/4/4 1/1/1
f 5/5/5 6/6/6 7/7/7
f 8/8/8 9/9/9 10/10/10
f 10/10/10 11/11/11 12/12/12
f 8/8/8 10/10/10 12/12/12
f 13/13/13 14/14/14 15/15/15
f 16/16/16 17/17/17 18/18/18
f 18/18/18 19/19/19 16/16/16
f 20/20/20 21/21/21 22/22/22
f 23/23/23 24/24/24 25/25/25
f 25/25/25 26/26/26 27/27/27
f 23/23/23 25/25/25 27/27/27
f 28/28/28 29/29/29 30/30/30
f 31/31/31 32/32/32 33/33/33
f 33/33/33 34/34/34 31/31/31
f 35/35/35 36/36/36 37/37/37
f 37/37/37 38/38/38 35/35/35
f 39/39/39 40/40/40 41/41/41
f 41/41/41 42/42/42 39/39/39
f 43/43/43 44/44/44 45/45/45
f 45/45/45 46/46/46 43/43/43
f 47/47/47 48/48/48 49/49/49
f 49/49/49 50/50/50 47/47/47
f 51/51/51 52/52/52 53/53/53
f 53/53/53 54/54/54 51/51/51
f 55/55/55 56/56/56 57/57/57
f 57/57/57 58/58/58 55/55/55
f 59/59/59 60/60/60 61/61/61
f 61/61/61 62/62/62 59/59/59
f 63/63/63 64/64/64 65/65/65
f 65/65/65 66/66/66 63/63/63
f 67/67/67 68/68/68 69/69/69
f 70/70/70 71/71/71 72/72/72
f 72/72/72 73/73/73 70/70/70
f 74/74/74 75/75/75 76/76/76
f 77/77/77 78/78/78 79/79/79
f 79/79/79 80/80/80 77/77/77
f 81/81/81 82/82/82 83/83/83
f 84/84/84 85/85/85 86/86/86
f 86/86/86 87/87/87 84/84/84
f 88/88/88 89/89/89 90/90/90
f 91/91/91 92/92/92 93/93/93
f 93/93/93 94/94/94 91/91/91
f 95/95/95 96/96/96 97/97/97
f 97/97/97 98/98/98 95/95/95
f 99/99/99 100/100/100 101/101/101
f 101/101/101 102/102/102 99/99/99

