g Box001

usemtl colours.png

v 0.0268238 0.282143 0.0112974
vn 1.000001 0 0
vt 0.6782485 0.8042414
v 0.0268238 0.282143 -0.0932062
vn 1.000001 0 0
vt 0.6883088 0.8042414
v 0.0268238 0.304581 -0.013631
vn 1.000001 0 0
vt 0.6782485 0.8261773
v 0.0268238 0.285423 0.0385855
vn 1.000001 0 0
vt 0.6681883 0.8261773
v 0.0268238 0.272392 0.0385855
vn 1.000001 0 0
vt 0.6681883 0.8042414
v 0.0268238 0.252392 0.0385855
vn 1.000001 0 0
vt 0.698369 0.8042414
v 0.0268238 0.252392 0.0112974
vn 1.000001 0 0
vt 0.6883088 0.8042414
v 0.0268238 0.304581 -0.0658474
vn 1.000001 0 0
vt 0.6883088 0.8261773
v 0.0268238 0.272392 -0.118064
vn 1.000001 0 0
vt 0.698369 0.8042414
v 0.0268238 0.252392 -0.0932062
vn 1.000001 0 0
vt 0.6782485 0.8042414
v 0.0268238 0.304246 -0.118064
vn 1.000001 0 0
vt 0.698369 0.8261773
v 0.0268238 0.252392 -0.118064
vn 1.000001 0 0
vt 0.6681883 0.8042414
v -0.0268238 0.282143 -0.0932062
vn -1.000001 0 0
vt 0.6782485 0.8042414
v -0.0268239 0.304581 -0.0658474
vn -1.000001 0 0
vt 0.6782485 0.8261773
v -0.0268238 0.272392 -0.118064
vn -1.000001 0 0
vt 0.6681883 0.8042414
v -0.0268239 0.304581 -0.013631
vn -1.000001 0 0
vt 0.6883088 0.8261773
v -0.0268238 0.252392 -0.118064
vn -1.000001 0 0
vt 0.6681883 0.8261773
v -0.0268239 0.282143 0.0112973
vn -1.000001 0 0
vt 0.6883088 0.8042414
v -0.0268238 0.252392 -0.0932062
vn -1.000001 0 0
vt 0.6782485 0.8261773
v -0.0268238 0.304246 -0.118064
vn -1.000001 0 0
vt 0.6681883 0.8261773
v -0.0268239 0.285423 0.0385854
vn -1.000001 0 0
vt 0.698369 0.8261773
v -0.0268239 0.272392 0.0385854
vn -1.000001 0 0
vt 0.698369 0.8042414
v -0.0268238 0.252392 0.0112973
vn -1.000001 0 0
vt 0.6883088 0.8261773
v -0.0268239 0.252392 0.0385854
vn -1.000001 0 0
vt 0.698369 0.8261773
v 0.0268238 0.272392 0.0385855
vn 0 0 1.000001
vt 0.6681883 0.8042414
v 0.0268238 0.285423 0.0385855
vn 0 0 1.000001
vt 0.698369 0.8042414
v -0.0268239 0.285423 0.0385854
vn 0 0 1.000001
vt 0.698369 0.8261773
v -0.0268239 0.272392 0.0385854
vn 0 0 1.000001
vt 0.6681883 0.8261773
v -0.0268239 0.252392 0.0385854
vn 0 0 1.000001
vt 0.698369 0.8261773
v 0.0268238 0.252392 0.0385855
vn 0 0 1.000001
vt 0.698369 0.8042414
v -0.0268238 0.272392 -0.118064
vn 0 0 -1.000001
vt 0.698369 0.8261773
v 0.0268238 0.304246 -0.118064
vn 0 0 -1.000001
vt 0.6681883 0.8042414
v 0.0268238 0.272392 -0.118064
vn 0 0 -1.000001
vt 0.698369 0.8042414
v -0.0268238 0.304246 -0.118064
vn 0 0 -1.000001
vt 0.6681883 0.8261773
v 0.0268238 0.252392 -0.118064
vn 0 0 -1.000001
vt 0.6681883 0.8042414
v -0.0268238 0.252392 -0.118064
vn 0 0 -1.000001
vt 0.6681883 0.8261773
v 0.0504282 0.253079 0.038937
vn 1.000001 0 0
vt 0.6832913 0.8261773
v 0.0504282 -0.0001349896 -0.116991
vn 1.000001 0 0
vt 0.698369 0.8042414
v 0.0504282 0.253079 -0.116991
vn 1.000001 0 0
vt 0.698369 0.8261773
v 0.0504282 -0.0001349896 0.038937
vn 1.000001 0 0
vt 0.6832913 0.8042414
v 0.0504282 0.1863345 0.107253
vn 1.000001 0 0
vt 0.6681883 0.8261773
v 0.0504282 -0.0001349896 0.107253
vn 1.000001 0 0
vt 0.6681883 0.8042414
v -0.0504282 -0.0001349896 0.038937
vn -1.000001 0 0
vt 0.6832913 0.8042414
v -0.0504282 0.253079 0.038937
vn -1.000001 0 0
vt 0.6832913 0.8261773
v -0.0504281 -0.0001349896 -0.116991
vn -1.000001 0 0
vt 0.6681883 0.8042414
v -0.0504282 0.1863345 0.107253
vn -1.000001 0 0
vt 0.698369 0.8261773
v -0.0504282 -0.0001349896 0.107253
vn -1.000001 0 0
vt 0.698369 0.8042414
v -0.0504282 0.253079 -0.116991
vn -1.000001 0 0
vt 0.6681883 0.8261773
v 0.0504282 -0.0001349896 0.038937
vn 0 -1.000001 0
vt 0.6832913 0.8042414
v -0.0504282 -0.0001349896 0.038937
vn 0 -1.000001 0
vt 0.6832913 0.8261773
v 0.0504282 -0.0001349896 -0.116991
vn 0 -1.000001 0
vt 0.6681883 0.8042414
v -0.0504282 -0.0001349896 0.107253
vn 0 -1.000001 0
vt 0.698369 0.8261773
v 0.0504282 -0.0001349896 0.107253
vn 0 -1.000001 0
vt 0.698369 0.8042414
v -0.0504281 -0.0001349896 -0.116991
vn 0 -1.000001 0
vt 0.6681883 0.8261773
v 0.0216363 0.262681 0.0719938
vn 0 0.7086619 0.7086619
vt 0.6702054 0.8206807
v -0.0158882 0.262681 0.0719938
vn 0 0.7086619 0.7086619
vt 0.6702054 0.8097128
v -0.0346505 0.2397584 0.0950288
vn 0 0.7086619 0.7086619
vt 0.6832913 0.8042414
v 0.0216363 0.2168356 0.118064
vn 0 0.7086619 0.7086619
vt 0.6963519 0.8206807
v 0.0403985 0.2397584 0.0950288
vn 0 0.7086619 0.7086619
vt 0.6832913 0.8261773
v -0.0158882 0.2168356 0.118064
vn 0 0.7086619 0.7086619
vt 0.6963519 0.8097128
v 0.0268238 0.304581 -0.0658474
vn 0 1.000001 -0.00787402
vt 0.6883088 0.8042414
v -0.0268239 0.304581 -0.0658474
vn 0 1.000001 0
vt 0.6883088 0.8261773
v 0.0268238 0.304581 -0.013631
vn 0 1.000001 0
vt 0.6782485 0.8042414
v -0.0268238 0.304246 -0.118064
vn 0 1.000001 -0.00787402
vt 0.698369 0.8261773
v 0.0268238 0.304246 -0.118064
vn 0 1.000001 -0.00787402
vt 0.698369 0.8042414
v -0.0268239 0.304581 -0.013631
vn 0 1.000001 0
vt 0.6782485 0.8261773
v 0.0504282 -0.0001349896 0.107253
vn 0 0 1.000001
vt 0.6681883 0.8042414
v 0.0504282 0.1863345 0.107253
vn 0 0 1.000001
vt 0.698369 0.8042414
v -0.0504282 0.1863345 0.107253
vn 0 0 1.000001
vt 0.698369 0.8261773
v -0.0504282 -0.0001349896 0.107253
vn 0 0 1.000001
vt 0.6681883 0.8261773
v 0.0504282 0.1863345 0.107253
vn 0 0.7165359 0.7007878
vt 0.6681883 0.8042414
v 0.0504282 0.253079 0.038937
vn 0 0.7165359 0.7007878
vt 0.6832913 0.8042414
v -0.0504282 0.253079 0.038937
vn 0 0.7165359 0.7007878
vt 0.6832913 0.8261773
v -0.0504282 0.1863345 0.107253
vn 0 0.7165359 0.7007878
vt 0.6681883 0.8261773
v 0.0504282 0.253079 0.038937
vn 0 1.000001 0
vt 0.6832913 0.8042414
v 0.0504282 0.253079 -0.116991
vn 0 1.000001 0
vt 0.698369 0.8042414
v -0.0504282 0.253079 -0.116991
vn 0 1.000001 0
vt 0.698369 0.8261773
v -0.0504282 0.253079 0.038937
vn 0 1.000001 0
vt 0.6832913 0.8261773
v 0.0504282 0.253079 -0.116991
vn 0 0 -1.000001
vt 0.6681883 0.8042414
v 0.0504282 -0.0001349896 -0.116991
vn 0 0 -1.000001
vt 0.698369 0.8042414
v -0.0504281 -0.0001349896 -0.116991
vn 0 0 -1.000001
vt 0.698369 0.8261773
v -0.0504282 0.253079 -0.116991
vn 0 0 -1.000001
vt 0.6681883 0.8261773
v 0.0403985 0.2172532 0.0726331
vn 0.8661422 0.3543309 -0.3543309
vt 0.6908302 0.8042414
v 0.0216363 0.2401759 0.0495981
vn 0.8661422 0.3543309 -0.3543309
vt 0.6958729 0.8042414
v 0.0216363 0.262681 0.0719938
vn 0.8661422 0.3543309 -0.3543309
vt 0.6958729 0.8261773
v 0.0403985 0.2397584 0.0950288
vn 0.8661422 0.3543309 -0.3543309
vt 0.6908302 0.8261773
v 0.0216363 0.2401759 0.0495981
vn 0 0.7086619 -0.7086619
vt 0.6958729 0.8042414
v -0.0158882 0.2401759 0.0495981
vn 0 0.7086619 -0.7086619
vt 0.7008904 0.8042414
v -0.0158882 0.262681 0.0719938
vn 0 0.7086619 -0.7086619
vt 0.7008904 0.8261773
v 0.0216363 0.262681 0.0719938
vn 0 0.7086619 -0.7086619
vt 0.6958729 0.8261773
v -0.0158882 0.2401759 0.0495981
vn -0.8661422 0.3543309 -0.3543309
vt 0.6707096 0.8042414
v -0.0346505 0.2172531 0.0726331
vn -0.8661422 0.3543309 -0.3543309
vt 0.6757523 0.8042414
v -0.0346505 0.2397584 0.0950288
vn -0.8661422 0.3543309 -0.3543309
vt 0.6757523 0.8261773
v -0.0158882 0.262681 0.0719938
vn -0.8661422 0.3543309 -0.3543309
vt 0.6707096 0.8261773
v -0.0346505 0.2172531 0.0726331
vn -0.8661422 -0.3543309 0.3543309
vt 0.6757523 0.8042414
v -0.0158882 0.1943304 0.0956681
vn -0.8661422 -0.3543309 0.3543309
vt 0.6807699 0.8042414
v -0.0158882 0.2168356 0.118064
vn -0.8661422 -0.3543309 0.3543309
vt 0.6807699 0.8261773
v -0.0346505 0.2397584 0.0950288
vn -0.8661422 -0.3543309 0.3543309
vt 0.6757523 0.8261773
v -0.0158882 0.1943304 0.0956681
vn 0 -0.7086619 0.7086619
vt 0.6807699 0.8042414
v 0.0216363 0.1943304 0.0956681
vn 0 -0.7086619 0.7086619
vt 0.6858127 0.8042414
v 0.0216363 0.2168356 0.118064
vn 0 -0.7086619 0.7086619
vt 0.6858127 0.8261773
v -0.0158882 0.2168356 0.118064
vn 0 -0.7086619 0.7086619
vt 0.6807699 0.8261773
v 0.0216363 0.1943304 0.0956681
vn 0.8661422 -0.3543309 0.3543309
vt 0.6858127 0.8042414
v 0.0403985 0.2172532 0.0726331
vn 0.8661422 -0.3543309 0.3543309
vt 0.6908302 0.8042414
v 0.0403985 0.2397584 0.0950288
vn 0.8661422 -0.3543309 0.3543309
vt 0.6908302 0.8261773
v 0.0216363 0.2168356 0.118064
vn 0.8661422 -0.3543309 0.3543309
vt 0.6858127 0.8261773
v 0.0268238 0.282143 -0.0932062
vn 0 -1.000001 0
vt 0.6782485 0.8042414
v 0.0268238 0.282143 0.0112974
vn 0 -1.000001 0
vt 0.6883088 0.8042414
v -0.0268239 0.282143 0.0112973
vn 0 -1.000001 0
vt 0.6883088 0.8261773
v -0.0268238 0.282143 -0.0932062
vn 0 -1.000001 0
vt 0.6782485 0.8261773
v 0.0268238 0.285423 0.0385855
vn 0 0.9370084 0.3464569
vt 0.6681883 0.8042414
v 0.0268238 0.304581 -0.013631
vn 0 0.9370084 0.3464569
vt 0.6782485 0.8042414
v -0.0268239 0.304581 -0.013631
vn 0 0.9370084 0.3464569
vt 0.6782485 0.8261773
v -0.0268239 0.285423 0.0385854
vn 0 0.9370084 0.3464569
vt 0.6681883 0.8261773
v -0.0268239 0.282143 0.0112973
vn 0 0 -1.000001
vt 0.6883088 0.8261773
v 0.0268238 0.282143 0.0112974
vn 0 0 -1.000001
vt 0.6883088 0.8042414
v 0.0268238 0.252392 0.0112974
vn 0 0 -1.000001
vt 0.6883088 0.8042414
v -0.0268238 0.252392 0.0112973
vn 0 0 -1.000001
vt 0.6883088 0.8261773
v 0.0268238 0.282143 -0.0932062
vn 0 0 1.000001
vt 0.6782485 0.8042414
v -0.0268238 0.282143 -0.0932062
vn 0 0 1.000001
vt 0.6782485 0.8261773
v -0.0268238 0.252392 -0.0932062
vn 0 0 1.000001
vt 0.6782485 0.8261773
v 0.0268238 0.252392 -0.0932062
vn 0 0 1.000001
vt 0.6782485 0.8042414

f 1/1/1 2/2/2 3/3/3
f 1/1/1 3/3/3 4/4/4
f 1/1/1 4/4/4 5/5/5
f 1/1/1 5/5/5 6/6/6
f 1/1/1 6/6/6 7/7/7
f 2/2/2 8/8/8 3/3/3
f 2/2/2 9/9/9 8/8/8
f 2/2/2 10/10/10 9/9/9
f 8/8/8 9/9/9 11/11/11
f 10/10/10 12/12/12 9/9/9
f 13/13/13 14/14/14 15/15/15
f 13/13/13 16/16/16 14/14/14
f 13/13/13 15/15/15 17/17/17
f 13/13/13 18/18/18 16/16/16
f 13/13/13 17/17/17 19/19/19
f 14/14/14 20/20/20 15/15/15
f 18/18/18 21/21/21 16/16/16
f 18/18/18 22/22/22 21/21/21
f 18/18/18 23/23/23 22/22/22
f 23/23/23 24/24/24 22/22/22
f 25/25/25 26/26/26 27/27/27
f 25/25/25 27/27/27 28/28/28
f 25/25/25 28/28/28 29/29/29
f 25/25/25 29/29/29 30/30/30
f 31/31/31 32/32/32 33/33/33
f 31/31/31 34/34/34 32/32/32
f 31/31/31 33/33/33 35/35/35
f 31/31/31 35/35/35 36/36/36
f 37/37/37 38/38/38 39/39/39
f 37/37/37 40/40/40 38/38/38
f 37/37/37 41/41/41 40/40/40
f 41/41/41 42/42/42 40/40/40
f 43/43/43 44/44/44 45/45/45
f 43/43/43 46/46/46 44/44/44
f 43/43/43 47/47/47 46/46/46
f 45/45/45 44/44/44 48/48/48
f 49/49/49 50/50/50 51/51/51
f 49/49/49 52/52/52 50/50/50
f 49/49/49 53/53/53 52/52/52
f 51/51/51 50/50/50 54/54/54
f 55/55/55 56/56/56 57/57/57
f 55/55/55 57/57/57 58/58/58
f 55/55/55 58/58/58 59/59/59
f 57/57/57 60/60/60 58/58/58
f 61/61/61 62/62/62 63/63/63
f 61/61/61 64/64/64 62/62/62
f 61/61/61 65/65/65 64/64/64
f 63/63/63 62/62/62 66/66/66
f 67/67/67 68/68/68 69/69/69
f 67/67/67 69/69/69 70/70/70
f 71/71/71 72/72/72 73/73/73
f 71/71/71 73/73/73 74/74/74
f 75/75/75 76/76/76 77/77/77
f 75/75/75 77/77/77 78/78/78
f 79/79/79 80/80/80 81/81/81
f 79/79/79 81/81/81 82/82/82
f 83/83/83 84/84/84 85/85/85
f 83/83/83 85/85/85 86/86/86
f 87/87/87 88/88/88 89/89/89
f 87/87/87 89/89/89 90/90/90
f 91/91/91 92/92/92 93/93/93
f 91/91/91 93/93/93 94/94/94
f 95/95/95 96/96/96 97/97/97
f 95/95/95 97/97/97 98/98/98
f 99/99/99 100/100/100 101/101/101
f 99/99/99 101/101/101 102/102/102
f 103/103/103 104/104/104 105/105/105
f 103/103/103 105/105/105 106/106/106
f 107/107/107 108/108/108 109/109/109
f 107/107/107 109/109/109 110/110/110
f 111/111/111 112/112/112 113/113/113
f 111/111/111 113/113/113 114/114/114
f 115/115/115 116/116/116 117/117/117
f 115/115/115 117/117/117 118/118/118
f 119/119/119 120/120/120 121/121/121
f 119/119/119 121/121/121 122/122/122

