g ChamferBox001

usemtl darkblue.png

v -0.2829311 0.113084 0.1840603
vn 0 0.9606299 0.2677165
vt 0.07141329 0.1019623
v -0.3065028 0.0979879 0.2076329
vn -0.1653543 0.8976378 0.4094488
vt 0.03570664 0.05096589
v -0.2829311 0.0979879 0.2173959
vn -0.007874016 0.9055118 0.4173228
vt 0.07141329 0.02984709
v 0.2829311 0.0979879 0.2173959
vn 0 0.9055118 0.4173228
vt 0.9285864 0.02984709
v 0.2829311 0.113084 0.1840603
vn 0 0.9606299 0.2677165
vt 0.9285864 0.1019623
v 0.2829311 0.131961 0.09203015
vn 0 0.984252 0.1653543
vt 0.9285864 0.3009734
v -0.2829311 0.131961 0.09203015
vn 0 0.992126 0.1181102
vt 0.07141329 0.3009734
v 0.3065028 0.0979879 0.2076329
vn 0.1653543 0.8976378 0.4094488
vt 0.964293 0.05096589
v 0.2829311 0.139155 0
vn 0 1 0.02362205
vt 0.9285864 0.5000151
v -0.2829311 0.139155 0
vn 0 1 -0.02362205
vt 0.07141329 0.5000151
v 0.2829311 0.131961 -0.09203015
vn 0 0.992126 -0.1181102
vt 0.9285864 0.6990262
v -0.2829311 0.131961 -0.09203015
vn 0 0.984252 -0.1653543
vt 0.07141329 0.6990262
v 0.2829311 0.113084 -0.1840603
vn 0 0.9606299 -0.2677165
vt 0.9285864 0.8980373
v -0.2829311 0.113084 -0.1840603
vn 0 0.9606299 -0.2677165
vt 0.07141329 0.8980373
v -0.2829311 0.0979879 -0.2173959
vn 0 0.9055118 -0.4173228
vt 0.07141329 0.9701526
v 0.2829311 0.0979879 -0.2173959
vn 0.007874016 0.9055118 -0.4173228
vt 0.9285864 0.9701526
v 0.3065028 0.0979879 -0.2076329
vn 0.1653543 0.8976378 -0.4094488
vt 0.964293 0.9490337
v -0.3065028 0.0979879 -0.2076329
vn -0.1653543 0.8976378 -0.4094488
vt 0.03570664 0.9490337
v -0.3300745 0.0615421 0.1840603
vn -0.9370078 0.3543307 0
vt 0 0.1019623
v -0.3162659 0.0979879 -0.1840603
vn -0.9370078 0.3543307 0
vt 0.02090517 0.8980373
v -0.3300745 0.0615421 -0.1840603
vn -0.9370078 0.3543307 0
vt 0 0.8980373
v -0.3162659 0.0979879 -0.09203015
vn -0.9370078 0.3543307 0
vt 0.02090517 0.6990262
v -0.3162659 0.0979879 0
vn -0.9370078 0.3543307 0
vt 0.02090517 0.5000151
v -0.3162659 0.0979879 0.09203015
vn -0.9370078 0.3543307 0
vt 0.02090517 0.3009734
v -0.3162659 0.0979879 0.1840603
vn -0.9370078 0.3543307 0
vt 0.02090517 0.1019623
v 0.3300745 0.0615421 -0.1840603
vn 0.9370078 0.3543307 0
vt 0.9999996 0.8980373
v 0.3162659 0.0979879 0.1840603
vn 0.9370078 0.3543307 0
vt 0.9790944 0.1019623
v 0.3300745 0.0615421 0.1840603
vn 0.9370078 0.3543307 0
vt 0.9999996 0.1019623
v 0.3162659 0.0979879 0.09203015
vn 0.9370078 0.3543307 0
vt 0.9790944 0.3009734
v 0.3162659 0.0979879 0
vn 0.9370078 0.3543307 0
vt 0.9790944 0.5000151
v 0.3162659 0.0979879 -0.09203015
vn 0.9370078 0.3543307 0
vt 0.9790944 0.6990262
v 0.3162659 0.0979879 -0.1840603
vn 0.9370078 0.3543307 0
vt 0.9790944 0.8980373
v -0.2829311 0.113084 -0.1840603
vn -0.5748032 0.8188976 -0.09448819
vt 0.07141329 0.8980373
v -0.3065028 0.0979879 -0.2076329
vn -0.4094488 0.8976378 -0.1653543
vt 0.03570664 0.9490337
v -0.3162659 0.0979879 -0.1840603
vn -0.4173228 0.9055118 -0.03149606
vt 0.02090517 0.8980373
v -0.3162659 0.0979879 -0.09203015
vn -0.6377953 0.7637795 -0.04724409
vt 0.02090517 0.6990262
v -0.2829311 0.131961 -0.09203015
vn -0.7401575 0.6771653 -0.06299213
vt 0.07141329 0.6990262
v -0.3162659 0.0979879 0
vn -0.7559055 0.6535433 -0.01574803
vt 0.02090517 0.5000151
v -0.2829311 0.139155 0
vn -0.7559055 0.6535433 0
vt 0.07141329 0.5000151
v -0.3162659 0.0979879 0.09203015
vn -0.7401575 0.6771653 0.01574803
vt 0.02090517 0.3009734
v -0.2829311 0.131961 0.09203015
vn -0.6377953 0.7637795 0.07086614
vt 0.07141329 0.3009734
v -0.3162659 0.0979879 0.1840603
vn -0.5748032 0.8188976 0.09448819
vt 0.02090517 0.1019623
v -0.2829311 0.113084 0.1840603
vn -0.4094488 0.8976378 0.1811024
vt 0.07141329 0.1019623
v -0.3065028 0.0979879 0.2076329
vn -0.4094488 0.8976378 0.1653543
vt 0.03570664 0.05096589
v 0.2829311 0.113084 0.1840603
vn 0.5748032 0.8188976 0.09448819
vt 0.9285864 0.1019623
v 0.3065028 0.0979879 0.2076329
vn 0.4094488 0.8976378 0.1653543
vt 0.964293 0.05096589
v 0.3162659 0.0979879 0.1840603
vn 0.4173228 0.9055118 0.03149606
vt 0.9790944 0.1019623
v 0.3162659 0.0979879 0.09203015
vn 0.6377953 0.7637795 0.04724409
vt 0.9790944 0.3009734
v 0.2829311 0.131961 0.09203015
vn 0.7401575 0.6771653 0.06299213
vt 0.9285864 0.3009734
v 0.3162659 0.0979879 0
vn 0.7559055 0.6535433 0.01574803
vt 0.9790944 0.5000151
v 0.2829311 0.139155 0
vn 0.7559055 0.6535433 0
vt 0.9285864 0.5000151
v 0.3162659 0.0979879 -0.09203015
vn 0.7401575 0.6771653 -0.01574803
vt 0.9790944 0.6990262
v 0.2829311 0.131961 -0.09203015
vn 0.6377953 0.7637795 -0.07086614
vt 0.9285864 0.6990262
v 0.3162659 0.0979879 -0.1840603
vn 0.5748032 0.8188976 -0.09448819
vt 0.9790944 0.8980373
v 0.2829311 0.113084 -0.1840603
vn 0.4094488 0.8976378 -0.1811024
vt 0.9285864 0.8980373
v 0.3065028 0.0979879 -0.2076329
vn 0.4094488 0.8976378 -0.1653543
vt 0.964293 0.9490337
v -0.2829311 0 -0.1840603
vn 0 -0.9055118 -0.4173228
vt 0.07141329 0.1019623
v -0.3065028 0.0150963 -0.2076329
vn -0.1653543 -0.8976378 -0.4094488
vt 0.03570664 0.05096589
v -0.2829311 0.0150963 -0.2173959
vn -0.007874016 -0.9055118 -0.4173228
vt 0.07141329 0.02984709
v 0.2829311 0.0150963 -0.2173959
vn 0 -0.9055118 -0.4173228
vt 0.9285864 0.02984709
v 0.2829311 0 -0.1840603
vn 0.007874016 -0.9055118 -0.4173228
vt 0.9285864 0.1019623
v 0.3065028 0.0150963 -0.2076329
vn 0.1653543 -0.8976378 -0.4094488
vt 0.964293 0.05096589
v -0.3162659 0.0150963 -0.1840603
vn -0.4173228 -0.9055118 -0.007874016
vt 0.02090517 0.1019623
v -0.3065028 0.0150963 -0.2076329
vn -0.4094488 -0.8976378 -0.1653543
vt 0.03570664 0.05096589
v -0.2829311 0 -0.1840603
vn -0.4173228 -0.9055118 -0.007874016
vt 0.07141329 0.1019623
v -0.2829311 0 0.1840603
vn -0.4173228 -0.9055118 0.007874016
vt 0.07141329 0.8980373
v -0.3162659 0.0150963 0.1840603
vn -0.4173228 -0.9055118 0.007874016
vt 0.02090517 0.8980373
v -0.3065028 0.0150963 0.2076329
vn -0.4094488 -0.8976378 0.1653543
vt 0.03570664 0.9490337
v -0.2829311 0.0150963 0.2173959
vn 0 -0.9055118 0.4173228
vt 0.07141329 0.9701526
v -0.3065028 0.0150963 0.2076329
vn -0.1653543 -0.8976378 0.4094488
vt 0.03570664 0.9490337
v -0.2829311 0 0.1840603
vn -0.007874016 -0.9055118 0.4173228
vt 0.07141329 0.8980373
v 0.2829311 0 0.1840603
vn 0 -0.9055118 0.4173228
vt 0.9285864 0.8980373
v 0.2829311 0.0150963 0.2173959
vn 0.007874016 -0.9055118 0.4173228
vt 0.9285864 0.9701526
v 0.3065028 0.0150963 0.2076329
vn 0.1653543 -0.8976378 0.4094488
vt 0.964293 0.9490337
v 0.3162659 0.0150963 0.1840603
vn 0.4173228 -0.9055118 0.007874016
vt 0.9790944 0.8980373
v 0.3065028 0.0150963 0.2076329
vn 0.4094488 -0.8976378 0.1653543
vt 0.964293 0.9490337
v 0.2829311 0 0.1840603
vn 0.4173228 -0.9055118 0.007874016
vt 0.9285864 0.8980373
v 0.2829311 0 -0.1840603
vn 0.4173228 -0.9055118 -0.007874016
vt 0.9285864 0.1019623
v 0.3162659 0.0150963 -0.1840603
vn 0.4173228 -0.9055118 -0.007874016
vt 0.9790944 0.1019623
v 0.3065028 0.0150963 -0.2076329
vn 0.4094488 -0.8976378 -0.1653543
vt 0.964293 0.05096589
v -0.3162659 0.0615421 -0.2173959
vn -0.3543307 0.3307087 -0.8740157
vt 0.02090517 0.9701526
v -0.3065028 0.0979879 -0.2076329
vn -0.3543307 0.3307087 -0.8740157
vt 0.03570664 0.9490337
v -0.2829311 0.0979879 -0.2173959
vn -0.3543307 0.3307087 -0.8740157
vt 0.07141329 0.9701526
v -0.2829311 0.0615421 -0.2312045
vn -0.3543307 0.3307087 -0.8740157
vt 0.07141329 0.9999996
v -0.3300745 0.0615421 -0.1840603
vn -0.8740157 0.3307087 -0.3543307
vt 0 0.8980373
v -0.3162659 0.0979879 -0.1840603
vn -0.8740157 0.3307087 -0.3543307
vt 0.02090517 0.8980373
v -0.3065028 0.0979879 -0.2076329
vn -0.8740157 0.3307087 -0.3543307
vt 0.03570664 0.9490337
v -0.3162659 0.0615421 -0.2173959
vn -0.8740157 0.3307087 -0.3543307
vt 0.02090517 0.9701526
v -0.3162659 0.0615421 0.2173959
vn -0.8740157 0.3307087 0.3543307
vt 0.02090517 0.02984709
v -0.3065028 0.0979879 0.2076329
vn -0.8740157 0.3307087 0.3543307
vt 0.03570664 0.05096589
v -0.3162659 0.0979879 0.1840603
vn -0.8740157 0.3307087 0.3543307
vt 0.02090517 0.1019623
v -0.3300745 0.0615421 0.1840603
vn -0.8740157 0.3307087 0.3543307
vt 0 0.1019623
v -0.2829311 0.0615421 0.2312045
vn -0.3543307 0.3307087 0.8740157
vt 0.07141329 0
v -0.2829311 0.0979879 0.2173959
vn -0.3543307 0.3307087 0.8740157
vt 0.07141329 0.02984709
v -0.3065028 0.0979879 0.2076329
vn -0.3543307 0.3307087 0.8740157
vt 0.03570664 0.05096589
v -0.3162659 0.0615421 0.2173959
vn -0.3543307 0.3307087 0.8740157
vt 0.02090517 0.02984709
v 0.2829311 0.0615421 0.2312045
vn 0 0.3543307 0.9370078
vt 0.9285864 0
v 0.2829311 0.0979879 0.2173959
vn 0 0.3543307 0.9370078
vt 0.9285864 0.02984709
v -0.2829311 0.0979879 0.2173959
vn 0 0.3543307 0.9370078
vt 0.07141329 0.02984709
v -0.2829311 0.0615421 0.2312045
vn 0 0.3543307 0.9370078
vt 0.07141329 0
v 0.3162659 0.0615421 0.2173959
vn 0.3543307 0.3307087 0.8740157
vt 0.9790944 0.02984709
v 0.3065028 0.0979879 0.2076329
vn 0.3543307 0.3307087 0.8740157
vt 0.964293 0.05096589
v 0.2829311 0.0979879 0.2173959
vn 0.3543307 0.3307087 0.8740157
vt 0.9285864 0.02984709
v 0.2829311 0.0615421 0.2312045
vn 0.3543307 0.3307087 0.8740157
vt 0.9285864 0
v 0.3300745 0.0615421 0.1840603
vn 0.8740157 0.3307087 0.3543307
vt 0.9999996 0.1019623
v 0.3162659 0.0979879 0.1840603
vn 0.8740157 0.3307087 0.3543307
vt 0.9790944 0.1019623
v 0.3065028 0.0979879 0.2076329
vn 0.8740157 0.3307087 0.3543307
vt 0.964293 0.05096589
v 0.3162659 0.0615421 0.2173959
vn 0.8740157 0.3307087 0.3543307
vt 0.9790944 0.02984709
v 0.3162659 0.0615421 -0.2173959
vn 0.8740157 0.3307087 -0.3543307
vt 0.9790944 0.9701526
v 0.3065028 0.0979879 -0.2076329
vn 0.8740157 0.3307087 -0.3543307
vt 0.964293 0.9490337
v 0.3162659 0.0979879 -0.1840603
vn 0.8740157 0.3307087 -0.3543307
vt 0.9790944 0.8980373
v 0.3300745 0.0615421 -0.1840603
vn 0.8740157 0.3307087 -0.3543307
vt 0.9999996 0.8980373
v 0.2829311 0.0615421 -0.2312045
vn 0.3543307 0.3307087 -0.8740157
vt 0.9285864 0.9999996
v 0.2829311 0.0979879 -0.2173959
vn 0.3543307 0.3307087 -0.8740157
vt 0.9285864 0.9701526
v 0.3065028 0.0979879 -0.2076329
vn 0.3543307 0.3307087 -0.8740157
vt 0.964293 0.9490337
v 0.3162659 0.0615421 -0.2173959
vn 0.3543307 0.3307087 -0.8740157
vt 0.9790944 0.9701526
v -0.2829311 0.0615421 -0.2312045
vn 0 0.3543307 -0.9370078
vt 0.07141329 0.9999996
v -0.2829311 0.0979879 -0.2173959
vn 0 0.3543307 -0.9370078
vt 0.07141329 0.9701526
v 0.2829311 0.0979879 -0.2173959
vn 0 0.3543307 -0.9370078
vt 0.9285864 0.9701526
v 0.2829311 0.0615421 -0.2312045
vn 0 0.3543307 -0.9370078
vt 0.9285864 0.9999996
v -0.3162659 0.0515421 -0.2173959
vn -0.3858268 0 -0.9212598
vt 0.01538132 0
v -0.3162659 0.0615421 -0.2173959
vn -0.3858268 0 -0.9212598
vt 0.01538132 0.9999996
v -0.2829311 0.0615421 -0.2312045
vn -0.3858268 0 -0.9212598
vt 0 0.9999996
v -0.2829311 0.0515421 -0.2312045
vn -0.3858268 0 -0.9212598
vt 0 0
v -0.3300745 0.0515421 -0.1840603
vn -0.9212598 0 -0.3858268
vt 0.03076265 0
v -0.3300745 0.0615421 -0.1840603
vn -0.9212598 0 -0.3858268
vt 0.03076265 0.9999996
v -0.3162659 0.0615421 -0.2173959
vn -0.9212598 0 -0.3858268
vt 0.01538132 0.9999996
v -0.3162659 0.0515421 -0.2173959
vn -0.9212598 0 -0.3858268
vt 0.01538132 0
v -0.3300745 0.0515421 0.1840603
vn -1 0 0
vt 0.1877498 0
v -0.3300745 0.0615421 0.1840603
vn -1 0 0
vt 0.1877498 0.9999996
v -0.3300745 0.0615421 -0.1840603
vn -1 0 0
vt 0.03076265 0.9999996
v -0.3300745 0.0515421 -0.1840603
vn -1 0 0
vt 0.03076265 0
v -0.3162659 0.0515421 0.2173959
vn -0.9212598 0 0.3858268
vt 0.2031311 0
v -0.3162659 0.0615421 0.2173959
vn -0.9212598 0 0.3858268
vt 0.2031311 0.9999996
v -0.3300745 0.0615421 0.1840603
vn -0.9212598 0 0.3858268
vt 0.1877498 0.9999996
v -0.3300745 0.0515421 0.1840603
vn -0.9212598 0 0.3858268
vt 0.1877498 0
v -0.2829311 0.0515421 0.2312045
vn -0.3858268 0 0.9212598
vt 0.2185124 0
v -0.2829311 0.0615421 0.2312045
vn -0.3858268 0 0.9212598
vt 0.2185124 0.9999996
v -0.3162659 0.0615421 0.2173959
vn -0.3858268 0 0.9212598
vt 0.2031311 0.9999996
v -0.3162659 0.0515421 0.2173959
vn -0.3858268 0 0.9212598
vt 0.2031311 0
v 0.2829311 0.0515421 0.2312045
vn 0 0 1
vt 0.4597917 0
v 0.2829311 0.0615421 0.2312045
vn 0 0 1
vt 0.4597917 0.9999996
v -0.2829311 0.0615421 0.2312045
vn 0 0 1
vt 0.2185124 0.9999996
v -0.2829311 0.0515421 0.2312045
vn 0 0 1
vt 0.2185124 0
v 0.3162659 0.0515421 0.2173959
vn 0.3858268 0 0.9212598
vt 0.475173 0
v 0.3162659 0.0615421 0.2173959
vn 0.3858268 0 0.9212598
vt 0.475173 0.9999996
v 0.2829311 0.0615421 0.2312045
vn 0.3858268 0 0.9212598
vt 0.4597917 0.9999996
v 0.2829311 0.0515421 0.2312045
vn 0.3858268 0 0.9212598
vt 0.4597917 0
v 0.3300745 0.0515421 0.1840603
vn 0.9212598 0 0.3858268
vt 0.4905543 0
v 0.3300745 0.0615421 0.1840603
vn 0.9212598 0 0.3858268
vt 0.4905543 0.9999996
v 0.3162659 0.0615421 0.2173959
vn 0.9212598 0 0.3858268
vt 0.475173 0.9999996
v 0.3162659 0.0515421 0.2173959
vn 0.9212598 0 0.3858268
vt 0.475173 0
v 0.3300745 0.0515421 -0.1840603
vn 1 0 0
vt 0.6475415 0
v 0.3300745 0.0615421 -0.1840603
vn 1 0 0
vt 0.6475415 0.9999996
v 0.3300745 0.0615421 0.1840603
vn 1 0 0
vt 0.4905543 0.9999996
v 0.3300745 0.0515421 0.1840603
vn 1 0 0
vt 0.4905543 0
v 0.3162659 0.0515421 -0.2173959
vn 0.9212598 0 -0.3858268
vt 0.6629228 0
v 0.3162659 0.0615421 -0.2173959
vn 0.9212598 0 -0.3858268
vt 0.6629228 0.9999996
v 0.3300745 0.0615421 -0.1840603
vn 0.9212598 0 -0.3858268
vt 0.6475415 0.9999996
v 0.3300745 0.0515421 -0.1840603
vn 0.9212598 0 -0.3858268
vt 0.6475415 0
v 0.2829311 0.0515421 -0.2312045
vn 0.3858268 0 -0.9212598
vt 0.6783041 0
v 0.2829311 0.0615421 -0.2312045
vn 0.3858268 0 -0.9212598
vt 0.6783041 0.9999996
v 0.3162659 0.0615421 -0.2173959
vn 0.3858268 0 -0.9212598
vt 0.6629228 0.9999996
v 0.3162659 0.0515421 -0.2173959
vn 0.3858268 0 -0.9212598
vt 0.6629228 0
v -0.2829311 0.0515421 -0.2312045
vn 0 0 -1
vt 0.9999996 0
v -0.2829311 0.0615421 -0.2312045
vn 0 0 -1
vt 0.9999996 0.9999996
v 0.2829311 0.0615421 -0.2312045
vn 0 0 -1
vt 0.6783041 0.9999996
v 0.2829311 0.0515421 -0.2312045
vn 0 0 -1
vt 0.6783041 0
v -0.3065028 0.0150963 -0.2076329
vn -0.3543307 -0.3307087 -0.8740157
vt 0.03570664 0.05096589
v -0.3162659 0.0515421 -0.2173959
vn -0.3543307 -0.3307087 -0.8740157
vt 0.02090517 0.02984709
v -0.2829311 0.0515421 -0.2312045
vn -0.3543307 -0.3307087 -0.8740157
vt 0.07141329 0
v -0.2829311 0.0150963 -0.2173959
vn -0.3543307 -0.3307087 -0.8740157
vt 0.07141329 0.02984709
v -0.3162659 0.0150963 -0.1840603
vn -0.8740157 -0.3307087 -0.3543307
vt 0.02090517 0.1019623
v -0.3300745 0.0515421 -0.1840603
vn -0.8740157 -0.3307087 -0.3543307
vt 0 0.1019623
v -0.3162659 0.0515421 -0.2173959
vn -0.8740157 -0.3307087 -0.3543307
vt 0.02090517 0.02984709
v -0.3065028 0.0150963 -0.2076329
vn -0.8740157 -0.3307087 -0.3543307
vt 0.03570664 0.05096589
v -0.3162659 0.0150963 0.1840603
vn -0.9370078 -0.3543307 0
vt 0.02090517 0.8980373
v -0.3300745 0.0515421 0.1840603
vn -0.9370078 -0.3543307 0
vt 0 0.8980373
v -0.3300745 0.0515421 -0.1840603
vn -0.9370078 -0.3543307 0
vt 0 0.1019623
v -0.3162659 0.0150963 -0.1840603
vn -0.9370078 -0.3543307 0
vt 0.02090517 0.1019623
v -0.3065028 0.0150963 0.2076329
vn -0.8740157 -0.3307087 0.3543307
vt 0.03570664 0.9490337
v -0.3162659 0.0515421 0.2173959
vn -0.8740157 -0.3307087 0.3543307
vt 0.02090517 0.9701526
v -0.3300745 0.0515421 0.1840603
vn -0.8740157 -0.3307087 0.3543307
vt 0 0.8980373
v -0.3162659 0.0150963 0.1840603
vn -0.8740157 -0.3307087 0.3543307
vt 0.02090517 0.8980373
v -0.2829311 0.0150963 0.2173959
vn -0.3543307 -0.3307087 0.8740157
vt 0.07141329 0.9701526
v -0.2829311 0.0515421 0.2312045
vn -0.3543307 -0.3307087 0.8740157
vt 0.07141329 0.9999996
v -0.3162659 0.0515421 0.2173959
vn -0.3543307 -0.3307087 0.8740157
vt 0.02090517 0.9701526
v -0.3065028 0.0150963 0.2076329
vn -0.3543307 -0.3307087 0.8740157
vt 0.03570664 0.9490337
v 0.2829311 0.0150963 0.2173959
vn 0 -0.3543307 0.9370078
vt 0.9285864 0.9701526
v 0.2829311 0.0515421 0.2312045
vn 0 -0.3543307 0.9370078
vt 0.9285864 0.9999996
v -0.2829311 0.0515421 0.2312045
vn 0 -0.3543307 0.9370078
vt 0.07141329 0.9999996
v -0.2829311 0.0150963 0.2173959
vn 0 -0.3543307 0.9370078
vt 0.07141329 0.9701526
v 0.3065028 0.0150963 0.2076329
vn 0.3543307 -0.3307087 0.8740157
vt 0.964293 0.9490337
v 0.3162659 0.0515421 0.2173959
vn 0.3543307 -0.3307087 0.8740157
vt 0.9790944 0.9701526
v 0.2829311 0.0515421 0.2312045
vn 0.3543307 -0.3307087 0.8740157
vt 0.9285864 0.9999996
v 0.2829311 0.0150963 0.2173959
vn 0.3543307 -0.3307087 0.8740157
vt 0.9285864 0.9701526
v 0.3162659 0.0150963 0.1840603
vn 0.8740157 -0.3307087 0.3543307
vt 0.9790944 0.8980373
v 0.3300745 0.0515421 0.1840603
vn 0.8740157 -0.3307087 0.3543307
vt 0.9999996 0.8980373
v 0.3162659 0.0515421 0.2173959
vn 0.8740157 -0.3307087 0.3543307
vt 0.9790944 0.9701526
v 0.3065028 0.0150963 0.2076329
vn 0.8740157 -0.3307087 0.3543307
vt 0.964293 0.9490337
v 0.3162659 0.0150963 -0.1840603
vn 0.9370078 -0.3543307 0
vt 0.9790944 0.1019623
v 0.3300745 0.0515421 -0.1840603
vn 0.9370078 -0.3543307 0
vt 0.9999996 0.1019623
v 0.3300745 0.0515421 0.1840603
vn 0.9370078 -0.3543307 0
vt 0.9999996 0.8980373
v 0.3162659 0.0150963 0.1840603
vn 0.9370078 -0.3543307 0
vt 0.9790944 0.8980373
v 0.3065028 0.0150963 -0.2076329
vn 0.8740157 -0.3307087 -0.3543307
vt 0.964293 0.05096589
v 0.3162659 0.0515421 -0.2173959
vn 0.8740157 -0.3307087 -0.3543307
vt 0.9790944 0.02984709
v 0.3300745 0.0515421 -0.1840603
vn 0.8740157 -0.3307087 -0.3543307
vt 0.9999996 0.1019623
v 0.3162659 0.0150963 -0.1840603
vn 0.8740157 -0.3307087 -0.3543307
vt 0.9790944 0.1019623
v 0.2829311 0.0150963 -0.2173959
vn 0.3543307 -0.3307087 -0.8740157
vt 0.9285864 0.02984709
v 0.2829311 0.0515421 -0.2312045
vn 0.3543307 -0.3307087 -0.8740157
vt 0.9285864 0
v 0.3162659 0.0515421 -0.2173959
vn 0.3543307 -0.3307087 -0.8740157
vt 0.9790944 0.02984709
v 0.3065028 0.0150963 -0.2076329
vn 0.3543307 -0.3307087 -0.8740157
vt 0.964293 0.05096589
v -0.2829311 0.0150963 -0.2173959
vn 0 -0.3543307 -0.9370078
vt 0.07141329 0.02984709
v -0.2829311 0.0515421 -0.2312045
vn 0 -0.3543307 -0.9370078
vt 0.07141329 0
v 0.2829311 0.0515421 -0.2312045
vn 0 -0.3543307 -0.9370078
vt 0.9285864 0
v 0.2829311 0.0150963 -0.2173959
vn 0 -0.3543307 -0.9370078
vt 0.9285864 0.02984709
v -0.2829311 0 0.1840603
vn 0 -1 0
vt 0.07141329 0.8980373
v -0.2829311 0 -0.1840603
vn 0 -1 0
vt 0.07141329 0.1019623
v 0.2829311 0 -0.1840603
vn 0 -1 0
vt 0.9285864 0.1019623
v 0.2829311 0 0.1840603
vn 0 -1 0
vt 0.9285864 0.8980373

f 1/1/1 2/2/2 3/3/3
f 1/1/1 3/3/3 4/4/4
f 1/1/1 4/4/4 5/5/5
f 1/1/1 5/5/5 6/6/6
f 1/1/1 6/6/6 7/7/7
f 4/4/4 8/8/8 5/5/5
f 6/6/6 9/9/9 7/7/7
f 9/9/9 10/10/10 7/7/7
f 9/9/9 11/11/11 10/10/10
f 11/11/11 12/12/12 10/10/10
f 11/11/11 13/13/13 12/12/12
f 13/13/13 14/14/14 12/12/12
f 13/13/13 15/15/15 14/14/14
f 13/13/13 16/16/16 15/15/15
f 13/13/13 17/17/17 16/16/16
f 14/14/14 15/15/15 18/18/18
f 19/19/19 20/20/20 21/21/21
f 19/19/19 22/22/22 20/20/20
f 19/19/19 23/23/23 22/22/22
f 19/19/19 24/24/24 23/23/23
f 19/19/19 25/25/25 24/24/24
f 26/26/26 27/27/27 28/28/28
f 26/26/26 29/29/29 27/27/27
f 26/26/26 30/30/30 29/29/29
f 26/26/26 31/31/31 30/30/30
f 26/26/26 32/32/32 31/31/31
f 33/33/33 34/34/34 35/35/35
f 33/33/33 35/35/35 36/36/36
f 33/33/33 36/36/36 37/37/37
f 36/36/36 38/38/38 37/37/37
f 38/38/38 39/39/39 37/37/37
f 38/38/38 40/40/40 39/39/39
f 40/40/40 41/41/41 39/39/39
f 40/40/40 42/42/42 41/41/41
f 42/42/42 43/43/43 41/41/41
f 42/42/42 44/44/44 43/43/43
f 45/45/45 46/46/46 47/47/47
f 45/45/45 47/47/47 48/48/48
f 45/45/45 48/48/48 49/49/49
f 48/48/48 50/50/50 49/49/49
f 50/50/50 51/51/51 49/49/49
f 50/50/50 52/52/52 51/51/51
f 52/52/52 53/53/53 51/51/51
f 52/52/52 54/54/54 53/53/53
f 54/54/54 55/55/55 53/53/53
f 54/54/54 56/56/56 55/55/55
f 57/57/57 58/58/58 59/59/59
f 57/57/57 59/59/59 60/60/60
f 57/57/57 60/60/60 61/61/61
f 60/60/60 62/62/62 61/61/61
f 63/63/63 64/64/64 65/65/65
f 63/63/63 65/65/65 66/66/66
f 63/63/63 66/66/66 67/67/67
f 66/66/66 68/68/68 67/67/67
f 69/69/69 70/70/70 71/71/71
f 69/69/69 71/71/71 72/72/72
f 69/69/69 72/72/72 73/73/73
f 72/72/72 74/74/74 73/73/73
f 75/75/75 76/76/76 77/77/77
f 75/75/75 77/77/77 78/78/78
f 75/75/75 78/78/78 79/79/79
f 78/78/78 80/80/80 79/79/79
f 81/81/81 82/82/82 83/83/83
f 81/81/81 83/83/83 84/84/84
f 85/85/85 86/86/86 87/87/87
f 85/85/85 87/87/87 88/88/88
f 89/89/89 90/90/90 91/91/91
f 89/89/89 91/91/91 92/92/92
f 93/93/93 94/94/94 95/95/95
f 93/93/93 95/95/95 96/96/96
f 97/97/97 98/98/98 99/99/99
f 97/97/97 99/99/99 100/100/100
f 101/101/101 102/102/102 103/103/103
f 101/101/101 103/103/103 104/104/104
f 105/105/105 106/106/106 107/107/107
f 105/105/105 107/107/107 108/108/108
f 109/109/109 110/110/110 111/111/111
f 109/109/109 111/111/111 112/112/112
f 113/113/113 114/114/114 115/115/115
f 113/113/113 115/115/115 116/116/116
f 117/117/117 118/118/118 119/119/119
f 117/117/117 119/119/119 120/120/120
f 121/121/121 122/122/122 123/123/123
f 121/121/121 123/123/123 124/124/124
f 125/125/125 126/126/126 127/127/127
f 125/125/125 127/127/127 128/128/128
f 129/129/129 130/130/130 131/131/131
f 129/129/129 131/131/131 132/132/132
f 133/133/133 134/134/134 135/135/135
f 133/133/133 135/135/135 136/136/136
f 137/137/137 138/138/138 139/139/139
f 137/137/137 139/139/139 140/140/140
f 141/141/141 142/142/142 143/143/143
f 141/141/141 143/143/143 144/144/144
f 145/145/145 146/146/146 147/147/147
f 145/145/145 147/147/147 148/148/148
f 149/149/149 150/150/150 151/151/151
f 149/149/149 151/151/151 152/152/152
f 153/153/153 154/154/154 155/155/155
f 153/153/153 155/155/155 156/156/156
f 157/157/157 158/158/158 159/159/159
f 157/157/157 159/159/159 160/160/160
f 161/161/161 162/162/162 163/163/163
f 161/161/161 163/163/163 164/164/164
f 165/165/165 166/166/166 167/167/167
f 165/165/165 167/167/167 168/168/168
f 169/169/169 170/170/170 171/171/171
f 169/169/169 171/171/171 172/172/172
f 173/173/173 174/174/174 175/175/175
f 173/173/173 175/175/175 176/176/176
f 177/177/177 178/178/178 179/179/179
f 177/177/177 179/179/179 180/180/180
f 181/181/181 182/182/182 183/183/183
f 181/181/181 183/183/183 184/184/184
f 185/185/185 186/186/186 187/187/187
f 185/185/185 187/187/187 188/188/188
f 189/189/189 190/190/190 191/191/191
f 189/189/189 191/191/191 192/192/192
f 193/193/193 194/194/194 195/195/195
f 193/193/193 195/195/195 196/196/196
f 197/197/197 198/198/198 199/199/199
f 197/197/197 199/199/199 200/200/200
f 201/201/201 202/202/202 203/203/203
f 201/201/201 203/203/203 204/204/204
f 205/205/205 206/206/206 207/207/207
f 205/205/205 207/207/207 208/208/208
f 209/209/209 210/210/210 211/211/211
f 209/209/209 211/211/211 212/212/212
f 213/213/213 214/214/214 215/215/215
f 213/213/213 215/215/215 216/216/216
f 217/217/217 218/218/218 219/219/219
f 217/217/217 219/219/219 220/220/220

