g Box003

usemtl colours.png

v -0.001856683 0.2092033 -0.6423725
vn 0 0 -1.000001
vt 0.8184049 0.9552138
v 0.1187491 0.08767115 -0.6423725
vn 0 0 -1.000001
vt 0.8184049 0.9229137
v -0.002783341 -0.0329337 -0.6423725
vn 0 0 -1.000001
vt 0.8347589 0.9229137
v -0.1233889 0.08859782 -0.6423725
vn 0 0 -1.000001
vt 0.8347589 0.9552138
v -0.00185637 0.2092033 0.6423745
vn 0 0 1.000001
vt 0.8347589 0.9552138
v -0.1233879 0.08859767 0.6423745
vn 0 0 1.000001
vt 0.8184049 0.9552138
v -0.002783013 -0.0329347 0.6423745
vn 0 0 1.000001
vt 0.8184049 0.9229137
v 0.1187491 0.087671 0.6423745
vn 0 0 1.000001
vt 0.8347589 0.9229137
v 0.1187491 0.087671 0.6423745
vn 0.7007878 -0.7086619 0
vt 0.3296474 0.9392678
v -0.002783013 -0.0329347 0.6423745
vn 0.7007878 -0.7086619 0
vt 0.3132933 0.9392678
v -0.002783341 -0.0329337 -0.6423725
vn 0.7007878 -0.7086619 0
vt 0.3132933 0.9069386
v 0.1187491 0.08767115 -0.6423725
vn 0.7007878 -0.7086619 0
vt 0.3296474 0.9069386
v -0.00185637 0.2092033 0.6423745
vn 0.7086619 0.7007878 0
vt 0.3296474 0.9392678
v 0.1187491 0.087671 0.6423745
vn 0.7086619 0.7007878 0
vt 0.3132933 0.9392678
v 0.1187491 0.08767115 -0.6423725
vn 0.7086619 0.7007878 0
vt 0.3132933 0.9069386
v -0.001856683 0.2092033 -0.6423725
vn 0.7086619 0.7007878 0
vt 0.3296474 0.9069386
v -0.1233879 0.08859767 0.6423745
vn -0.7007878 0.7086619 0
vt 0.3296474 0.9392678
v -0.00185637 0.2092033 0.6423745
vn -0.7007878 0.7086619 0
vt 0.3132933 0.9392678
v -0.001856683 0.2092033 -0.6423725
vn -0.7007878 0.7086619 0
vt 0.3132933 0.9069386
v -0.1233889 0.08859782 -0.6423725
vn -0.7007878 0.7086619 0
vt 0.3296474 0.9069386
v -0.002783013 -0.0329347 0.6423745
vn -0.7086619 -0.7007878 0
vt 0.3296474 0.9392678
v -0.1233879 0.08859767 0.6423745
vn -0.7086619 -0.7007878 0
vt 0.3132933 0.9392678
v -0.1233889 0.08859782 -0.6423725
vn -0.7086619 -0.7007878 0
vt 0.3132933 0.9069386
v -0.002783341 -0.0329337 -0.6423725
vn -0.7086619 -0.7007878 0
vt 0.3296474 0.9069386

f 1/1/1 2/2/2 3/3/3
f 3/3/3 4/4/4 1/1/1
f 5/5/5 6/6/6 7/7/7
f 7/7/7 8/8/8 5/5/5
f 9/9/9 10/10/10 11/11/11
f 11/11/11 12/12/12 9/9/9
f 13/13/13 14/14/14 15/15/15
f 15/15/15 16/16/16 13/13/13
f 17/17/17 18/18/18 19/19/19
f 19/19/19 20/20/20 17/17/17
f 21/21/21 22/22/22 23/23/23
f 23/23/23 24/24/24 21/21/21

