g matches

usemtl colours.png

v 0.0317499 0 -0.0517405
vn 0 -0.9999996 0
vt 0.5425898 0.8341124
v 0.0317499 0 0.0517405
vn 0 -0.9999996 0
vt 0.5425898 0.7983328
v -0.0317499 0 0.0517405
vn 0 -0.9999996 0
vt 0.5818254 0.7983328
v -0.0317499 0 -0.0517405
vn 0 -0.9999996 0
vt 0.5818254 0.8341124
v 0.0317499 0.0199907 -0.0517405
vn 0 0.9999996 0
vt 0.5818254 0.8341124
v -0.0317499 0.0199907 -0.0517405
vn 0 0.9999996 0
vt 0.5425898 0.8341124
v -0.0317499 0.0199907 0.0517405
vn 0 0.9999996 0
vt 0.5425898 0.7983328
v 0.0317499 0.0199907 0.0517405
vn 0 0.9999996 0
vt 0.5818254 0.7983328
v 0.0317499 0.0199907 0.0517405
vn 0 0 0.9999996
vt 0.4643219 0.9516159
v -0.0317499 0.0199907 0.0517405
vn 0 0 0.9999996
vt 0.4250863 0.9516159
v -0.0317499 0 0.0517405
vn 0 0 0.9999996
vt 0.4250863 0.9158363
v 0.0317499 0 0.0517405
vn 0 0 0.9999996
vt 0.4643219 0.9158363
v 0.0317499 0.0199907 -0.0517405
vn 0.9999996 0 0
vt 0.08416343 0.9516159
v 0.0317499 0.0199907 0.0517405
vn 0.9999996 0 0
vt 0.04492782 0.9516159
v 0.0317499 0 0.0517405
vn 0.9999996 0 0
vt 0.04492782 0.9158363
v 0.0317499 0 -0.0517405
vn 0.9999996 0 0
vt 0.08416343 0.9158363
v -0.0317499 0.0199907 -0.0517405
vn 0 0 -0.9999996
vt 0.4643219 0.9516159
v 0.0317499 0.0199907 -0.0517405
vn 0 0 -0.9999996
vt 0.4250863 0.9516159
v 0.0317499 0 -0.0517405
vn 0 0 -0.9999996
vt 0.4250863 0.9158363
v -0.0317499 0 -0.0517405
vn 0 0 -0.9999996
vt 0.4643219 0.9158363
v -0.0317499 0.0199907 0.0517405
vn -0.9999996 0 0
vt 0.08416343 0.9516159
v -0.0317499 0.0199907 -0.0517405
vn -0.9999996 0 0
vt 0.04492782 0.9516159
v -0.0317499 0 -0.0517405
vn -0.9999996 0 0
vt 0.04492782 0.9158363
v -0.0317499 0 0.0517405
vn -0.9999996 0 0
vt 0.08416343 0.9158363

f 1/1/1 2/2/2 3/3/3
f 3/3/3 4/4/4 1/1/1
f 5/5/5 6/6/6 7/7/7
f 7/7/7 8/8/8 5/5/5
f 9/9/9 10/10/10 11/11/11
f 11/11/11 12/12/12 9/9/9
f 13/13/13 14/14/14 15/15/15
f 15/15/15 16/16/16 13/13/13
f 17/17/17 18/18/18 19/19/19
f 19/19/19 20/20/20 17/17/17
f 21/21/21 22/22/22 23/23/23
f 23/23/23 24/24/24 21/21/21

