g matches

usemtl colours.png

v -0.1016462 0 -0.09438369
vn 0 -1 0
vt 0.4117247 0.8238932
v 0.1016462 0 -0.09438369
vn 0 -1 0
vt 0.4117247 0.7881258
v 0.1016462 0 0.09438369
vn 0 -1 0
vt 0.4509535 0.7881258
v -0.1016462 0 0.09438369
vn 0 -1 0
vt 0.4509535 0.8238932
v -0.0203292 0.09552289 -0.09438369
vn 0 1 0
vt 0.4509535 0.8095744
v -0.0203292 0.09552289 0.09438369
vn 0 1 0
vt 0.4117247 0.8095744
v 0.0203292 0.09552289 0.09438369
vn 0 1 0
vt 0.4117247 0.802415
v 0.0203292 0.09552289 -0.09438369
vn 0 1 0
vt 0.4509535 0.802415
v 0.1016462 0 0.09438369
vn 1 0 0
vt 0.4129672 0.7849602
v 0.1016462 0 -0.09438369
vn 1 0 0
vt 0.452196 0.7849602
v 0.1016462 0.031841 -0.09438369
vn 1 0 0
vt 0.452196 0.7968827
v 0.1016462 0.0623135 -0.09438369
vn 1 0 0
vt 0.452196 0.8028587
v 0.1016462 0.0623135 0.09438369
vn 1 0 0
vt 0.4129672 0.8028587
v -0.1016462 0.06368189 -0.09438369
vn 0 0 -1
vt 0.4483501 0.8227986
v 0.1016462 0.06368189 -0.09438369
vn 0 0 -1
vt 0.4091509 0.8227986
v 0.1016462 0.0623135 -0.09438369
vn 0 0 -1
vt 0.4091509 0.8168225
v 0.1016462 0.031841 -0.09438369
vn 0 0 -1
vt 0.4091509 0.8108761
v -0.1016462 0.06277898 -0.09438369
vn 0 0 -1
vt 0.4483501 0.8168225
v -0.1016462 0.031841 -0.09438369
vn 0 0 -1
vt 0.4483501 0.8108761
v 0.1016462 0 -0.09438369
vn 0 0 -1
vt 0.4091509 0.7989536
v -0.1016462 0 -0.09438369
vn 0 0 -1
vt 0.4483501 0.7989536
v -0.1016462 0 0.09438369
vn -1 0 0
vt 0.452196 0.7849602
v -0.1016462 0.06277898 0.09438369
vn -1 0 0
vt 0.452196 0.8028587
v -0.1016462 0.06277898 -0.09438369
vn -1 0 0
vt 0.4129672 0.8028587
v -0.1016462 0.031841 -0.09438369
vn -1 0 0
vt 0.4129672 0.7968827
v -0.1016462 0 -0.09438369
vn -1 0 0
vt 0.4129672 0.7849602
v -0.1016462 0 0.09438369
vn 0 0 1
vt 0.4150677 0.7890725
v 0.1016462 0 0.09438369
vn 0 0 1
vt 0.4542965 0.7890725
v 0.1016462 0.0623135 0.09438369
vn 0 0 1
vt 0.4542965 0.8069414
v 0.1016462 0.09552289 0.09438369
vn 0 0 1
vt 0.4542965 0.8248399
v -0.06098773 0.09552289 0.09438369
vn 0 0 1
vt 0.4229076 0.8248399
v -0.1016462 0.09552289 0.09438369
vn 0 0 1
vt 0.4150677 0.8248399
v -0.1016462 0.06277898 0.09438369
vn 0 0 1
vt 0.4150677 0.8069414
v -0.0203292 0.09552289 0.09438369
vn 0 0 1
vt 0.4307474 0.8248399
v 0.0203292 0.09552289 0.09438369
vn 0 0 1
vt 0.4386168 0.8248399
v 0.06098773 0.09552289 0.09438369
vn 0 0 1
vt 0.4464567 0.8248399
v 0.06098773 0.09552289 -0.09438369
vn 0 0 -1
vt 0.9379998 0.9602768
v 0.1016462 0.09552289 -0.09438369
vn 0 0 -1
vt 0.93016 0.9602768
v 0.1016462 0.06368189 -0.09438369
vn 0 0 -1
vt 0.93016 0.9483543
v 0.0203292 0.09552289 -0.09438369
vn 0 0 -1
vt 0.9458693 0.9602768
v -0.0203292 0.09552289 -0.09438369
vn 0 0 -1
vt 0.9537091 0.9602768
v -0.06098773 0.09552289 -0.09438369
vn 0 0 -1
vt 0.9615489 0.9602768
v -0.1016462 0.09552289 -0.09438369
vn 0 0 -1
vt 0.9693888 0.9602768
v -0.1016462 0.06368189 -0.09438369
vn 0 0 -1
vt 0.9693888 0.9483543
v -0.1016462 0.06277898 0.09438369
vn -1 0 0
vt 0.9532357 0.9255449
v -0.1016462 0.09552289 0.09438369
vn -1 0 0
vt 0.9532357 0.9434434
v -0.1016462 0.09552289 -0.09438369
vn -1 0 0
vt 0.9140069 0.9434434
v -0.1016462 0.06368189 -0.09438369
vn -1 0 0
vt 0.9140069 0.9315209
v -0.1016462 0.06277898 -0.09438369
vn -1 0 0
vt 0.9140069 0.9255449
v 0.1016462 0.06368189 -0.09438369
vn 1 0 0
vt 0.9532357 0.9315209
v 0.1016462 0.09552289 -0.09438369
vn 1 0 0
vt 0.9532357 0.9434434
v 0.1016462 0.09552289 0.09438369
vn 1 0 0
vt 0.9140069 0.9434434
v 0.1016462 0.0623135 -0.09438369
vn 1 0 0
vt 0.9532357 0.9255449
v 0.1016462 0.0623135 0.09438369
vn 1 0 0
vt 0.9140069 0.9255449
v -0.1016462 0.09552289 -0.09438369
vn 0 1 0
vt 0.4509535 0.8238932
v -0.1016462 0.09552289 0.09438369
vn 0 1 0
vt 0.4117247 0.8238932
v -0.06098773 0.09552289 0.09438369
vn 0 1 0
vt 0.4117247 0.8167338
v -0.06098773 0.09552289 -0.09438369
vn 0 1 0
vt 0.4509535 0.8167338
v -0.06098773 0.09552289 -0.09438369
vn 0 1 0
vt 0.9540049 0.9292133
v -0.06098773 0.09552289 0.09438369
vn 0 1 0
vt 0.9147761 0.9292133
v -0.0203292 0.09552289 0.09438369
vn 0 1 0
vt 0.9147761 0.9220539
v -0.0203292 0.09552289 -0.09438369
vn 0 1 0
vt 0.9540049 0.9220539
v 0.1016462 0.09552289 0.09438369
vn 0 1 0
vt 0.4117247 0.7881258
v 0.1016462 0.09552289 -0.09438369
vn 0 1 0
vt 0.4509535 0.7881258
v 0.06098773 0.09552289 -0.09438369
vn 0 1 0
vt 0.4509535 0.7952852
v 0.06098773 0.09552289 0.09438369
vn 0 1 0
vt 0.4117247 0.7952852
v 0.06098773 0.09552289 0.09438369
vn 0 1 0
vt 0.9147761 0.9077351
v 0.06098773 0.09552289 -0.09438369
vn 0 1 0
vt 0.9540049 0.9077351
v 0.0203292 0.09552289 -0.09438369
vn 0 1 0
vt 0.9540049 0.9148945
v 0.0203292 0.09552289 0.09438369
vn 0 1 0
vt 0.9147761 0.9148945

f 1/1/1 2/2/2 3/3/3
f 3/3/3 4/4/4 1/1/1
f 5/5/5 6/6/6 7/7/7
f 7/7/7 8/8/8 5/5/5
f 9/9/9 10/10/10 11/11/11
f 9/9/9 11/11/11 12/12/12
f 9/9/9 12/12/12 13/13/13
f 14/14/14 15/15/15 16/16/16
f 14/14/14 16/16/16 17/17/17
f 18/18/18 14/14/14 17/17/17
f 19/19/19 18/18/18 17/17/17
f 19/19/19 17/17/17 20/20/20
f 19/19/19 20/20/20 21/21/21
f 22/22/22 23/23/23 24/24/24
f 22/22/22 24/24/24 25/25/25
f 26/26/26 22/22/22 25/25/25
f 27/27/27 28/28/28 29/29/29
f 27/27/27 29/29/29 30/30/30
f 31/31/31 32/32/32 33/33/33
f 34/34/34 31/31/31 33/33/33
f 35/35/35 34/34/34 33/33/33
f 36/36/36 35/35/35 33/33/33
f 30/30/30 36/36/36 33/33/33
f 27/27/27 30/30/30 33/33/33
f 37/37/37 38/38/38 39/39/39
f 40/40/40 37/37/37 39/39/39
f 41/41/41 40/40/40 39/39/39
f 42/42/42 41/41/41 39/39/39
f 43/43/43 42/42/42 39/39/39
f 44/44/44 43/43/43 39/39/39
f 45/45/45 46/46/46 47/47/47
f 45/45/45 47/47/47 48/48/48
f 45/45/45 48/48/48 49/49/49
f 50/50/50 51/51/51 52/52/52
f 53/53/53 50/50/50 52/52/52
f 53/53/53 52/52/52 54/54/54
f 55/55/55 56/56/56 57/57/57
f 57/57/57 58/58/58 55/55/55
f 59/59/59 60/60/60 61/61/61
f 61/61/61 62/62/62 59/59/59
f 63/63/63 64/64/64 65/65/65
f 65/65/65 66/66/66 63/63/63
f 67/67/67 68/68/68 69/69/69
f 69/69/69 70/70/70 67/67/67

