g Box001

usemtl colours.png

v -0.07683467 0.01078467 0.01972088
vn 0 1 0
vt 0.2838452 0.8136286
v -0.0628265 0.01078467 0.01560105
vn 0 1 0
vt 0.2918591 0.8136286
v -0.0628265 0.01078467 -0.01608995
vn 0 1 0
vt 0.2918591 0.8336253
v -0.07683467 0.01078467 -0.02020978
vn 0 1 0
vt 0.2838452 0.8336253
v -0.0628265 0.01078467 0.01560105
vn -0.7217933 0.6920987 0
vt 0.419115 0.8064543
v -0.05518337 0.01875599 0.01560105
vn -0.7217933 0.6920987 0
vt 0.4271035 0.8064543
v -0.05518337 0.01875599 -0.01608995
vn -0.7217933 0.6920987 0
vt 0.4271035 0.8264509
v -0.0628265 0.01078467 -0.01608995
vn -0.7217933 0.6920987 0
vt 0.419115 0.8264509
v 0.005929891 0.01875599 0.01560105
vn 0 1 0
vt 0.4319119 0.8064543
v 0.005929891 0.01875599 -0.01608995
vn 0 1 0
vt 0.4319119 0.8264509
v -0.005000171 0.01875599 -0.01608995
vn 0 1 0
vt 0.4303091 0.8264509
v -0.005000171 0.01875599 0.01560105
vn 0 1 0
vt 0.4303091 0.8064543
v 0.04996398 0.01875599 0.01560105
vn 0.6639607 0.7477645 0
vt 0.4351174 0.8064543
v 0.0589413 0.01078467 0.01560105
vn 0.6639607 0.7477645 0
vt 0.4431059 0.8064543
v 0.0589413 0.01078467 -0.01608995
vn 0.6639607 0.7477645 0
vt 0.4431059 0.8264509
v 0.04996398 0.01875599 -0.01608995
vn 0.6639607 0.7477645 0
vt 0.4351174 0.8264509
v 0.0589413 0.01078467 0.01560105
vn 0 1 0
vt 0.31585 0.8136286
v 0.07683467 0.01078467 0.01972088
vn 0 1 0
vt 0.3238639 0.8136286
v 0.07683467 0.01078467 -0.02020978
vn 0 1 0
vt 0.3238639 0.8336253
v 0.0589413 0.01078467 -0.01608995
vn 0 1 0
vt 0.31585 0.8336253
v -0.07683467 0.007971271 0.01972088
vn 0.2821436 0 0.9593799
vt 0.2838452 0.8136286
v -0.0628265 0.007971271 0.01560105
vn 0.2821436 0 0.9593799
vt 0.2918591 0.8136286
v -0.0628265 0.01078467 0.01560105
vn 0.2821436 0 0.9593799
vt 0.2918591 0.8336253
v -0.07683467 0.01078467 0.01972088
vn 0.2821436 0 0.9593799
vt 0.2838452 0.8336253
v -0.0628265 0.007971271 0.01560105
vn 0 0 1
vt 0.419115 0.8064543
v -0.05518337 0 0.01560105
vn 0 0 1
vt 0.4271035 0.8064543
v -0.05518337 0.01875599 0.01560105
vn 0 0 1
vt 0.4271035 0.8264509
v -0.0628265 0.01078467 0.01560105
vn 0 0 1
vt 0.419115 0.8264509
v 0.005929891 0 0.01560105
vn 0 0 1
vt 0.4319119 0.8064543
v 0.005929891 0.01875599 0.01560105
vn 0 0 1
vt 0.4319119 0.8264509
v -0.005000171 0.01875599 0.01560105
vn 0 0 1
vt 0.4303091 0.8264509
v -0.005000171 0 0.01560105
vn 0 0 1
vt 0.4303091 0.8064543
v 0.04996398 0 0.01560105
vn 0 0 1
vt 0.4351174 0.8064543
v 0.0589413 0.007971271 0.01560105
vn 0 0 1
vt 0.4431059 0.8064543
v 0.0589413 0.01078467 0.01560105
vn 0 0 1
vt 0.4431059 0.8264509
v 0.04996398 0.01875599 0.01560105
vn 0 0 1
vt 0.4351174 0.8264509
v 0.0589413 0.007971271 0.01560105
vn -0.2243721 0 0.974517
vt 0.31585 0.8136286
v 0.07683467 0.007971271 0.01972088
vn -0.2243721 0 0.974517
vt 0.3238639 0.8136286
v 0.07683467 0.01078467 0.01972088
vn -0.2243721 0 0.974517
vt 0.3238639 0.8336253
v 0.0589413 0.01078467 0.01560105
vn -0.2243721 0 0.974517
vt 0.31585 0.8336253
v 0.07683467 0.007971271 0.01972088
vn 1 0 0
vt 0.2838452 0.8136286
v 0.07683467 0.007971271 -0.02020978
vn 1 0 0
vt 0.3238639 0.8136286
v 0.07683467 0.01078467 -0.02020978
vn 1 0 0
vt 0.3238639 0.8336253
v 0.07683467 0.01078467 0.01972088
vn 1 0 0
vt 0.2838452 0.8336253
v 0.07683467 0.007971271 -0.02020978
vn -0.2243721 0 -0.974517
vt 0.2838452 0.8136286
v 0.0589413 0.007971271 -0.01608995
vn -0.2243721 0 -0.974517
vt 0.2918591 0.8136286
v 0.0589413 0.01078467 -0.01608995
vn -0.2243721 0 -0.974517
vt 0.2918591 0.8336253
v 0.07683467 0.01078467 -0.02020978
vn -0.2243721 0 -0.974517
vt 0.2838452 0.8336253
v 0.0589413 0.007971271 -0.01608995
vn 0 0 -1
vt 0.419115 0.8064543
v 0.04996398 0 -0.01608995
vn 0 0 -1
vt 0.4271035 0.8064543
v 0.04996398 0.01875599 -0.01608995
vn 0 0 -1
vt 0.4271035 0.8264509
v 0.0589413 0.01078467 -0.01608995
vn 0 0 -1
vt 0.419115 0.8264509
v -0.005000171 0 -0.01608995
vn 0 0 -1
vt 0.4319119 0.8064543
v -0.005000171 0.01875599 -0.01608995
vn 0 0 -1
vt 0.4319119 0.8264509
v 0.005929891 0.01875599 -0.01608995
vn 0 0 -1
vt 0.4303091 0.8264509
v 0.005929891 0 -0.01608995
vn 0 0 -1
vt 0.4303091 0.8064543
v -0.05518337 0 -0.01608995
vn 0 0 -1
vt 0.4351174 0.8064543
v -0.0628265 0.007971271 -0.01608995
vn 0 0 -1
vt 0.4431059 0.8064543
v -0.0628265 0.01078467 -0.01608995
vn 0 0 -1
vt 0.4431059 0.8264509
v -0.05518337 0.01875599 -0.01608995
vn 0 0 -1
vt 0.4351174 0.8264509
v -0.0628265 0.007971271 -0.01608995
vn 0.2821436 0 -0.9593799
vt 0.31585 0.8136286
v -0.07683467 0.007971271 -0.02020978
vn 0.2821436 0 -0.9593799
vt 0.3238639 0.8136286
v -0.07683467 0.01078467 -0.02020978
vn 0.2821436 0 -0.9593799
vt 0.3238639 0.8336253
v -0.0628265 0.01078467 -0.01608995
vn 0.2821436 0 -0.9593799
vt 0.31585 0.8336253
v -0.07683467 0.007971271 -0.02020978
vn -1 0 0
vt 0.2838452 0.8136286
v -0.07683467 0.007971271 0.01972088
vn -1 0 0
vt 0.3238639 0.8136286
v -0.07683467 0.01078467 0.01972088
vn -1 0 0
vt 0.3238639 0.8336253
v -0.07683467 0.01078467 -0.02020978
vn -1 0 0
vt 0.2838452 0.8336253
v 0.04996398 0.01875599 0.01560105
vn 0 1 0
vt 0.4351174 0.8064543
v 0.04996398 0.01875599 -0.01608995
vn 0 1 0
vt 0.4351174 0.8264509
v 0.01434169 0.01875599 -0.01608995
vn 0 1 0
vt 0.4335147 0.8264509
v 0.01434169 0.01875599 0.01560105
vn 0 1 0
vt 0.4335147 0.8064543
v 0.01434169 0.01875599 0.01560105
vn 0 1 0
vt 0.5705144 0.800323
v 0.01434169 0.01875599 -0.01608995
vn 0 1 0
vt 0.5705144 0.8203197
v 0.005929891 0.01875599 -0.01608995
vn 0 1 0
vt 0.5689117 0.8203197
v 0.005929891 0.01875599 0.01560105
vn 0 1 0
vt 0.5689117 0.800323
v -0.05518337 0.01875599 -0.01608995
vn 0 1 0
vt 0.4271035 0.8264509
v -0.05518337 0.01875599 0.01560105
vn 0 1 0
vt 0.4271035 0.8064543
v -0.01341197 0.01875599 0.01560105
vn 0 1 0
vt 0.4287063 0.8064543
v -0.01341197 0.01875599 -0.01608995
vn 0 1 0
vt 0.4287063 0.8264509
v -0.01341197 0.01875599 -0.01608995
vn 0 1 0
vt 0.5657315 0.8203197
v -0.01341197 0.01875599 0.01560105
vn 0 1 0
vt 0.5657315 0.800323
v -0.005000171 0.01875599 0.01560105
vn 0 1 0
vt 0.5673088 0.800323
v -0.005000171 0.01875599 -0.01608995
vn 0 1 0
vt 0.5673088 0.8203197
v 0.04996398 0 0.01560105
vn 0 0 1
vt 0.4351174 0.8064543
v 0.04996398 0.01875599 0.01560105
vn 0 0 1
vt 0.4351174 0.8264509
v 0.01434169 0.01875599 0.01560105
vn 0 0 1
vt 0.4335147 0.8264509
v 0.01434169 0 0.01560105
vn 0 0 1
vt 0.4335147 0.8064543
v 0.01434169 0 0.01560105
vn 0 0 1
vt 0.5705144 0.800323
v 0.01434169 0.01875599 0.01560105
vn 0 0 1
vt 0.5705144 0.8203197
v 0.005929891 0.01875599 0.01560105
vn 0 0 1
vt 0.5689117 0.8203197
v 0.005929891 0 0.01560105
vn 0 0 1
vt 0.5689117 0.800323
v -0.05518337 0.01875599 0.01560105
vn 0 0 1
vt 0.4271035 0.8264509
v -0.05518337 0 0.01560105
vn 0 0 1
vt 0.4271035 0.8064543
v -0.01341197 0 0.01560105
vn 0 0 1
vt 0.4287063 0.8064543
v -0.01341197 0.01875599 0.01560105
vn 0 0 1
vt 0.4287063 0.8264509
v -0.01341197 0.01875599 0.01560105
vn 0 0 1
vt 0.5657315 0.8203197
v -0.01341197 0 0.01560105
vn 0 0 1
vt 0.5657315 0.800323
v -0.005000171 0 0.01560105
vn 0 0 1
vt 0.5673088 0.800323
v -0.005000171 0.01875599 0.01560105
vn 0 0 1
vt 0.5673088 0.8203197
v -0.05518337 0 -0.01608995
vn 0 0 -1
vt 0.4351174 0.8064543
v -0.05518337 0.01875599 -0.01608995
vn 0 0 -1
vt 0.4351174 0.8264509
v -0.01341197 0.01875599 -0.01608995
vn 0 0 -1
vt 0.4335147 0.8264509
v -0.01341197 0 -0.01608995
vn 0 0 -1
vt 0.4335147 0.8064543
v -0.005000171 0.01875599 -0.01608995
vn 0 0 -1
vt 0.4319119 0.8264509
v -0.005000171 0 -0.01608995
vn 0 0 -1
vt 0.4319119 0.8064543
v 0.04996398 0.01875599 -0.01608995
vn 0 0 -1
vt 0.4271035 0.8264509
v 0.04996398 0 -0.01608995
vn 0 0 -1
vt 0.4271035 0.8064543
v 0.01434169 0 -0.01608995
vn 0 0 -1
vt 0.4287063 0.8064543
v 0.01434169 0.01875599 -0.01608995
vn 0 0 -1
vt 0.4287063 0.8264509
v 0.005929891 0 -0.01608995
vn 0 0 -1
vt 0.4303091 0.8064543
v 0.005929891 0.01875599 -0.01608995
vn 0 0 -1
vt 0.4303091 0.8264509

f 1/1/1 2/2/2 3/3/3
f 3/3/3 4/4/4 1/1/1
f 5/5/5 6/6/6 7/7/7
f 7/7/7 8/8/8 5/5/5
f 9/9/9 10/10/10 11/11/11
f 11/11/11 12/12/12 9/9/9
f 13/13/13 14/14/14 15/15/15
f 15/15/15 16/16/16 13/13/13
f 17/17/17 18/18/18 19/19/19
f 19/19/19 20/20/20 17/17/17
f 21/21/21 22/22/22 23/23/23
f 23/23/23 24/24/24 21/21/21
f 25/25/25 26/26/26 27/27/27
f 27/27/27 28/28/28 25/25/25
f 29/29/29 30/30/30 31/31/31
f 31/31/31 32/32/32 29/29/29
f 33/33/33 34/34/34 35/35/35
f 35/35/35 36/36/36 33/33/33
f 37/37/37 38/38/38 39/39/39
f 39/39/39 40/40/40 37/37/37
f 41/41/41 42/42/42 43/43/43
f 43/43/43 44/44/44 41/41/41
f 45/45/45 46/46/46 47/47/47
f 47/47/47 48/48/48 45/45/45
f 49/49/49 50/50/50 51/51/51
f 51/51/51 52/52/52 49/49/49
f 53/53/53 54/54/54 55/55/55
f 55/55/55 56/56/56 53/53/53
f 57/57/57 58/58/58 59/59/59
f 59/59/59 60/60/60 57/57/57
f 61/61/61 62/62/62 63/63/63
f 63/63/63 64/64/64 61/61/61
f 65/65/65 66/66/66 67/67/67
f 67/67/67 68/68/68 65/65/65
f 69/69/69 70/70/70 71/71/71
f 71/71/71 72/72/72 69/69/69
f 73/73/73 74/74/74 75/75/75
f 75/75/75 76/76/76 73/73/73
f 77/77/77 78/78/78 79/79/79
f 79/79/79 80/80/80 77/77/77
f 81/81/81 82/82/82 83/83/83
f 83/83/83 84/84/84 81/81/81
f 85/85/85 86/86/86 87/87/87
f 87/87/87 88/88/88 85/85/85
f 89/89/89 90/90/90 91/91/91
f 91/91/91 92/92/92 89/89/89
f 93/93/93 94/94/94 95/95/95
f 95/95/95 96/96/96 93/93/93
f 97/97/97 98/98/98 99/99/99
f 99/99/99 100/100/100 97/97/97
f 101/101/101 102/102/102 103/103/103
f 103/103/103 104/104/104 101/101/101
f 104/104/104 103/103/103 105/105/105
f 105/105/105 106/106/106 104/104/104
f 107/107/107 108/108/108 109/109/109
f 109/109/109 110/110/110 107/107/107
f 110/110/110 109/109/109 111/111/111
f 111/111/111 112/112/112 110/110/110

