g matches

usemtl colours.png

v -0.1280815 0 -0.06050186
vn 0 -1 0
vt 0.05232953 0.9500226
v 0.1280815 0 -0.06050186
vn 0 -1 0
vt 0.05232953 0.9142534
v 0.1280815 0 0.06050186
vn 0 -1 0
vt 0.09156213 0.9142534
v -0.1280815 0 0.06050186
vn 0 -1 0
vt 0.09156213 0.9500226
v -0.02561624 0.03517145 -0.06050186
vn 0 1 0
vt 0.09156213 0.9357032
v -0.02561624 0.03517145 0.06050186
vn 0 1 0
vt 0.05232953 0.9357032
v 0.02561624 0.03517145 0.06050186
vn 0 1 0
vt 0.05232953 0.9285436
v 0.02561624 0.03517145 -0.06050186
vn 0 1 0
vt 0.09156213 0.9285436
v 0.1280815 0.03517145 -0.06050186
vn 1 0 0
vt 0.2088525 0.9536606
v 0.1280815 0.03517145 0.06050186
vn 1 0 0
vt 0.1696199 0.9536606
v 0.1280815 0 0.06050186
vn 1 0 0
vt 0.1696199 0.9178914
v 0.1280815 0 -0.06050186
vn 1 0 0
vt 0.2088525 0.9178914
v 0.1280815 0 -0.06050186
vn 0 0 -1
vt 0.05020492 0.7822654
v -0.1280815 0 -0.06050186
vn 0 0 -1
vt 0.08940841 0.7822654
v -0.1280815 0.03517145 -0.06050186
vn 0 0 -1
vt 0.08940841 0.8180345
v -0.05675568 0.03517145 -0.06050186
vn 0 0 -1
vt 0.08157935 0.8180345
v -0.02561624 0.03517145 -0.06050186
vn 0 0 -1
vt 0.07372119 0.8180345
v 0.02561624 0.03517145 -0.06050186
vn 0 0 -1
vt 0.06589214 0.8180345
v 0.05913019 0.03517145 -0.06050186
vn 0 0 -1
vt 0.05803397 0.8180345
v 0.1280815 0.03517145 -0.06050186
vn 0 0 -1
vt 0.05020492 0.8180345
v -0.1280815 0.03517145 0.06050186
vn -1 0 0
vt 0.2088525 0.9536606
v -0.1280815 0.03517145 -0.06050186
vn -1 0 0
vt 0.1696199 0.9536606
v -0.1280815 0 -0.06050186
vn -1 0 0
vt 0.1696199 0.9178914
v -0.1280815 0 0.06050186
vn -1 0 0
vt 0.2088525 0.9178914
v -0.1280815 0 0.06050186
vn 0 0 1
vt 0.05020492 0.7822654
v 0.1280815 0 0.06050186
vn 0 0 1
vt 0.08940841 0.7822654
v 0.1280815 0.03517145 0.06050186
vn 0 0 1
vt 0.08940841 0.8180345
v 0.05913019 0.03517145 0.06050186
vn 0 0 1
vt 0.08157935 0.8180345
v 0.02561624 0.03517145 0.06050186
vn 0 0 1
vt 0.07372119 0.8180345
v -0.02561624 0.03517145 0.06050186
vn 0 0 1
vt 0.06589214 0.8180345
v -0.05675568 0.03517145 0.06050186
vn 0 0 1
vt 0.05803397 0.8180345
v -0.1280815 0.03517145 0.06050186
vn 0 0 1
vt 0.05020492 0.8180345
v -0.1280815 0.03517145 -0.06050186
vn 0 1 0
vt 0.09156213 0.9500226
v -0.1280815 0.03517145 0.06050186
vn 0 1 0
vt 0.05232953 0.9500226
v -0.05675568 0.03517145 0.06050186
vn 0 1 0
vt 0.05232953 0.9428629
v -0.05675568 0.03517145 -0.06050186
vn 0 1 0
vt 0.09156213 0.9428629
v -0.05675568 0.03517145 -0.06050186
vn 0 1 0
vt 0.2122286 0.8263002
v -0.05675568 0.03517145 0.06050186
vn 0 1 0
vt 0.172996 0.8263002
v -0.02561624 0.03517145 0.06050186
vn 0 1 0
vt 0.172996 0.8191405
v -0.02561624 0.03517145 -0.06050186
vn 0 1 0
vt 0.2122286 0.8191405
v 0.1280815 0.03517145 0.06050186
vn 0 1 0
vt 0.05232953 0.9142534
v 0.1280815 0.03517145 -0.06050186
vn 0 1 0
vt 0.09156213 0.9142534
v 0.05913019 0.03517145 -0.06050186
vn 0 1 0
vt 0.09156213 0.9213839
v 0.05913019 0.03517145 0.06050186
vn 0 1 0
vt 0.05232953 0.9213839
v 0.05913019 0.03517145 0.06050186
vn 0 1 0
vt 0.172996 0.8048212
v 0.05913019 0.03517145 -0.06050186
vn 0 1 0
vt 0.2122286 0.8048212
v 0.02561624 0.03517145 -0.06050186
vn 0 1 0
vt 0.2122286 0.8119808
v 0.02561624 0.03517145 0.06050186
vn 0 1 0
vt 0.172996 0.8119808

f 1/1/1 2/2/2 3/3/3
f 3/3/3 4/4/4 1/1/1
f 5/5/5 6/6/6 7/7/7
f 7/7/7 8/8/8 5/5/5
f 9/9/9 10/10/10 11/11/11
f 11/11/11 12/12/12 9/9/9
f 13/13/13 14/14/14 15/15/15
f 13/13/13 15/15/15 16/16/16
f 13/13/13 16/16/16 17/17/17
f 13/13/13 17/17/17 18/18/18
f 13/13/13 18/18/18 19/19/19
f 13/13/13 19/19/19 20/20/20
f 21/21/21 22/22/22 23/23/23
f 23/23/23 24/24/24 21/21/21
f 25/25/25 26/26/26 27/27/27
f 25/25/25 27/27/27 28/28/28
f 25/25/25 28/28/28 29/29/29
f 25/25/25 29/29/29 30/30/30
f 25/25/25 30/30/30 31/31/31
f 25/25/25 31/31/31 32/32/32
f 33/33/33 34/34/34 35/35/35
f 35/35/35 36/36/36 33/33/33
f 37/37/37 38/38/38 39/39/39
f 39/39/39 40/40/40 37/37/37
f 41/41/41 42/42/42 43/43/43
f 43/43/43 44/44/44 41/41/41
f 45/45/45 46/46/46 47/47/47
f 47/47/47 48/48/48 45/45/45

