g Box02

usemtl colours.png

v 0.11551 0.0355697 -0.0406696
vn 0 1.000001 0
vt 0.1649078 0.9278182
v 0.0771899 0.0355361 -0.116037
vn 0 1.000001 0
vt 0.1677702 0.9170113
v -0.0772239 0.0354007 -0.116037
vn 0 1.000001 0
vt 0.1793657 0.9170113
v -0.115544 0.0353671 -0.0406696
vn 0 1.000001 0
vt 0.1822281 0.9278182
v 0.11551 0.0355696 0.0406696
vn 0 1.000001 0
vt 0.1649078 0.9394721
v -0.115544 0.0353671 0.0406696
vn 0 1.000001 0
vt 0.1822281 0.9394721
v 0.0771899 0.0355361 0.116037
vn 0 1.000001 0
vt 0.1677702 0.9502791
v -0.0772239 0.0354007 0.116037
vn 0 1.000001 0
vt 0.1793657 0.9502791
v 0.0808885 0.0295679 -0.122009
vn 0 0 -1.000001
vt 0.1801543 0.9216553
v 0.0809003 0.01614046 -0.122009
vn 0 0 -1.000001
vt 0.1801543 0.923583
v -0.0809003 0.01599861 -0.122009
vn 0 0 -1.000001
vt 0.1680038 0.923583
v -0.0809121 0.029426 -0.122009
vn 0 0 -1.000001
vt 0.1680038 0.9216553
v 0.121486 0.0296035 -0.0406696
vn 0.8976383 0 -0.4488192
vt 0.176036 0.9216553
v 0.121498 0.01617602 -0.0406696
vn 0.8976383 0 -0.4488192
vt 0.176036 0.923583
v 0.0809003 0.01614046 -0.122009
vn 0.8976383 0 -0.4488192
vt 0.1699316 0.923583
v 0.0808885 0.0295679 -0.122009
vn 0.8976383 0 -0.4488192
vt 0.1699316 0.9216553
v 0.121486 0.0296035 0.0406696
vn 1.000001 0 0
vt 0.1821113 0.9216553
v 0.121498 0.01617602 0.0406696
vn 1.000001 0 0
vt 0.1821113 0.923583
v 0.121498 0.01617602 -0.0406696
vn 1.000001 0 0
vt 0.176036 0.923583
v 0.121486 0.0296035 -0.0406696
vn 1.000001 0 0
vt 0.176036 0.9216553
v 0.0808885 0.0295678 0.122009
vn 0.8976383 0 0.4488192
vt 0.1882157 0.9216553
v 0.0809003 0.01614041 0.122009
vn 0.8976383 0 0.4488192
vt 0.1882157 0.923583
v 0.121498 0.01617602 0.0406696
vn 0.8976383 0 0.4488192
vt 0.1821113 0.923583
v 0.121486 0.0296035 0.0406696
vn 0.8976383 0 0.4488192
vt 0.1821113 0.9216553
v -0.0809121 0.029426 0.122009
vn 0 0 1.000001
vt 0.1796286 0.9216553
v -0.0809003 0.01599857 0.122009
vn 0 0 1.000001
vt 0.1796286 0.923583
v 0.0809003 0.01614041 0.122009
vn 0 0 1.000001
vt 0.1675073 0.923583
v 0.0808885 0.0295678 0.122009
vn 0 0 1.000001
vt 0.1675073 0.9216553
v -0.12151 0.0293904 0.0406696
vn -0.8976383 0 0.4488192
vt 0.1655212 0.9216553
v -0.121498 0.015963 0.0406696
vn -0.8976383 0 0.4488192
vt 0.1655212 0.923583
v -0.0809003 0.01599857 0.122009
vn -0.8976383 0 0.4488192
vt 0.1594167 0.923583
v -0.0809121 0.029426 0.122009
vn -0.8976383 0 0.4488192
vt 0.1594167 0.9216553
v -0.12151 0.0293904 -0.0406696
vn -1.000001 0 0
vt 0.1716256 0.9216553
v -0.121498 0.015963 -0.0406696
vn -1.000001 0 0
vt 0.1716256 0.923583
v -0.121498 0.015963 0.0406696
vn -1.000001 0 0
vt 0.1655212 0.923583
v -0.12151 0.0293904 0.0406696
vn -1.000001 0 0
vt 0.1655212 0.9216553
v -0.0809121 0.029426 -0.122009
vn -0.8976383 0 -0.4488192
vt 0.1777301 0.9216553
v -0.0809003 0.01599861 -0.122009
vn -0.8976383 0 -0.4488192
vt 0.1777301 0.923583
v -0.121498 0.015963 -0.0406696
vn -0.8976383 0 -0.4488192
vt 0.1716256 0.923583
v -0.12151 0.0293904 -0.0406696
vn -0.8976383 0 -0.4488192
vt 0.1716256 0.9216553
v 0.0444921 0.0009360993 -0.0839649
vn 0 0 -1.000001
vt 0.1774088 0.9257736
v 0.0444848 0.009258589 -0.0839649
vn 0 0 -1.000001
vt 0.1774088 0.9245761
v 0.292177 0.009475749 -0.0839649
vn 0 0 -1.000001
vt 0.1960142 0.9245761
v 0.292184 0.0011533 -0.0839649
vn 0 0 -1.000001
vt 0.1960142 0.9257736
v 0.292184 0.0011533 -0.0839649
vn 1.000001 0 0
vt 0.1727647 0.9257736
v 0.292177 0.009475749 -0.0839649
vn 1.000001 0 0
vt 0.1727647 0.9245761
v 0.292177 0.00947571 0.086074
vn 1.000001 0 0
vt 0.1855286 0.9245761
v 0.292184 0.0011533 0.086074
vn 1.000001 0 0
vt 0.1855286 0.9257736
v 0.292184 0.0011533 0.086074
vn 0 0 1.000001
vt 0.1516474 0.9257736
v 0.292177 0.00947571 0.086074
vn 0 0 1.000001
vt 0.1516474 0.9245761
v 0.0444848 0.009258559 0.086074
vn 0 0 1.000001
vt 0.1702236 0.9245761
v 0.0444921 0.0009360993 0.086074
vn 0 0 1.000001
vt 0.1702236 0.9257736
v 0.0444921 0.0009360993 0.086074
vn -1.000001 0 0
vt 0.1621038 0.9257736
v 0.0444848 0.009258559 0.086074
vn -1.000001 0 0
vt 0.1621038 0.9245761
v 0.0444848 0.009258589 -0.0839649
vn -1.000001 0 0
vt 0.1748677 0.9245761
v 0.0444921 0.0009360993 -0.0839649
vn -1.000001 0 0
vt 0.1748677 0.9257736
v 0.24255 0.01540367 -0.0463189
vn 0 0 1.000001
vt 0.1553568 0.9236999
v 0.0973125 0.01527634 -0.0463189
vn 0 0 1.000001
vt 0.1662514 0.9236999
v 0.0973251 0.0009823991 -0.0463189
vn 0 0 1.000001
vt 0.1662514 0.9257736
v 0.242562 0.001109799 -0.0463189
vn 0 0 1.000001
vt 0.1553568 0.9257736
v 0.24255 0.01540365 0.0551135
vn -1.000001 0 0
vt 0.1644405 0.9236999
v 0.24255 0.01540367 -0.0463189
vn -1.000001 0 0
vt 0.1720637 0.9236999
v 0.242562 0.001109799 -0.0463189
vn -1.000001 0 0
vt 0.1720637 0.9257736
v 0.242562 0.0011097 0.0551135
vn -1.000001 0 0
vt 0.1644405 0.9257736
v 0.0973125 0.01527632 0.0551135
vn 0 0 -1.000001
vt 0.1813811 0.9236999
v 0.24255 0.01540365 0.0551135
vn 0 0 -1.000001
vt 0.1922756 0.9236999
v 0.242562 0.0011097 0.0551135
vn 0 0 -1.000001
vt 0.1922756 0.9257736
v 0.0973251 0.0009823991 0.0551135
vn 0 0 -1.000001
vt 0.1813811 0.9257736
v 0.0973125 0.01527634 -0.0463189
vn 1.000001 0 0
vt 0.1755979 0.9236999
v 0.0973125 0.01527632 0.0551135
vn 1.000001 0 0
vt 0.1832212 0.9236999
v 0.0973251 0.0009823991 0.0551135
vn 1.000001 0 0
vt 0.1832212 0.9257736
v 0.0973251 0.0009823991 -0.0463189
vn 1.000001 0 0
vt 0.1755979 0.9257736
v 0.287414 0.01544298 -0.0803557
vn 0 1.000001 0
vt 0.1519979 0.9221226
v 0.0493427 0.01523429 -0.0804996
vn 0 1.000001 0
vt 0.1698731 0.9220934
v 0.0973125 0.01527634 -0.0463189
vn 0 1.000001 0
vt 0.1662514 0.9270003
v 0.24255 0.01540367 -0.0463189
vn 0 1.000001 0
vt 0.1553568 0.9270003
v 0.287105 0.01544271 0.082913
vn 0 1.000001 0
vt 0.1520271 0.9455181
v 0.24255 0.01540365 0.0551135
vn 0 1.000001 0
vt 0.1553568 0.9415459
v 0.0496316 0.01523452 0.0830549
vn 0 1.000001 0
vt 0.1698439 0.9455473
v 0.0973125 0.01527632 0.0551135
vn 0 1.000001 0
vt 0.1662514 0.9415459
v -0.051455 0.000851999 0.086074
vn 0 0 1.000001
vt 0.1774088 0.9257736
v -0.0514623 0.00917447 0.086074
vn 0 0 1.000001
vt 0.1774088 0.9245761
v -0.299154 0.008957319 0.086074
vn 0 0 1.000001
vt 0.1960142 0.9245761
v -0.299147 0.0006347997 0.086074
vn 0 0 1.000001
vt 0.1960142 0.9257736
v -0.299147 0.0006347997 0.086074
vn -1.000001 0 0
vt 0.1621038 0.9257736
v -0.299154 0.008957319 0.086074
vn -1.000001 0 0
vt 0.1621038 0.9245761
v -0.299154 0.008957289 -0.0839649
vn -1.000001 0 0
vt 0.1748677 0.9245761
v -0.299147 0.0006347997 -0.0839649
vn -1.000001 0 0
vt 0.1748677 0.9257736
v -0.299147 0.0006347997 -0.0839649
vn 0 0 -1.000001
vt 0.1516474 0.9257736
v -0.299154 0.008957289 -0.0839649
vn 0 0 -1.000001
vt 0.1516474 0.9245761
v -0.0514623 0.00917444 -0.0839649
vn 0 0 -1.000001
vt 0.1702236 0.9245761
v -0.051455 0.000851999 -0.0839649
vn 0 0 -1.000001
vt 0.1702236 0.9257736
v -0.051455 0.000851999 -0.0839649
vn 1.000001 0 0
vt 0.1727647 0.9257736
v -0.0514623 0.00917444 -0.0839649
vn 1.000001 0 0
vt 0.1727647 0.9245761
v -0.0514623 0.00917447 0.086074
vn 1.000001 0 0
vt 0.1855286 0.9245761
v -0.051455 0.000851999 0.086074
vn 1.000001 0 0
vt 0.1855286 0.9257736
v -0.249538 0.01497225 0.048428
vn 0 0 -1.000001
vt 0.1553568 0.9236999
v -0.1043 0.01509959 0.048428
vn 0 0 -1.000001
vt 0.1662514 0.9236999
v -0.104288 0.0008056993 0.048428
vn 0 0 -1.000001
vt 0.1662514 0.9257736
v -0.249525 0.000678299 0.048428
vn 0 0 -1.000001
vt 0.1553568 0.9257736
v -0.249538 0.01497223 -0.0530044
vn 1.000001 0 0
vt 0.1751014 0.9236999
v -0.249538 0.01497225 0.048428
vn 1.000001 0 0
vt 0.1826954 0.9236999
v -0.249525 0.000678299 0.048428
vn 1.000001 0 0
vt 0.1826954 0.9257736
v -0.249525 0.000678299 -0.0530044
vn 1.000001 0 0
vt 0.1751014 0.9257736
v -0.1043 0.01509956 -0.0530044
vn 0 0 1.000001
vt 0.1813811 0.9236999
v -0.249538 0.01497223 -0.0530044
vn 0 0 1.000001
vt 0.1922756 0.9236999
v -0.249525 0.000678299 -0.0530044
vn 0 0 1.000001
vt 0.1922756 0.9257736
v -0.104288 0.0008056993 -0.0530044
vn 0 0 1.000001
vt 0.1813811 0.9257736
v -0.1043 0.01509959 0.048428
vn -1.000001 0 0
vt 0.164937 0.9236999
v -0.1043 0.01509956 -0.0530044
vn -1.000001 0 0
vt 0.1725603 0.9236999
v -0.104288 0.0008056993 -0.0530044
vn -1.000001 0 0
vt 0.1725603 0.9257736
v -0.104288 0.0008056993 0.048428
vn -1.000001 0 0
vt 0.164937 0.9257736
v -0.294402 0.0149329 0.0824648
vn 0 1.000001 0
vt 0.1956345 0.9454597
v -0.0563306 0.01514164 0.0826088
vn 0 1.000001 0
vt 0.1777885 0.9454889
v -0.1043 0.01509959 0.048428
vn 0 1.000001 0
vt 0.1813811 0.940582
v -0.249538 0.01497225 0.048428
vn 0 1.000001 0
vt 0.1922756 0.940582
v -0.294093 0.01493317 -0.0808039
vn 0 1.000001 0
vt 0.1956345 0.9220642
v -0.249538 0.01497223 -0.0530044
vn 0 1.000001 0
vt 0.1922756 0.9260365
v -0.0566195 0.01514136 -0.0809458
vn 0 1.000001 0
vt 0.1778177 0.922035
v -0.1043 0.01509956 -0.0530044
vn 0 1.000001 0
vt 0.1813811 0.9260365
v -0.294402 0.0149329 0.0824648
vn 0 0.5118113 0.8582682
vt 0.1956345 0.9236999
v -0.299154 0.008957319 0.086074
vn 0 0.5196853 0.8582682
vt 0.1960142 0.9245761
v -0.0514623 0.00917447 0.086074
vn 0 0.5118113 0.8582682
vt 0.1774088 0.9245761
v -0.0563306 0.01514164 0.0826088
vn 0 0.5039373 0.8661422
vt 0.1777885 0.9236999
v -0.294093 0.01493317 -0.0808039
vn -0.771654 0.6377956 0
vt 0.174634 0.9236999
v -0.299154 0.008957289 -0.0839649
vn -0.76378 0.6456697 0
vt 0.1748677 0.9245761
v -0.299154 0.008957319 0.086074
vn -0.771654 0.6377956 0
vt 0.1621038 0.9245761
v -0.294402 0.0149329 0.0824648
vn -0.779528 0.6220476 0
vt 0.1623959 0.9236999
v -0.0566195 0.01514136 -0.0809458
vn 0 0.4566932 -0.8897643
vt 0.1698439 0.9236999
v -0.0514623 0.00917444 -0.0839649
vn 0 0.4488192 -0.8897643
vt 0.1702236 0.9245761
v -0.299154 0.008957289 -0.0839649
vn 0 0.4566932 -0.8897643
vt 0.1516474 0.9245761
v -0.294093 0.01493317 -0.0808039
vn 0 0.4645672 -0.8818903
vt 0.1520271 0.9236999
v -0.0563306 0.01514164 0.0826088
vn 0.76378 0.6456697 0
vt 0.1852657 0.9236999
v -0.0514623 0.00917447 0.086074
vn 0.771654 0.6299216 0
vt 0.1855286 0.9245761
v -0.0514623 0.00917444 -0.0839649
vn 0.76378 0.6456697 0
vt 0.1727647 0.9245761
v -0.0566195 0.01514136 -0.0809458
vn 0.755906 0.6535437 0
vt 0.1729984 0.9236999
v 0.287414 0.01544298 -0.0803557
vn 0 0.5118113 -0.8582682
vt 0.1956345 0.9236999
v 0.292177 0.009475749 -0.0839649
vn 0 0.5196853 -0.8582682
vt 0.1960142 0.9245761
v 0.0444848 0.009258589 -0.0839649
vn 0 0.5118113 -0.8582682
vt 0.1774088 0.9245761
v 0.0493427 0.01523429 -0.0804996
vn 0 0.5039373 -0.8661422
vt 0.1777885 0.9236999
v 0.287105 0.01544271 0.082913
vn 0.771654 0.6377956 0
vt 0.1852949 0.9236999
v 0.292177 0.00947571 0.086074
vn 0.76378 0.6456697 0
vt 0.1855286 0.9245761
v 0.292177 0.009475749 -0.0839649
vn 0.771654 0.6377956 0
vt 0.1727647 0.9245761
v 0.287414 0.01544298 -0.0803557
vn 0.779528 0.6220476 0
vt 0.1730568 0.9236999
v 0.0496316 0.01523452 0.0830549
vn 0 0.4566932 0.8897643
vt 0.1698439 0.9236999
v 0.0444848 0.009258559 0.086074
vn 0 0.4488192 0.8897643
vt 0.1702236 0.9245761
v 0.292177 0.00947571 0.086074
vn 0 0.4566932 0.8897643
vt 0.1516474 0.9245761
v 0.287105 0.01544271 0.082913
vn 0 0.4645672 0.8818903
vt 0.1520271 0.9236999
v 0.0493427 0.01523429 -0.0804996
vn -0.76378 0.6456697 0
vt 0.1746048 0.9236999
v 0.0444848 0.009258589 -0.0839649
vn -0.779528 0.6299216 0
vt 0.1748677 0.9245761
v 0.0444848 0.009258559 0.086074
vn -0.76378 0.6456697 0
vt 0.1621038 0.9245761
v 0.0496316 0.01523452 0.0830549
vn -0.755906 0.6535437 0
vt 0.1623375 0.9236999
v -0.12151 0.0293904 -0.0406696
vn -0.6456697 0.6850398 -0.3228348
vt 0.1826662 0.9278182
v -0.115544 0.0353671 -0.0406696
vn -0.6692917 0.6614177 -0.3385829
vt 0.1822281 0.9278182
v -0.0772239 0.0354007 -0.116037
vn -0.6456697 0.6850398 -0.3228348
vt 0.1793657 0.9170113
v -0.0809121 0.029426 -0.122009
vn -0.6299216 0.7086619 -0.3149608
vt 0.1796286 0.9161642
v 0.0808885 0.0295679 -0.122009
vn 0.6456697 0.6850398 -0.3228348
vt 0.1675073 0.9161642
v 0.0771899 0.0355361 -0.116037
vn 0.6299216 0.7086619 -0.3228348
vt 0.1677702 0.9170113
v 0.11551 0.0355697 -0.0406696
vn 0.6456697 0.6850398 -0.3228348
vt 0.1649078 0.9278182
v 0.121486 0.0296035 -0.0406696
vn 0.6692917 0.6692917 -0.3307089
vt 0.1644405 0.9278182
v -0.0809121 0.029426 -0.122009
vn 0 0.7086619 -0.7086619
vt 0.1796286 0.9161642
v -0.0772239 0.0354007 -0.116037
vn 0 0.7086619 -0.7086619
vt 0.1793657 0.9170113
v 0.0771899 0.0355361 -0.116037
vn 0 0.7086619 -0.7086619
vt 0.1677702 0.9170113
v 0.0808885 0.0295679 -0.122009
vn 0 0.7086619 -0.7086619
vt 0.1675073 0.9161642
v -0.12151 0.0293904 0.0406696
vn -0.7086619 0.7086619 0
vt 0.1826662 0.9394721
v -0.115544 0.0353671 0.0406696
vn -0.7086619 0.7086619 0
vt 0.1822281 0.9394721
v -0.115544 0.0353671 -0.0406696
vn -0.7086619 0.7086619 0
vt 0.1822281 0.9278182
v -0.12151 0.0293904 -0.0406696
vn -0.7086619 0.7086619 0
vt 0.1826662 0.9278182
v 0.121486 0.0296035 -0.0406696
vn 0.7086619 0.7086619 0
vt 0.1644405 0.9278182
v 0.11551 0.0355697 -0.0406696
vn 0.7086619 0.7086619 0
vt 0.1649078 0.9278182
v 0.11551 0.0355696 0.0406696
vn 0.7086619 0.7086619 0
vt 0.1649078 0.9394721
v 0.121486 0.0296035 0.0406696
vn 0.7086619 0.7086619 0
vt 0.1644405 0.9394721
v -0.0809121 0.029426 0.122009
vn -0.6456697 0.6850398 0.3228348
vt 0.1796286 0.951126
v -0.0772239 0.0354007 0.116037
vn -0.6299216 0.7086619 0.3228348
vt 0.1793657 0.9502791
v -0.115544 0.0353671 0.0406696
vn -0.6456697 0.6850398 0.3228348
vt 0.1822281 0.9394721
v -0.12151 0.0293904 0.0406696
vn -0.6692917 0.6692917 0.3307089
vt 0.1826662 0.9394721
v 0.0808885 0.0295678 0.122009
vn 0 0.7086619 0.7086619
vt 0.1675073 0.951126
v 0.0771899 0.0355361 0.116037
vn 0 0.7086619 0.7086619
vt 0.1677702 0.9502791
v -0.0772239 0.0354007 0.116037
vn 0 0.7086619 0.7086619
vt 0.1793657 0.9502791
v -0.0809121 0.029426 0.122009
vn 0 0.7086619 0.7086619
vt 0.1796286 0.951126
v 0.121486 0.0296035 0.0406696
vn 0.6456697 0.6850398 0.3228348
vt 0.1644405 0.9394721
v 0.11551 0.0355696 0.0406696
vn 0.6614177 0.6692917 0.3385829
vt 0.1649078 0.9394721
v 0.0771899 0.0355361 0.116037
vn 0.6456697 0.6850398 0.3228348
vt 0.1677702 0.9502791
v 0.0808885 0.0295678 0.122009
vn 0.6299216 0.7086619 0.3149608
vt 0.1675073 0.951126
v 0.0397299 0.01778005 -0.257655
vn 0 1.000001 0
vt 0.2003954 0.9570553
v -0.0419264 0.01778005 -0.257655
vn 0 1.000001 0
vt 0.1676826 0.9570553
v -0.0419264 0.01778005 0.248614
vn 0 1.000001 0
vt 0.1676826 0.9202533
v 0.0397299 0.01778005 0.248614
vn 0 1.000001 0
vt 0.2003954 0.9202533
v 0.0397299 0.01778005 0.248614
vn 0 0 1.000001
vt 0.2003954 0.9570553
v -0.0419264 0.01778005 0.248614
vn 0 0 1.000001
vt 0.1676826 0.9570553
v -0.0419264 0 0.248614
vn 0 0 1.000001
vt 0.1676826 0.9202533
v 0.0397299 0 0.248614
vn 0 0 1.000001
vt 0.2003954 0.9202533
v 0.0397299 0.01778005 -0.257655
vn 1.000001 0 0
vt 0.2003954 0.9570553
v 0.0397299 0.01778005 0.248614
vn 1.000001 0 0
vt 0.1676826 0.9570553
v 0.0397299 0 0.248614
vn 1.000001 0 0
vt 0.1676826 0.9202533
v 0.0397299 0 -0.257655
vn 1.000001 0 0
vt 0.2003954 0.9202533
v -0.0419264 0.01778005 -0.257655
vn 0 0 -1.000001
vt 0.2003954 0.9570553
v 0.0397299 0.01778005 -0.257655
vn 0 0 -1.000001
vt 0.1676826 0.9570553
v 0.0397299 0 -0.257655
vn 0 0 -1.000001
vt 0.1676826 0.9202533
v -0.0419264 0 -0.257655
vn 0 0 -1.000001
vt 0.2003954 0.9202533
v -0.0419264 0.01778005 0.248614
vn -1.000001 0 0
vt 0.2003954 0.9570553
v -0.0419264 0.01778005 -0.257655
vn -1.000001 0 0
vt 0.1676826 0.9570553
v -0.0419264 0 -0.257655
vn -1.000001 0 0
vt 0.1676826 0.9202533
v -0.0419264 0 0.248614
vn -1.000001 0 0
vt 0.2003954 0.9202533
v 0.116739 0.02587032 -0.205817
vn 0.8661422 0 -0.5039373
vt 0.1957221 0.8215014
v 0.234577 0.047337 -0.001714459
vn 0.8661422 0 -0.5039373
vt 0.1919835 0.8215014
v 0.234577 0.02146673 -0.001714459
vn 0.8661422 0 -0.5039373
vt 0.1919835 0.8021365
v 0.116739 0 -0.205817
vn 0.8661422 0 -0.5039373
vt 0.1957221 0.8021365
v -0.118939 0.02587032 -0.205817
vn 0 0 -1.000001
vt 0.1994607 0.8215014
v 0.116739 0.02587032 -0.205817
vn 0 0 -1.000001
vt 0.1957221 0.8215014
v 0.116739 0 -0.205817
vn 0 0 -1.000001
vt 0.1957221 0.8021365
v -0.118939 0 -0.205817
vn 0 0 -1.000001
vt 0.1994607 0.8021365
v -0.236778 0.047337 -0.001714439
vn -0.8661422 0 -0.4960633
vt 0.1807677 0.8215014
v -0.118939 0.02587032 -0.205817
vn -0.8661422 0 -0.4960633
vt 0.1770291 0.8215014
v -0.118939 0 -0.205817
vn -0.8661422 0 -0.4960633
vt 0.1770291 0.8021365
v -0.236778 0.02146673 -0.001714439
vn -0.8661422 0 -0.4960633
vt 0.1807677 0.8021365
v -0.118939 0.02587032 0.202388
vn -0.8661422 0 0.5039373
vt 0.1845063 0.8215014
v -0.236778 0.047337 -0.001714439
vn -0.8661422 0 0.5039373
vt 0.1807677 0.8215014
v -0.236778 0.02146673 -0.001714439
vn -0.8661422 0 0.5039373
vt 0.1807677 0.8021365
v -0.118939 0 0.202388
vn -0.8661422 0 0.5039373
vt 0.1845063 0.8021365
v 0.116738 0.02587032 0.202388
vn 0 0 1.000001
vt 0.1882449 0.8215014
v -0.118939 0.02587032 0.202388
vn 0 0 1.000001
vt 0.1845063 0.8215014
v -0.118939 0 0.202388
vn 0 0 1.000001
vt 0.1845063 0.8021365
v 0.116738 0 0.202388
vn 0 0 1.000001
vt 0.1882449 0.8021365
v 0.234577 0.047337 -0.001714459
vn 0.8661422 0 0.5039373
vt 0.1919835 0.8215014
v 0.116738 0.02587032 0.202388
vn 0.8661422 0 0.5039373
vt 0.1882449 0.8215014
v 0.116738 0 0.202388
vn 0.8661422 0 0.5039373
vt 0.1882449 0.8021365
v 0.234577 0.02146673 -0.001714459
vn 0.8661422 0 0.5039373
vt 0.1919835 0.8021365
v 0.105192 0.02587032 -0.185817
vn -0.03149608 1.000001 -0.05511814
vt 0.1766786 0.8166529
v 0.211483 0.047337 -0.001714459
vn -0.03149608 1.000001 0.01574804
vt 0.1863756 0.8215014
v 0.234577 0.047337 -0.001714459
vn -0.03149608 1.000001 -0.01574804
vt 0.1919835 0.8215014
v 0.116739 0.02587032 -0.205817
vn -0.03149608 1.000001 -0.01574804
vt 0.1957221 0.8215014
v -0.107392 0.02587032 -0.185817
vn 0.03149608 1.000001 -0.01574804
vt 0.1766786 0.8069851
v -0.118939 0.02587032 -0.205817
vn 0.03149608 1.000001 -0.05511814
vt 0.1994607 0.8215014
v -0.213684 0.047337 -0.001714439
vn 0.03149608 1.000001 -0.01574804
vt 0.1863756 0.8021365
v -0.118939 0.02587032 -0.205817
vn 0.03149608 1.000001 -0.05511814
vt 0.1770291 0.8215014
v -0.236778 0.047337 -0.001714439
vn 0.03149608 1.000001 0.01574804
vt 0.1807677 0.8215014
v -0.107392 0.02587032 0.182388
vn 0.03149608 1.000001 0.05511814
vt 0.1961018 0.8069851
v -0.118939 0.02587032 0.202388
vn 0.03149608 1.000001 0.01574804
vt 0.1845063 0.8215014
v 0.105191 0.02587032 0.182388
vn -0.03149608 1.000001 0.01574804
vt 0.1961018 0.8166529
v 0.116738 0.02587032 0.202388
vn -0.03149608 1.000001 0.05511814
vt 0.1882449 0.8215014

f 1/1/1 2/2/2 3/3/3
f 3/3/3 4/4/4 1/1/1
f 5/5/5 1/1/1 4/4/4
f 4/4/4 6/6/6 5/5/5
f 7/7/7 5/5/5 6/6/6
f 6/6/6 8/8/8 7/7/7
f 9/9/9 10/10/10 11/11/11
f 11/11/11 12/12/12 9/9/9
f 13/13/13 14/14/14 15/15/15
f 15/15/15 16/16/16 13/13/13
f 17/17/17 18/18/18 19/19/19
f 19/19/19 20/20/20 17/17/17
f 21/21/21 22/22/22 23/23/23
f 23/23/23 24/24/24 21/21/21
f 25/25/25 26/26/26 27/27/27
f 27/27/27 28/28/28 25/25/25
f 29/29/29 30/30/30 31/31/31
f 31/31/31 32/32/32 29/29/29
f 33/33/33 34/34/34 35/35/35
f 35/35/35 36/36/36 33/33/33
f 37/37/37 38/38/38 39/39/39
f 39/39/39 40/40/40 37/37/37
f 41/41/41 42/42/42 43/43/43
f 43/43/43 44/44/44 41/41/41
f 45/45/45 46/46/46 47/47/47
f 47/47/47 48/48/48 45/45/45
f 49/49/49 50/50/50 51/51/51
f 51/51/51 52/52/52 49/49/49
f 53/53/53 54/54/54 55/55/55
f 55/55/55 56/56/56 53/53/53
f 57/57/57 58/58/58 59/59/59
f 59/59/59 60/60/60 57/57/57
f 61/61/61 62/62/62 63/63/63
f 63/63/63 64/64/64 61/61/61
f 65/65/65 66/66/66 67/67/67
f 67/67/67 68/68/68 65/65/65
f 69/69/69 70/70/70 71/71/71
f 71/71/71 72/72/72 69/69/69
f 73/73/73 74/74/74 75/75/75
f 75/75/75 76/76/76 73/73/73
f 77/77/77 73/73/73 76/76/76
f 76/76/76 78/78/78 77/77/77
f 79/79/79 77/77/77 78/78/78
f 78/78/78 80/80/80 79/79/79
f 74/74/74 79/79/79 80/80/80
f 80/80/80 75/75/75 74/74/74
f 81/81/81 82/82/82 83/83/83
f 83/83/83 84/84/84 81/81/81
f 85/85/85 86/86/86 87/87/87
f 87/87/87 88/88/88 85/85/85
f 89/89/89 90/90/90 91/91/91
f 91/91/91 92/92/92 89/89/89
f 93/93/93 94/94/94 95/95/95
f 95/95/95 96/96/96 93/93/93
f 97/97/97 98/98/98 99/99/99
f 99/99/99 100/100/100 97/97/97
f 101/101/101 102/102/102 103/103/103
f 103/103/103 104/104/104 101/101/101
f 105/105/105 106/106/106 107/107/107
f 107/107/107 108/108/108 105/105/105
f 109/109/109 110/110/110 111/111/111
f 111/111/111 112/112/112 109/109/109
f 113/113/113 114/114/114 115/115/115
f 115/115/115 116/116/116 113/113/113
f 117/117/117 113/113/113 116/116/116
f 116/116/116 118/118/118 117/117/117
f 119/119/119 117/117/117 118/118/118
f 118/118/118 120/120/120 119/119/119
f 114/114/114 119/119/119 120/120/120
f 120/120/120 115/115/115 114/114/114
f 121/121/121 122/122/122 123/123/123
f 123/123/123 124/124/124 121/121/121
f 125/125/125 126/126/126 127/127/127
f 127/127/127 128/128/128 125/125/125
f 129/129/129 130/130/130 131/131/131
f 131/131/131 132/132/132 129/129/129
f 133/133/133 134/134/134 135/135/135
f 135/135/135 136/136/136 133/133/133
f 137/137/137 138/138/138 139/139/139
f 139/139/139 140/140/140 137/137/137
f 141/141/141 142/142/142 143/143/143
f 143/143/143 144/144/144 141/141/141
f 145/145/145 146/146/146 147/147/147
f 147/147/147 148/148/148 145/145/145
f 149/149/149 150/150/150 151/151/151
f 151/151/151 152/152/152 149/149/149
f 153/153/153 154/154/154 155/155/155
f 155/155/155 156/156/156 153/153/153
f 157/157/157 158/158/158 159/159/159
f 159/159/159 160/160/160 157/157/157
f 161/161/161 162/162/162 163/163/163
f 163/163/163 164/164/164 161/161/161
f 165/165/165 166/166/166 167/167/167
f 167/167/167 168/168/168 165/165/165
f 169/169/169 170/170/170 171/171/171
f 171/171/171 172/172/172 169/169/169
f 173/173/173 174/174/174 175/175/175
f 175/175/175 176/176/176 173/173/173
f 177/177/177 178/178/178 179/179/179
f 179/179/179 180/180/180 177/177/177
f 181/181/181 182/182/182 183/183/183
f 183/183/183 184/184/184 181/181/181
f 185/185/185 186/186/186 187/187/187
f 187/187/187 188/188/188 185/185/185
f 189/189/189 190/190/190 191/191/191
f 191/191/191 192/192/192 189/189/189
f 193/193/193 194/194/194 195/195/195
f 195/195/195 196/196/196 193/193/193
f 197/197/197 198/198/198 199/199/199
f 199/199/199 200/200/200 197/197/197
f 201/201/201 202/202/202 203/203/203
f 203/203/203 204/204/204 201/201/201
f 205/205/205 206/206/206 207/207/207
f 207/207/207 208/208/208 205/205/205
f 209/209/209 210/210/210 211/211/211
f 211/211/211 212/212/212 209/209/209
f 213/213/213 214/214/214 215/215/215
f 215/215/215 216/216/216 213/213/213
f 217/217/217 218/218/218 219/219/219
f 219/219/219 220/220/220 217/217/217
f 221/221/221 222/222/222 223/223/223
f 223/223/223 224/224/224 221/221/221
f 225/225/225 226/226/226 227/227/227
f 227/227/227 228/228/228 225/225/225
f 229/229/229 230/230/230 231/231/231
f 231/231/231 232/232/232 229/229/229
f 233/233/233 229/229/229 232/232/232
f 232/232/232 234/234/234 233/233/233
f 235/235/235 233/233/233 236/236/236
f 236/236/236 237/237/237 235/235/235
f 238/238/238 235/235/235 237/237/237
f 237/237/237 239/239/239 238/238/238
f 240/240/240 238/238/238 239/239/239
f 239/239/239 241/241/241 240/240/240
f 230/230/230 240/240/240 241/241/241
f 241/241/241 231/231/231 230/230/230

