g Box001

usemtl grey.png

v -0.1512654 0 0.3298145
vn 0 -1.000001 0
vt 0.9999996 0
v -0.1761204 0 0.1660085
vn 0 -1.000001 0
vt 0.9999996 0.2500075
v -0.09258341 0 0.1660085
vn 0 -1.000001 0
vt 0.7499921 0.2500075
v -0.08846151 0 0.3298145
vn 0 -1.000001 0
vt 0.7499921 0
v -0.00904641 0 0.1660085
vn 0 -1.000001 0
vt 0.5000151 0.2500075
v -0.00904641 0 0.3298145
vn 0 -1.000001 0
vt 0.5000151 0
v 0.07449058 0 0.1660085
vn 0 -1.000001 0
vt 0.2500075 0.2500075
v 0.07036868 0 0.3298145
vn 0 -1.000001 0
vt 0.2500075 0
v 0.1580276 0 0.1660085
vn 0 -1.000001 0
vt 0 0.2500075
v 0.1497836 0 0.3298145
vn 0 -1.000001 0
vt 0 0
v -0.2038534 0 0.00220248
vn 0 -1.000001 0
vt 0.9999996 0.5000151
v -0.09712692 0 0.00220248
vn 0 -1.000001 0
vt 0.7499921 0.5000151
v -0.00904641 0 0.00220248
vn 0 -1.000001 0
vt 0.5000151 0.5000151
v 0.07903409 0 0.00220248
vn 0 -1.000001 0
vt 0.2500075 0.5000151
v 0.1671146 0 0.00220248
vn 0 -1.000001 0
vt 0 0.5000151
v -0.2124844 0 -0.2672775
vn 0 -1.000001 0
vt 0.9999996 0.7499921
v -0.1107654 0 -0.2672775
vn 0 -1.000001 0
vt 0.7499921 0.7499921
v -0.00904641 0 -0.2672775
vn 0 -1.000001 0
vt 0.5000151 0.7499921
v 0.09267259 0 -0.2672775
vn 0 -1.000001 0
vt 0.2500075 0.7499921
v 0.1943916 0 -0.2672775
vn 0 -1.000001 0
vt 0 0.7499921
v -0.2122404 0 -0.3254095
vn 0 -1.000001 0
vt 0.9999996 0.9999996
v -0.1106434 0 -0.3254095
vn 0 -1.000001 0
vt 0.7499921 0.9999996
v -0.00904641 0 -0.3254095
vn 0 -1.000001 0
vt 0.5000151 0.9999996
v 0.09255059 0 -0.3254095
vn 0 -1.000001 0
vt 0.2500075 0.9999996
v 0.1941476 0 -0.3254095
vn 0 -1.000001 0
vt 0 0.9999996
v -0.1512654 0.0292522 0.3298145
vn -0.08661422 1.000001 0.00787402
vt 0 0
v -0.08846151 0.0357126 0.3298145
vn -0.03149608 1.000001 0
vt 0.2500075 0
v -0.09258341 0.0357126 0.1660085
vn -0.0393701 1.000001 0.02362206
vt 0.2500075 0.2500075
v -0.1761204 0.0292522 0.1660085
vn -0.07086618 1.000001 0.0393701
vt 0 0.2500075
v -0.00904641 0.0357126 0.3298145
vn 0 1.000001 0
vt 0.5000151 0
v -0.00904641 0.0357126 0.1660085
vn 0 1.000001 0.02362206
vt 0.5000151 0.2500075
v 0.07036868 0.0357126 0.3298145
vn 0.05511814 1.000001 0
vt 0.7499921 0
v 0.07449058 0.0357126 0.1660085
vn 0.0393701 1.000001 0.02362206
vt 0.7499921 0.2500075
v 0.1497836 0.0292453 0.3298145
vn 0.0787402 1.000001 0.00787402
vt 0.9999996 0
v 0.1580276 0.0292453 0.1660085
vn 0.0787402 1.000001 0.01574804
vt 0.9999996 0.2500075
v -0.09712692 0.0432381 0.00220248
vn -0.03149608 1.000001 0.05511814
vt 0.2500075 0.5000151
v -0.2038534 0.0367777 0.002202482
vn -0.06299216 1.000001 0.05511814
vt 0 0.5000151
v -0.00904641 0.0432381 0.00220248
vn 0 1.000001 0.04724412
vt 0.5000151 0.5000151
v 0.07903409 0.0432381 0.00220248
vn 0.0393701 1.000001 0.05511814
vt 0.7499921 0.5000151
v 0.1671146 0.0367708 0.00220248
vn 0.07086618 0.9921266 0.05511814
vt 0.9999996 0.5000151
v -0.1107654 0.0571342 -0.2672775
vn -0.0393701 1.000001 0.0787402
vt 0.2500075 0.7499921
v -0.2124844 0.0506738 -0.2672775
vn -0.06299216 0.9921266 0.09448825
vt 0 0.7499921
v -0.00904641 0.0571342 -0.2672775
vn 0 1.000001 0.0787402
vt 0.5000151 0.7499921
v 0.09267259 0.0571342 -0.2672775
vn 0.02362206 1.000001 0.0787402
vt 0.7499921 0.7499921
v 0.1943916 0.0506669 -0.2672775
vn 0.07086618 0.9921266 0.07086618
vt 0.9999996 0.7499921
v -0.1106434 0.0678166 -0.3254095
vn -0.0393701 0.9842526 0.1811025
vt 0.2500075 0.9999996
v -0.2122404 0.0613563 -0.3254095
vn -0.06299216 0.9842526 0.1811025
vt 0 0.9999996
v -0.00904641 0.0678166 -0.3254095
vn 0 0.9842526 0.1811025
vt 0.5000151 0.9999996
v 0.09255059 0.0678166 -0.3254095
vn 0.02362206 0.9842526 0.1811025
vt 0.7499921 0.9999996
v 0.1941476 0.0613494 -0.3254095
vn 0.06299216 0.9842526 0.1811025
vt 0.9999996 0.9999996
v -0.1512654 0 0.3298145
vn -0.03149608 -0.2362206 0.9685045
vt 0 0
v -0.08846151 0 0.3298145
vn 0 -0.3228348 0.9448825
vt 0.2500075 0
v -0.08846151 0.021619 0.3371715
vn -0.01574804 -0.2755907 0.9606305
vt 0.2500075 0.5000151
v -0.1512654 0.021619 0.3331395
vn -0.06299216 -0.1496064 0.9842526
vt 0 0.5000151
v -0.00904641 0 0.3298145
vn 0 -0.3228348 0.9448825
vt 0.5000151 0
v -0.00904641 0.021619 0.3371715
vn 0 -0.3228348 0.9448825
vt 0.5000151 0.5000151
v 0.07036868 0 0.3298145
vn 0.01574804 -0.2677167 0.9606305
vt 0.7499921 0
v 0.07036868 0.021619 0.3371715
vn 0.01574804 -0.3228348 0.9448825
vt 0.7499921 0.5000151
v 0.1497836 0 0.3298145
vn 0 -0.1496064 0.9921266
vt 0.9999996 0
v 0.1497836 0.021619 0.3331395
vn 0.02362206 -0.2362206 0.9685045
vt 0.9999996 0.5000151
v -0.1512654 0.021619 0.3331395
vn -0.05511814 0.4409451 0.8976383
vt 0 0.5000151
v -0.08846151 0.021619 0.3371715
vn -0.01574804 0.4645672 0.8897643
vt 0.2500075 0.5000151
v -0.08846151 0.0357126 0.3298145
vn -0.03149608 0.4488192 0.8897643
vt 0.2500075 0.9999996
v -0.1512654 0.0292522 0.3298145
vn -0.0393701 0.401575 0.9133863
vt 0 0.9999996
v -0.00904641 0.021619 0.3371715
vn 0 0.4645672 0.8897643
vt 0.5000151 0.5000151
v -0.00904641 0.0357126 0.3298145
vn 0 0.4645672 0.8897643
vt 0.5000151 0.9999996
v 0.07036868 0.021619 0.3371715
vn 0.02362206 0.4488192 0.8897643
vt 0.7499921 0.5000151
v 0.07036868 0.0357126 0.3298145
vn 0.01574804 0.4645672 0.8897643
vt 0.7499921 0.9999996
v 0.1497836 0.021619 0.3331395
vn 0.04724412 0.401575 0.9133863
vt 0.9999996 0.5000151
v 0.1497836 0.0292453 0.3298145
vn 0.0393701 0.4409451 0.8976383
vt 0.9999996 0.9999996
v 0.1497836 0 0.3298145
vn 0.9921266 -0.1338584 0.06299216
vt 0 0
v 0.1580276 0 0.1660085
vn 0.9685045 -0.2440946 0.04724412
vt 0.2500075 0
v 0.1635386 0.021619 0.1660085
vn 0.9921266 -0.1338584 0.06299216
vt 0.2500075 0.5000151
v 0.1497836 0.021619 0.3331395
vn 1.000001 -0.01574804 0.0787402
vt 0 0.5000151
v 0.1580276 0 0.1660085
vn 0.9133863 -0.401575 0.07086618
vt 0.2500075 0
v 0.1671146 0 0.00220248
vn 0.8818903 -0.4724412 0.07086618
vt 0.5000151 0
v 0.1807526 0.021619 0.00220248
vn 0.8818903 -0.4645672 0.07086618
vt 0.5000151 0.5000151
v 0.1635386 0.021619 0.1660085
vn 0.9606305 -0.2440946 0.1023623
vt 0.2500075 0.5000151
v 0.1943916 0 -0.2672775
vn 0.9291344 -0.3464569 0.09448825
vt 0.7499921 0
v 0.2025196 0.021619 -0.2672775
vn 0.8897643 -0.4488192 0.0787402
vt 0.7499921 0.5000151
v 0.1943916 0 -0.2672775
vn 0.9763785 -0.1811025 -0.07086618
vt 0.7499921 0
v 0.1941476 0 -0.3254095
vn 1.000001 0 -0.00787402
vt 0.9999996 0
v 0.1941476 0.021619 -0.3254095
vn 0.9763785 -0.1811025 -0.07086618
vt 0.9999996 0.5000151
v 0.2025196 0.021619 -0.2672775
vn 0.9291344 -0.3464569 -0.1338584
vt 0.7499921 0.5000151
v 0.1497836 0.021619 0.3331395
vn 0.9370084 0.3543309 0.06299216
vt 0 0.5000151
v 0.1635386 0.021619 0.1660085
vn 0.8110241 0.5826775 0.06299216
vt 0.2500075 0.5000151
v 0.1580276 0.0292453 0.1660085
vn 0.9370084 0.3543309 0.06299216
vt 0.2500075 0.9999996
v 0.1497836 0.0292453 0.3298145
vn 1.000001 0.02362206 0.04724412
vt 0 0.9999996
v 0.1635386 0.021619 0.1660085
vn 0.76378 0.6377956 0.0787402
vt 0.2500075 0.5000151
v 0.1807526 0.021619 0.00220248
vn 0.8661422 0.4881893 0.08661422
vt 0.5000151 0.5000151
v 0.1671146 0.0367708 0.00220248
vn 0.7480319 0.6535437 0.09448825
vt 0.5000151 0.9999996
v 0.1580276 0.0292453 0.1660085
vn 0.8110241 0.5826775 0.07086618
vt 0.2500075 0.9999996
v 0.2025196 0.021619 -0.2672775
vn 0.9606305 0.2677167 0.0787402
vt 0.7499921 0.5000151
v 0.1943916 0.0506669 -0.2672775
vn 0.8897643 0.4409451 0.09448825
vt 0.7499921 0.9999996
v 0.2025196 0.021619 -0.2672775
vn 0.9921266 0.1181103 -0.06299216
vt 0.7499921 0.5000151
v 0.1941476 0.021619 -0.3254095
vn 0.9921266 0 -0.1417324
vt 0.9999996 0.5000151
v 0.1941476 0.0613494 -0.3254095
vn 0.9921266 0.1181103 -0.06299216
vt 0.9999996 0.9999996
v 0.1943916 0.0506669 -0.2672775
vn 0.9606305 0.2677167 0.04724412
vt 0.7499921 0.9999996
v 0.1941476 0 -0.3254095
vn 0 0 -1.000001
vt 0 0
v 0.09255059 0 -0.3254095
vn 0 0 -1.000001
vt 0.2500075 0
v 0.09255059 0.021619 -0.3254095
vn 0 0 -1.000001
vt 0.2500075 0.5000151
v 0.1941476 0.021619 -0.3254095
vn 0 0 -1.000001
vt 0 0.5000151
v -0.00904641 0 -0.3254095
vn 0 0 -1.000001
vt 0.5000151 0
v -0.00904641 0.021619 -0.3254095
vn 0 0 -1.000001
vt 0.5000151 0.5000151
v -0.1106434 0 -0.3254095
vn 0 0 -1.000001
vt 0.7499921 0
v -0.1106434 0.021619 -0.3254095
vn 0 0 -1.000001
vt 0.7499921 0.5000151
v -0.2122404 0 -0.3254095
vn 0 0 -1.000001
vt 0.9999996 0
v -0.2122404 0.021619 -0.3254095
vn 0 0 -1.000001
vt 0.9999996 0.5000151
v 0.09255059 0.0678166 -0.3254095
vn 0 0 -1.000001
vt 0.2500075 0.9999996
v 0.1941476 0.0613494 -0.3254095
vn 0 0 -1.000001
vt 0 0.9999996
v -0.00904641 0.0678166 -0.3254095
vn 0 0 -1.000001
vt 0.5000151 0.9999996
v -0.1106434 0.0678166 -0.3254095
vn 0 0 -1.000001
vt 0.7499921 0.9999996
v -0.2122404 0.0613563 -0.3254095
vn 0 0 -1.000001
vt 0.9999996 0.9999996
v -0.2122404 0 -0.3254095
vn -0.9921266 -0.1102363 -0.04724412
vt 0 0
v -0.2124844 0 -0.2672775
vn -0.9763785 -0.2204726 0.03149608
vt 0.2500075 0
v -0.2174524 0.021619 -0.2672775
vn -1.000001 0.06299216 0.01574804
vt 0.2500075 0.5000151
v -0.2122404 0.021619 -0.3254095
vn -1.000001 0.05511814 -0.05511814
vt 0 0.5000151
v -0.2038534 0 0.00220248
vn -0.9763785 -0.1653544 0.1102363
vt 0.5000151 0
v -0.2088204 0.021619 0.00220248
vn -0.9921266 -0.05511814 0.08661422
vt 0.5000151 0.5000151
v -0.1761204 0 0.1660085
vn -0.9842526 -0.00787402 0.1574804
vt 0.7499921 0
v -0.1761204 0.021619 0.1660085
vn -0.9842526 -0.04724412 0.1653544
vt 0.7499921 0.5000151
v -0.1512654 0 0.3298145
vn -0.9921266 -0.02362206 0.1496064
vt 0.9999996 0
v -0.1512654 0.021619 0.3331395
vn -0.9921266 0 0.1496064
vt 0.9999996 0.5000151
v -0.2124844 0.0506738 -0.2672775
vn -0.9921266 0.1338584 0.01574804
vt 0.2500075 0.9999996
v -0.2122404 0.0613563 -0.3254095
vn -1.000001 0 -0.00787402
vt 0 0.9999996
v -0.2038534 0.0367777 0.002202482
vn -0.9685045 0.2362206 0.06299216
vt 0.5000151 0.9999996
v -0.1761204 0.0292522 0.1660085
vn -0.9685045 0.1574804 0.1732284
vt 0.7499921 0.9999996
v -0.1512654 0.0292522 0.3298145
vn -0.9921266 0.03149608 0.1496064
vt 0.9999996 0.9999996

f 1/1/1 2/2/2 3/3/3
f 3/3/3 4/4/4 1/1/1
f 4/4/4 3/3/3 5/5/5
f 5/5/5 6/6/6 4/4/4
f 6/6/6 5/5/5 7/7/7
f 7/7/7 8/8/8 6/6/6
f 8/8/8 7/7/7 9/9/9
f 9/9/9 10/10/10 8/8/8
f 2/2/2 11/11/11 12/12/12
f 12/12/12 3/3/3 2/2/2
f 3/3/3 12/12/12 13/13/13
f 13/13/13 5/5/5 3/3/3
f 5/5/5 13/13/13 14/14/14
f 14/14/14 7/7/7 5/5/5
f 7/7/7 14/14/14 15/15/15
f 15/15/15 9/9/9 7/7/7
f 11/11/11 16/16/16 17/17/17
f 17/17/17 12/12/12 11/11/11
f 12/12/12 17/17/17 18/18/18
f 18/18/18 13/13/13 12/12/12
f 13/13/13 18/18/18 19/19/19
f 19/19/19 14/14/14 13/13/13
f 14/14/14 19/19/19 20/20/20
f 20/20/20 15/15/15 14/14/14
f 16/16/16 21/21/21 22/22/22
f 22/22/22 17/17/17 16/16/16
f 17/17/17 22/22/22 23/23/23
f 23/23/23 18/18/18 17/17/17
f 18/18/18 23/23/23 24/24/24
f 24/24/24 19/19/19 18/18/18
f 19/19/19 24/24/24 25/25/25
f 25/25/25 20/20/20 19/19/19
f 26/26/26 27/27/27 28/28/28
f 28/28/28 29/29/29 26/26/26
f 27/27/27 30/30/30 31/31/31
f 31/31/31 28/28/28 27/27/27
f 30/30/30 32/32/32 33/33/33
f 33/33/33 31/31/31 30/30/30
f 32/32/32 34/34/34 35/35/35
f 35/35/35 33/33/33 32/32/32
f 29/29/29 28/28/28 36/36/36
f 36/36/36 37/37/37 29/29/29
f 28/28/28 31/31/31 38/38/38
f 38/38/38 36/36/36 28/28/28
f 31/31/31 33/33/33 39/39/39
f 39/39/39 38/38/38 31/31/31
f 33/33/33 35/35/35 40/40/40
f 40/40/40 39/39/39 33/33/33
f 37/37/37 36/36/36 41/41/41
f 41/41/41 42/42/42 37/37/37
f 36/36/36 38/38/38 43/43/43
f 43/43/43 41/41/41 36/36/36
f 38/38/38 39/39/39 44/44/44
f 44/44/44 43/43/43 38/38/38
f 39/39/39 40/40/40 45/45/45
f 45/45/45 44/44/44 39/39/39
f 42/42/42 41/41/41 46/46/46
f 46/46/46 47/47/47 42/42/42
f 41/41/41 43/43/43 48/48/48
f 48/48/48 46/46/46 41/41/41
f 43/43/43 44/44/44 49/49/49
f 49/49/49 48/48/48 43/43/43
f 44/44/44 45/45/45 50/50/50
f 50/50/50 49/49/49 44/44/44
f 51/51/51 52/52/52 53/53/53
f 53/53/53 54/54/54 51/51/51
f 52/52/52 55/55/55 56/56/56
f 56/56/56 53/53/53 52/52/52
f 55/55/55 57/57/57 58/58/58
f 58/58/58 56/56/56 55/55/55
f 57/57/57 59/59/59 60/60/60
f 60/60/60 58/58/58 57/57/57
f 61/61/61 62/62/62 63/63/63
f 63/63/63 64/64/64 61/61/61
f 62/62/62 65/65/65 66/66/66
f 66/66/66 63/63/63 62/62/62
f 65/65/65 67/67/67 68/68/68
f 68/68/68 66/66/66 65/65/65
f 67/67/67 69/69/69 70/70/70
f 70/70/70 68/68/68 67/67/67
f 71/71/71 72/72/72 73/73/73
f 73/73/73 74/74/74 71/71/71
f 75/75/75 76/76/76 77/77/77
f 77/77/77 78/78/78 75/75/75
f 76/76/76 79/79/79 80/80/80
f 80/80/80 77/77/77 76/76/76
f 81/81/81 82/82/82 83/83/83
f 83/83/83 84/84/84 81/81/81
f 85/85/85 86/86/86 87/87/87
f 87/87/87 88/88/88 85/85/85
f 89/89/89 90/90/90 91/91/91
f 91/91/91 92/92/92 89/89/89
f 90/90/90 93/93/93 94/94/94
f 94/94/94 91/91/91 90/90/90
f 95/95/95 96/96/96 97/97/97
f 97/97/97 98/98/98 95/95/95
f 99/99/99 100/100/100 101/101/101
f 101/101/101 102/102/102 99/99/99
f 100/100/100 103/103/103 104/104/104
f 104/104/104 101/101/101 100/100/100
f 103/103/103 105/105/105 106/106/106
f 106/106/106 104/104/104 103/103/103
f 105/105/105 107/107/107 108/108/108
f 108/108/108 106/106/106 105/105/105
f 102/102/102 101/101/101 109/109/109
f 109/109/109 110/110/110 102/102/102
f 101/101/101 104/104/104 111/111/111
f 111/111/111 109/109/109 101/101/101
f 104/104/104 106/106/106 112/112/112
f 112/112/112 111/111/111 104/104/104
f 106/106/106 108/108/108 113/113/113
f 113/113/113 112/112/112 106/106/106
f 114/114/114 115/115/115 116/116/116
f 116/116/116 117/117/117 114/114/114
f 115/115/115 118/118/118 119/119/119
f 119/119/119 116/116/116 115/115/115
f 118/118/118 120/120/120 121/121/121
f 121/121/121 119/119/119 118/118/118
f 120/120/120 122/122/122 123/123/123
f 123/123/123 121/121/121 120/120/120
f 117/117/117 116/116/116 124/124/124
f 124/124/124 125/125/125 117/117/117
f 116/116/116 119/119/119 126/126/126
f 126/126/126 124/124/124 116/116/116
f 119/119/119 121/121/121 127/127/127
f 127/127/127 126/126/126 119/119/119
f 121/121/121 123/123/123 128/128/128
f 128/128/128 127/127/127 121/121/121

