g Cylinder001

usemtl colours.png

v 0.07831163 0 4.94942E-05
vn 0.9659105 0 -0.2588274
vt 0.3318166 0.8017946
v 0.06759363 0 -0.0399505
vn 0.9659105 0 -0.2588274
vt 0.3345082 0.8017946
v 0.06759363 0.0528569 -0.0399505
vn 0.9659105 0 -0.2588274
vt 0.3345082 0.8202925
v 0.07831163 0.0528569 4.94942E-05
vn 0.9659105 0 -0.2588274
vt 0.3318166 0.8202925
v 0.06759363 0 -0.0399505
vn 0.7071136 0 -0.7071136
vt 0.3345082 0.8017946
v 0.03831163 0 -0.06923251
vn 0.7071136 0 -0.7071136
vt 0.3371999 0.8017946
v 0.03831163 0.0528569 -0.06923251
vn 0.7071136 0 -0.7071136
vt 0.3371999 0.8202925
v 0.06759363 0.0528569 -0.0399505
vn 0.7071136 0 -0.7071136
vt 0.3345082 0.8202925
v 0.03831163 0 -0.06923251
vn 0.2588274 0 -0.9659105
vt 0.3371999 0.8017946
v -0.001688374 0 -0.0799505
vn 0.2588274 0 -0.9659105
vt 0.3398915 0.8017946
v -0.001688374 0.0528569 -0.0799505
vn 0.2588274 0 -0.9659105
vt 0.3398915 0.8202925
v 0.03831163 0.0528569 -0.06923251
vn 0.2588274 0 -0.9659105
vt 0.3371999 0.8202925
v -0.001688374 0 -0.0799505
vn -0.2588274 0 -0.9659105
vt 0.3075918 0.8017946
v -0.04168837 0 -0.06923251
vn -0.2588274 0 -0.9659105
vt 0.3102835 0.8017946
v -0.04168837 0.0528569 -0.06923251
vn -0.2588274 0 -0.9659105
vt 0.3102835 0.8202925
v -0.001688374 0.0528569 -0.0799505
vn -0.2588274 0 -0.9659105
vt 0.3075918 0.8202925
v -0.04168837 0 -0.06923251
vn -0.7071136 0 -0.7071136
vt 0.3102835 0.8017946
v -0.07097037 0 -0.0399505
vn -0.7071136 0 -0.7071136
vt 0.3129751 0.8017946
v -0.07097037 0.0528569 -0.0399505
vn -0.7071136 0 -0.7071136
vt 0.3129751 0.8202925
v -0.04168837 0.0528569 -0.06923251
vn -0.7071136 0 -0.7071136
vt 0.3102835 0.8202925
v -0.07097037 0 -0.0399505
vn -0.9659105 0 -0.2588274
vt 0.3129751 0.8017946
v -0.08168837 0 4.948212E-05
vn -0.9659105 0 -0.2588274
vt 0.3156667 0.8017946
v -0.08168837 0.0528569 4.948212E-05
vn -0.9659105 0 -0.2588274
vt 0.3156667 0.8202925
v -0.07097037 0.0528569 -0.0399505
vn -0.9659105 0 -0.2588274
vt 0.3129751 0.8202925
v -0.08168837 0 4.948212E-05
vn -0.9659105 0 0.2588274
vt 0.3156667 0.8017946
v -0.07097037 0 0.04004949
vn -0.9659105 0 0.2588274
vt 0.3183584 0.8017946
v -0.07097037 0.0528569 0.04004949
vn -0.9659105 0 0.2588274
vt 0.3183584 0.8202925
v -0.08168837 0.0528569 4.948212E-05
vn -0.9659105 0 0.2588274
vt 0.3156667 0.8202925
v -0.07097037 0 0.04004949
vn -0.7071136 0 0.7071136
vt 0.3183584 0.8017946
v -0.04168837 0 0.0693315
vn -0.7071136 0 0.7071136
vt 0.32105 0.8017946
v -0.04168837 0.0528569 0.0693315
vn -0.7071136 0 0.7071136
vt 0.32105 0.8202925
v -0.07097037 0.0528569 0.04004949
vn -0.7071136 0 0.7071136
vt 0.3183584 0.8202925
v -0.04168837 0 0.0693315
vn -0.2588274 0 0.9659105
vt 0.32105 0.8017946
v -0.001688407 0 0.08004949
vn -0.2588274 0 0.9659105
vt 0.3237417 0.8017946
v -0.001688407 0.0528569 0.08004949
vn -0.2588274 0 0.9659105
vt 0.3237417 0.8202925
v -0.04168837 0.0528569 0.0693315
vn -0.2588274 0 0.9659105
vt 0.32105 0.8202925
v -0.001688407 0 0.08004949
vn 0.2588274 0 0.9659105
vt 0.3237417 0.8017946
v 0.03831163 0 0.06933159
vn 0.2588274 0 0.9659105
vt 0.3264333 0.8017946
v 0.03831163 0.0528569 0.06933159
vn 0.2588274 0 0.9659105
vt 0.3264333 0.8202925
v -0.001688407 0.0528569 0.08004949
vn 0.2588274 0 0.9659105
vt 0.3237417 0.8202925
v 0.03831163 0 0.06933159
vn 0.7071136 0 0.7071136
vt 0.3264333 0.8017946
v 0.06759363 0 0.04004949
vn 0.7071136 0 0.7071136
vt 0.329125 0.8017946
v 0.06759363 0.0528569 0.04004949
vn 0.7071136 0 0.7071136
vt 0.329125 0.8202925
v 0.03831163 0.0528569 0.06933159
vn 0.7071136 0 0.7071136
vt 0.3264333 0.8202925
v 0.06759363 0 0.04004949
vn 0.9659105 0 0.2588274
vt 0.329125 0.8017946
v 0.07831163 0 4.94942E-05
vn 0.9659105 0 0.2588274
vt 0.3318166 0.8017946
v 0.07831163 0.0528569 4.94942E-05
vn 0.9659105 0 0.2588274
vt 0.3318166 0.8202925
v 0.06759363 0.0528569 0.04004949
vn 0.9659105 0 0.2588274
vt 0.329125 0.8202925
v 0.06759363 0.0528569 -0.0399505
vn 0 0.9999996 0
vt 0.1819436 0.9370354
v 0.03831163 0.0528569 -0.06923251
vn 0 0.9999996 0
vt 0.1760449 0.9336565
v -0.001688374 0.0528569 -0.0799505
vn 0 0.9999996 0
vt 0.1738687 0.9290177
v -0.04168837 0.0528569 -0.06923251
vn 0 0.9999996 0
vt 0.1760449 0.9244076
v -0.07097037 0.0528569 -0.0399505
vn 0 0.9999996 0
vt 0.1819436 0.9210287
v -0.08168837 0.0528569 4.948212E-05
vn 0 0.9999996 0
vt 0.1900185 0.9197688
v -0.07097037 0.0528569 0.04004949
vn 0 0.9999996 0
vt 0.1981221 0.9210287
v -0.04168837 0.0528569 0.0693315
vn 0 0.9999996 0
vt 0.2040208 0.9244076
v -0.001688407 0.0528569 0.08004949
vn 0 0.9999996 0
vt 0.206197 0.9290177
v 0.03831163 0.0528569 0.06933159
vn 0 0.9999996 0
vt 0.2040208 0.9336565
v 0.06759363 0.0528569 0.04004949
vn 0 0.9999996 0
vt 0.1981221 0.9370354
v 0.07831163 0.0528569 4.94942E-05
vn 0 0.9999996 0
vt 0.1900185 0.9382667

f 1/1/1 2/2/2 3/3/3
f 3/3/3 4/4/4 1/1/1
f 5/5/5 6/6/6 7/7/7
f 7/7/7 8/8/8 5/5/5
f 9/9/9 10/10/10 11/11/11
f 11/11/11 12/12/12 9/9/9
f 13/13/13 14/14/14 15/15/15
f 15/15/15 16/16/16 13/13/13
f 17/17/17 18/18/18 19/19/19
f 19/19/19 20/20/20 17/17/17
f 21/21/21 22/22/22 23/23/23
f 23/23/23 24/24/24 21/21/21
f 25/25/25 26/26/26 27/27/27
f 27/27/27 28/28/28 25/25/25
f 29/29/29 30/30/30 31/31/31
f 31/31/31 32/32/32 29/29/29
f 33/33/33 34/34/34 35/35/35
f 35/35/35 36/36/36 33/33/33
f 37/37/37 38/38/38 39/39/39
f 39/39/39 40/40/40 37/37/37
f 41/41/41 42/42/42 43/43/43
f 43/43/43 44/44/44 41/41/41
f 45/45/45 46/46/46 47/47/47
f 47/47/47 48/48/48 45/45/45
f 49/49/49 50/50/50 51/51/51
f 51/51/51 52/52/52 53/53/53
f 53/53/53 54/54/54 55/55/55
f 51/51/51 53/53/53 55/55/55
f 55/55/55 56/56/56 57/57/57
f 57/57/57 58/58/58 59/59/59
f 55/55/55 57/57/57 59/59/59
f 51/51/51 55/55/55 59/59/59
f 49/49/49 51/51/51 59/59/59
f 60/60/60 49/49/49 59/59/59

