g Cylinder002

usemtl colours.png

v 0.0835536 0.000572935 -4.10476E-09
vn 0.8661422 0 -0.5039373
vt 0.294729 0.8045617
v 0.0417768 0.000572935 -0.0723595
vn 0.8661422 0 -0.5039373
vt 0.294729 0.800029
v 0.0417768 0.298553 -0.0723595
vn 0.8661422 0 -0.5039373
vt 0.3079998 0.800029
v 0.0835536 0.298553 0
vn 0.8661422 0 -0.5039373
vt 0.3079998 0.8045617
v 0.0417768 0.000572935 -0.0723595
vn 0 0 -1.000001
vt 0.294729 0.8251354
v -0.0417768 0.000572935 -0.0723595
vn 0 0 -1.000001
vt 0.294729 0.8198975
v -0.0417768 0.298553 -0.0723595
vn 0 0 -1.000001
vt 0.3079998 0.8198975
v 0.0417768 0.298553 -0.0723595
vn 0 0 -1.000001
vt 0.3079998 0.8251354
v -0.0417768 0.000572935 -0.0723595
vn -0.8661422 0 -0.4960633
vt 0.294729 0.8190413
v -0.0835536 0.000572935 3.19972E-09
vn -0.8661422 0 -0.4960633
vt 0.294729 0.8145086
v -0.0835536 0.298553 7.30448E-09
vn -0.8661422 0 -0.4960633
vt 0.3079998 0.8145086
v -0.0417768 0.298553 -0.0723595
vn -0.8661422 0 -0.4960633
vt 0.3079998 0.8190413
v -0.0835536 0.000572935 3.19972E-09
vn -0.8661422 0 0.5039373
vt 0.294729 0.8145086
v -0.0417768 0.000572935 0.0723595
vn -0.8661422 0 0.5039373
vt 0.294729 0.8099506
v -0.0417768 0.298553 0.0723595
vn -0.8661422 0 0.5039373
vt 0.3079998 0.8099506
v -0.0835536 0.298553 7.30448E-09
vn -0.8661422 0 0.5039373
vt 0.3079998 0.8145086
v -0.0417768 0.000572935 0.0723595
vn 0 0 1.000001
vt 0.3089064 0.8151885
v 0.0417768 0.000572935 0.0723595
vn 0 0 1.000001
vt 0.3089064 0.8099506
v 0.0417768 0.298553 0.0723595
vn 0 0 1.000001
vt 0.3221772 0.8099506
v -0.0417768 0.298553 0.0723595
vn 0 0 1.000001
vt 0.3221772 0.8151885
v 0.0417768 0.000572935 0.0723595
vn 0.8661422 0 0.5039373
vt 0.294729 0.8090944
v 0.0835536 0.000572935 -4.10476E-09
vn 0.8661422 0 0.5039373
vt 0.294729 0.8045617
v 0.0835536 0.298553 0
vn 0.8661422 0 0.5039373
vt 0.3079998 0.8045617
v 0.0417768 0.298553 0.0723595
vn 0.8661422 0 0.5039373
vt 0.3079998 0.8090944
v 0.00883536 0.378553 -0.0153033
vn 0 1.000001 0
vt 0.1699778 0.8155158
v -0.00883536 0.378553 -0.0153033
vn 0 1.000001 0
vt 0.1699778 0.8055186
v -0.0176707 0.378553 2.4932E-09
vn 0 1.000001 0
vt 0.1829717 0.8005074
v -0.00883536 0.378553 0.0153033
vn 0 1.000001 0
vt 0.1959655 0.8055186
v 0.00883536 0.378553 0.0153033
vn 0 1.000001 0
vt 0.1959655 0.8155158
v 0.0176707 0.378553 -2.01103E-09
vn 0 1.000001 0
vt 0.1829717 0.8205019
v 0.0835536 0.298553 0
vn 0 1.000001 0
vt 0.3089064 0.8045617
v 0.0417768 0.298553 -0.0723595
vn 0 1.000001 0
vt 0.311626 0.800029
v 0.0186828 0.298553 -0.0323595
vn 0 1.000001 0
vt 0.3131118 0.802522
v 0.0373655 0.298553 -1.58946E-09
vn 0 1.000001 0
vt 0.311903 0.8045617
v -0.0417768 0.298553 -0.0723595
vn 0 1.000001 0
vt 0.3170401 0.800029
v -0.0186828 0.298553 -0.0323595
vn 0 1.000001 0
vt 0.3155544 0.802522
v -0.0835536 0.298553 7.30448E-09
vn 0 1.000001 0
vt 0.3197598 0.8045617
v -0.0373655 0.298553 3.33084E-09
vn 0 1.000001 0
vt 0.3167631 0.8045617
v -0.0417768 0.298553 0.0723595
vn 0 1.000001 0
vt 0.3170401 0.8090944
v -0.0186828 0.298553 0.0323595
vn 0 1.000001 0
vt 0.3155544 0.8066015
v 0.0417768 0.298553 0.0723595
vn 0 1.000001 0
vt 0.311626 0.8090944
v 0.0186828 0.298553 0.0323595
vn 0 1.000001 0
vt 0.3131118 0.8066015
v 0.0373655 0.298553 -1.58946E-09
vn 0.8661422 0 -0.5039373
vt 0.1829717 0.8205019
v 0.0186828 0.298553 -0.0323595
vn 0.8661422 0 -0.5039373
vt 0.1699778 0.8155158
v 0.0186828 0.318553 -0.0323595
vn 0.8661422 0 -0.5039373
vt 0.1699778 0.8155158
v 0.0373655 0.318553 -1.58946E-09
vn 0.8661422 0 -0.5039373
vt 0.1829717 0.8205019
v 0.0186828 0.298553 -0.0323595
vn 0 0 -1.000001
vt 0.1699778 0.8155158
v -0.0186828 0.298553 -0.0323595
vn 0 0 -1.000001
vt 0.1699778 0.8055186
v -0.0186828 0.318553 -0.0323595
vn 0 0 -1.000001
vt 0.1699778 0.8055186
v 0.0186828 0.318553 -0.0323595
vn 0 0 -1.000001
vt 0.1699778 0.8155158
v -0.0186828 0.298553 -0.0323595
vn -0.8661422 0 -0.4960633
vt 0.1699778 0.8055186
v -0.0373655 0.298553 3.33084E-09
vn -0.8661422 0 -0.4960633
vt 0.1829717 0.8005074
v -0.0373655 0.318553 3.33084E-09
vn -0.8661422 0 -0.4960633
vt 0.1829717 0.8005074
v -0.0186828 0.318553 -0.0323595
vn -0.8661422 0 -0.4960633
vt 0.1699778 0.8055186
v -0.0373655 0.298553 3.33084E-09
vn -0.8661422 0 0.5039373
vt 0.1829717 0.8005074
v -0.0186828 0.298553 0.0323595
vn -0.8661422 0 0.5039373
vt 0.1959655 0.8055186
v -0.0186828 0.318553 0.0323595
vn -0.8661422 0 0.5039373
vt 0.1959655 0.8055186
v -0.0373655 0.318553 3.33084E-09
vn -0.8661422 0 0.5039373
vt 0.1829717 0.8005074
v -0.0186828 0.298553 0.0323595
vn 0 0 1.000001
vt 0.1959655 0.8055186
v 0.0186828 0.298553 0.0323595
vn 0 0 1.000001
vt 0.1959655 0.8155158
v 0.0186828 0.318553 0.0323595
vn 0 0 1.000001
vt 0.1959655 0.8155158
v -0.0186828 0.318553 0.0323595
vn 0 0 1.000001
vt 0.1959655 0.8055186
v 0.0186828 0.298553 0.0323595
vn 0.8661422 0 0.5039373
vt 0.1959655 0.8155158
v 0.0373655 0.298553 -1.58946E-09
vn 0.8661422 0 0.5039373
vt 0.1829717 0.8205019
v 0.0373655 0.318553 -1.58946E-09
vn 0.8661422 0 0.5039373
vt 0.1829717 0.8205019
v 0.0186828 0.318553 0.0323595
vn 0.8661422 0 0.5039373
vt 0.1959655 0.8155158
v 0.0373655 0.318553 -1.58946E-09
vn 0.8267722 -0.3070868 -0.4724412
vt 0.1829717 0.8205019
v 0.0186828 0.318553 -0.0323595
vn 0.8267722 -0.3070868 -0.4724412
vt 0.1699778 0.8155158
v 0.0261559 0.358553 -0.0453033
vn 0.8267722 -0.3070868 -0.4724412
vt 0.1699778 0.8155158
v 0.0523118 0.358553 -3.20313E-09
vn 0.8267722 -0.3070868 -0.4724412
vt 0.1829717 0.8205019
v 0.0186828 0.318553 -0.0323595
vn 0 -0.3070868 -0.9527565
vt 0.1699778 0.8155158
v -0.0186828 0.318553 -0.0323595
vn 0 -0.3070868 -0.9527565
vt 0.1699778 0.8055186
v -0.0261559 0.358553 -0.0453033
vn 0 -0.3070868 -0.9527565
vt 0.1699778 0.8055186
v 0.0261559 0.358553 -0.0453033
vn 0 -0.3070868 -0.9527565
vt 0.1699778 0.8155158
v -0.0186828 0.318553 -0.0323595
vn -0.8267722 -0.3070868 -0.4724412
vt 0.1699778 0.8055186
v -0.0373655 0.318553 3.33084E-09
vn -0.8267722 -0.3070868 -0.4724412
vt 0.1829717 0.8005074
v -0.0523117 0.358553 3.68529E-09
vn -0.8267722 -0.3070868 -0.4724412
vt 0.1829717 0.8005074
v -0.0261559 0.358553 -0.0453033
vn -0.8267722 -0.3070868 -0.4724412
vt 0.1699778 0.8055186
v -0.0373655 0.318553 3.33084E-09
vn -0.8267722 -0.3070868 0.4724412
vt 0.1829717 0.8005074
v -0.0186828 0.318553 0.0323595
vn -0.8267722 -0.3070868 0.4724412
vt 0.1959655 0.8055186
v -0.0261559 0.358553 0.0453033
vn -0.8267722 -0.3070868 0.4724412
vt 0.1959655 0.8055186
v -0.0523117 0.358553 3.68529E-09
vn -0.8267722 -0.3070868 0.4724412
vt 0.1829717 0.8005074
v -0.0186828 0.318553 0.0323595
vn 0 -0.3070868 0.9527565
vt 0.1959655 0.8055186
v 0.0186828 0.318553 0.0323595
vn 0 -0.3070868 0.9527565
vt 0.1959655 0.8155158
v 0.0261559 0.358553 0.0453033
vn 0 -0.3070868 0.9527565
vt 0.1959655 0.8155158
v -0.0261559 0.358553 0.0453033
vn 0 -0.3070868 0.9527565
vt 0.1959655 0.8055186
v 0.0186828 0.318553 0.0323595
vn 0.8267722 -0.3070868 0.4724412
vt 0.1959655 0.8155158
v 0.0373655 0.318553 -1.58946E-09
vn 0.8267722 -0.3070868 0.4724412
vt 0.1829717 0.8205019
v 0.0523118 0.358553 -3.20313E-09
vn 0.8267722 -0.3070868 0.4724412
vt 0.1829717 0.8205019
v 0.0261559 0.358553 0.0453033
vn 0.8267722 -0.3070868 0.4724412
vt 0.1959655 0.8155158
v 0.0523118 0.358553 -3.20313E-09
vn 0 1.000001 0
vt 0.1829717 0.8205019
v 0.0261559 0.358553 -0.0453033
vn 0 1.000001 0
vt 0.1699778 0.8155158
v 0.00883536 0.358553 -0.0153033
vn 0 1.000001 0
vt 0.1699778 0.8155158
v 0.0176707 0.358553 -2.01104E-09
vn 0 1.000001 0
vt 0.1829717 0.8205019
v -0.0261559 0.358553 -0.0453033
vn 0 1.000001 0
vt 0.1699778 0.8055186
v -0.00883536 0.358553 -0.0153033
vn 0 1.000001 0
vt 0.1699778 0.8055186
v -0.0523117 0.358553 3.68529E-09
vn 0 1.000001 0
vt 0.1829717 0.8005074
v -0.0176707 0.358553 2.4932E-09
vn 0 1.000001 0
vt 0.1829717 0.8005074
v -0.0261559 0.358553 0.0453033
vn 0 1.000001 0
vt 0.1959655 0.8055186
v -0.00883536 0.358553 0.0153033
vn 0 1.000001 0
vt 0.1959655 0.8055186
v 0.0261559 0.358553 0.0453033
vn 0 1.000001 0
vt 0.1959655 0.8155158
v 0.00883536 0.358553 0.0153033
vn 0 1.000001 0
vt 0.1959655 0.8155158
v 0.0176707 0.358553 -2.01104E-09
vn 0.8661422 0 -0.5039373
vt 0.1829717 0.8205019
v 0.00883536 0.358553 -0.0153033
vn 0.8661422 0 -0.5039373
vt 0.1699778 0.8155158
v 0.00883536 0.378553 -0.0153033
vn 0.8661422 0 -0.5039373
vt 0.1699778 0.8155158
v 0.0176707 0.378553 -2.01103E-09
vn 0.8661422 0 -0.5039373
vt 0.1829717 0.8205019
v 0.00883536 0.358553 -0.0153033
vn 0 0 -1.000001
vt 0.1699778 0.8155158
v -0.00883536 0.358553 -0.0153033
vn 0 0 -1.000001
vt 0.1699778 0.8055186
v -0.00883536 0.378553 -0.0153033
vn 0 0 -1.000001
vt 0.1699778 0.8055186
v 0.00883536 0.378553 -0.0153033
vn 0 0 -1.000001
vt 0.1699778 0.8155158
v -0.00883536 0.358553 -0.0153033
vn -0.8661422 0 -0.4960633
vt 0.1699778 0.8055186
v -0.0176707 0.358553 2.4932E-09
vn -0.8661422 0 -0.4960633
vt 0.1829717 0.8005074
v -0.0176707 0.378553 2.4932E-09
vn -0.8661422 0 -0.4960633
vt 0.1829717 0.8005074
v -0.00883536 0.378553 -0.0153033
vn -0.8661422 0 -0.4960633
vt 0.1699778 0.8055186
v -0.0176707 0.358553 2.4932E-09
vn -0.8661422 0 0.4960633
vt 0.1829717 0.8005074
v -0.00883536 0.358553 0.0153033
vn -0.8661422 0 0.4960633
vt 0.1959655 0.8055186
v -0.00883536 0.378553 0.0153033
vn -0.8661422 0 0.4960633
vt 0.1959655 0.8055186
v -0.0176707 0.378553 2.4932E-09
vn -0.8661422 0 0.4960633
vt 0.1829717 0.8005074
v -0.00883536 0.358553 0.0153033
vn 0 0 1.000001
vt 0.1959655 0.8055186
v 0.00883536 0.358553 0.0153033
vn 0 0 1.000001
vt 0.1959655 0.8155158
v 0.00883536 0.378553 0.0153033
vn 0 0 1.000001
vt 0.1959655 0.8155158
v -0.00883536 0.378553 0.0153033
vn 0 0 1.000001
vt 0.1959655 0.8055186
v 0.00883536 0.358553 0.0153033
vn 0.8661422 0 0.5039373
vt 0.1959655 0.8155158
v 0.0176707 0.358553 -2.01104E-09
vn 0.8661422 0 0.5039373
vt 0.1829717 0.8205019
v 0.0176707 0.378553 -2.01103E-09
vn 0.8661422 0 0.5039373
vt 0.1829717 0.8205019
v 0.00883536 0.378553 0.0153033
vn 0.8661422 0 0.5039373
vt 0.1959655 0.8155158

f 1/1/1 2/2/2 3/3/3
f 3/3/3 4/4/4 1/1/1
f 5/5/5 6/6/6 7/7/7
f 7/7/7 8/8/8 5/5/5
f 9/9/9 10/10/10 11/11/11
f 11/11/11 12/12/12 9/9/9
f 13/13/13 14/14/14 15/15/15
f 15/15/15 16/16/16 13/13/13
f 17/17/17 18/18/18 19/19/19
f 19/19/19 20/20/20 17/17/17
f 21/21/21 22/22/22 23/23/23
f 23/23/23 24/24/24 21/21/21
f 25/25/25 26/26/26 27/27/27
f 27/27/27 28/28/28 29/29/29
f 25/25/25 27/27/27 29/29/29
f 30/30/30 25/25/25 29/29/29
f 31/31/31 32/32/32 33/33/33
f 33/33/33 34/34/34 31/31/31
f 32/32/32 35/35/35 36/36/36
f 36/36/36 33/33/33 32/32/32
f 35/35/35 37/37/37 38/38/38
f 38/38/38 36/36/36 35/35/35
f 37/37/37 39/39/39 40/40/40
f 40/40/40 38/38/38 37/37/37
f 39/39/39 41/41/41 42/42/42
f 42/42/42 40/40/40 39/39/39
f 41/41/41 31/31/31 34/34/34
f 34/34/34 42/42/42 41/41/41
f 43/43/43 44/44/44 45/45/45
f 45/45/45 46/46/46 43/43/43
f 47/47/47 48/48/48 49/49/49
f 49/49/49 50/50/50 47/47/47
f 51/51/51 52/52/52 53/53/53
f 53/53/53 54/54/54 51/51/51
f 55/55/55 56/56/56 57/57/57
f 57/57/57 58/58/58 55/55/55
f 59/59/59 60/60/60 61/61/61
f 61/61/61 62/62/62 59/59/59
f 63/63/63 64/64/64 65/65/65
f 65/65/65 66/66/66 63/63/63
f 67/67/67 68/68/68 69/69/69
f 69/69/69 70/70/70 67/67/67
f 71/71/71 72/72/72 73/73/73
f 73/73/73 74/74/74 71/71/71
f 75/75/75 76/76/76 77/77/77
f 77/77/77 78/78/78 75/75/75
f 79/79/79 80/80/80 81/81/81
f 81/81/81 82/82/82 79/79/79
f 83/83/83 84/84/84 85/85/85
f 85/85/85 86/86/86 83/83/83
f 87/87/87 88/88/88 89/89/89
f 89/89/89 90/90/90 87/87/87
f 91/91/91 92/92/92 93/93/93
f 93/93/93 94/94/94 91/91/91
f 92/92/92 95/95/95 96/96/96
f 96/96/96 93/93/93 92/92/92
f 95/95/95 97/97/97 98/98/98
f 98/98/98 96/96/96 95/95/95
f 97/97/97 99/99/99 100/100/100
f 100/100/100 98/98/98 97/97/97
f 99/99/99 101/101/101 102/102/102
f 102/102/102 100/100/100 99/99/99
f 101/101/101 91/91/91 94/94/94
f 94/94/94 102/102/102 101/101/101
f 103/103/103 104/104/104 105/105/105
f 105/105/105 106/106/106 103/103/103
f 107/107/107 108/108/108 109/109/109
f 109/109/109 110/110/110 107/107/107
f 111/111/111 112/112/112 113/113/113
f 113/113/113 114/114/114 111/111/111
f 115/115/115 116/116/116 117/117/117
f 117/117/117 118/118/118 115/115/115
f 119/119/119 120/120/120 121/121/121
f 121/121/121 122/122/122 119/119/119
f 123/123/123 124/124/124 125/125/125
f 125/125/125 126/126/126 123/123/123

