g Box002

usemtl colours.png

v -0.00140452 0 0.05
vn 0 -1 0
vt 0.0781289 0.9179927
v -0.00140452 0 -0.05
vn 0 -1 0
vt 0.0781289 0.9188669
v 1.4986 0 -0.05
vn 0 -1 0
vt 0.05496125 0.9188669
v 1.4986 0 0.05
vn 0 -1 0
vt 0.05496125 0.9179927
v -0.00140452 2.2 0.05
vn 0 1 0
vt 0.05496125 0.9179927
v 1.4986 2.2 0.05
vn 0 1 0
vt 0.0781289 0.9179927
v 1.4986 2.2 -0.05
vn 0 1 0
vt 0.0781289 0.9188669
v -0.00140452 2.2 -0.05
vn 0 1 0
vt 0.05496125 0.9188669
v -0.00140452 0 0.05
vn 0 0 1
vt 0.05496125 0.9179927
v 1.4986 0 0.05
vn 0 0 1
vt 0.0781289 0.9179927
v 1.4986 2.2 0.05
vn 0 0 1
vt 0.0781289 0.9377216
v -0.00140452 2.2 0.05
vn 0 0 1
vt 0.05496125 0.9377216
v 1.4986 0 0.05
vn 1 0 0
vt 0.05496125 0.9179927
v 1.4986 0 -0.05
vn 1 0 0
vt 0.05650575 0.9179927
v 1.4986 2.2 -0.05
vn 1 0 0
vt 0.05650575 0.9377216
v 1.4986 2.2 0.05
vn 1 0 0
vt 0.05496125 0.9377216
v 1.4986 0 -0.05
vn 0 0 -1
vt 0.05496125 0.9179927
v -0.00140452 0 -0.05
vn 0 0 -1
vt 0.0781289 0.9179927
v -0.00140452 2.2 -0.05
vn 0 0 -1
vt 0.0781289 0.9377216
v 1.4986 2.2 -0.05
vn 0 0 -1
vt 0.05496125 0.9377216
v -0.00140452 0 -0.05
vn -1 0 0
vt 0.05496125 0.9179927
v -0.00140452 0 0.05
vn -1 0 0
vt 0.05650575 0.9179927
v -0.00140452 2.2 0.05
vn -1 0 0
vt 0.05650575 0.9377216
v -0.00140452 2.2 -0.05
vn -1 0 0
vt 0.05496125 0.9377216
v 1.18456 1.15052 -0.07753532
vn 0 0 -1
vt 0.8215628 0.9469596
v 1.18456 1.27052 -0.07753488
vn 0 0 -1
vt 0.8215628 0.9529045
v 1.30456 1.27052 -0.07753488
vn 0 0 -1
vt 0.7914303 0.9529045
v 1.30456 1.15052 -0.07753532
vn 0 0 -1
vt 0.7914303 0.9469596
v 1.18456 1.150519 0.08246468
vn 0 0 1
vt 0.7914303 0.9469596
v 1.30456 1.150519 0.08246468
vn 0 0 1
vt 0.8215628 0.9469596
v 1.30456 1.270519 0.08246511
vn 0 0 1
vt 0.8215628 0.9529045
v 1.18456 1.270519 0.08246511
vn 0 0 1
vt 0.7914303 0.9529045
v 1.18456 1.15052 -0.07753532
vn 0 -1 0
vt 0.7914303 0.9469596
v 1.30456 1.15052 -0.07753532
vn 0 -1 0
vt 0.8215628 0.9469596
v 1.30456 1.150519 0.08246468
vn 0 -1 0
vt 0.8215628 0.9548861
v 1.18456 1.150519 0.08246468
vn 0 -1 0
vt 0.7914303 0.9548861
v 1.30456 1.15052 -0.07753532
vn 1 0 0
vt 0.7914303 0.9469596
v 1.30456 1.27052 -0.07753488
vn 1 0 0
vt 0.8215628 0.9469596
v 1.30456 1.270519 0.08246511
vn 1 0 0
vt 0.8215628 0.9548861
v 1.30456 1.150519 0.08246468
vn 1 0 0
vt 0.7914303 0.9548861
v 1.30456 1.27052 -0.07753488
vn 0 1 0
vt 0.7914303 0.9469596
v 1.18456 1.27052 -0.07753488
vn 0 1 0
vt 0.8215628 0.9469596
v 1.18456 1.270519 0.08246511
vn 0 1 0
vt 0.8215628 0.9548861
v 1.30456 1.270519 0.08246511
vn 0 1 0
vt 0.7914303 0.9548861
v 1.18456 1.27052 -0.07753488
vn -1 0 0
vt 0.7914303 0.9469596
v 1.18456 1.15052 -0.07753532
vn -1 0 0
vt 0.8215628 0.9469596
v 1.18456 1.150519 0.08246468
vn -1 0 0
vt 0.8215628 0.9548861
v 1.18456 1.270519 0.08246511
vn -1 0 0
vt 0.7914303 0.9548861

f 1/1/1 2/2/2 3/3/3
f 3/3/3 4/4/4 1/1/1
f 5/5/5 6/6/6 7/7/7
f 7/7/7 8/8/8 5/5/5
f 9/9/9 10/10/10 11/11/11
f 11/11/11 12/12/12 9/9/9
f 13/13/13 14/14/14 15/15/15
f 15/15/15 16/16/16 13/13/13
f 17/17/17 18/18/18 19/19/19
f 19/19/19 20/20/20 17/17/17
f 21/21/21 22/22/22 23/23/23
f 23/23/23 24/24/24 21/21/21
f 25/25/25 26/26/26 27/27/27
f 27/27/27 28/28/28 25/25/25
f 29/29/29 30/30/30 31/31/31
f 31/31/31 32/32/32 29/29/29
f 33/33/33 34/34/34 35/35/35
f 35/35/35 36/36/36 33/33/33
f 37/37/37 38/38/38 39/39/39
f 39/39/39 40/40/40 37/37/37
f 41/41/41 42/42/42 43/43/43
f 43/43/43 44/44/44 41/41/41
f 45/45/45 46/46/46 47/47/47
f 47/47/47 48/48/48 45/45/45

