g Plane001

usemtl water.png

v 0 3 -300
vn 0 0 0
vt 0 299.9999
v 0 3 0
vn 0 0 0
vt 0 0
v 300 3 -300
vn 0 0 0
vt 299.9999 299.9999
v 300 3 0
vn 0 0 0
vt 299.9999 0

f 1/1/1 2/2/2 3/3/3
f 4/4/4 3/3/3 2/2/2

g TerrainMesh

usemtl image_x05_y00.png

v 0 0.388807 -77.4245
vn 0 0.9999993 0.02362203
vt 0.0004880528 0.2583019
v 19.3561 0.357132 -77.4245
vn 0 0.9999993 0.03149604
vt 0.06494153 0.2583019
v 0 0.601717 -87.1026
vn 0 0.9999993 0.01574802
vt 0.0004880528 0.2905439
v 0 0.749396 -96.7806
vn -0.00787401 0.9999993 0.02362203
vt 0.0004880528 0.3227554
v 58.0684 2.15177 -135.493
vn 0 0.9999993 0.05511807
vt 0.1938485 0.4516624
v 38.7123 0.84344 -96.7806
vn 0.00787401 0.9999993 0.03149604
vt 0.129395 0.3227554
v 0 0.978197 -106.459
vn -0.00787401 0.9999993 0.03149604
vt 0.0004880528 0.3549974
v 0 1.35475 -116.137
vn 0 0.9999993 0.03937005
vt 0.0004880528 0.3872089
v 0 1.78037 -125.815
vn 0 0.9999993 0.04724406
vt 0.0004880528 0.4194509
v 0 2.24756 -135.493
vn 0 0.9999993 0.04724406
vt 0.0004880528 0.4516624
v 0 2.76708 -145.171
vn 0 0.9999993 0.06299208
vt 0.0004880528 0.4838739
v 9.67806 4.7186 -174.205
vn -0.00787401 0.9921253 0.09448812
vt 0.03273004 0.5805693
v 0 3.32609 -154.849
vn -0.03149604 0.9999993 0.05511807
vt 0.0004880528 0.5161158
v 0 3.87003 -164.527
vn -0.01574802 0.9999993 0.07086609
vt 0.0004880528 0.5483273
v 0 4.71459 -174.205
vn 0 0.9999993 0.08661411
vt 0.0004880528 0.5805693
v 0 5.55787 -183.883
vn -0.00787401 0.9921253 0.09448812
vt 0.0004880528 0.6127808
v 0 6.49789 -193.561
vn -0.05511807 0.9842513 0.1574802
vt 0.0004880528 0.6450228
v 19.3561 7.75244 -193.561
vn -0.06299208 0.9685032 0.2519683
vt 0.06494153 0.6450228
v 0 8.92194 -203.239
vn -0.07086609 0.9606292 0.2598423
vt 0.0004880528 0.6772343
v 0 11.7966 -212.917
vn -0.1023621 0.9448812 0.3070864
vt 0.0004880528 0.7094763
v 58.0684 5.61042 -183.883
vn 0.00787401 0.9921253 0.1181102
vt 0.1938485 0.6127808
v 48.3903 6.49254 -183.883
vn -0.00787401 0.9685032 0.2440943
vt 0.161637 0.6127808
v 9.67806 19.2687 -232.274
vn -0.08661411 0.9527552 0.2755904
vt 0.03273004 0.7739298
v 0 15.1057 -222.595
vn -0.1259842 0.9527552 0.2834644
vt 0.0004880528 0.7416878
v 0 17.5796 -232.274
vn -0.1653542 0.9527552 0.2440943
vt 0.0004880528 0.7739298
v 0 20.0992 -241.952
vn -0.1181102 0.9842513 0.1574802
vt 0.0004880528 0.8061413
v 38.7123 11.8976 -203.239
vn -0.07086609 0.9448812 0.3228344
vt 0.129395 0.6772343
v 58.0684 9.05408 -193.561
vn -0.00787401 0.9370072 0.3622045
vt 0.1938485 0.6450228
v 67.7464 3.78046 -164.527
vn 0.00787401 0.9999993 0.07874011
vt 0.2260905 0.5483273
v 87.1026 5.93267 -183.883
vn -0.00787401 0.9842513 0.1811022
vt 0.2905439 0.6127808
v 106.459 3.67394 -164.527
vn 0.01574802 0.9921253 0.1023621
vt 0.3549974 0.5483273
v 77.4245 1.8132 -135.493
vn 0.00787401 0.9999993 0.03937005
vt 0.2583019 0.4516624
v 58.0684 0.661488 -87.1026
vn 0 0.9999993 0.02362203
vt 0.1938485 0.2905439
v 87.1026 0.413566 -77.4245
vn 0 0.9999993 0.02362203
vt 0.2905439 0.2583019
v 106.459 0.489682 -87.1026
vn 0.00787401 0.9999993 0.02362203
vt 0.3549974 0.2905439
v 48.3903 20.1091 -222.595
vn -0.06299208 0.9606292 0.2834644
vt 0.161637 0.7416878
v 48.3903 16.9818 -212.917
vn -0.04724406 0.9291332 0.3700785
vt 0.161637 0.7094763
v 67.7464 17.3442 -212.917
vn 0 0.9370072 0.3464564
vt 0.2260905 0.7094763
v 96.7806 9.04345 -193.561
vn 0.03937005 0.9370072 0.3385824
vt 0.3227554 0.6450228
v 106.459 6.53054 -183.883
vn 0.02362203 0.9921253 0.1417322
vt 0.3549974 0.6127808
v 154.849 2.45802 -164.527
vn 0.01574802 0.9999993 0.07874011
vt 0.5161158 0.5483273
v 135.493 6.22607 -193.561
vn 0.06299208 0.9685032 0.2440943
vt 0.4516624 0.6450228
v 174.205 1.19677 -135.493
vn 0.00787401 0.9999993 0.02362203
vt 0.5805693 0.4516624
v 116.137 0.308196 -77.4245
vn 0 0.9999993 0.01574802
vt 0.3872089 0.2583019
v 135.493 0.408158 -87.1026
vn 0 0.9999993 0.01574802
vt 0.4516624 0.2905439
v 193.561 0.191941 -87.1026
vn 0 0.9999993 0.02362203
vt 0.6450228 0.2905439
v 19.3561 22.0816 -241.952
vn -0.07086609 0.9921253 0.1181102
vt 0.06494153 0.8061413
v 0 20.9485 -251.63
vn -0.1023621 0.9921253 0.09448812
vt 0.0004880528 0.8383832
v 0 21.964 -261.308
vn -0.1102361 0.9842513 0.1102361
vt 0.0004880528 0.8705947
v 0 23.0598 -270.986
vn -0.07086609 0.9921253 0.07874011
vt 0.0004880528 0.9028367
v 0 23.5361 -280.664
vn -0.05511807 0.9999993 0.06299208
vt 0.0004880528 0.9350482
v 58.0684 22.6622 -232.274
vn -0.04724406 0.9842513 0.1653542
vt 0.1938485 0.7739298
v 29.0342 23.4875 -251.63
vn -0.03937005 0.9999993 0.05511807
vt 0.09718352 0.8383832
v 0 24.0597 -290.342
vn -0.03149604 0.9999993 0.03937005
vt 0.0004880528 0.9672902
v 87.1026 22.8291 -232.274
vn 0.00787401 0.9763772 0.2125983
vt 0.2905439 0.7739298
v 67.7464 24.2381 -241.952
vn -0.00787401 0.9999993 0.05511807
vt 0.2260905 0.8061413
v 48.3903 24.9831 -280.664
vn -0.01574802 0.9999993 0.03149604
vt 0.161637 0.9350482
v 0 24.4224 -300.02
vn -0.02362203 0.9999993 0.03149604
vt 0.0004880528 0.9995016
v 9.67806 24.6056 -300.02
vn -0.01574802 0.9999993 0.01574802
vt 0.03273004 0.9995016
v 19.3561 24.7278 -300.02
vn -0.01574802 0.9999993 0.00787401
vt 0.06494153 0.9995016
v 29.0342 24.8735 -300.02
vn -0.02362203 0.9999993 0.01574802
vt 0.09718352 0.9995016
v 38.7123 25.212 -300.02
vn -0.02362203 0.9999993 0.02362203
vt 0.129395 0.9995016
v 48.3903 25.3953 -300.02
vn -0.02362203 0.9999993 0.03937005
vt 0.161637 0.9995016
v 77.4245 24.8427 -270.986
vn -0.02362203 0.9999993 0.04724406
vt 0.2583019 0.9028367
v 58.0684 26.0507 -300.02
vn -0.06299208 0.9921253 0.08661411
vt 0.1938485 0.9995016
v 67.7464 26.6033 -300.02
vn -0.06299208 0.9921253 0.1102361
vt 0.2260905 0.9995016
v 164.527 2.10388 -154.849
vn 0.00787401 0.9999993 0.07086609
vt 0.5483273 0.5161158
v 183.883 1.48473 -145.171
vn 0 0.9999993 0.03149604
vt 0.6127808 0.4838739
v 203.239 0.0826802 -77.4245
vn 0 0.9999993 0.01574802
vt 0.6772343 0.2583019
v 87.1026 20.5644 -222.595
vn 0.05511807 0.9527552 0.3070864
vt 0.2905439 0.7416878
v 67.7464 17.3442 -212.917
vn 0 0.9370072 0.3464564
vt 0.2260905 0.7094763
v 96.7806 9.04345 -193.561
vn 0.03937005 0.9370072 0.3385824
vt 0.3227554 0.6450228
v 106.459 23.288 -241.952
vn 0.03937005 0.9842513 0.1574802
vt 0.3549974 0.8061413
v 106.459 18.8615 -222.595
vn 0.04724406 0.9527552 0.2913384
vt 0.3549974 0.7416878
v 87.1026 26.7457 -290.342
vn -0.04724406 0.9842513 0.1653542
vt 0.2905439 0.9672902
v 77.4245 28.4312 -300.02
vn -0.1811022 0.9212592 0.3385824
vt 0.2583019 0.9995016
v 87.1026 30.3363 -300.02
vn -0.07086609 0.9370072 0.3464564
vt 0.2905439 0.9995016
v 96.7806 29.8487 -300.02
vn -0.02362203 0.9685032 0.2440943
vt 0.3227554 0.9995016
v 106.459 25.8637 -280.664
vn 0.00787401 0.9999993 0.07874011
vt 0.3549974 0.9350482
v 106.459 29.6847 -300.02
vn 0.07874011 0.9763772 0.1968503
vt 0.3549974 0.9995016
v 116.137 28.308 -300.02
vn 0.06299208 0.9842513 0.1811022
vt 0.3872089 0.9995016
v 145.171 24.4227 -261.308
vn 0.02362203 0.9999993 0.07086609
vt 0.4838739 0.8705947
v 145.171 25.3173 -290.342
vn 0.02362203 0.9921253 0.08661411
vt 0.4838739 0.9672902
v 125.815 28.5548 -300.02
vn 0.00787401 0.9527552 0.3070864
vt 0.4194509 0.9995016
v 135.493 28.1921 -300.02
vn 0.07086609 0.9763772 0.2204723
vt 0.4516624 0.9995016
v 145.171 27.1672 -300.02
vn 0.07086609 0.9763772 0.1889762
vt 0.4838739 0.9995016
v 154.849 26.8475 -300.02
vn 0.05511807 0.9763772 0.2125983
vt 0.5161158 0.9995016
v 164.527 26.0825 -300.02
vn 0 0.9921253 0.1023621
vt 0.5483273 0.9995016
v 125.815 21.1244 -232.274
vn 0.07086609 0.9763772 0.1968503
vt 0.4194509 0.7739298
v 125.815 18.4242 -222.595
vn 0.07874011 0.9370072 0.3385824
vt 0.4194509 0.7416878
v 135.493 6.22607 -193.561
vn 0.06299208 0.9685032 0.2440943
vt 0.4516624 0.6450228
v 154.849 2.45802 -164.527
vn 0.01574802 0.9999993 0.07874011
vt 0.5161158 0.5483273
v 164.527 5.36675 -193.561
vn 0.02362203 0.9921253 0.1417322
vt 0.5483273 0.6450228
v 145.171 4.61542 -183.883
vn 0.03937005 0.9842513 0.1732282
vt 0.4838739 0.6127808
v 145.171 11.691 -212.917
vn 0.1181102 0.9448812 0.3070864
vt 0.4838739 0.7094763
v 154.849 7.59052 -203.239
vn 0.09448812 0.9685032 0.2283463
vt 0.5161158 0.6772343
v 164.527 11.7928 -222.595
vn 0.09448812 0.9606292 0.2677163
vt 0.5483273 0.7416878
v 135.493 16.2576 -222.595
vn 0.1181102 0.9527552 0.2834644
vt 0.4516624 0.7416878
v 154.849 17.9678 -232.274
vn 0.1811022 0.9448812 0.2834644
vt 0.5161158 0.7739298
v 135.493 21.5746 -241.952
vn 0.07874011 0.9685032 0.2283463
vt 0.4516624 0.8061413
v 154.849 22.7591 -251.63
vn 0.1023621 0.9763772 0.1811022
vt 0.5161158 0.8383832
v 164.527 24.0487 -270.986
vn 0.06299208 0.9842513 0.1574802
vt 0.5483273 0.9028367
v 183.883 24.569 -280.664
vn 0.00787401 0.9999993 0.07086609
vt 0.6127808 0.9350482
v 174.205 26.4586 -300.02
vn 0.02362203 0.9999993 0.08661411
vt 0.5805693 0.9995016
v 183.883 25.5483 -300.02
vn 0.06299208 0.9999993 0.04724406
vt 0.6127808 0.9995016
v 193.561 25.1805 -300.02
vn 0 0.9999993 0.03937005
vt 0.6450228 0.9995016
v 164.527 2.10388 -154.849
vn 0.00787401 0.9999993 0.07086609
vt 0.5483273 0.5161158
v 183.883 7.50601 -212.917
vn 0.04724406 0.9842513 0.1653542
vt 0.6127808 0.7094763
v 174.205 4.36427 -183.883
vn 0.03149604 0.9921253 0.1023621
vt 0.5805693 0.6127808
v 193.561 3.55176 -183.883
vn 0.01574802 0.9999993 0.08661411
vt 0.6450228 0.6127808
v 183.883 1.48473 -145.171
vn 0 0.9999993 0.03149604
vt 0.6127808 0.4838739
v 183.883 17.7658 -241.952
vn 0.03149604 0.9606292 0.2755904
vt 0.6127808 0.8061413
v 183.883 10.0125 -222.595
vn 0.06299208 0.9370072 0.3307084
vt 0.6127808 0.7416878
v 212.917 2.10895 -164.527
vn 0.00787401 0.9999993 0.07086609
vt 0.7094763 0.5483273
v 203.239 6.10576 -203.239
vn 0.02362203 0.9921253 0.1102361
vt 0.6772343 0.6772343
v 193.561 23.5629 -270.986
vn 0.03149604 0.9763772 0.2047243
vt 0.6450228 0.9028367
v 174.205 22.8322 -261.308
vn 0.01574802 0.9763772 0.2047243
vt 0.5805693 0.8705947
v 193.561 16.0246 -241.952
vn 0.04724406 0.9606292 0.2755904
vt 0.6450228 0.8061413
v 212.917 16.4049 -241.952
vn 0.01574802 0.9527552 0.2992124
vt 0.7094763 0.8061413
v 203.239 23.9208 -270.986
vn 0 0.9842513 0.1968503
vt 0.6772343 0.9028367
v 203.239 24.6711 -280.664
vn 0.01574802 0.9999993 0.07086609
vt 0.6772343 0.9350482
v 222.595 21.5219 -261.308
vn 0.03149604 0.9763772 0.2125983
vt 0.7416878 0.8705947
v 203.239 25.3821 -300.02
vn 0.01574802 0.9999993 0.03937005
vt 0.6772343 0.9995016
v 212.917 24.8533 -300.02
vn 0.00787401 0.9999993 0.01574802
vt 0.7094763 0.9995016
v 222.595 25.2511 -300.02
vn -0.00787401 0.9999993 0.02362203
vt 0.7416878 0.9995016
v 232.274 25.0075 -300.02
vn 0.01574802 0.9999993 0.03937005
vt 0.7739298 0.9995016
v 261.308 23.9062 -280.664
vn 0.02362203 0.9921253 0.09448812
vt 0.8705947 0.9350482
v 241.952 24.9855 -300.02
vn 0.01574802 0.9999993 0.04724406
vt 0.8061413 0.9995016
v 251.63 24.7725 -300.02
vn 0.00787401 0.9999993 0.03937005
vt 0.8383832 0.9995016
v 261.308 24.7823 -300.02
vn 0 0.9999993 0.04724406
vt 0.8705947 0.9995016
v 270.986 24.7622 -300.02
vn 0.00787401 0.9999993 0.04724406
vt 0.9028367 0.9995016
v 280.664 24.6815 -300.02
vn 0.02362203 0.9999993 0.06299208
vt 0.9350482 0.9995016
v 290.342 24.3606 -300.02
vn 0.03937005 0.9921253 0.08661411
vt 0.9672902 0.9995016
v 212.917 8.14998 -222.595
vn 0.04724406 0.9763772 0.2204723
vt 0.7094763 0.7416878
v 193.561 10.1144 -222.595
vn 0.06299208 0.9527552 0.2834644
vt 0.6450228 0.7416878
v 212.917 11.4196 -232.274
vn 0.04724406 0.9291332 0.3543305
vt 0.7094763 0.7739298
v 222.595 15.1507 -241.952
vn 0.03149604 0.9527552 0.3070864
vt 0.7416878 0.8061413
v 222.595 8.92715 -222.595
vn -0.02362203 0.9685032 0.2362203
vt 0.7416878 0.7416878
v 212.917 6.06538 -212.917
vn 0.00787401 0.9921253 0.1496062
vt 0.7094763 0.7094763
v 222.595 5.15166 -203.239
vn 0.00787401 0.9921253 0.1259842
vt 0.7416878 0.6772343
v 261.308 22.5616 -270.986
vn 0.03149604 0.9685032 0.2440943
vt 0.8705947 0.9028367
v 251.63 11.0476 -232.274
vn 0.03149604 0.9606292 0.2755904
vt 0.8383832 0.7739298
v 232.274 11.0457 -232.274
vn 0.03149604 0.9527552 0.3070864
vt 0.7739298 0.7739298
v 261.308 17.4684 -251.63
vn 0.05511807 0.9527552 0.2992124
vt 0.8705947 0.8383832
v 280.664 21.4119 -270.986
vn 0.07086609 0.9685032 0.2283463
vt 0.9350482 0.9028367
v 261.308 10.1145 -232.274
vn 0.05511807 0.9527552 0.3070864
vt 0.8705947 0.7739298
v 261.308 7.91488 -222.595
vn 0.03937005 0.9842513 0.1653542
vt 0.8705947 0.7416878
v 212.917 2.10895 -164.527
vn 0.00787401 0.9999993 0.07086609
vt 0.7094763 0.5483273
v 261.308 4.25863 -193.561
vn 0.00787401 0.9999993 0.07086609
vt 0.8705947 0.6450228
v 280.664 6.24965 -222.595
vn 0.06299208 0.9763772 0.2047243
vt 0.9350482 0.7416878
v 290.342 23.4848 -290.342
vn 0.05511807 0.9921253 0.1338582
vt 0.9672902 0.9672902
v 280.664 19.1634 -261.308
vn 0.07874011 0.9606292 0.2598423
vt 0.9350482 0.8705947
v 280.664 13.0708 -241.952
vn 0.1023621 0.9448812 0.3070864
vt 0.9350482 0.8061413
v 300.02 24.141 -300.02
vn 0.03149604 0.9921253 0.09448812
vt 0.9995016 0.9995016
v 300.02 23.1171 -290.342
vn 0.03937005 0.9921253 0.1338582
vt 0.9995016 0.9672902
v 300.02 21.5631 -280.664
vn 0.06299208 0.9842513 0.1811022
vt 0.9995016 0.9350482
v 300.02 19.1456 -270.986
vn 0.1417322 0.9448812 0.2834644
vt 0.9995016 0.9028367
v 300.02 15.758 -261.308
vn 0.1653542 0.9370072 0.3070864
vt 0.9995016 0.8705947
v 300.02 12.7094 -251.63
vn 0.1574802 0.9448812 0.2755904
vt 0.9995016 0.8383832
v 300.02 10.0588 -241.952
vn 0.1259842 0.9448812 0.2913384
vt 0.9995016 0.8061413
v 300.02 7.48223 -232.274
vn 0.04724406 0.9763772 0.2125983
vt 0.9995016 0.7739298
v 300.02 5.83774 -222.595
vn 0.02362203 0.9921253 0.1023621
vt 0.9995016 0.7416878
v 300.02 4.86515 -212.917
vn 0.02362203 0.9921253 0.08661411
vt 0.9995016 0.7094763
v 300.02 4.18689 -203.239
vn 0.02362203 0.9999993 0.07086609
vt 0.9995016 0.6772343
v 300.02 3.46189 -193.561
vn 0.02362203 0.9999993 0.06299208
vt 0.9995016 0.6450228
v 300.02 2.90874 -183.883
vn 0.02362203 0.9999993 0.04724406
vt 0.9995016 0.6127808
v 251.63 1.62184 -154.849
vn -0.00787401 0.9999993 0.04724406
vt 0.8383832 0.5161158
v 183.883 1.48473 -145.171
vn 0 0.9999993 0.03149604
vt 0.6127808 0.4838739
v 280.664 0.78844 -125.815
vn 0 0.9999993 0.02362203
vt 0.9350482 0.4194509
v 203.239 0.0826802 -77.4245
vn 0 0.9999993 0.01574802
vt 0.6772343 0.2583019
v 280.664 0.00333712 -77.4245
vn 0 0.9999993 0.01574802
vt 0.9350482 0.2583019
v 300.02 2.48011 -174.205
vn 0.02362203 0.9999993 0.04724406
vt 0.9995016 0.5805693
v 300.02 2.05175 -164.527
vn 0.02362203 0.9999993 0.03937005
vt 0.9995016 0.5483273
v 300.02 1.65718 -154.849
vn 0.01574802 0.9999993 0.03937005
vt 0.9995016 0.5161158
v 300.02 1.29582 -145.171
vn 0.00787401 0.9999993 0.03937005
vt 0.9995016 0.4838739
v 300.02 0.966263 -135.493
vn 0.00787401 0.9999993 0.03149604
vt 0.9995016 0.4516624
v 300.02 0.729783 -125.815
vn 0 0.9999993 0.02362203
vt 0.9995016 0.4194509
v 300.02 0.519899 -116.137
vn 0 0.9999993 0.02362203
vt 0.9995016 0.3872089
v 300.02 0.309337 -106.459
vn 0.00787401 0.9999993 0.01574802
vt 0.9995016 0.3549974
v 300.02 0.144567 -96.7806
vn 0.00787401 0.9999993 0.01574802
vt 0.9995016 0.3227554
v 300.02 0.00743865 -87.1026
vn 0.00787401 0.9999993 0.01574802
vt 0.9995016 0.2905439
v 300.02 0 -77.4245
vn 0 0.9999993 0
vt 0.9995016 0.2583019

f 5/5/5 6/6/6 7/7/7
f 7/7/7 6/6/6 8/8/8
f 8/8/8 6/6/6 9/9/9
f 6/6/6 10/10/10 9/9/9
f 8/8/8 9/9/9 11/11/11
f 11/11/11 9/9/9 12/12/12
f 12/12/12 9/9/9 13/13/13
f 13/13/13 9/9/9 14/14/14
f 14/14/14 9/9/9 15/15/15
f 15/15/15 9/9/9 16/16/16
f 15/15/15 16/16/16 17/17/17
f 17/17/17 16/16/16 18/18/18
f 18/18/18 16/16/16 19/19/19
f 19/19/19 16/16/16 20/20/20
f 20/20/20 16/16/16 21/21/21
f 21/21/21 16/16/16 22/22/22
f 21/21/21 22/22/22 23/23/23
f 23/23/23 22/22/22 24/24/24
f 16/16/16 9/9/9 25/25/25
f 16/16/16 26/26/26 22/22/22
f 16/16/16 25/25/25 26/26/26
f 22/22/22 27/27/27 24/24/24
f 24/24/24 27/27/27 28/28/28
f 28/28/28 27/27/27 29/29/29
f 29/29/29 27/27/27 30/30/30
f 22/22/22 26/26/26 31/31/31
f 22/22/22 31/31/31 27/27/27
f 26/26/26 25/25/25 32/32/32
f 26/26/26 32/32/32 31/31/31
f 25/25/25 9/9/9 33/33/33
f 25/25/25 34/34/34 32/32/32
f 25/25/25 33/33/33 34/34/34
f 33/33/33 9/9/9 35/35/35
f 33/33/33 35/35/35 34/34/34
f 9/9/9 10/10/10 36/36/36
f 9/9/9 36/36/36 35/35/35
f 10/10/10 37/37/37 36/36/36
f 37/37/37 38/38/38 36/36/36
f 38/38/38 39/39/39 36/36/36
f 31/31/31 40/40/40 27/27/27
f 31/31/31 32/32/32 41/41/41
f 31/31/31 41/41/41 40/40/40
f 41/41/41 32/32/32 42/42/42
f 41/41/41 42/42/42 40/40/40
f 32/32/32 34/34/34 43/43/43
f 32/32/32 43/43/43 42/42/42
f 34/34/34 35/35/35 44/44/44
f 34/34/34 44/44/44 43/43/43
f 35/35/35 36/36/36 45/45/45
f 35/35/35 45/45/45 44/44/44
f 44/44/44 46/46/46 43/43/43
f 44/44/44 45/45/45 46/46/46
f 36/36/36 39/39/39 47/47/47
f 36/36/36 47/47/47 45/45/45
f 39/39/39 48/48/48 47/47/47
f 48/48/48 49/49/49 47/47/47
f 49/49/49 50/50/50 47/47/47
f 27/27/27 51/51/51 30/30/30
f 30/30/30 51/51/51 52/52/52
f 52/52/52 51/51/51 53/53/53
f 53/53/53 51/51/51 54/54/54
f 54/54/54 51/51/51 55/55/55
f 27/27/27 40/40/40 56/56/56
f 27/27/27 56/56/56 51/51/51
f 51/51/51 57/57/57 55/55/55
f 51/51/51 56/56/56 57/57/57
f 55/55/55 57/57/57 58/58/58
f 40/40/40 42/42/42 59/59/59
f 40/40/40 59/59/59 56/56/56
f 56/56/56 60/60/60 57/57/57
f 56/56/56 59/59/59 60/60/60
f 57/57/57 61/61/61 58/58/58
f 57/57/57 60/60/60 61/61/61
f 58/58/58 61/61/61 62/62/62
f 62/62/62 61/61/61 63/63/63
f 63/63/63 61/61/61 64/64/64
f 64/64/64 61/61/61 65/65/65
f 65/65/65 61/61/61 66/66/66
f 66/66/66 61/61/61 67/67/67
f 61/61/61 60/60/60 68/68/68
f 61/61/61 68/68/68 67/67/67
f 67/67/67 68/68/68 69/69/69
f 69/69/69 68/68/68 70/70/70
f 47/47/47 71/71/71 45/45/45
f 47/47/47 50/50/50 72/72/72
f 47/47/47 72/72/72 71/71/71
f 50/50/50 73/73/73 72/72/72
f 59/59/59 42/42/42 74/74/74
f 75/75/75 76/76/76 74/74/74
f 59/59/59 77/77/77 60/60/60
f 59/59/59 74/74/74 77/77/77
f 74/74/74 76/76/76 78/78/78
f 74/74/74 78/78/78 77/77/77
f 68/68/68 79/79/79 70/70/70
f 70/70/70 79/79/79 80/80/80
f 80/80/80 79/79/79 81/81/81
f 81/81/81 79/79/79 82/82/82
f 79/79/79 68/68/68 83/83/83
f 68/68/68 60/60/60 83/83/83
f 79/79/79 83/83/83 82/82/82
f 82/82/82 83/83/83 84/84/84
f 84/84/84 83/83/83 85/85/85
f 60/60/60 77/77/77 86/86/86
f 60/60/60 86/86/86 83/83/83
f 83/83/83 87/87/87 85/85/85
f 83/83/83 86/86/86 87/87/87
f 85/85/85 87/87/87 88/88/88
f 88/88/88 87/87/87 89/89/89
f 89/89/89 87/87/87 90/90/90
f 90/90/90 87/87/87 91/91/91
f 91/91/91 87/87/87 92/92/92
f 77/77/77 78/78/78 93/93/93
f 77/77/77 93/93/93 86/86/86
f 78/78/78 76/76/76 94/94/94
f 78/78/78 94/94/94 93/93/93
f 76/76/76 95/95/95 94/94/94
f 96/96/96 97/97/97 98/98/98
f 96/96/96 98/98/98 95/95/95
f 95/95/95 99/99/99 94/94/94
f 95/95/95 98/98/98 99/99/99
f 98/98/98 97/97/97 100/100/100
f 98/98/98 100/100/100 99/99/99
f 100/100/100 97/97/97 101/101/101
f 100/100/100 101/101/101 99/99/99
f 94/94/94 102/102/102 93/93/93
f 94/94/94 99/99/99 102/102/102
f 99/99/99 101/101/101 103/103/103
f 99/99/99 103/103/103 102/102/102
f 102/102/102 104/104/104 93/93/93
f 93/93/93 104/104/104 86/86/86
f 102/102/102 103/103/103 104/104/104
f 104/104/104 105/105/105 86/86/86
f 104/104/104 103/103/103 105/105/105
f 105/105/105 106/106/106 86/86/86
f 103/103/103 101/101/101 106/106/106
f 103/103/103 106/106/106 105/105/105
f 86/86/86 106/106/106 87/87/87
f 87/87/87 107/107/107 92/92/92
f 87/87/87 106/106/106 107/107/107
f 92/92/92 107/107/107 108/108/108
f 108/108/108 107/107/107 109/109/109
f 109/109/109 107/107/107 110/110/110
f 96/96/96 111/111/111 97/97/97
f 97/97/97 112/112/112 101/101/101
f 97/97/97 111/111/111 113/113/113
f 97/97/97 113/113/113 112/112/112
f 113/113/113 111/111/111 114/114/114
f 113/113/113 114/114/114 112/112/112
f 111/111/111 115/115/115 114/114/114
f 101/101/101 116/116/116 106/106/106
f 101/101/101 112/112/112 117/117/117
f 101/101/101 117/117/117 116/116/116
f 114/114/114 115/115/115 118/118/118
f 114/114/114 119/119/119 112/112/112
f 114/114/114 118/118/118 119/119/119
f 106/106/106 120/120/120 107/107/107
f 106/106/106 116/116/116 121/121/121
f 121/121/121 116/116/116 120/120/120
f 121/121/121 120/120/120 106/106/106
f 116/116/116 117/117/117 122/122/122
f 116/116/116 122/122/122 120/120/120
f 122/122/122 117/117/117 123/123/123
f 122/122/122 123/123/123 120/120/120
f 120/120/120 124/124/124 107/107/107
f 120/120/120 123/123/123 124/124/124
f 107/107/107 125/125/125 110/110/110
f 107/107/107 124/124/124 125/125/125
f 124/124/124 123/123/123 126/126/126
f 124/124/124 126/126/126 125/125/125
f 110/110/110 125/125/125 127/127/127
f 127/127/127 125/125/125 128/128/128
f 128/128/128 125/125/125 129/129/129
f 129/129/129 125/125/125 130/130/130
f 125/125/125 126/126/126 131/131/131
f 125/125/125 131/131/131 130/130/130
f 130/130/130 131/131/131 132/132/132
f 132/132/132 131/131/131 133/133/133
f 133/133/133 131/131/131 134/134/134
f 134/134/134 131/131/131 135/135/135
f 135/135/135 131/131/131 136/136/136
f 136/136/136 131/131/131 137/137/137
f 112/112/112 119/119/119 138/138/138
f 112/112/112 139/139/139 117/117/117
f 112/112/112 138/138/138 139/139/139
f 139/139/139 140/140/140 117/117/117
f 117/117/117 140/140/140 123/123/123
f 139/139/139 138/138/138 140/140/140
f 123/123/123 141/141/141 126/126/126
f 123/123/123 140/140/140 141/141/141
f 140/140/140 138/138/138 142/142/142
f 140/140/140 142/142/142 141/141/141
f 138/138/138 119/119/119 143/143/143
f 138/138/138 143/143/143 142/142/142
f 143/143/143 119/119/119 144/144/144
f 143/143/143 144/144/144 142/142/142
f 119/119/119 118/118/118 144/144/144
f 126/126/126 145/145/145 131/131/131
f 126/126/126 141/141/141 145/145/145
f 142/142/142 144/144/144 146/146/146
f 142/142/142 147/147/147 141/141/141
f 147/147/147 146/146/146 141/141/141
f 147/147/147 142/142/142 146/146/146
f 141/141/141 148/148/148 145/145/145
f 141/141/141 146/146/146 148/148/148
f 145/145/145 149/149/149 131/131/131
f 145/145/145 148/148/148 149/149/149
f 148/148/148 146/146/146 150/150/150
f 148/148/148 150/150/150 149/149/149
f 146/146/146 144/144/144 151/151/151
f 146/146/146 151/151/151 150/150/150
f 144/144/144 152/152/152 153/153/153
f 144/144/144 153/153/153 151/151/151
f 151/151/151 154/154/154 150/150/150
f 151/151/151 153/153/153 154/154/154
f 131/131/131 155/155/155 137/137/137
f 131/131/131 149/149/149 155/155/155
f 149/149/149 150/150/150 156/156/156
f 149/149/149 156/156/156 155/155/155
f 150/150/150 154/154/154 157/157/157
f 150/150/150 157/157/157 156/156/156
f 137/137/137 155/155/155 158/158/158
f 158/158/158 155/155/155 159/159/159
f 159/159/159 155/155/155 160/160/160
f 155/155/155 156/156/156 160/160/160
f 160/160/160 156/156/156 161/161/161
f 161/161/161 156/156/156 162/162/162
f 156/156/156 157/157/157 162/162/162
f 162/162/162 157/157/157 163/163/163
f 163/163/163 157/157/157 164/164/164
f 157/157/157 154/154/154 164/164/164
f 164/164/164 154/154/154 165/165/165
f 165/165/165 154/154/154 166/166/166
f 154/154/154 153/153/153 166/166/166
f 166/166/166 153/153/153 167/167/167
f 167/167/167 153/153/153 168/168/168
f 168/168/168 153/153/153 169/169/169
f 169/169/169 153/153/153 170/170/170
f 153/153/153 152/152/152 171/171/171
f 152/152/152 172/172/172 171/171/171
f 171/171/171 173/173/173 153/153/153
f 153/153/153 173/173/173 170/170/170
f 171/171/171 172/172/172 173/173/173
f 172/172/172 174/174/174 173/173/173
f 174/174/174 175/175/175 173/173/173
f 170/170/170 173/173/173 176/176/176
f 176/176/176 173/173/173 177/177/177
f 177/177/177 173/173/173 178/178/178
f 178/178/178 173/173/173 179/179/179
f 179/179/179 173/173/173 180/180/180
f 180/180/180 173/173/173 181/181/181
f 181/181/181 173/173/173 182/182/182
f 182/182/182 173/173/173 183/183/183
f 183/183/183 173/173/173 184/184/184
f 184/184/184 173/173/173 185/185/185
f 173/173/173 175/175/175 185/185/185
f 185/185/185 175/175/175 186/186/186

