g Plane001

usemtl water.png

v 0 3 -300
vn 0 0 0
vt 0 299.9999
v 0 3 0
vn 0 0 0
vt 0 0
v 300 3 -300
vn 0 0 0
vt 299.9999 299.9999
v 300 3 0
vn 0 0 0
vt 299.9999 0

f 1/1/1 2/2/2 3/3/3
f 4/4/4 3/3/3 2/2/2

g TerrainMesh

usemtl image_x06_y09.png

v 0 0 -77.4245
vn 0 0.9999993 0
vt 0.0004880528 0.2583019
v 0 0.000425471 -67.7464
vn 0 0.9999993 0
vt 0.0004880528 0.2260905
v 9.67806 0.0133606 -77.4245
vn -0.00787401 0.9999993 0
vt 0.03273004 0.2583019
v 0 0.00277634 -58.0684
vn -0.00787401 0.9999993 0
vt 0.0004880528 0.1938485
v 0 0.00649972 -48.3903
vn -0.00787401 0.9999993 0
vt 0.0004880528 0.161637
v 19.3561 0.146424 -38.7123
vn -0.01574802 0.9999993 0
vt 0.06494153 0.129395
v 0 0.0110209 -38.7123
vn -0.00787401 0.9999993 0
vt 0.0004880528 0.129395
v 0 0.0156731 -29.0342
vn -0.00787401 0.9999993 0
vt 0.0004880528 0.09718352
v 0 0.0198471 -19.3561
vn -0.00787401 0.9999993 0
vt 0.0004880528 0.06494153
v 0 0.0233751 -9.67806
vn -0.00787401 0.9999993 0
vt 0.0004880528 0.03273004
v 0 0.025543 0
vn -0.00787401 0.9999993 0
vt 0.0004880528 0.0004880528
v 9.67806 0.0862663 0
vn -0.00787401 0.9999993 0
vt 0.03273004 0.0004880528
v 19.3561 0.19001 0
vn -0.01574802 0.9999993 0
vt 0.06494153 0.0004880528
v 29.0342 0.357378 0
vn -0.02362203 0.9999993 0
vt 0.09718352 0.0004880528
v 48.3903 0.318128 -96.7806
vn -0.01574802 0.9999993 -0.00787401
vt 0.161637 0.3227554
v 58.0684 0.0653225 -154.849
vn -0.01574802 0.9999993 -0.00787401
vt 0.1938485 0.5161158
v 67.7464 1.09209 -38.7123
vn -0.02362203 0.9999993 -0.00787401
vt 0.2260905 0.129395
v 38.7123 0.585243 0
vn -0.02362203 0.9999993 0
vt 0.129395 0.0004880528
v 48.3903 0.785421 0
vn -0.02362203 0.9999993 0
vt 0.161637 0.0004880528
v 58.0684 0.992918 0
vn -0.02362203 0.9999993 0
vt 0.1938485 0.0004880528
v 67.7464 1.19226 0
vn -0.02362203 0.9999993 0
vt 0.2260905 0.0004880528
v 77.4245 1.46501 0
vn -0.03149604 0.9999993 0
vt 0.2583019 0.0004880528
v 87.1026 1.84763 0
vn -0.03937005 0.9999993 0
vt 0.2905439 0.0004880528
v 96.7806 2.19484 0
vn -0.03937005 0.9999993 0
vt 0.3227554 0.0004880528
v 96.7806 0.59104 -154.849
vn -0.01574802 0.9999993 -0.01574802
vt 0.3227554 0.5161158
v 77.4245 0.155928 -164.527
vn -0.01574802 0.9999993 -0.01574802
vt 0.2583019 0.5483273
v 96.7806 0.227383 -183.883
vn -0.01574802 0.9999993 -0.01574802
vt 0.3227554 0.6127808
v 116.137 0.440016 -193.561
vn -0.01574802 0.9999993 -0.01574802
vt 0.3872089 0.6450228
v 87.1026 1.33974 -77.4245
vn -0.02362203 0.9999993 -0.01574802
vt 0.2905439 0.2583019
v 106.459 2.61607 -29.0342
vn -0.05511807 0.9999993 -0.00787401
vt 0.3549974 0.09718352
v 106.459 2.66449 0
vn -0.04724406 0.9999993 0
vt 0.3549974 0.0004880528
v 116.137 3.1004 0
vn -0.05511807 0.9999993 0
vt 0.3872089 0.0004880528
v 125.815 3.69779 0
vn -0.06299208 0.9999993 0
vt 0.4194509 0.0004880528
v 135.493 4.28732 0
vn -0.06299208 0.9999993 0
vt 0.4516624 0.0004880528
v 145.171 4.85741 0
vn -0.06299208 0.9999993 0.00787401
vt 0.4838739 0.0004880528
v 154.849 5.54847 0
vn -0.06299208 0.9999993 0.01574802
vt 0.5161158 0.0004880528
v 96.7806 2.02706 -48.3903
vn -0.03937005 0.9999993 -0.01574802
vt 0.3227554 0.161637
v 135.493 1.83693 -125.815
vn -0.02362203 0.9999993 -0.01574802
vt 0.4516624 0.4194509
v 125.815 2.42472 -87.1026
vn -0.03149604 0.9999993 -0.02362203
vt 0.4194509 0.2905439
v 154.849 0.737009 -212.917
vn -0.01574802 0.9999993 -0.01574802
vt 0.5161158 0.7094763
v 154.849 1.50986 -164.527
vn -0.01574802 0.9999993 -0.01574802
vt 0.5161158 0.5483273
v 174.205 1.90194 -164.527
vn -0.02362203 0.9999993 -0.02362203
vt 0.5805693 0.5483273
v 164.527 5.08373 -58.0684
vn -0.04724406 0.9999993 -0.03149604
vt 0.5483273 0.1938485
v 164.527 4.01088 -87.1026
vn -0.04724406 0.9999993 -0.03937005
vt 0.5483273 0.2905439
v 193.561 3.28106 -125.815
vn -0.03149604 0.9999993 -0.03149604
vt 0.6450228 0.4194509
v 164.527 2.87689 -116.137
vn -0.02362203 0.9999993 -0.02362203
vt 0.5483273 0.3872089
v 183.883 6.42138 -48.3903
vn -0.07086609 0.9999993 -0.04724406
vt 0.6127808 0.161637
v 212.917 6.76828 -77.4245
vn -0.05511807 0.9999993 -0.05511807
vt 0.7094763 0.2583019
v 203.239 4.60238 -106.459
vn -0.03937005 0.9999993 -0.04724406
vt 0.6772343 0.3549974
v 174.205 6.91769 -9.67806
vn -0.07086609 0.9999993 -0.01574802
vt 0.5805693 0.03273004
v 164.527 6.03627 0
vn -0.08661411 0.9999993 0
vt 0.5483273 0.0004880528
v 174.205 7.25232 0
vn -0.1181102 0.9921253 -0.02362203
vt 0.5805693 0.0004880528
v 174.205 6.34425 -29.0342
vn -0.07086609 0.9999993 -0.03937005
vt 0.5805693 0.09718352
v 232.274 8.30917 -77.4245
vn -0.07874011 0.9921253 -0.08661411
vt 0.7739298 0.2583019
v 222.595 9.93647 -48.3903
vn -0.09448812 0.9921253 -0.06299208
vt 0.7416878 0.161637
v 193.561 8.93305 -19.3561
vn -0.09448812 0.9921253 -0.04724406
vt 0.6450228 0.06494153
v 183.883 8.24588 -9.67806
vn -0.08661411 0.9921253 -0.01574802
vt 0.6127808 0.03273004
v 222.595 11.3798 -19.3561
vn -0.07874011 0.9921253 -0.03937005
vt 0.7416878 0.06494153
v 183.883 8.18123 0
vn -0.09448812 0.9921253 0.00787401
vt 0.6127808 0.0004880528
v 193.561 9.07093 0
vn -0.09448812 0.9921253 0.00787401
vt 0.6450228 0.0004880528
v 203.239 10.0551 0
vn -0.08661411 0.9921253 -0.00787401
vt 0.6772343 0.0004880528
v 212.917 10.7928 0
vn -0.07874011 0.9999993 -0.01574802
vt 0.7094763 0.0004880528
v 232.274 12.2567 -9.67806
vn -0.06299208 0.9999993 0.00787401
vt 0.7739298 0.03273004
v 222.595 11.416 0
vn -0.05511807 0.9999993 0.03149604
vt 0.7416878 0.0004880528
v 232.274 11.8574 0
vn -0.04724406 0.9999993 0.03937005
vt 0.7739298 0.0004880528
v 241.952 12.3462 0
vn -0.04724406 0.9999993 0.03937005
vt 0.8061413 0.0004880528
v 251.63 12.7839 0
vn -0.05511807 0.9999993 0.05511807
vt 0.8383832 0.0004880528
v 261.308 13.4466 0
vn -0.05511807 0.9999993 0.02362203
vt 0.8705947 0.0004880528
v 261.308 14.0455 -29.0342
vn -0.07086609 0.9999993 0
vt 0.8705947 0.09718352
v 270.986 14.1993 0
vn -0.07086609 0.9999993 0.01574802
vt 0.9028367 0.0004880528
v 280.664 14.8464 0
vn -0.07086609 0.9999993 0.02362203
vt 0.9350482 0.0004880528
v 261.308 13.3431 -48.3903
vn -0.07874011 0.9921253 -0.05511807
vt 0.8705947 0.161637
v 232.274 9.36491 -67.7464
vn -0.07874011 0.9921253 -0.09448812
vt 0.7739298 0.2260905
v 222.595 5.88899 -96.7806
vn -0.05511807 0.9999993 -0.06299208
vt 0.7416878 0.3227554
v 251.63 8.50407 -87.1026
vn -0.06299208 0.9921253 -0.1023621
vt 0.8383832 0.2905439
v 290.342 15.958 -19.3561
vn -0.05511807 0.9999993 0.01574802
vt 0.9672902 0.06494153
v 290.342 15.3275 0
vn -0.05511807 0.9999993 0.03149604
vt 0.9672902 0.0004880528
v 300.02 15.9319 0
vn -0.04724406 0.9999993 0.02362203
vt 0.9995016 0.0004880528
v 300.02 16.0722 -9.67806
vn -0.03149604 0.9999993 0.01574802
vt 0.9995016 0.03273004
v 300.02 16.2776 -19.3561
vn -0.03149604 0.9999993 0.00787401
vt 0.9995016 0.06494153
v 300.02 16.1816 -29.0342
vn -0.02362203 0.9999993 -0.00787401
vt 0.9995016 0.09718352
v 280.664 15.5411 -29.0342
vn -0.07086609 0.9999993 -0.02362203
vt 0.9350482 0.09718352
v 290.342 15.8606 -38.7123
vn -0.05511807 0.9999993 -0.06299208
vt 0.9672902 0.129395
v 300.02 15.9487 -38.7123
vn -0.00787401 0.9999993 -0.03149604
vt 0.9995016 0.129395
v 300.02 15.52 -48.3903
vn -0.02362203 0.9999993 -0.05511807
vt 0.9995016 0.161637
v 300.02 14.8548 -58.0684
vn -0.07086609 0.9921253 -0.07874011
vt 0.9995016 0.1938485
v 251.63 11.8355 -58.0684
vn -0.08661411 0.9921253 -0.1102361
vt 0.8383832 0.1938485
v 261.308 10.3185 -77.4245
vn -0.08661411 0.9921253 -0.1023621
vt 0.8705947 0.2583019
v 251.63 7.60885 -96.7806
vn -0.09448812 0.9921253 -0.07874011
vt 0.8383832 0.3227554
v 290.342 13.325 -67.7464
vn -0.07874011 0.9921253 -0.07086609
vt 0.9672902 0.2260905
v 300.02 14.2601 -67.7464
vn -0.09448812 0.9921253 -0.04724406
vt 0.9995016 0.2260905
v 300.02 13.903 -77.4245
vn -0.09448812 0.9921253 -0.04724406
vt 0.9995016 0.2583019
v 280.664 12.72 -67.7464
vn -0.05511807 0.9921253 -0.07874011
vt 0.9350482 0.2260905
v 280.664 12.0541 -77.4245
vn -0.07874011 0.9921253 -0.07874011
vt 0.9350482 0.2583019
v 261.308 12.7205 -58.0684
vn -0.05511807 0.9921253 -0.08661411
vt 0.8705947 0.1938485
v 300.02 13.2774 -87.1026
vn -0.08661411 0.9921253 -0.05511807
vt 0.9995016 0.2905439
v 280.664 11.6752 -87.1026
vn -0.1023621 0.9921253 -0.06299208
vt 0.9350482 0.2905439
v 300.02 12.7689 -96.7806
vn -0.08661411 0.9921253 -0.06299208
vt 0.9995016 0.3227554
v 270.986 9.3991 -96.7806
vn -0.1181102 0.9921253 -0.07086609
vt 0.9028367 0.3227554
v 290.342 11.0362 -116.137
vn -0.1102361 0.9921253 -0.06299208
vt 0.9672902 0.3872089
v 290.342 11.2353 -106.459
vn -0.07086609 0.9999993 -0.05511807
vt 0.9672902 0.3549974
v 300.02 12.0886 -106.459
vn -0.08661411 0.9921253 -0.06299208
vt 0.9995016 0.3549974
v 300.02 11.5606 -116.137
vn -0.06299208 0.9999993 -0.04724406
vt 0.9995016 0.3872089
v 300.02 10.8543 -125.815
vn -0.1023621 0.9921253 -0.09448812
vt 0.9995016 0.4194509
v 280.664 9.58867 -116.137
vn -0.1259842 0.9842513 -0.09448812
vt 0.9350482 0.3872089
v 300.02 10.1036 -135.493
vn -0.09448812 0.9921253 -0.07874011
vt 0.9995016 0.4516624
v 251.63 6.30483 -116.137
vn -0.06299208 0.9999993 -0.05511807
vt 0.8383832 0.3872089
v 222.595 5.88899 -96.7806
vn -0.05511807 0.9999993 -0.06299208
vt 0.7416878 0.3227554
v 280.664 6.88866 -145.171
vn -0.08661411 0.9921253 -0.07086609
vt 0.9350482 0.4838739
v 290.342 9.18698 -135.493
vn -0.1181102 0.9842513 -0.1023621
vt 0.9672902 0.4516624
v 300.02 9.03757 -145.171
vn -0.1181102 0.9842513 -0.1181102
vt 0.9995016 0.4838739
v 290.342 7.78255 -145.171
vn -0.09448812 0.9921253 -0.09448812
vt 0.9672902 0.4838739
v 300.02 7.99631 -154.849
vn -0.1259842 0.9842513 -0.1023621
vt 0.9995016 0.5161158
v 300.02 6.97225 -164.527
vn -0.07086609 0.9921253 -0.07874011
vt 0.9995016 0.5483273
v 290.342 6.47866 -164.527
vn -0.04724406 0.9999993 -0.04724406
vt 0.9672902 0.5483273
v 300.02 6.28733 -174.205
vn -0.03937005 0.9999993 -0.06299208
vt 0.9995016 0.5805693
v 300.02 5.7631 -183.883
vn -0.04724406 0.9999993 -0.06299208
vt 0.9995016 0.6127808
v 300.02 5.12869 -193.561
vn -0.03937005 0.9999993 -0.05511807
vt 0.9995016 0.6450228
v 300.02 4.63156 -203.239
vn -0.01574802 0.9999993 -0.05511807
vt 0.9995016 0.6772343
v 241.952 5.00165 -135.493
vn -0.04724406 0.9999993 -0.03937005
vt 0.8061413 0.4516624
v 241.952 5.47572 -125.815
vn -0.03937005 0.9999993 -0.03937005
vt 0.8061413 0.4194509
v 203.239 4.60238 -106.459
vn -0.03937005 0.9999993 -0.04724406
vt 0.6772343 0.3549974
v 261.308 4.53845 -174.205
vn -0.03937005 0.9999993 -0.03149604
vt 0.8705947 0.5805693
v 212.917 3.55312 -145.171
vn -0.03937005 0.9999993 -0.03149604
vt 0.7094763 0.4838739
v 212.917 4.23747 -125.815
vn -0.04724406 0.9999993 -0.03937005
vt 0.7094763 0.4194509
v 193.561 3.28106 -125.815
vn -0.03149604 0.9999993 -0.03149604
vt 0.6450228 0.4194509
v 193.561 2.79611 -154.849
vn -0.03149604 0.9999993 -0.03149604
vt 0.6450228 0.5161158
v 174.205 1.90194 -164.527
vn -0.02362203 0.9999993 -0.02362203
vt 0.5805693 0.5483273
v 290.342 3.92501 -212.917
vn -0.02362203 0.9999993 -0.04724406
vt 0.9672902 0.7094763
v 300.02 4.08322 -212.917
vn -0.01574802 0.9999993 -0.05511807
vt 0.9995016 0.7094763
v 300.02 3.6088 -222.595
vn -0.02362203 0.9999993 -0.05511807
vt 0.9995016 0.7416878
v 300.02 3.06888 -232.274
vn -0.01574802 0.9999993 -0.05511807
vt 0.9995016 0.7739298
v 300.02 2.60772 -241.952
vn -0.00787401 0.9999993 -0.04724406
vt 0.9995016 0.8061413
v 270.986 3.67334 -203.239
vn -0.03937005 0.9999993 -0.04724406
vt 0.9028367 0.6772343
v 261.308 3.53877 -203.239
vn -0.03149604 0.9999993 -0.03149604
vt 0.8705947 0.6772343
v 241.952 1.83669 -232.274
vn -0.02362203 0.9999993 -0.03149604
vt 0.8061413 0.7739298
v 193.561 2.12739 -174.205
vn -0.03149604 0.9999993 -0.03149604
vt 0.6450228 0.5805693
v 212.917 1.02599 -241.952
vn -0.01574802 0.9999993 -0.02362203
vt 0.7094763 0.8061413
v 154.849 0.737009 -212.917
vn -0.01574802 0.9999993 -0.01574802
vt 0.5161158 0.7094763
v 280.664 1.56318 -261.308
vn -0.01574802 0.9999993 -0.03937005
vt 0.9350482 0.8705947
v 251.63 1.14466 -261.308
vn -0.00787401 0.9999993 -0.02362203
vt 0.8383832 0.8705947
v 212.917 0.198944 -290.342
vn -0.00787401 0.9999993 -0.01574802
vt 0.7094763 0.9672902
v 300.02 2.14745 -251.63
vn -0.00787401 0.9999993 -0.03937005
vt 0.9995016 0.8383832
v 300.02 1.79469 -261.308
vn -0.01574802 0.9999993 -0.03149604
vt 0.9995016 0.8705947
v 300.02 1.48048 -270.986
vn -0.00787401 0.9999993 -0.03149604
vt 0.9995016 0.9028367
v 300.02 1.22198 -280.664
vn -0.01574802 0.9999993 -0.03149604
vt 0.9995016 0.9350482
v 300.02 0.976345 -290.342
vn -0.00787401 0.9999993 -0.02362203
vt 0.9995016 0.9672902
v 300.02 0.738495 -300.02
vn 0 0.9999993 -0.02362203
vt 0.9995016 0.9995016
v 290.342 0.760689 -300.02
vn -0.00787401 0.9999993 -0.01574802
vt 0.9672902 0.9995016
v 280.664 0.661296 -300.02
vn -0.00787401 0.9999993 -0.01574802
vt 0.9350482 0.9995016
v 270.986 0.588615 -300.02
vn -0.00787401 0.9999993 -0.01574802
vt 0.9028367 0.9995016
v 261.308 0.470716 -300.02
vn -0.00787401 0.9999993 -0.02362203
vt 0.8705947 0.9995016
v 251.63 0.386601 -300.02
vn -0.00787401 0.9999993 -0.01574802
vt 0.8383832 0.9995016
v 241.952 0.351936 -300.02
vn -0.00787401 0.9999993 -0.01574802
vt 0.8061413 0.9995016
v 232.274 0.217878 -300.02
vn -0.00787401 0.9999993 -0.01574802
vt 0.7739298 0.9995016
v 222.595 0.210129 -300.02
vn 0 0.9999993 0
vt 0.7416878 0.9995016
v 212.917 0.162527 -300.02
vn -0.00787401 0.9999993 0
vt 0.7094763 0.9995016
v 203.239 0.0560705 -300.02
vn -0.00787401 0.9999993 -0.00787401
vt 0.6772343 0.9995016
v 164.527 0.151884 -261.308
vn -0.00787401 0.9999993 -0.01574802
vt 0.5483273 0.8705947
v 183.883 0.0413493 -290.342
vn -0.00787401 0.9999993 -0.00787401
vt 0.6127808 0.9672902
v 193.561 0.0297768 -300.02
vn 0 0.9999993 0
vt 0.6450228 0.9995016
v 174.205 0.102974 -270.986
vn -0.00787401 0.9999993 -0.00787401
vt 0.5805693 0.9028367
v 183.883 0.0112372 -300.02
vn 0 0.9999993 0
vt 0.6127808 0.9995016
v 145.171 0.123009 -241.952
vn -0.00787401 0.9999993 -0.01574802
vt 0.4838739 0.8061413
v 145.171 0.18527 -251.63
vn 0.00787401 0.9999993 0.00787401
vt 0.4838739 0.8383832
v 135.493 0.25879 -232.274
vn -0.00787401 0.9999993 -0.01574802
vt 0.4516624 0.7739298
v 125.815 0.144253 -222.595
vn -0.01574802 0.9999993 -0.01574802
vt 0.4194509 0.7416878
v 116.137 0.440016 -193.561
vn -0.01574802 0.9999993 -0.01574802
vt 0.3872089 0.6450228
v 116.137 0.160177 -212.917
vn -0.01574802 0.9999993 -0.01574802
vt 0.3872089 0.7094763

f 5/5/5 6/6/6 7/7/7
f 6/6/6 8/8/8 7/7/7
f 8/8/8 9/9/9 10/10/10
f 8/8/8 10/10/10 7/7/7
f 9/9/9 11/11/11 10/10/10
f 11/11/11 12/12/12 10/10/10
f 12/12/12 13/13/13 10/10/10
f 13/13/13 14/14/14 10/10/10
f 14/14/14 15/15/15 10/10/10
f 15/15/15 16/16/16 10/10/10
f 16/16/16 17/17/17 10/10/10
f 17/17/17 18/18/18 10/10/10
f 10/10/10 19/19/19 7/7/7
f 7/7/7 19/19/19 20/20/20
f 10/10/10 18/18/18 21/21/21
f 10/10/10 21/21/21 19/19/19
f 18/18/18 22/22/22 21/21/21
f 22/22/22 23/23/23 21/21/21
f 23/23/23 24/24/24 21/21/21
f 24/24/24 25/25/25 21/21/21
f 25/25/25 26/26/26 21/21/21
f 26/26/26 27/27/27 21/21/21
f 27/27/27 28/28/28 21/21/21
f 19/19/19 29/29/29 20/20/20
f 20/20/20 29/29/29 30/30/30
f 30/30/30 29/29/29 31/31/31
f 31/31/31 29/29/29 32/32/32
f 19/19/19 21/21/21 33/33/33
f 19/19/19 33/33/33 29/29/29
f 21/21/21 28/28/28 34/34/34
f 28/28/28 35/35/35 34/34/34
f 35/35/35 36/36/36 34/34/34
f 36/36/36 37/37/37 34/34/34
f 37/37/37 38/38/38 34/34/34
f 38/38/38 39/39/39 34/34/34
f 39/39/39 40/40/40 34/34/34
f 21/21/21 41/41/41 33/33/33
f 21/21/21 34/34/34 41/41/41
f 33/33/33 42/42/42 29/29/29
f 33/33/33 41/41/41 43/43/43
f 33/33/33 43/43/43 42/42/42
f 29/29/29 44/44/44 32/32/32
f 29/29/29 42/42/42 45/45/45
f 29/29/29 45/45/45 44/44/44
f 45/45/45 42/42/42 46/46/46
f 45/45/45 46/46/46 44/44/44
f 41/41/41 34/34/34 47/47/47
f 41/41/41 48/48/48 43/43/43
f 41/41/41 47/47/47 48/48/48
f 42/42/42 49/49/49 46/46/46
f 43/43/43 49/49/49 50/50/50
f 50/50/50 49/49/49 42/42/42
f 43/43/43 48/48/48 49/49/49
f 43/43/43 50/50/50 42/42/42
f 47/47/47 34/34/34 51/51/51
f 47/47/47 52/52/52 48/48/48
f 47/47/47 51/51/51 52/52/52
f 48/48/48 53/53/53 49/49/49
f 48/48/48 52/52/52 53/53/53
f 34/34/34 40/40/40 54/54/54
f 40/40/40 55/55/55 54/54/54
f 55/55/55 56/56/56 54/54/54
f 34/34/34 57/57/57 51/51/51
f 34/34/34 54/54/54 57/57/57
f 52/52/52 51/51/51 58/58/58
f 51/51/51 57/57/57 59/59/59
f 51/51/51 59/59/59 58/58/58
f 57/57/57 54/54/54 60/60/60
f 57/57/57 60/60/60 59/59/59
f 54/54/54 56/56/56 61/61/61
f 54/54/54 61/61/61 60/60/60
f 60/60/60 62/62/62 59/59/59
f 60/60/60 61/61/61 62/62/62
f 56/56/56 63/63/63 61/61/61
f 63/63/63 64/64/64 61/61/61
f 64/64/64 65/65/65 61/61/61
f 65/65/65 66/66/66 61/61/61
f 61/61/61 67/67/67 62/62/62
f 61/61/61 66/66/66 67/67/67
f 66/66/66 68/68/68 67/67/67
f 68/68/68 69/69/69 67/67/67
f 69/69/69 70/70/70 67/67/67
f 70/70/70 71/71/71 67/67/67
f 71/71/71 72/72/72 67/67/67
f 67/67/67 73/73/73 62/62/62
f 67/67/67 72/72/72 73/73/73
f 72/72/72 74/74/74 73/73/73
f 74/74/74 75/75/75 73/73/73
f 62/62/62 76/76/76 59/59/59
f 62/62/62 73/73/73 76/76/76
f 59/59/59 77/77/77 58/58/58
f 59/59/59 76/76/76 77/77/77
f 52/52/52 78/78/78 53/53/53
f 52/52/52 58/58/58 78/78/78
f 58/58/58 77/77/77 79/79/79
f 58/58/58 79/79/79 78/78/78
f 73/73/73 75/75/75 80/80/80
f 75/75/75 81/81/81 80/80/80
f 81/81/81 82/82/82 80/80/80
f 82/82/82 83/83/83 80/80/80
f 83/83/83 84/84/84 80/80/80
f 84/84/84 85/85/85 80/80/80
f 73/73/73 86/86/86 76/76/76
f 73/73/73 80/80/80 86/86/86
f 86/86/86 87/87/87 76/76/76
f 80/80/80 85/85/85 87/87/87
f 80/80/80 87/87/87 86/86/86
f 85/85/85 88/88/88 87/87/87
f 88/88/88 89/89/89 87/87/87
f 89/89/89 90/90/90 87/87/87
f 77/77/77 91/91/91 92/92/92
f 77/77/77 92/92/92 79/79/79
f 77/77/77 76/76/76 91/91/91
f 79/79/79 93/93/93 78/78/78
f 79/79/79 92/92/92 93/93/93
f 87/87/87 90/90/90 94/94/94
f 90/90/90 95/95/95 94/94/94
f 95/95/95 96/96/96 94/94/94
f 87/87/87 97/97/97 76/76/76
f 87/87/87 94/94/94 97/97/97
f 94/94/94 96/96/96 98/98/98
f 94/94/94 98/98/98 97/97/97
f 91/91/91 98/98/98 92/92/92
f 91/91/91 76/76/76 99/99/99
f 99/99/99 76/76/76 97/97/97
f 99/99/99 97/97/97 98/98/98
f 99/99/99 98/98/98 91/91/91
f 96/96/96 100/100/100 98/98/98
f 98/98/98 101/101/101 92/92/92
f 98/98/98 100/100/100 101/101/101
f 100/100/100 102/102/102 101/101/101
f 92/92/92 103/103/103 93/93/93
f 92/92/92 101/101/101 103/103/103
f 103/103/103 104/104/104 93/93/93
f 103/103/103 101/101/101 104/104/104
f 101/101/101 102/102/102 105/105/105
f 101/101/101 105/105/105 104/104/104
f 102/102/102 106/106/106 105/105/105
f 105/105/105 107/107/107 104/104/104
f 105/105/105 106/106/106 107/107/107
f 107/107/107 108/108/108 104/104/104
f 104/104/104 109/109/109 93/93/93
f 104/104/104 108/108/108 109/109/109
f 108/108/108 110/110/110 109/109/109
f 93/93/93 111/111/111 112/112/112
f 93/93/93 109/109/109 113/113/113
f 93/93/93 113/113/113 111/111/111
f 109/109/109 110/110/110 114/114/114
f 109/109/109 114/114/114 113/113/113
f 110/110/110 115/115/115 114/114/114
f 114/114/114 116/116/116 113/113/113
f 114/114/114 115/115/115 116/116/116
f 115/115/115 117/117/117 116/116/116
f 117/117/117 118/118/118 116/116/116
f 116/116/116 119/119/119 113/113/113
f 116/116/116 118/118/118 119/119/119
f 118/118/118 120/120/120 119/119/119
f 120/120/120 121/121/121 119/119/119
f 121/121/121 122/122/122 119/119/119
f 122/122/122 123/123/123 119/119/119
f 113/113/113 124/124/124 111/111/111
f 113/113/113 119/119/119 124/124/124
f 111/111/111 125/125/125 112/112/112
f 111/111/111 124/124/124 125/125/125
f 112/112/112 125/125/125 126/126/126
f 124/124/124 119/119/119 127/127/127
f 124/124/124 128/128/128 125/125/125
f 124/124/124 127/127/127 128/128/128
f 125/125/125 129/129/129 126/126/126
f 125/125/125 128/128/128 129/129/129
f 129/129/129 130/130/130 126/126/126
f 129/129/129 128/128/128 130/130/130
f 128/128/128 127/127/127 131/131/131
f 128/128/128 131/131/131 130/130/130
f 130/130/130 131/131/131 132/132/132
f 119/119/119 123/123/123 133/133/133
f 123/123/123 134/134/134 133/133/133
f 134/134/134 135/135/135 133/133/133
f 135/135/135 136/136/136 133/133/133
f 136/136/136 137/137/137 133/133/133
f 119/119/119 138/138/138 127/127/127
f 119/119/119 133/133/133 138/138/138
f 127/127/127 139/139/139 131/131/131
f 127/127/127 138/138/138 139/139/139
f 138/138/138 133/133/133 140/140/140
f 138/138/138 140/140/140 139/139/139
f 139/139/139 141/141/141 131/131/131
f 131/131/131 141/141/141 132/132/132
f 139/139/139 140/140/140 141/141/141
f 141/141/141 142/142/142 132/132/132
f 141/141/141 140/140/140 142/142/142
f 132/132/132 142/142/142 143/143/143
f 133/133/133 137/137/137 144/144/144
f 133/133/133 144/144/144 140/140/140
f 140/140/140 145/145/145 142/142/142
f 140/140/140 144/144/144 145/145/145
f 142/142/142 146/146/146 143/143/143
f 142/142/142 145/145/145 146/146/146
f 137/137/137 147/147/147 144/144/144
f 147/147/147 148/148/148 144/144/144
f 148/148/148 149/149/149 144/144/144
f 144/144/144 150/150/150 145/145/145
f 144/144/144 149/149/149 150/150/150
f 150/150/150 151/151/151 145/145/145
f 151/151/151 152/152/152 153/153/153
f 151/151/151 153/153/153 145/145/145
f 153/153/153 154/154/154 145/145/145
f 154/154/154 155/155/155 145/145/145
f 155/155/155 156/156/156 145/145/145
f 156/156/156 157/157/157 145/145/145
f 145/145/145 158/158/158 146/146/146
f 145/145/145 157/157/157 158/158/158
f 158/158/158 159/159/159 146/146/146
f 159/159/159 160/160/160 146/146/146
f 160/160/160 161/161/161 146/146/146
f 161/161/161 162/162/162 146/146/146
f 146/146/146 163/163/163 143/143/143
f 146/146/146 162/162/162 164/164/164
f 162/162/162 165/165/165 164/164/164
f 164/164/164 166/166/166 146/146/146
f 146/146/146 166/166/166 163/163/163
f 164/164/164 165/165/165 167/167/167
f 163/163/163 168/168/168 143/143/143
f 168/168/168 163/163/163 169/169/169
f 168/168/168 170/170/170 143/143/143
f 170/170/170 171/171/171 143/143/143
f 143/143/143 171/171/171 172/172/172
f 172/172/172 171/171/171 173/173/173

