g Plane001

usemtl water.png

v 0 3 -300
vn 0 0 0
vt 0 299.9999
v 0 3 0
vn 0 0 0
vt 0 0
v 300 3 -300
vn 0 0 0
vt 299.9999 299.9999
v 300 3 0
vn 0 0 0
vt 299.9999 0

f 1/1/1 2/2/2 3/3/3
f 4/4/4 3/3/3 2/2/2

g TerrainMesh

usemtl image_x00_y08.png

v 0 0 0
vn 0 1.000001 0
vt 0.0004880528 0.0004880528
v 87.1026 0 -48.3903
vn 0 1.000001 0
vt 0.2905439 0.161637
v 0 0 -300.02
vn 0 1.000001 0
vt 0.0004880528 0.9995016
v 87.1026 0 0
vn 0 1.000001 0
vt 0.2905439 0.0004880528
v 232.274 0.258606 -270.986
vn 0 1.000001 0
vt 0.7739298 0.9028367
v 222.595 0 -300.02
vn 0 1.000001 -0.00787402
vt 0.7416878 0.9995016
v 96.7806 0.093783 0
vn -0.01574804 1.000001 0
vt 0.3227554 0.0004880528
v 106.459 0.306185 -48.3903
vn -0.03149608 1.000001 0
vt 0.3549974 0.161637
v 135.493 0 -154.849
vn 0 1.000001 0
vt 0.4516624 0.5161158
v 154.849 0 -183.883
vn 0 1.000001 0
vt 0.5161158 0.6127808
v 232.274 0.00699771 -300.02
vn -0.00787402 1.000001 -0.00787402
vt 0.7739298 0.9995016
v 106.459 0.284085 0
vn -0.01574804 1.000001 0
vt 0.3549974 0.0004880528
v 135.493 0.0335927 -145.171
vn 0 1.000001 0
vt 0.4516624 0.4838739
v 183.883 0.520883 -174.205
vn -0.01574804 1.000001 -0.01574804
vt 0.6127808 0.5805693
v 241.952 0.227592 -300.02
vn -0.01574804 1.000001 -0.00787402
vt 0.8061413 0.9995016
v 116.137 0.404139 0
vn -0.01574804 1.000001 0
vt 0.3872089 0.0004880528
v 125.815 0.328722 -116.137
vn -0.02362206 1.000001 -0.01574804
vt 0.4194509 0.3872089
v 183.883 0.0319311 -203.239
vn -0.01574804 1.000001 -0.00787402
vt 0.6127808 0.6772343
v 203.239 0.136275 -232.274
vn -0.00787402 1.000001 0
vt 0.6772343 0.7739298
v 212.917 0.0581195 -261.308
vn -0.00787402 1.000001 0
vt 0.7094763 0.8705947
v 251.63 0.281722 -300.02
vn -0.00787402 1.000001 -0.00787402
vt 0.8383832 0.9995016
v 125.815 0.625307 0
vn -0.03149608 1.000001 0.00787402
vt 0.4194509 0.0004880528
v 125.815 0.743062 -77.4245
vn -0.02362206 1.000001 -0.01574804
vt 0.4194509 0.2583019
v 174.205 0.919374 -125.815
vn -0.02362206 1.000001 -0.01574804
vt 0.5805693 0.4194509
v 261.308 1.23789 -251.63
vn -0.03149608 1.000001 -0.02362206
vt 0.8705947 0.8383832
v 212.917 0.599644 -203.239
vn -0.03149608 1.000001 -0.01574804
vt 0.7094763 0.6772343
v 261.308 0.448177 -300.02
vn -0.01574804 1.000001 -0.01574804
vt 0.8705947 0.9995016
v 154.849 1.31154 0
vn -0.02362206 1.000001 0.02362206
vt 0.5161158 0.0004880528
v 145.171 1.48454 -19.3561
vn -0.03149608 1.000001 0.01574804
vt 0.4838739 0.06494153
v 183.883 3.12945 -48.3903
vn -0.0393701 1.000001 -0.00787402
vt 0.6127808 0.161637
v 183.883 1.92113 -96.7806
vn -0.0393701 1.000001 -0.02362206
vt 0.6127808 0.3227554
v 251.63 0.561457 -270.986
vn -0.02362206 1.000001 -0.02362206
vt 0.8383832 0.9028367
v 203.239 1.02234 -164.527
vn -0.0393701 1.000001 -0.02362206
vt 0.6772343 0.5483273
v 280.664 0.908887 -290.342
vn -0.02362206 1.000001 -0.02362206
vt 0.9350482 0.9672902
v 280.664 0.705554 -300.02
vn -0.00787402 1.000001 -0.02362206
vt 0.9350482 0.9995016
v 164.527 1.48572 0
vn -0.02362206 1.000001 0.02362206
vt 0.5483273 0.0004880528
v 212.917 3.17255 -106.459
vn -0.06299216 1.000001 -0.0393701
vt 0.7094763 0.3549974
v 193.561 1.47195 -125.815
vn -0.04724412 1.000001 -0.02362206
vt 0.6450228 0.4194509
v 174.205 2.51841 -29.0342
vn -0.0393701 1.000001 0.02362206
vt 0.5805693 0.09718352
v 251.63 2.32665 -212.917
vn -0.06299216 1.000001 -0.0393701
vt 0.8383832 0.7094763
v 222.595 2.51273 -145.171
vn -0.05511814 1.000001 -0.02362206
vt 0.7416878 0.4838739
v 290.342 0.759869 -300.02
vn -0.01574804 1.000001 -0.03149608
vt 0.9672902 0.9995016
v 280.664 1.80991 -261.308
vn -0.0393701 1.000001 -0.0393701
vt 0.9350482 0.8705947
v 193.561 3.50076 -29.0342
vn -0.07086618 1.000001 0
vt 0.6450228 0.09718352
v 174.205 1.7793 0
vn -0.03149608 1.000001 0.02362206
vt 0.5805693 0.0004880528
v 222.595 1.63856 -174.205
vn -0.05511814 1.000001 -0.03149608
vt 0.7416878 0.5805693
v 193.561 2.88293 -87.1026
vn -0.07086618 1.000001 -0.03149608
vt 0.6450228 0.2905439
v 241.952 4.28001 -135.493
vn -0.09448825 0.9921266 -0.03149608
vt 0.8061413 0.4516624
v 241.952 3.56985 -164.527
vn -0.1023623 0.9921266 -0.03149608
vt 0.8061413 0.5483273
v 300.02 0.960133 -300.02
vn -0.02362206 1.000001 -0.0393701
vt 0.9995016 0.9995016
v 261.308 1.83902 -232.274
vn -0.06299216 1.000001 -0.04724412
vt 0.8705947 0.7739298
v 222.595 5.92883 -38.7123
vn -0.1023623 0.9921266 -0.00787402
vt 0.7416878 0.129395
v 193.561 3.21829 -77.4245
vn -0.07086618 1.000001 -0.01574804
vt 0.6450228 0.2583019
v 183.883 2.03252 0
vn -0.03149608 1.000001 0.03149608
vt 0.6127808 0.0004880528
v 241.952 2.96789 -174.205
vn -0.09448825 0.9921266 -0.0393701
vt 0.8061413 0.5805693
v 300.02 1.32373 -290.342
vn -0.02362206 1.000001 -0.03149608
vt 0.9995016 0.9672902
v 251.63 3.18947 -193.561
vn -0.09448825 0.9921266 -0.05511814
vt 0.8383832 0.6450228
v 280.664 4.11149 -222.595
vn -0.09448825 0.9921266 -0.07086618
vt 0.9350482 0.7416878
v 290.342 3.47162 -241.952
vn -0.07086618 0.9921266 -0.06299216
vt 0.9672902 0.8061413
v 222.595 5.0551 -87.1026
vn -0.0787402 0.9921266 -0.03149608
vt 0.7416878 0.2905439
v 212.917 4.66834 -19.3561
vn -0.07086618 1.000001 0.0393701
vt 0.7094763 0.06494153
v 193.561 2.42772 0
vn -0.05511814 1.000001 0.0393701
vt 0.6450228 0.0004880528
v 261.308 6.52401 -145.171
vn -0.1496064 0.9921266 -0.03149608
vt 0.8705947 0.4838739
v 300.02 2.08845 -270.986
vn -0.0393701 1.000001 -0.04724412
vt 0.9995016 0.9028367
v 290.342 6.06263 -212.917
vn -0.1259843 0.9842526 -0.09448825
vt 0.9672902 0.7094763
v 300.02 4.2903 -241.952
vn -0.08661422 0.9921266 -0.08661422
vt 0.9995016 0.8061413
v 300.02 3.28445 -251.63
vn -0.07086618 0.9921266 -0.08661422
vt 0.9995016 0.8383832
v 241.952 7.67753 -67.7464
vn -0.1181103 0.9921266 -0.04724412
vt 0.8061413 0.2260905
v 232.274 4.9827 -96.7806
vn -0.06299216 1.000001 -0.06299216
vt 0.7739298 0.3227554
v 232.274 4.71295 -106.459
vn -0.09448825 0.9921266 -0.0393701
vt 0.7739298 0.3549974
v 212.917 3.17255 -106.459
vn -0.06299216 1.000001 -0.0393701
vt 0.7094763 0.3549974
v 212.917 3.72465 0
vn -0.0787402 0.9921266 0.04724412
vt 0.7094763 0.0004880528
v 222.595 4.61849 0
vn -0.08661422 0.9921266 0.04724412
vt 0.7416878 0.0004880528
v 203.239 3.03781 0
vn -0.07086618 1.000001 0.04724412
vt 0.6772343 0.0004880528
v 174.205 2.51841 -29.0342
vn -0.0393701 1.000001 0.02362206
vt 0.5805693 0.09718352
v 270.986 6.91804 -174.205
vn -0.1968505 0.9763785 -0.07086618
vt 0.9028367 0.5805693
v 280.664 1.80991 -261.308
vn -0.0393701 1.000001 -0.0393701
vt 0.9350482 0.8705947
v 300.02 2.60464 -261.308
vn -0.0393701 1.000001 -0.06299216
vt 0.9995016 0.8705947
v 270.986 5.78605 -183.883
vn -0.1259843 0.9921266 -0.06299216
vt 0.9028367 0.6127808
v 300.02 6.02802 -222.595
vn -0.1417324 0.9763785 -0.1417324
vt 0.9995016 0.7416878
v 300.02 5.10881 -232.274
vn -0.09448825 0.9921266 -0.09448825
vt 0.9995016 0.7739298
v 232.274 7.2608 -29.0342
vn -0.1968505 0.9842526 -0.00787402
vt 0.7739298 0.09718352
v 251.63 9.69669 -58.0684
vn -0.1653544 0.9842526 -0.04724412
vt 0.8383832 0.1938485
v 241.952 6.03778 -87.1026
vn -0.1181103 0.9921266 -0.0393701
vt 0.8061413 0.2905439
v 261.308 8.11938 -106.459
vn -0.1732284 0.9842526 -0.05511814
vt 0.8705947 0.3549974
v 232.274 5.35088 0
vn -0.09448825 0.9921266 0.05511814
vt 0.7739298 0.0004880528
v 241.952 4.28001 -135.493
vn -0.09448825 0.9921266 -0.03149608
vt 0.8061413 0.4516624
v 261.308 6.71974 -125.815
vn -0.1574804 0.9842526 -0.0393701
vt 0.8705947 0.4194509
v 280.664 6.5712 -193.561
vn -0.1811025 0.9763785 -0.1023623
vt 0.9350482 0.6450228
v 251.63 3.18947 -193.561
vn -0.09448825 0.9921266 -0.05511814
vt 0.8383832 0.6450228
v 300.02 7.92393 -212.917
vn -0.2283466 0.9527565 -0.1968505
vt 0.9995016 0.7094763
v 222.595 5.92883 -38.7123
vn -0.1023623 0.9921266 -0.00787402
vt 0.7416878 0.129395
v 232.274 5.99562 -9.67806
vn -0.1574804 0.9842526 0.07086618
vt 0.7739298 0.03273004
v 212.917 4.66834 -19.3561
vn -0.07086618 1.000001 0.0393701
vt 0.7094763 0.06494153
v 280.664 13.6292 -106.459
vn -0.2992128 0.9527565 -0.02362206
vt 0.9350482 0.3549974
v 270.986 9.92519 -116.137
vn -0.2992128 0.9527565 -0.06299216
vt 0.9028367 0.3872089
v 251.63 7.70148 -87.1026
vn -0.1968505 0.9763785 -0.07086618
vt 0.8383832 0.2905439
v 261.308 6.52401 -145.171
vn -0.1496064 0.9921266 -0.03149608
vt 0.8705947 0.4838739
v 270.986 8.86055 -145.171
vn -0.2755907 0.9606305 -0.04724412
vt 0.9028367 0.4838739
v 251.63 6.00432 -116.137
vn -0.1181103 0.9921266 -0.07086618
vt 0.8383832 0.3872089
v 300.02 11.4468 -193.561
vn -0.2598427 0.9527565 -0.1338584
vt 0.9995016 0.6450228
v 300.02 10.5725 -203.239
vn -0.2755907 0.9448825 -0.1653544
vt 0.9995016 0.6772343
v 290.342 6.06263 -212.917
vn -0.1259843 0.9842526 -0.09448825
vt 0.9672902 0.7094763
v 290.342 7.42876 -203.239
vn -0.2519687 0.9448825 -0.1889765
vt 0.9672902 0.6772343
v 261.308 13.3593 -29.0342
vn -0.1968505 0.9842526 -0.00787402
vt 0.8705947 0.09718352
v 261.308 12.9908 -38.7123
vn -0.1811025 0.9842526 -0.05511814
vt 0.8705947 0.129395
v 241.952 6.47377 0
vn -0.1574804 0.9763785 0.1259843
vt 0.8061413 0.0004880528
v 300.02 19.7034 -106.459
vn -0.2992128 0.9527565 0
vt 0.9995016 0.3549974
v 300.02 19.5177 -116.137
vn -0.2913387 0.9527565 -0.00787402
vt 0.9995016 0.3872089
v 261.308 11.4007 -58.0684
vn -0.1968505 0.9763785 -0.05511814
vt 0.8705947 0.1938485
v 270.986 13.0006 -77.4245
vn -0.2283466 0.9763785 -0.04724412
vt 0.9028367 0.2583019
v 270.986 9.11521 -125.815
vn -0.3149608 0.9448825 -0.04724412
vt 0.9028367 0.4194509
v 290.342 14.5655 -154.849
vn -0.3070868 0.9448825 -0.0787402
vt 0.9672902 0.5161158
v 270.986 6.91804 -174.205
vn -0.1968505 0.9763785 -0.07086618
vt 0.9028367 0.5805693
v 290.342 13.2016 -164.527
vn -0.2755907 0.9527565 -0.1023623
vt 0.9672902 0.5483273
v 280.664 9.17994 -174.205
vn -0.2598427 0.9527565 -0.1417324
vt 0.9350482 0.5805693
v 300.02 13.474 -183.883
vn -0.2755907 0.9527565 -0.1417324
vt 0.9995016 0.6127808
v 232.274 7.2608 -29.0342
vn -0.1968505 0.9842526 -0.00787402
vt 0.7739298 0.09718352
v 251.63 11.2213 -19.3561
vn -0.2047245 0.9763785 0.09448825
vt 0.8383832 0.06494153
v 251.63 7.92953 0
vn -0.1889765 0.9685045 0.1653544
vt 0.8383832 0.0004880528
v 251.63 9.56627 -9.67806
vn -0.1889765 0.9685045 0.1574804
vt 0.8383832 0.03273004
v 300.02 19.4536 -96.7806
vn -0.2834647 0.9606305 0
vt 0.9995016 0.3227554
v 300.02 19.6126 -125.815
vn -0.3149608 0.9527565 -0.02362206
vt 0.9995016 0.4194509
v 261.308 8.11938 -106.459
vn -0.1732284 0.9842526 -0.05511814
vt 0.8705947 0.3549974
v 270.986 10.7963 -96.7806
vn -0.2519687 0.9685045 -0.07086618
vt 0.9028367 0.3227554
v 290.342 17.0591 -48.3903
vn -0.1417324 0.9921266 -0.02362206
vt 0.9672902 0.161637
v 280.664 14.9919 -58.0684
vn -0.1811025 0.9842526 -0.02362206
vt 0.9350482 0.1938485
v 280.664 13.6292 -106.459
vn -0.2992128 0.9527565 -0.02362206
vt 0.9350482 0.3549974
v 280.664 12.7893 -135.493
vn -0.3307089 0.9448825 -0.05511814
vt 0.9350482 0.4516624
v 270.986 9.92519 -116.137
vn -0.2992128 0.9527565 -0.06299216
vt 0.9028367 0.3872089
v 300.02 15.8532 -164.527
vn -0.2598427 0.9527565 -0.1338584
vt 0.9995016 0.5483273
v 300.02 14.3985 -174.205
vn -0.2362206 0.9606305 -0.1181103
vt 0.9995016 0.5805693
v 261.308 13.0739 -19.3561
vn -0.1417324 0.9842526 0.0787402
vt 0.8705947 0.06494153
v 261.308 10.2978 0
vn -0.2204726 0.9606305 0.1574804
vt 0.8705947 0.0004880528
v 290.342 16.7045 -96.7806
vn -0.2598427 0.9606305 -0.04724412
vt 0.9672902 0.3227554
v 300.02 19.4966 -87.1026
vn -0.2598427 0.9685045 -0.01574804
vt 0.9995016 0.2905439
v 300.02 18.4339 -38.7123
vn -0.1653544 0.9842526 0.02362206
vt 0.9995016 0.129395
v 300.02 18.589 -48.3903
vn -0.1574804 0.9842526 0.00787402
vt 0.9995016 0.161637
v 261.308 12.9908 -38.7123
vn -0.1811025 0.9842526 -0.05511814
vt 0.8705947 0.129395
v 270.986 14.9349 -29.0342
vn -0.1259843 0.9921266 0.02362206
vt 0.9028367 0.09718352
v 261.308 13.3593 -29.0342
vn -0.1968505 0.9842526 -0.00787402
vt 0.8705947 0.09718352
v 300.02 18.628 -58.0684
vn -0.1889765 0.9842526 0.00787402
vt 0.9995016 0.1938485
v 300.02 17.1349 -154.849
vn -0.2913387 0.9527565 -0.09448825
vt 0.9995016 0.5161158
v 270.986 12.3482 0
vn -0.1811025 0.9763785 0.1338584
vt 0.9028367 0.0004880528
v 290.342 17.1362 -77.4245
vn -0.2125985 0.9763785 0
vt 0.9672902 0.2583019
v 300.02 19.7046 -77.4245
vn -0.2598427 0.9685045 0.02362206
vt 0.9995016 0.2583019
v 270.986 13.0006 -77.4245
vn -0.2283466 0.9763785 -0.04724412
vt 0.9028367 0.2583019
v 300.02 19.2644 -135.493
vn -0.3149608 0.9448825 -0.05511814
vt 0.9995016 0.4516624
v 300.02 18.0627 -29.0342
vn -0.1181103 0.9921266 0.01574804
vt 0.9995016 0.09718352
v 300.02 18.4902 -145.171
vn -0.3307089 0.9370084 -0.1023623
vt 0.9995016 0.4838739
v 280.664 13.9461 0
vn -0.1338584 0.9842526 0.09448825
vt 0.9350482 0.0004880528
v 300.02 18.9927 -67.7464
vn -0.2362206 0.9685045 0.05511814
vt 0.9995016 0.2260905
v 300.02 17.0219 -9.67806
vn -0.1181103 0.9921266 0.06299216
vt 0.9995016 0.03273004
v 300.02 17.7009 -19.3561
vn -0.1102363 0.9921266 0.05511814
vt 0.9995016 0.06494153
v 290.342 15.0196 0
vn -0.1338584 0.9842526 0.1023623
vt 0.9672902 0.0004880528
v 300.02 16.6067 0
vn -0.1259843 0.9921266 0.0787402
vt 0.9995016 0.0004880528

f 5/5/5 6/6/6 7/7/7
f 5/5/5 8/8/8 6/6/6
f 7/7/7 9/9/9 10/10/10
f 8/8/8 11/11/11 12/12/12
f 8/8/8 12/12/12 6/6/6
f 7/7/7 13/13/13 14/14/14
f 9/9/9 15/15/15 10/10/10
f 11/11/11 16/16/16 12/12/12
f 6/6/6 17/17/17 7/7/7
f 13/13/13 18/18/18 14/14/14
f 13/13/13 17/17/17 18/18/18
f 13/13/13 7/7/7 17/17/17
f 9/9/9 19/19/19 15/15/15
f 16/16/16 20/20/20 12/12/12
f 6/6/6 21/21/21 17/17/17
f 14/14/14 18/18/18 22/22/22
f 7/7/7 23/23/23 24/24/24
f 7/7/7 24/24/24 9/9/9
f 14/14/14 23/23/23 7/7/7
f 14/14/14 22/22/22 23/23/23
f 19/19/19 9/9/9 25/25/25
f 20/20/20 26/26/26 12/12/12
f 6/6/6 12/12/12 27/27/27
f 6/6/6 27/27/27 21/21/21
f 17/17/17 28/28/28 18/18/18
f 21/21/21 27/27/27 28/28/28
f 21/21/21 28/28/28 17/17/17
f 24/24/24 23/23/23 29/29/29
f 22/22/22 18/18/18 30/30/30
f 23/23/23 30/30/30 29/29/29
f 23/23/23 22/22/22 30/30/30
f 9/9/9 31/31/31 25/25/25
f 26/26/26 32/32/32 33/33/33
f 26/26/26 33/33/33 12/12/12
f 27/27/27 34/34/34 35/35/35
f 27/27/27 35/35/35 28/28/28
f 27/27/27 12/12/12 34/34/34
f 24/24/24 29/29/29 36/36/36
f 24/24/24 36/36/36 9/9/9
f 18/18/18 28/28/28 37/37/37
f 18/18/18 37/37/37 30/30/30
f 31/31/31 38/38/38 39/39/39
f 9/9/9 36/36/36 38/38/38
f 9/9/9 38/38/38 31/31/31
f 32/32/32 40/40/40 33/33/33
f 35/35/35 41/41/41 42/42/42
f 12/12/12 43/43/43 34/34/34
f 33/33/33 40/40/40 43/43/43
f 33/33/33 43/43/43 12/12/12
f 29/29/29 30/30/30 44/44/44
f 28/28/28 45/45/45 37/37/37
f 42/42/42 28/28/28 35/35/35
f 42/42/42 41/41/41 45/45/45
f 42/42/42 45/45/45 28/28/28
f 39/39/39 38/38/38 46/46/46
f 36/36/36 47/47/47 38/38/38
f 36/36/36 29/29/29 47/47/47
f 34/34/34 43/43/43 48/48/48
f 40/40/40 49/49/49 43/43/43
f 30/30/30 50/50/50 44/44/44
f 30/30/30 37/37/37 50/50/50
f 35/35/35 34/34/34 51/51/51
f 35/35/35 51/51/51 41/41/41
f 45/45/45 52/52/52 53/53/53
f 46/46/46 38/38/38 54/54/54
f 29/29/29 44/44/44 55/55/55
f 29/29/29 55/55/55 47/47/47
f 48/48/48 56/56/56 57/57/57
f 51/51/51 34/34/34 57/57/57
f 34/34/34 48/48/48 57/57/57
f 51/51/51 57/57/57 41/41/41
f 49/49/49 58/58/58 43/43/43
f 37/37/37 45/45/45 59/59/59
f 45/45/45 41/41/41 52/52/52
f 45/45/45 53/53/53 59/59/59
f 37/37/37 59/59/59 50/50/50
f 38/38/38 60/60/60 54/54/54
f 38/38/38 47/47/47 60/60/60
f 44/44/44 61/61/61 62/62/62
f 50/50/50 59/59/59 61/61/61
f 50/50/50 61/61/61 44/44/44
f 55/55/55 63/63/63 47/47/47
f 44/44/44 62/62/62 63/63/63
f 44/44/44 63/63/63 55/55/55
f 56/56/56 64/64/64 57/57/57
f 57/57/57 64/64/64 41/41/41
f 48/48/48 43/43/43 65/65/65
f 48/48/48 65/65/65 56/56/56
f 58/58/58 66/66/66 43/43/43
f 52/52/52 67/67/67 53/53/53
f 53/53/53 67/67/67 59/59/59
f 60/60/60 47/47/47 68/68/68
f 61/61/61 69/69/69 62/62/62
f 63/63/63 70/70/70 71/71/71
f 64/64/64 56/56/56 72/72/72
f 41/41/41 73/73/73 74/74/74
f 75/75/75 74/74/74 52/52/52
f 64/64/64 72/72/72 73/73/73
f 64/64/64 73/73/73 75/75/75
f 65/65/65 76/76/76 77/77/77
f 66/66/66 78/78/78 79/79/79
f 78/78/78 76/76/76 65/65/65
f 78/78/78 65/65/65 79/79/79
f 67/67/67 80/80/80 59/59/59
f 81/81/81 82/82/82 68/68/68
f 63/63/63 62/62/62 70/70/70
f 63/63/63 71/71/71 82/82/82
f 82/82/82 81/81/81 63/63/63
f 61/61/61 59/59/59 83/83/83
f 59/59/59 80/80/80 83/83/83
f 69/69/69 84/84/84 85/85/85
f 85/85/85 70/70/70 62/62/62
f 62/62/62 69/69/69 85/85/85
f 56/56/56 86/86/86 87/87/87
f 74/74/74 88/88/88 89/89/89
f 73/73/73 72/72/72 88/88/88
f 73/73/73 88/88/88 74/74/74
f 77/77/77 90/90/90 65/65/65
f 67/67/67 91/91/91 92/92/92
f 91/91/91 74/74/74 92/92/92
f 61/61/61 93/93/93 69/69/69
f 83/83/83 80/80/80 93/93/93
f 83/83/83 93/93/93 94/94/94
f 84/84/84 69/69/69 95/95/95
f 96/96/96 65/65/65 97/97/97
f 96/96/96 97/97/97 86/86/86
f 96/96/96 87/87/87 72/72/72
f 98/98/98 90/90/90 97/97/97
f 89/89/89 99/99/99 100/100/100
f 88/88/88 72/72/72 101/101/101
f 72/72/72 87/87/87 101/101/101
f 88/88/88 101/101/101 89/89/89
f 102/102/102 92/92/92 103/103/103
f 102/102/102 103/103/103 80/80/80
f 74/74/74 89/89/89 104/104/104
f 104/104/104 89/89/89 92/92/92
f 104/104/104 92/92/92 74/74/74
f 93/93/93 105/105/105 106/106/106
f 107/107/107 108/108/108 95/95/95
f 108/108/108 107/107/107 93/93/93
f 108/108/108 106/106/106 95/95/95
f 106/106/106 108/108/108 93/93/93
f 86/86/86 109/109/109 110/110/110
f 90/90/90 111/111/111 97/97/97
f 99/99/99 112/112/112 113/113/113
f 100/100/100 92/92/92 89/89/89
f 87/87/87 86/86/86 110/110/110
f 101/101/101 114/114/114 115/115/115
f 87/87/87 114/114/114 101/101/101
f 87/87/87 110/110/110 114/114/114
f 103/103/103 116/116/116 117/117/117
f 92/92/92 100/100/100 116/116/116
f 92/92/92 116/116/116 103/103/103
f 118/118/118 103/103/103 119/119/119
f 103/103/103 117/117/117 119/119/119
f 105/105/105 120/120/120 121/121/121
f 120/120/120 105/105/105 93/93/93
f 120/120/120 118/118/118 119/119/119
f 120/120/120 119/119/119 121/121/121
f 120/120/120 93/93/93 118/118/118
f 109/109/109 122/122/122 123/123/123
f 122/122/122 97/97/97 123/123/123
f 111/111/111 124/124/124 125/125/125
f 97/97/97 111/111/111 125/125/125
f 97/97/97 125/125/125 123/123/123
f 99/99/99 126/126/126 112/112/112
f 113/113/113 127/127/127 99/99/99
f 128/128/128 129/129/129 99/99/99
f 101/101/101 115/115/115 129/129/129
f 101/101/101 129/129/129 128/128/128
f 110/110/110 130/130/130 131/131/131
f 114/114/114 131/131/131 115/115/115
f 114/114/114 110/110/110 131/131/131
f 100/100/100 132/132/132 133/133/133
f 116/116/116 133/133/133 117/117/117
f 116/116/116 134/134/134 133/133/133
f 119/119/119 135/135/135 136/136/136
f 119/119/119 136/136/136 121/121/121
f 119/119/119 117/117/117 135/135/135
f 109/109/109 123/123/123 137/137/137
f 124/124/124 138/138/138 125/125/125
f 125/125/125 138/138/138 123/123/123
f 126/126/126 139/139/139 140/140/140
f 132/132/132 127/127/127 133/133/133
f 132/132/132 129/129/129 139/139/139
f 129/129/129 115/115/115 139/139/139
f 132/132/132 139/139/139 126/126/126
f 130/130/130 141/141/141 142/142/142
f 143/143/143 144/144/144 130/130/130
f 145/145/145 144/144/144 143/143/143
f 145/145/145 137/137/137 144/144/144
f 131/131/131 130/130/130 146/146/146
f 142/142/142 146/146/146 130/130/130
f 117/117/117 147/147/147 135/135/135
f 117/117/117 133/133/133 147/147/147
f 138/138/138 148/148/148 123/123/123
f 123/123/123 148/148/148 137/137/137
f 140/140/140 149/149/149 150/150/150
f 131/131/131 149/149/149 151/151/151
f 139/139/139 151/151/151 149/149/149
f 139/139/139 149/149/149 140/140/140
f 131/131/131 146/146/146 149/149/149
f 127/127/127 152/152/152 133/133/133
f 141/141/141 130/130/130 153/153/153
f 130/130/130 144/144/144 153/153/153
f 147/147/147 133/133/133 154/154/154
f 154/154/154 133/133/133 152/152/152
f 148/148/148 155/155/155 137/137/137
f 150/150/150 149/149/149 156/156/156
f 156/156/156 149/149/149 146/146/146
f 144/144/144 157/157/157 158/158/158
f 144/144/144 158/158/158 153/153/153
f 144/144/144 137/137/137 157/157/157
f 155/155/155 159/159/159 137/137/137
f 157/157/157 137/137/137 160/160/160
f 160/160/160 137/137/137 159/159/159

