g Plane001

usemtl water.png

v 0 3 -300
vn 0 0 0
vt 0 299.9999
v 0 3 0
vn 0 0 0
vt 0 0
v 300 3 -300
vn 0 0 0
vt 299.9999 299.9999
v 300 3 0
vn 0 0 0
vt 299.9999 0

f 1/1/1 2/2/2 3/3/3
f 4/4/4 3/3/3 2/2/2

g TerrainMesh

usemtl image_x09_y05.png

v 19.3561 2.04288 -222.595
vn -0.01574614 0.99988 0.03936535
vt 0.06494153 0.7416878
v 0 1.60524 -212.917
vn -0.00787307 0.99988 0.03149228
vt 0.0004880528 0.7094763
v 0 1.29954 -203.239
vn -0.00787307 0.99988 0.03149228
vt 0.0004880528 0.6772343
v 0 1.95946 -222.595
vn -0.00787307 0.99988 0.03936535
vt 0.0004880528 0.7416878
v 19.3561 0.93489 -183.883
vn -0.00787307 0.99988 0.02361921
vt 0.06494153 0.6127808
v 0 2.32448 -232.274
vn -0.00787307 0.99988 0.03936535
vt 0.0004880528 0.7739298
v 38.7123 1.65821 -203.239
vn -0.00787307 0.99988 0.03149228
vt 0.129395 0.6772343
v 0 2.69532 -241.952
vn -0.00787307 0.99988 0.03936535
vt 0.0004880528 0.8061413
v 58.0684 2.63221 -222.595
vn -0.00787307 0.99988 0.04723842
vt 0.1938485 0.7416878
v 0 3.06723 -251.63
vn -0.01574614 0.99988 0.04723842
vt 0.0004880528 0.8383832
v 48.3903 4.72637 -261.308
vn -0.02361921 0.99988 0.05511149
vt 0.161637 0.8705947
v 0 3.58542 -261.308
vn -0.01574614 0.99988 0.04723842
vt 0.0004880528 0.8705947
v 9.67806 3.6885 -261.308
vn -0.02361921 0.99988 0.05511149
vt 0.03273004 0.8705947
v 0 1.0461 -193.561
vn -0.00787307 0.99988 0.02361921
vt 0.0004880528 0.6450228
v 67.7464 1.20074 -183.883
vn 0 0.99988 0.03149228
vt 0.2260905 0.6127808
v 38.7123 0.758179 -164.527
vn -0.00787307 0.99988 0.02361921
vt 0.129395 0.5483273
v 48.3903 0.759197 -164.527
vn 0 0.99988 0.02361921
vt 0.161637 0.5483273
v 19.3561 5.12723 -280.664
vn -0.02361921 0.99988 0.07085764
vt 0.06494153 0.9350482
v 58.0684 4.73 -261.308
vn -0.00787307 0.99988 0.07085764
vt 0.1938485 0.8705947
v 38.7123 6.3575 -290.342
vn -0.03149228 0.99988 0.0787307
vt 0.129395 0.9672902
v 58.0684 7.09474 -290.342
vn -0.03149228 0.9920069 0.09447685
vt 0.1938485 0.9672902
v 0 4.19335 -270.986
vn -0.00787307 0.99988 0.06298456
vt 0.0004880528 0.9028367
v 0 0.839112 -183.883
vn -0.00787307 0.99988 0.02361921
vt 0.0004880528 0.6127808
v 77.4245 0.460032 -145.171
vn 0 0.99988 0.01574614
vt 0.2583019 0.4838739
v 96.7806 2.3283 -212.917
vn 0 0.99988 0.03936535
vt 0.3227554 0.7094763
v 96.7806 0.471095 -145.171
vn 0 0.99988 0.02361921
vt 0.3227554 0.4838739
v 116.137 1.61667 -193.561
vn 0 0.99988 0.03936535
vt 0.3872089 0.6450228
v 96.7806 1.05507 -174.205
vn 0 0.99988 0.02361921
vt 0.3227554 0.5805693
v 29.0342 0.629947 -164.527
vn -0.00787307 0.99988 0.02361921
vt 0.09718352 0.5483273
v 9.67806 6.36147 -300.02
vn -0.02361921 0.99988 0.07085764
vt 0.03273004 0.9995016
v 0 5.49455 -290.342
vn -0.01574614 0.99988 0.07085764
vt 0.0004880528 0.9672902
v 0 6.14311 -300.02
vn -0.01574614 0.99988 0.07085764
vt 0.0004880528 0.9995016
v 87.1026 5.78864 -270.986
vn -0.00787307 0.99988 0.08660378
vt 0.2905439 0.9028367
v 77.4245 4.30804 -251.63
vn 0 0.99988 0.06298456
vt 0.2583019 0.8383832
v 0 4.80485 -280.664
vn -0.01574614 0.99988 0.07085764
vt 0.0004880528 0.9350482
v 0 0.654196 -174.205
vn -0.00787307 0.99988 0.01574614
vt 0.0004880528 0.5805693
v 125.815 4.21617 -251.63
vn 0.00787307 0.99988 0.05511149
vt 0.4194509 0.8383832
v 87.1026 3.22498 -232.274
vn 0 0.99988 0.05511149
vt 0.2905439 0.7739298
v 116.137 0.68637 -154.849
vn 0 0.99988 0.01574614
vt 0.3872089 0.5161158
v 19.3561 0.93489 -183.883
vn -0.00787307 0.99988 0.02361921
vt 0.06494153 0.6127808
v 19.3561 0.370068 -154.849
vn -0.00787307 0.99988 0.01574614
vt 0.06494153 0.5161158
v 19.3561 6.52731 -300.02
vn -0.03149228 0.99988 0.0787307
vt 0.06494153 0.9995016
v 38.7123 7.45867 -300.02
vn -0.03936535 0.9920069 0.1180961
vt 0.129395 0.9995016
v 29.0342 6.94155 -300.02
vn -0.04723842 0.9920069 0.110223
vt 0.09718352 0.9995016
v 106.459 6.47528 -280.664
vn 0.01574614 0.9920069 0.110223
vt 0.3549974 0.9350482
v 77.4245 6.87351 -280.664
vn -0.01574614 0.9920069 0.1259691
vt 0.2583019 0.9350482
v 0 0.505283 -164.527
vn -0.00787307 0.99988 0.01574614
vt 0.0004880528 0.5483273
v 135.493 3.59962 -241.952
vn 0.01574614 0.99988 0.04723842
vt 0.4516624 0.8061413
v 145.171 0.95008 -174.205
vn 0.00787307 0.99988 0.02361921
vt 0.4838739 0.5805693
v 154.849 2.05315 -212.917
vn 0.00787307 0.99988 0.03936535
vt 0.5161158 0.7094763
v 9.67806 0.360901 -154.849
vn 0 0.99988 0.01574614
vt 0.03273004 0.5161158
v 48.3903 7.87298 -300.02
vn -0.03149228 0.9920069 0.110223
vt 0.161637 0.9995016
v 125.815 6.17527 -280.664
vn 0.01574614 0.99988 0.0787307
vt 0.4194509 0.9350482
v 77.4245 8.17028 -290.342
vn -0.01574614 0.9920069 0.1338422
vt 0.2583019 0.9672902
v 58.0684 7.09474 -290.342
vn -0.03149228 0.9920069 0.09447685
vt 0.1938485 0.9672902
v 164.527 4.139 -261.308
vn 0.01574614 0.99988 0.04723842
vt 0.5483273 0.8705947
v 145.171 5.55367 -280.664
vn 0.02361921 0.99988 0.05511149
vt 0.4838739 0.9350482
v 125.815 0.644995 -154.849
vn 0 0.99988 0.01574614
vt 0.4194509 0.5161158
v 58.0684 8.08489 -300.02
vn -0.03936535 0.9920069 0.1023499
vt 0.1938485 0.9995016
v 125.815 8.35573 -300.02
vn 0.03149228 0.9920069 0.110223
vt 0.4194509 0.9995016
v 135.493 6.5771 -290.342
vn 0.04723842 0.99988 0.07085764
vt 0.4516624 0.9672902
v 135.493 7.68114 -300.02
vn 0.0787307 0.9920069 0.110223
vt 0.4516624 0.9995016
v 67.7464 8.57728 -300.02
vn -0.05511149 0.9920069 0.1023499
vt 0.2260905 0.9995016
v 96.7806 9.43356 -300.02
vn 0.01574614 0.9920069 0.1417153
vt 0.3227554 0.9995016
v 77.4245 9.15264 -300.02
vn -0.04723842 0.9920069 0.1023499
vt 0.2583019 0.9995016
v 87.1026 9.56159 -300.02
vn -0.01574614 0.9920069 0.1259691
vt 0.2905439 0.9995016
v 174.205 1.60937 -203.239
vn 0.00787307 0.99988 0.03936535
vt 0.5805693 0.6772343
v 125.815 0.47677 -145.171
vn 0 0.99988 0.01574614
vt 0.4194509 0.4838739
v 116.137 8.56475 -300.02
vn 0.03149228 0.9920069 0.1259691
vt 0.3872089 0.9995016
v 145.171 6.78669 -300.02
vn 0.0787307 0.9920069 0.09447685
vt 0.4838739 0.9995016
v 164.527 5.02054 -280.664
vn 0.03149228 0.99988 0.03149228
vt 0.5483273 0.9350482
v 154.849 6.20083 -300.02
vn 0.05511149 0.99988 0.06298456
vt 0.5161158 0.9995016
v 164.527 5.69282 -300.02
vn 0.03936535 0.99988 0.03936535
vt 0.5483273 0.9995016
v 106.459 9.0075 -300.02
vn 0.04723842 0.9920069 0.1259691
vt 0.3549974 0.9995016
v 183.883 0.878209 -183.883
vn 0.00787307 0.99988 0.02361921
vt 0.6127808 0.6127808
v 193.561 3.43468 -261.308
vn 0.02361921 0.99988 0.03149228
vt 0.6450228 0.8705947
v 193.561 0.870445 -183.883
vn 0.01574614 0.99988 0.03149228
vt 0.6450228 0.6127808
v 135.493 0.445089 -145.171
vn 0 0.99988 0.01574614
vt 0.4516624 0.4838739
v 174.205 5.34286 -300.02
vn 0.04723842 0.99988 0.03936535
vt 0.5805693 0.9995016
v 183.883 0.65211 -164.527
vn 0.00787307 0.99988 0.01574614
vt 0.6127808 0.5483273
v 164.527 0.748466 -164.527
vn 0.00787307 0.99988 0.01574614
vt 0.5483273 0.5483273
v 174.205 0.633108 -164.527
vn 0.00787307 0.99988 0.01574614
vt 0.5805693 0.5483273
v 203.239 3.69814 -280.664
vn 0.03149228 0.99988 0.03149228
vt 0.6772343 0.9350482
v 232.274 1.5362 -232.274
vn 0.02361921 0.99988 0.02361921
vt 0.7739298 0.7739298
v 154.849 0.558745 -154.849
vn 0 0.99988 0.01574614
vt 0.5161158 0.5161158
v 145.171 0.95008 -174.205
vn 0.00787307 0.99988 0.02361921
vt 0.4838739 0.5805693
v 183.883 4.84623 -300.02
vn 0.03936535 0.99988 0.03149228
vt 0.6127808 0.9995016
v 193.561 0.481306 -164.527
vn 0.01574614 0.99988 0.02361921
vt 0.6450228 0.5483273
v 222.595 3.38035 -290.342
vn 0.03149228 0.99988 0.03149228
vt 0.7416878 0.9672902
v 222.595 0.858167 -193.561
vn 0.00787307 0.99988 0.02361921
vt 0.7416878 0.6450228
v 270.986 1.80233 -280.664
vn 0.02361921 0.99988 0.02361921
vt 0.9028367 0.9350482
v 241.952 0.561371 -193.561
vn 0.01574614 0.99988 0.02361921
vt 0.8061413 0.6450228
v 270.986 0.854806 -232.274
vn 0.01574614 0.99988 0.01574614
vt 0.9028367 0.7739298
v 251.63 0.814686 -212.917
vn 0.01574614 0.99988 0.01574614
vt 0.8383832 0.7094763
v 193.561 4.54916 -300.02
vn 0.03149228 0.99988 0.02361921
vt 0.6450228 0.9995016
v 203.239 0.595785 -174.205
vn 0.00787307 0.99988 0.02361921
vt 0.6772343 0.5805693
v 251.63 2.85895 -300.02
vn 0.03149228 0.99988 0.03149228
vt 0.8383832 0.9995016
v 212.917 4.05026 -300.02
vn 0.03149228 0.99988 0.03936535
vt 0.7094763 0.9995016
v 241.952 3.20939 -300.02
vn 0.03149228 0.99988 0.03936535
vt 0.8061413 0.9995016
v 222.595 3.76696 -300.02
vn 0.03149228 0.99988 0.03936535
vt 0.7416878 0.9995016
v 232.274 3.42839 -300.02
vn 0.03149228 0.99988 0.03149228
vt 0.7739298 0.9995016
v 232.274 0.526196 -183.883
vn 0.01574614 0.99988 0.02361921
vt 0.7739298 0.6127808
v 241.952 0.350332 -183.883
vn 0.01574614 0.99988 0.02361921
vt 0.8061413 0.6127808
v 261.308 0.523206 -203.239
vn 0.01574614 0.99988 0.01574614
vt 0.8705947 0.6772343
v 203.239 4.35964 -300.02
vn 0.02361921 0.99988 0.03149228
vt 0.6772343 0.9995016
v 212.917 0.563471 -174.205
vn 0.00787307 0.99988 0.01574614
vt 0.7094763 0.5805693
v 261.308 2.58706 -300.02
vn 0.03149228 0.99988 0.02361921
vt 0.8705947 0.9995016
v 300.02 0.857521 -270.986
vn 0.02361921 0.99988 0.01574614
vt 0.9995016 0.9028367
v 270.986 2.29463 -300.02
vn 0.03149228 0.99988 0.02361921
vt 0.9028367 0.9995016
v 300.02 0.988432 -280.664
vn 0.03149228 0.99988 0.01574614
vt 0.9995016 0.9350482
v 280.664 1.99014 -300.02
vn 0.03149228 0.99988 0.02361921
vt 0.9350482 0.9995016
v 300.02 1.15302 -290.342
vn 0.03149228 0.99988 0.02361921
vt 0.9995016 0.9672902
v 290.342 1.62504 -300.02
vn 0.03149228 0.99988 0.02361921
vt 0.9672902 0.9995016
v 300.02 1.37654 -300.02
vn 0.03149228 0.99988 0.02361921
vt 0.9995016 0.9995016
v 222.595 0.638267 -183.883
vn 0.01574614 0.99988 0.02361921
vt 0.7416878 0.6127808
v 270.986 0.381219 -203.239
vn 0.01574614 0.99988 0.01574614
vt 0.9028367 0.6772343
v 261.308 0.328632 -193.561
vn 0.01574614 0.99988 0.02361921
vt 0.8705947 0.6450228
v 300.02 0.777201 -261.308
vn 0.01574614 0.99988 0.01574614
vt 0.9995016 0.8705947
v 280.664 0.331452 -212.917
vn 0.02361921 0.99988 0.01574614
vt 0.9350482 0.7094763
v 300.02 0.609493 -251.63
vn 0.01574614 0.99988 0.01574614
vt 0.9995016 0.8383832
v 290.342 0.486105 -232.274
vn 0.01574614 0.99988 0.01574614
vt 0.9672902 0.7739298

f 5/5/5 6/6/6 7/7/7
f 5/5/5 8/8/8 6/6/6
f 5/5/5 7/7/7 9/9/9
f 5/5/5 10/10/10 8/8/8
f 5/5/5 9/9/9 11/11/11
f 5/5/5 12/12/12 10/10/10
f 5/5/5 11/11/11 13/13/13
f 5/5/5 14/14/14 12/12/12
f 5/5/5 13/13/13 15/15/15
f 5/5/5 16/16/16 14/14/14
f 5/5/5 15/15/15 17/17/17
f 5/5/5 17/17/17 16/16/16
f 7/7/7 18/18/18 9/9/9
f 11/11/11 19/19/19 13/13/13
f 11/11/11 9/9/9 20/20/20
f 11/11/11 21/21/21 19/19/19
f 11/11/11 20/20/20 21/21/21
f 15/15/15 22/22/22 17/17/17
f 15/15/15 13/13/13 23/23/23
f 15/15/15 24/24/24 22/22/22
f 15/15/15 23/23/23 25/25/25
f 15/15/15 25/25/25 24/24/24
f 16/16/16 17/17/17 26/26/26
f 18/18/18 27/27/27 9/9/9
f 19/19/19 21/21/21 28/28/28
f 19/19/19 29/29/29 13/13/13
f 19/19/19 28/28/28 30/30/30
f 19/19/19 31/31/31 29/29/29
f 19/19/19 30/30/30 32/32/32
f 19/19/19 32/32/32 31/31/31
f 20/20/20 9/9/9 33/33/33
f 22/22/22 24/24/24 34/34/34
f 22/22/22 35/35/35 17/17/17
f 22/22/22 34/34/34 36/36/36
f 22/22/22 36/36/36 35/35/35
f 23/23/23 37/37/37 25/25/25
f 23/23/23 13/13/13 38/38/38
f 23/23/23 38/38/38 37/37/37
f 26/26/26 17/17/17 39/39/39
f 39/39/39 17/17/17 35/35/35
f 27/27/27 40/40/40 9/9/9
f 29/29/29 31/31/31 41/41/41
f 29/29/29 42/42/42 13/13/13
f 29/29/29 41/41/41 42/42/42
f 42/42/42 41/41/41 38/38/38
f 42/42/42 38/38/38 13/13/13
f 30/30/30 43/43/43 32/32/32
f 33/33/33 44/44/44 45/45/45
f 24/24/24 46/46/46 34/34/34
f 24/24/24 25/25/25 47/47/47
f 24/24/24 48/48/48 46/46/46
f 24/24/24 47/47/47 48/48/48
f 37/37/37 38/38/38 49/49/49
f 37/37/37 50/50/50 25/25/25
f 37/37/37 49/49/49 50/50/50
f 40/40/40 51/51/51 44/44/44
f 31/31/31 52/52/52 41/41/41
f 31/31/31 32/32/32 53/53/53
f 31/31/31 54/54/54 52/52/52
f 31/31/31 53/53/53 54/54/54
f 32/32/32 43/43/43 53/53/53
f 45/45/45 44/44/44 55/55/55
f 55/55/55 44/44/44 51/51/51
f 47/47/47 25/25/25 56/56/56
f 38/38/38 57/57/57 49/49/49
f 38/38/38 41/41/41 57/57/57
f 50/50/50 58/58/58 59/59/59
f 50/50/50 49/49/49 58/58/58
f 52/52/52 54/54/54 60/60/60
f 52/52/52 61/61/61 41/41/41
f 52/52/52 60/60/60 61/61/61
f 43/43/43 62/62/62 53/53/53
f 56/56/56 59/59/59 63/63/63
f 57/57/57 64/64/64 49/49/49
f 57/57/57 41/41/41 65/65/65
f 57/57/57 66/66/66 64/64/64
f 57/57/57 65/65/65 66/66/66
f 41/41/41 61/61/61 65/65/65
f 58/58/58 67/67/67 59/59/59
f 58/58/58 49/49/49 68/68/68
f 58/58/58 69/69/69 67/67/67
f 58/58/58 68/68/68 70/70/70
f 58/58/58 70/70/70 69/69/69
f 67/67/67 63/63/63 59/59/59
f 54/54/54 71/71/71 60/60/60
f 54/54/54 53/53/53 71/71/71
f 62/62/62 72/72/72 53/53/53
f 64/64/64 73/73/73 49/49/49
f 66/66/66 65/65/65 74/74/74
f 61/61/61 60/60/60 75/75/75
f 61/61/61 76/76/76 65/65/65
f 61/61/61 75/75/75 77/77/77
f 61/61/61 77/77/77 76/76/76
f 76/76/76 74/74/74 65/65/65
f 68/68/68 49/49/49 78/78/78
f 78/78/78 49/49/49 73/73/73
f 71/71/71 53/53/53 79/79/79
f 71/71/71 80/80/80 60/60/60
f 71/71/71 79/79/79 81/81/81
f 71/71/71 81/81/81 80/80/80
f 60/60/60 80/80/80 75/75/75
f 72/72/72 82/82/82 53/53/53
f 77/77/77 75/75/75 83/83/83
f 79/79/79 84/84/84 81/81/81
f 79/79/79 53/53/53 85/85/85
f 79/79/79 86/86/86 84/84/84
f 79/79/79 85/85/85 86/86/86
f 80/80/80 87/87/87 75/75/75
f 80/80/80 81/81/81 88/88/88
f 80/80/80 88/88/88 87/87/87
f 82/82/82 89/89/89 90/90/90
f 90/90/90 89/89/89 85/85/85
f 83/83/83 75/75/75 91/91/91
f 84/84/84 92/92/92 81/81/81
f 88/88/88 93/93/93 87/87/87
f 88/88/88 81/81/81 94/94/94
f 88/88/88 95/95/95 93/93/93
f 88/88/88 94/94/94 96/96/96
f 88/88/88 97/97/97 95/95/95
f 88/88/88 96/96/96 98/98/98
f 88/88/88 98/98/98 97/97/97
f 75/75/75 99/99/99 91/91/91
f 75/75/75 87/87/87 99/99/99
f 92/92/92 100/100/100 81/81/81
f 81/81/81 100/100/100 94/94/94
f 93/93/93 95/95/95 101/101/101
f 93/93/93 102/102/102 87/87/87
f 93/93/93 101/101/101 103/103/103
f 93/93/93 104/104/104 102/102/102
f 93/93/93 103/103/103 105/105/105
f 93/93/93 105/105/105 104/104/104
f 96/96/96 94/94/94 106/106/106
f 96/96/96 106/106/106 107/107/107
f 98/98/98 108/108/108 97/97/97
f 99/99/99 87/87/87 109/109/109
f 109/109/109 87/87/87 102/102/102
f 100/100/100 110/110/110 94/94/94
f 95/95/95 111/111/111 101/101/101
f 95/95/95 97/97/97 112/112/112
f 95/95/95 113/113/113 111/111/111
f 95/95/95 112/112/112 114/114/114
f 95/95/95 115/115/115 113/113/113
f 95/95/95 114/114/114 116/116/116
f 95/95/95 117/117/117 115/115/115
f 95/95/95 116/116/116 118/118/118
f 95/95/95 118/118/118 117/117/117
f 106/106/106 94/94/94 119/119/119
f 119/119/119 94/94/94 110/110/110
f 108/108/108 120/120/120 97/97/97
f 108/108/108 121/121/121 120/120/120
f 112/112/112 97/97/97 122/122/122
f 120/120/120 123/123/123 97/97/97
f 122/122/122 97/97/97 124/124/124
f 123/123/123 125/125/125 97/97/97
f 97/97/97 125/125/125 124/124/124

