g Plane001

usemtl water.png

v 0 3 -300
vn 0 0 0
vt 0 299.9999
v 0 3 0
vn 0 0 0
vt 0 0
v 300 3 -300
vn 0 0 0
vt 299.9999 299.9999
v 300 3 0
vn 0 0 0
vt 299.9999 0

f 1/1/1 2/2/2 3/3/3
f 4/4/4 3/3/3 2/2/2

g TerrainMesh

usemtl image_x08_y09.png

v 0 6.46721 0
vn 0.0472428 0.9999726 -0.0708642
vt 0.0004880528 0.0004880528
v 9.67806 6.04446 0
vn 0.039369 0.9999726 -0.0629904
vt 0.03273004 0.0004880528
v 0 5.76794 -9.67806
vn 0.039369 0.9999726 -0.0629904
vt 0.0004880528 0.03273004
v 9.67806 4.24535 -29.0342
vn 0.0472428 0.9999726 -0.0551166
vt 0.03273004 0.09718352
v 19.3561 5.54081 0
vn 0.0551166 0.9999726 -0.0629904
vt 0.06494153 0.0004880528
v 0 5.24282 -19.3561
vn 0.0472428 0.9999726 -0.0551166
vt 0.0004880528 0.06494153
v 29.0342 4.93085 0
vn 0.0551166 0.9999726 -0.0551166
vt 0.09718352 0.0004880528
v 29.0342 4.36151 -9.67806
vn 0.0472428 0.9999726 -0.0472428
vt 0.09718352 0.03273004
v 0 4.75161 -29.0342
vn 0.0551166 0.9999726 -0.0472428
vt 0.0004880528 0.09718352
v 38.7123 4.40901 0
vn 0.0551166 0.9999726 -0.0551166
vt 0.129395 0.0004880528
v 0 4.27435 -38.7123
vn 0.0472428 0.9999726 -0.0472428
vt 0.0004880528 0.129395
v 48.3903 3.93339 0
vn 0.039369 0.9999726 -0.0472428
vt 0.161637 0.0004880528
v 0 3.86591 -48.3903
vn 0.0472428 0.9999726 -0.039369
vt 0.0004880528 0.161637
v 58.0684 3.62223 0
vn 0.0314952 0.9999726 -0.0472428
vt 0.1938485 0.0004880528
v 58.0684 2.72318 -19.3561
vn 0.0236214 0.9999726 -0.039369
vt 0.1938485 0.06494153
v 29.0342 2.53973 -48.3903
vn 0.039369 0.9999726 -0.039369
vt 0.09718352 0.161637
v 67.7464 3.37371 0
vn 0.0157476 0.9999726 -0.039369
vt 0.2260905 0.0004880528
v 0 3.52345 -58.0684
vn 0.0472428 0.9999726 -0.0314952
vt 0.0004880528 0.1938485
v 77.4245 3.26272 0
vn 0 0.9999726 -0.0314952
vt 0.2583019 0.0004880528
v 29.0342 2.25968 -58.0684
vn 0.0236214 0.9999726 -0.0236214
vt 0.09718352 0.1938485
v 87.1026 3.31895 0
vn 0.0078738 0.9999726 -0.039369
vt 0.2905439 0.0004880528
v 0 3.26921 -67.7464
vn 0.039369 0.9999726 -0.0236214
vt 0.0004880528 0.2260905
v 96.7806 3.25397 0
vn 0.0078738 0.9999726 -0.0472428
vt 0.3227554 0.0004880528
v 87.1026 1.57293 -38.7123
vn 0.0078738 0.9999726 -0.0314952
vt 0.2905439 0.129395
v 0 3.04402 -77.4245
vn 0.039369 0.9999726 -0.0157476
vt 0.0004880528 0.2583019
v 106.459 3.21586 0
vn 0.0078738 0.9999726 -0.0472428
vt 0.3549974 0.0004880528
v 0 2.91668 -87.1026
vn 0.039369 0.9999726 -0.0157476
vt 0.0004880528 0.2905439
v 116.137 3.20083 0
vn -0.0078738 0.9999726 -0.039369
vt 0.3872089 0.0004880528
v 106.459 2.34439 -19.3561
vn 0 0.9999726 -0.039369
vt 0.3549974 0.06494153
v 77.4245 0.936531 -77.4245
vn 0.0157476 0.9999726 -0.0157476
vt 0.2583019 0.2583019
v 29.0342 1.5869 -96.7806
vn 0.0236214 0.9999726 -0.0157476
vt 0.09718352 0.3227554
v 0 2.61883 -96.7806
vn 0.039369 0.9999726 -0.0236214
vt 0.0004880528 0.3227554
v 125.815 3.30236 0
vn -0.0078738 0.9999726 -0.0472428
vt 0.4194509 0.0004880528
v 116.137 1.10755 -58.0684
vn 0 0.9999726 -0.0236214
vt 0.3872089 0.1938485
v 0 2.3896 -106.459
vn 0.0314952 0.9999726 -0.0157476
vt 0.0004880528 0.3549974
v 87.1026 0.503382 -96.7806
vn 0.0078738 0.9999726 -0.0157476
vt 0.2905439 0.3227554
v 135.493 3.299 0
vn 0 0.9999726 -0.039369
vt 0.4516624 0.0004880528
v 0 2.26311 -116.137
vn 0.0314952 0.9999726 -0.0157476
vt 0.0004880528 0.3872089
v 58.0684 0.959624 -106.459
vn 0.0157476 0.9999726 -0.0157476
vt 0.1938485 0.3549974
v 145.171 0.698102 -77.4245
vn 0 0.9999726 -0.0236214
vt 0.4838739 0.2583019
v 145.171 0.351619 -96.7806
vn 0 0.9999726 -0.0157476
vt 0.4838739 0.3227554
v 145.171 3.25248 0
vn 0 0.9999726 -0.039369
vt 0.4838739 0.0004880528
v 145.171 1.80067 -38.7123
vn 0 0.9999726 -0.039369
vt 0.4838739 0.129395
v 19.3561 0.980048 -154.849
vn 0.0236214 0.9999726 -0.0157476
vt 0.06494153 0.5161158
v 0 2.07997 -125.815
vn 0.0236214 0.9999726 -0.0236214
vt 0.0004880528 0.4194509
v 174.205 1.65946 -38.7123
vn 0.0078738 0.9999726 -0.0314952
vt 0.5805693 0.129395
v 154.849 0.752885 -77.4245
vn 0 0.9999726 -0.0236214
vt 0.5161158 0.2583019
v 135.493 0.226927 -106.459
vn 0 0.9999726 -0.0157476
vt 0.4516624 0.3549974
v 154.849 3.28816 0
vn 0 0.9999726 -0.039369
vt 0.5161158 0.0004880528
v 0 1.87979 -135.493
vn 0.0236214 0.9999726 -0.0236214
vt 0.0004880528 0.4516624
v 116.137 0.0775385 -116.137
vn 0.0078738 0.9999726 -0.0157476
vt 0.3872089 0.3872089
v 106.459 0.128052 -116.137
vn 0.0078738 0.9999726 -0.0078738
vt 0.3549974 0.3872089
v 164.527 0.718908 -77.4245
vn 0.0078738 0.9999726 -0.0236214
vt 0.5483273 0.2583019
v 145.171 0.173985 -106.459
vn 0.0078738 0.9999726 -0.0157476
vt 0.4838739 0.3549974
v 125.815 0.183925 -106.459
vn 0 0.9999726 -0.0157476
vt 0.4194509 0.3549974
v 164.527 3.19931 0
vn 0.0078738 0.9999726 -0.039369
vt 0.5483273 0.0004880528
v 0 1.61991 -145.171
vn 0.0236214 0.9999726 -0.0236214
vt 0.0004880528 0.4838739
v 77.4245 0.28092 -135.493
vn 0.0157476 0.9999726 -0.0078738
vt 0.2583019 0.4516624
v 222.595 1.27396 -38.7123
vn 0.0078738 0.9999726 -0.0314952
vt 0.7416878 0.129395
v 174.205 0.715597 -77.4245
vn 0 0.9999726 -0.0157476
vt 0.5805693 0.2583019
v 116.137 0.0257027 -125.815
vn 0.0078738 0.9999726 -0.0078738
vt 0.3872089 0.4194509
v 106.459 0.0782465 -125.815
vn 0.0078738 0.9999726 -0.0078738
vt 0.3549974 0.4194509
v 174.205 3.11704 0
vn 0.0078738 0.9999726 -0.039369
vt 0.5805693 0.0004880528
v 0 1.44572 -154.849
vn 0.0236214 0.9999726 -0.0157476
vt 0.0004880528 0.5161158
v 67.7464 0.442159 -135.493
vn 0.0157476 0.9999726 -0.0078738
vt 0.2260905 0.4516624
v 183.883 0.644153 -77.4245
vn 0.0078738 0.9999726 -0.0236214
vt 0.6127808 0.2583019
v 203.239 2.51769 -9.67806
vn 0.0078738 0.9999726 -0.039369
vt 0.6772343 0.03273004
v 183.883 3.02756 0
vn 0.0078738 0.9999726 -0.039369
vt 0.6127808 0.0004880528
v 0 1.29702 -164.527
vn 0.0236214 0.9999726 -0.0157476
vt 0.0004880528 0.5483273
v 58.0684 0.443607 -145.171
vn 0.0157476 0.9999726 -0.0078738
vt 0.1938485 0.4838739
v 87.1026 0.503382 -96.7806
vn 0.0078738 0.9999726 -0.0157476
vt 0.2905439 0.3227554
v 193.561 0.63629 -77.4245
vn 0.0078738 0.9999726 -0.0236214
vt 0.6450228 0.2583019
v 193.561 2.88797 0
vn 0.0078738 0.9999726 -0.0314952
vt 0.6450228 0.0004880528
v 0 1.1298 -174.205
vn 0.0236214 0.9999726 -0.0157476
vt 0.0004880528 0.5805693
v 48.3903 0.50932 -154.849
vn 0.0157476 0.9999726 -0.0157476
vt 0.161637 0.5161158
v 232.274 2.4209 0
vn 0.0157476 0.9999726 -0.0314952
vt 0.7739298 0.0004880528
v 241.952 2.32512 0
vn 0.0157476 0.9999726 -0.0314952
vt 0.8061413 0.0004880528
v 203.239 0.539095 -77.4245
vn 0.0078738 0.9999726 -0.0236214
vt 0.6772343 0.2583019
v 203.239 2.86056 0
vn 0.0078738 0.9999726 -0.0314952
vt 0.6772343 0.0004880528
v 19.3561 0.980048 -154.849
vn 0.0236214 0.9999726 -0.0157476
vt 0.06494153 0.5161158
v 0 0.9683 -183.883
vn 0.0236214 0.9999726 -0.0157476
vt 0.0004880528 0.6127808
v 38.7123 0.495182 -164.527
vn 0.0157476 0.9999726 -0.0157476
vt 0.129395 0.5483273
v 222.595 2.55904 0
vn 0.0157476 0.9999726 -0.0314952
vt 0.7416878 0.0004880528
v 251.63 2.09579 0
vn 0.0157476 0.9999726 -0.0314952
vt 0.8383832 0.0004880528
v 270.986 1.15979 -19.3561
vn 0.0157476 0.9999726 -0.0314952
vt 0.9028367 0.06494153
v 212.917 0.521163 -77.4245
vn 0.0078738 0.9999726 -0.0236214
vt 0.7094763 0.2583019
v 212.917 2.70668 0
vn 0.0157476 0.9999726 -0.0314952
vt 0.7094763 0.0004880528
v 0 0.822206 -193.561
vn 0.0157476 0.9999726 -0.0157476
vt 0.0004880528 0.6450228
v 29.0342 0.664719 -164.527
vn 0.0157476 0.9999726 -0.0157476
vt 0.09718352 0.5483273
v 261.308 2.00816 0
vn 0.0157476 0.9999726 -0.039369
vt 0.8705947 0.0004880528
v 261.308 0.841315 -38.7123
vn 0.0078738 0.9999726 -0.0236214
vt 0.8705947 0.129395
v 241.952 0.633793 -58.0684
vn 0.0078738 0.9999726 -0.0236214
vt 0.8061413 0.1938485
v 222.595 1.27396 -38.7123
vn 0.0078738 0.9999726 -0.0314952
vt 0.7416878 0.129395
v 222.595 0.599863 -67.7464
vn 0.0078738 0.9999726 -0.0236214
vt 0.7416878 0.2260905
v 9.67806 0.651107 -193.561
vn 0.0157476 0.9999726 -0.0157476
vt 0.03273004 0.6450228
v 0 0.674814 -203.239
vn 0.0157476 0.9999726 -0.0157476
vt 0.0004880528 0.6772343
v 19.3561 0.606082 -183.883
vn 0.0157476 0.9999726 -0.0157476
vt 0.06494153 0.6127808
v 270.986 1.82056 0
vn 0.0157476 0.9999726 -0.0314952
vt 0.9028367 0.0004880528
v 261.308 0.655888 -48.3903
vn 0.0078738 0.9999726 -0.0236214
vt 0.8705947 0.161637
v 232.274 0.563037 -67.7464
vn 0.0078738 0.9999726 -0.0236214
vt 0.7739298 0.2260905
v 280.664 1.68483 0
vn 0.0157476 0.9999726 -0.0314952
vt 0.9350482 0.0004880528
v 270.986 0.5357 -48.3903
vn 0.0078738 0.9999726 -0.0236214
vt 0.9028367 0.161637
v 290.342 1.53272 0
vn 0.0157476 0.9999726 -0.0314952
vt 0.9672902 0.0004880528
v 280.664 0.463513 -48.3903
vn 0.0078738 0.9999726 -0.0236214
vt 0.9350482 0.161637
v 300.02 1.41512 0
vn 0.0157476 0.9999726 -0.0314952
vt 0.9995016 0.0004880528
v 290.342 0.328009 -48.3903
vn 0.0078738 0.9999726 -0.0236214
vt 0.9672902 0.161637
v 300.02 1.09826 -9.67806
vn 0.0157476 0.9999726 -0.0314952
vt 0.9995016 0.03273004
v 300.02 0.41785 -38.7123
vn 0.0078738 0.9999726 -0.0236214
vt 0.9995016 0.129395
v 300.02 0.273324 -48.3903
vn 0.0078738 0.9999726 -0.0157476
vt 0.9995016 0.161637
v 300.02 0.848515 -19.3561
vn 0.0078738 0.9999726 -0.0236214
vt 0.9995016 0.06494153
v 300.02 0.612124 -29.0342
vn 0.0078738 0.9999726 -0.0236214
vt 0.9995016 0.09718352

f 5/5/5 6/6/6 7/7/7
f 6/6/6 8/8/8 7/7/7
f 6/6/6 9/9/9 8/8/8
f 7/7/7 8/8/8 10/10/10
f 9/9/9 11/11/11 12/12/12
f 9/9/9 12/12/12 8/8/8
f 10/10/10 8/8/8 13/13/13
f 11/11/11 14/14/14 12/12/12
f 8/8/8 15/15/15 13/13/13
f 14/14/14 16/16/16 12/12/12
f 8/8/8 17/17/17 15/15/15
f 16/16/16 18/18/18 19/19/19
f 16/16/16 19/19/19 12/12/12
f 8/8/8 20/20/20 17/17/17
f 12/12/12 19/19/19 20/20/20
f 12/12/12 20/20/20 8/8/8
f 18/18/18 21/21/21 19/19/19
f 17/17/17 20/20/20 22/22/22
f 21/21/21 23/23/23 19/19/19
f 20/20/20 24/24/24 22/22/22
f 20/20/20 19/19/19 24/24/24
f 23/23/23 25/25/25 19/19/19
f 22/22/22 24/24/24 26/26/26
f 25/25/25 27/27/27 28/28/28
f 19/19/19 25/25/25 28/28/28
f 19/19/19 28/28/28 24/24/24
f 26/26/26 24/24/24 29/29/29
f 27/27/27 30/30/30 28/28/28
f 24/24/24 31/31/31 29/29/29
f 30/30/30 32/32/32 33/33/33
f 30/30/30 33/33/33 28/28/28
f 24/24/24 28/28/28 34/34/34
f 31/31/31 35/35/35 36/36/36
f 24/24/24 34/34/34 35/35/35
f 24/24/24 35/35/35 31/31/31
f 32/32/32 37/37/37 33/33/33
f 28/28/28 33/33/33 38/38/38
f 36/36/36 35/35/35 39/39/39
f 34/34/34 28/28/28 40/40/40
f 28/28/28 38/38/38 40/40/40
f 37/37/37 41/41/41 33/33/33
f 35/35/35 42/42/42 39/39/39
f 34/34/34 43/43/43 35/35/35
f 34/34/34 40/40/40 43/43/43
f 38/38/38 44/44/44 45/45/45
f 41/41/41 46/46/46 47/47/47
f 33/33/33 41/41/41 47/47/47
f 33/33/33 47/47/47 38/38/38
f 42/42/42 48/48/48 49/49/49
f 43/43/43 48/48/48 35/35/35
f 35/35/35 48/48/48 42/42/42
f 43/43/43 40/40/40 48/48/48
f 44/44/44 50/50/50 51/51/51
f 44/44/44 38/38/38 50/50/50
f 45/45/45 52/52/52 38/38/38
f 46/46/46 53/53/53 47/47/47
f 49/49/49 48/48/48 54/54/54
f 40/40/40 55/55/55 56/56/56
f 51/51/51 50/50/50 57/57/57
f 45/45/45 58/58/58 52/52/52
f 38/38/38 52/52/52 59/59/59
f 59/59/59 55/55/55 40/40/40
f 38/38/38 47/47/47 50/50/50
f 38/38/38 59/59/59 40/40/40
f 53/53/53 60/60/60 47/47/47
f 48/48/48 61/61/61 54/54/54
f 56/56/56 62/62/62 40/40/40
f 57/57/57 63/63/63 64/64/64
f 57/57/57 50/50/50 63/63/63
f 55/55/55 65/65/65 66/66/66
f 66/66/66 56/56/56 55/55/55
f 60/60/60 67/67/67 47/47/47
f 48/48/48 68/68/68 61/61/61
f 62/62/62 69/69/69 40/40/40
f 64/64/64 63/63/63 70/70/70
f 50/50/50 71/71/71 63/63/63
f 50/50/50 47/47/47 71/71/71
f 67/67/67 72/72/72 47/47/47
f 47/47/47 72/72/72 71/71/71
f 48/48/48 73/73/73 68/68/68
f 69/69/69 74/74/74 75/75/75
f 75/75/75 74/74/74 48/48/48
f 70/70/70 63/63/63 76/76/76
f 72/72/72 77/77/77 71/71/71
f 73/73/73 48/48/48 78/78/78
f 74/74/74 79/79/79 48/48/48
f 63/63/63 80/80/80 81/81/81
f 76/76/76 63/63/63 82/82/82
f 77/77/77 83/83/83 71/71/71
f 78/78/78 84/84/84 85/85/85
f 79/79/79 86/86/86 84/84/84
f 80/80/80 71/71/71 87/87/87
f 80/80/80 63/63/63 71/71/71
f 81/81/81 88/88/88 89/89/89
f 81/81/81 89/89/89 63/63/63
f 82/82/82 63/63/63 90/90/90
f 83/83/83 91/91/91 71/71/71
f 71/71/71 91/91/91 87/87/87
f 85/85/85 84/84/84 92/92/92
f 86/86/86 93/93/93 84/84/84
f 88/88/88 94/94/94 89/89/89
f 63/63/63 95/95/95 96/96/96
f 90/90/90 97/97/97 98/98/98
f 92/92/92 99/99/99 100/100/100
f 92/92/92 84/84/84 99/99/99
f 93/93/93 101/101/101 84/84/84
f 84/84/84 101/101/101 99/99/99
f 94/94/94 102/102/102 89/89/89
f 95/95/95 89/89/89 103/103/103
f 95/95/95 97/97/97 89/89/89
f 96/96/96 104/104/104 97/97/97
f 97/97/97 104/104/104 98/98/98
f 102/102/102 105/105/105 89/89/89
f 103/103/103 89/89/89 106/106/106
f 105/105/105 107/107/107 89/89/89
f 106/106/106 89/89/89 108/108/108
f 107/107/107 109/109/109 89/89/89
f 108/108/108 89/89/89 110/110/110
f 109/109/109 111/111/111 89/89/89
f 110/110/110 112/112/112 113/113/113
f 110/110/110 89/89/89 112/112/112
f 111/111/111 114/114/114 89/89/89
f 112/112/112 89/89/89 115/115/115
f 115/115/115 89/89/89 114/114/114

