g Plane001

usemtl water.png

v 0 3 -300
vn 0 0 0
vt 0 299.9999
v 0 3 0
vn 0 0 0
vt 0 0
v 300 3 -300
vn 0 0 0
vt 299.9999 299.9999
v 300 3 0
vn 0 0 0
vt 299.9999 0

f 1/1/1 2/2/2 3/3/3
f 4/4/4 3/3/3 2/2/2

g TerrainMesh

usemtl image_x04_y01.png

v 0 2.26166 0
vn -0.0393621 0.9997974 0.07085178
vt 0.0004880528 0.0004880528
v 9.67806 2.66792 0
vn -0.05510694 0.9919249 0.09446904
vt 0.03273004 0.0004880528
v 0 2.91856 -9.67806
vn -0.05510694 0.9919249 0.09446904
vt 0.0004880528 0.03273004
v 38.7123 6.14239 -19.3561
vn -0.04723452 0.9840525 0.1810657
vt 0.129395 0.06494153
v 19.3561 2.98738 0
vn -0.0393621 0.9919249 0.1180863
vt 0.06494153 0.0004880528
v 29.0342 3.51233 0
vn -0.04723452 0.9919249 0.1102139
vt 0.09718352 0.0004880528
v 38.7123 3.97772 0
vn -0.0393621 0.9919249 0.1102139
vt 0.129395 0.0004880528
v 48.3903 4.35024 0
vn -0.03148968 0.9919249 0.1102139
vt 0.161637 0.0004880528
v 58.0684 4.55912 0
vn -0.01574484 0.9919249 0.09446904
vt 0.1938485 0.0004880528
v 67.7464 4.60231 0
vn -0.00787242 0.9919249 0.09446904
vt 0.2260905 0.0004880528
v 0 3.92323 -19.3561
vn -0.05510694 0.9919249 0.09446904
vt 0.0004880528 0.06494153
v 0 4.82428 -29.0342
vn -0.08659662 0.9761801 0.1889381
vt 0.0004880528 0.09718352
v 19.3561 13.1149 -58.0684
vn -0.07872421 0.9761801 0.1968105
vt 0.06494153 0.1938485
v 0 6.53194 -38.7123
vn -0.1574484 0.9761801 0.1731932
vt 0.0004880528 0.129395
v 0 8.214 -48.3903
vn -0.1574484 0.9683077 0.1731932
vt 0.0004880528 0.161637
v 0 10.0105 -58.0684
vn -0.1574484 0.9604353 0.2204278
vt 0.0004880528 0.1938485
v 0 12.6864 -67.7464
vn -0.1653208 0.9446905 0.2834071
vt 0.0004880528 0.2260905
v 0 15.7689 -77.4245
vn -0.1338311 0.9525629 0.2676623
vt 0.0004880528 0.2583019
v 0 18.1213 -87.1026
vn -0.05510694 0.9761801 0.2046829
vt 0.0004880528 0.2905439
v 0 19.844 -96.7806
vn -0.03148968 0.9840525 0.1810657
vt 0.0004880528 0.3227554
v 106.459 6.93938 -19.3561
vn -0.05510694 0.9761801 0.1968105
vt 0.3549974 0.06494153
v 77.4245 4.64032 0
vn -0.00787242 0.9919249 0.1102139
vt 0.2583019 0.0004880528
v 87.1026 4.68256 0
vn -0.00787242 0.9919249 0.1102139
vt 0.2905439 0.0004880528
v 96.7806 4.72157 0
vn -0.00787242 0.9919249 0.1102139
vt 0.3227554 0.0004880528
v 106.459 4.84564 0
vn -0.02361726 0.9919249 0.1102139
vt 0.3549974 0.0004880528
v 116.137 5.19836 0
vn -0.04723452 0.9919249 0.1102139
vt 0.3872089 0.0004880528
v 125.815 5.70541 0
vn -0.04723452 0.9919249 0.1102139
vt 0.4194509 0.0004880528
v 135.493 6.06792 0
vn -0.1102139 0.9683077 0.2361726
vt 0.4516624 0.0004880528
v 58.0684 14.3273 -48.3903
vn -0.01574484 0.9840525 0.1889381
vt 0.1938485 0.161637
v 38.7123 21.1952 -96.7806
vn -0.03148968 0.9919249 0.1259587
vt 0.129395 0.3227554
v 0 21.191 -106.459
vn -0.03148968 0.9919249 0.1338311
vt 0.0004880528 0.3549974
v 0 22.5138 -116.137
vn -0.02361726 0.9919249 0.1102139
vt 0.0004880528 0.3872089
v 0 23.3209 -125.815
vn 0 0.9997974 0.07872421
vt 0.0004880528 0.4194509
v 0 23.9669 -135.493
vn 0.02361726 0.9997974 0.05510694
vt 0.0004880528 0.4516624
v 0 24.3162 -145.171
vn -0.02361726 0.9997974 0.07085178
vt 0.0004880528 0.4838739
v 87.1026 19.8368 -87.1026
vn -0.02361726 0.9919249 0.149576
vt 0.2905439 0.2905439
v 67.7464 22.9086 -106.459
vn 0 0.9919249 0.1102139
vt 0.2260905 0.3549974
v 38.7123 25.5612 -145.171
vn -0.01574484 0.9997974 0.05510694
vt 0.129395 0.4838739
v 87.1026 25.7756 -145.171
vn -0.03148968 0.9997974 0.07085178
vt 0.2905439 0.4838739
v 0 24.6088 -154.849
vn -0.03148968 0.9997974 0.02361726
vt 0.0004880528 0.5161158
v 0 24.7344 -164.527
vn -0.02361726 0.9997974 0.00787242
vt 0.0004880528 0.5483273
v 48.3903 25.6213 -164.527
vn -0.04723452 0.9997974 0.05510694
vt 0.161637 0.5483273
v 0 24.9275 -174.205
vn -0.01574484 0.9997974 0.00787242
vt 0.0004880528 0.5805693
v 0 24.954 -183.883
vn -0.01574484 0.9997974 0.00787242
vt 0.0004880528 0.6127808
v 0 25.1196 -193.561
vn -0.03148968 0.9997974 0.03148968
vt 0.0004880528 0.6450228
v 0 25.5649 -203.239
vn -0.0393621 0.9997974 0.04723452
vt 0.0004880528 0.6772343
v 0 26.0333 -212.917
vn -0.06297936 0.9919249 0.07085178
vt 0.0004880528 0.7094763
v 0 27.0011 -222.595
vn -0.1102139 0.9840525 0.1180863
vt 0.0004880528 0.7416878
v 106.459 19.8286 -77.4245
vn -0.1574484 0.9683077 0.1968105
vt 0.3549974 0.2583019
v 125.815 23.7077 -87.1026
vn -0.07085178 0.9919249 0.1023415
vt 0.4194509 0.2905439
v 125.815 22.4019 -67.7464
vn -0.149576 0.9683077 0.1968105
vt 0.4194509 0.2260905
v 145.171 19.8128 -48.3903
vn -0.07085178 0.9683077 0.2283002
vt 0.4838739 0.161637
v 145.171 6.52596 0
vn -0.07085178 0.9604353 0.2676623
vt 0.4838739 0.0004880528
v 154.849 7.46106 0
vn -0.07085178 0.9604353 0.2597899
vt 0.5161158 0.0004880528
v 164.527 7.90082 0
vn -0.02361726 0.9683077 0.2361726
vt 0.5483273 0.0004880528
v 164.527 22.4343 -58.0684
vn -0.01574484 0.9919249 0.1180863
vt 0.5483273 0.1938485
v 174.205 19.7198 -48.3903
vn -0.08659662 0.9761801 0.2046829
vt 0.5805693 0.161637
v 174.205 26.1217 -96.7806
vn -0.04723452 0.9919249 0.1180863
vt 0.5805693 0.3227554
v 174.205 8.91882 0
vn -0.09446904 0.9683077 0.2204278
vt 0.5805693 0.0004880528
v 183.883 9.77408 0
vn -0.09446904 0.9683077 0.2204278
vt 0.6127808 0.0004880528
v 193.561 10.8684 0
vn -0.149576 0.9604353 0.2361726
vt 0.6450228 0.0004880528
v 203.239 12.751 0
vn -0.1653208 0.9525629 0.2361726
vt 0.6772343 0.0004880528
v 212.917 14.2895 0
vn -0.1810657 0.9525629 0.2519175
vt 0.7094763 0.0004880528
v 222.595 16.4033 0
vn -0.1417036 0.9683077 0.2046829
vt 0.7416878 0.0004880528
v 203.239 23.1307 -48.3903
vn -0.07872421 0.9919249 0.1259587
vt 0.6772343 0.161637
v 232.274 17.9555 0
vn -0.1574484 0.9683077 0.1968105
vt 0.7739298 0.0004880528
v 241.952 19.5942 0
vn -0.149576 0.9683077 0.1889381
vt 0.8061413 0.0004880528
v 251.63 20.9081 0
vn -0.07085178 0.9919249 0.1023415
vt 0.8383832 0.0004880528
v 116.137 26.05 -135.493
vn -0.1023415 0.9919249 0.07872421
vt 0.3872089 0.4516624
v 154.849 32.757 -145.171
vn -0.09446904 0.9840525 0.1574484
vt 0.5161158 0.4838739
v 270.986 26.4966 -48.3903
vn -0.06297936 0.9919249 0.1259587
vt 0.9028367 0.161637
v 261.308 22.4882 0
vn -0.1259587 0.9919249 0.05510694
vt 0.8705947 0.0004880528
v 270.986 23.3747 0
vn -0.07085178 0.9919249 0.06297936
vt 0.9028367 0.0004880528
v 280.664 23.8016 0
vn -0.03148968 0.9997974 0.06297936
vt 0.9350482 0.0004880528
v 290.342 24.0426 0
vn -0.03148968 0.9997974 0.06297936
vt 0.9672902 0.0004880528
v 300.02 24.4224 0
vn -0.01574484 0.9997974 0.04723452
vt 0.9995016 0.0004880528
v 300.02 24.6474 -9.67806
vn 0.0393621 0.9997974 0.02361726
vt 0.9995016 0.03273004
v 300.02 24.8189 -19.3561
vn 0.03148968 0.9997974 0.03148968
vt 0.9995016 0.06494153
v 300.02 25.1836 -29.0342
vn -0.00787242 0.9997974 0.07872421
vt 0.9995016 0.09718352
v 300.02 26.3406 -38.7123
vn -0.0393621 0.9919249 0.1338311
vt 0.9995016 0.129395
v 300.02 27.8018 -48.3903
vn -0.07872421 0.9840525 0.1417036
vt 0.9995016 0.161637
v 212.917 29.3759 -96.7806
vn -0.08659662 0.9840525 0.1417036
vt 0.7094763 0.3227554
v 193.561 29.4809 -116.137
vn -0.149576 0.9525629 0.2519175
vt 0.6450228 0.3872089
v 125.815 27.2084 -145.171
vn -0.1731932 0.9604353 0.2283002
vt 0.4194509 0.4838739
v 145.171 40.6613 -174.205
vn -0.1574484 0.9604353 0.244045
vt 0.4838739 0.5805693
v 125.815 32.0777 -164.527
vn -0.2046829 0.9525629 0.2204278
vt 0.4194509 0.5483273
v 96.7806 27.4603 -164.527
vn -0.1023415 0.9840525 0.1259587
vt 0.3227554 0.5483273
v 87.1026 25.7756 -145.171
vn -0.03148968 0.9997974 0.07085178
vt 0.2905439 0.4838739
v 232.274 28.8899 -87.1026
vn -0.1810657 0.9446905 0.2834071
vt 0.7739298 0.2905439
v 212.917 38.1589 -125.815
vn -0.2676623 0.9210732 0.2912796
vt 0.7094763 0.4194509
v 270.986 37.8326 -87.1026
vn -0.2204278 0.9053283 0.3542589
vt 0.9028367 0.2905439
v 290.342 28.0198 -58.0684
vn -0.1338311 0.9210732 0.3621313
vt 0.9672902 0.1938485
v 300.02 31.0031 -58.0684
vn -0.2676623 0.8738387 0.393621
vt 0.9995016 0.1938485
v 300.02 36.5341 -67.7464
vn -0.1968105 0.8266041 0.5274522
vt 0.9995016 0.2260905
v 300.02 43.3878 -77.4245
vn -0.2912796 0.8344765 0.4644728
vt 0.9995016 0.2583019
v 300.02 47.341 -87.1026
vn -0.2912796 0.8895835 0.3463865
vt 0.9995016 0.2905439
v 300.02 50.9913 -96.7806
vn -0.2676623 0.8895835 0.3778762
vt 0.9995016 0.3227554
v 270.986 50.6921 -116.137
vn -0.2597899 0.8895835 0.3700038
vt 0.9028367 0.3872089
v 300.02 54.9516 -106.459
vn -0.2597899 0.8817111 0.3857486
vt 0.9995016 0.3549974
v 300.02 59.5025 -116.137
vn -0.2676623 0.8895835 0.3700038
vt 0.9995016 0.3872089
v 300.02 63.0428 -125.815
vn -0.2676623 0.8974559 0.3542589
vt 0.9995016 0.4194509
v 270.986 62.2597 -145.171
vn -0.2912796 0.9053283 0.299152
vt 0.9028367 0.4838739
v 300.02 67.1868 -135.493
vn -0.2755347 0.8974559 0.3542589
vt 0.9995016 0.4516624
v 203.239 46.9521 -164.527
vn -0.1653208 0.9604353 0.2361726
vt 0.6772343 0.5483273
v 125.815 41.3549 -193.561
vn -0.2046829 0.9604353 0.2046829
vt 0.4194509 0.6450228
v 106.459 34.4538 -193.561
vn -0.2125553 0.9525629 0.2125553
vt 0.3549974 0.6450228
v 164.527 58.2484 -251.63
vn -0.1731932 0.9604353 0.2046829
vt 0.5483273 0.8383832
v 212.917 62.6934 -222.595
vn -0.2519175 0.9446905 0.2204278
vt 0.7094763 0.7416878
v 241.952 65.8842 -193.561
vn -0.3070244 0.9289456 0.2204278
vt 0.8061413 0.6450228
v 290.342 75.2805 -164.527
vn -0.299152 0.9210732 0.2519175
vt 0.9672902 0.5483273
v 300.02 71.1867 -145.171
vn -0.3463865 0.8659663 0.3542589
vt 0.9995016 0.4838739
v 300.02 75.1038 -154.849
vn -0.2676623 0.9210732 0.2912796
vt 0.9995016 0.5161158
v 300.02 77.2632 -164.527
vn -0.1968105 0.9525629 0.2519175
vt 0.9995016 0.5483273
v 300.02 80.1664 -174.205
vn -0.2755347 0.936818 0.2046829
vt 0.9995016 0.5805693
v 300.02 81.4427 -183.883
vn -0.244045 0.9525629 0.1574484
vt 0.9995016 0.6127808
v 280.664 78.3721 -193.561
vn -0.2676623 0.9525629 0.1417036
vt 0.9350482 0.6450228
v 300.02 82.4613 -193.561
vn -0.2046829 0.9683077 0.1338311
vt 0.9995016 0.6450228
v 300.02 84.1479 -203.239
vn -0.2361726 0.9683077 0.1102139
vt 0.9995016 0.6772343
v 300.02 84.6579 -212.917
vn -0.2519175 0.9683077 0.06297936
vt 0.9995016 0.7094763
v 300.02 85.4375 -222.595
vn -0.2204278 0.9761801 0.08659662
vt 0.9995016 0.7416878
v 261.308 77.7298 -232.274
vn -0.2361726 0.9604353 0.1653208
vt 0.8705947 0.7739298
v 300.02 86.1015 -232.274
vn -0.2046829 0.9761801 0.1023415
vt 0.9995016 0.7739298
v 232.274 75.1178 -251.63
vn -0.2361726 0.9446905 0.2283002
vt 0.7739298 0.8383832
v 106.459 41.74 -222.595
vn -0.1889381 0.9525629 0.244045
vt 0.3549974 0.7416878
v 135.493 55.7335 -261.308
vn -0.1417036 0.9683077 0.2125553
vt 0.4516624 0.8705947
v 290.342 86.3917 -251.63
vn -0.1653208 0.9683077 0.1731932
vt 0.9672902 0.8383832
v 300.02 87.039 -241.952
vn -0.1574484 0.9840525 0.09446904
vt 0.9995016 0.8061413
v 300.02 87.9639 -251.63
vn -0.1574484 0.9761801 0.1417036
vt 0.9995016 0.8383832
v 300.02 89.7769 -261.308
vn -0.149576 0.9683077 0.2125553
vt 0.9995016 0.8705947
v 251.63 84.3843 -270.986
vn -0.1968105 0.9604353 0.2046829
vt 0.8383832 0.9028367
v 300.02 92.2823 -270.986
vn -0.1574484 0.9604353 0.2204278
vt 0.9995016 0.9028367
v 300.02 94.2484 -280.664
vn -0.149576 0.9604353 0.2361726
vt 0.9995016 0.9350482
v 300.02 97.0431 -290.342
vn -0.1653208 0.9604353 0.2204278
vt 0.9995016 0.9672902
v 77.4245 32.8153 -212.917
vn -0.1653208 0.9525629 0.2676623
vt 0.2583019 0.7094763
v 87.1026 54.9432 -280.664
vn -0.1574484 0.9525629 0.2519175
vt 0.2905439 0.9350482
v 183.883 65.3028 -261.308
vn -0.2361726 0.9525629 0.1889381
vt 0.6127808 0.8705947
v 193.561 71.7084 -280.664
vn -0.244045 0.9525629 0.1889381
vt 0.6450228 0.9350482
v 154.849 66.1224 -300.02
vn -0.2046829 0.9604353 0.1810657
vt 0.5161158 0.9995016
v 164.527 67.5158 -300.02
vn -0.1968105 0.9683077 0.149576
vt 0.5483273 0.9995016
v 174.205 70.0302 -300.02
vn -0.2519175 0.9525629 0.1731932
vt 0.5805693 0.9995016
v 183.883 72.1708 -300.02
vn -0.2283002 0.9604353 0.1417036
vt 0.6127808 0.9995016
v 193.561 74.6864 -300.02
vn -0.2676623 0.9525629 0.149576
vt 0.6450228 0.9995016
v 203.239 77.6168 -300.02
vn -0.2597899 0.9525629 0.1574484
vt 0.6772343 0.9995016
v 212.917 79.9825 -300.02
vn -0.2519175 0.9525629 0.1574484
vt 0.7094763 0.9995016
v 222.595 82.7606 -300.02
vn -0.2361726 0.9525629 0.1810657
vt 0.7416878 0.9995016
v 232.274 84.9546 -300.02
vn -0.2283002 0.9604353 0.1731932
vt 0.7739298 0.9995016
v 241.952 87.3184 -300.02
vn -0.2204278 0.9604353 0.1731932
vt 0.8061413 0.9995016
v 251.63 89.3885 -300.02
vn -0.2361726 0.9604353 0.1653208
vt 0.8383832 0.9995016
v 261.308 92.1316 -300.02
vn -0.2283002 0.9604353 0.1810657
vt 0.8705947 0.9995016
v 270.986 93.9336 -300.02
vn -0.1889381 0.9604353 0.1889381
vt 0.9028367 0.9995016
v 280.664 95.9684 -300.02
vn -0.149576 0.9604353 0.2283002
vt 0.9350482 0.9995016
v 290.342 96.9947 -300.02
vn -0.1653208 0.9604353 0.2125553
vt 0.9672902 0.9995016
v 300.02 99.2842 -300.02
vn -0.2283002 0.9525629 0.2204278
vt 0.9995016 0.9995016
v 145.171 64.6022 -300.02
vn -0.1180863 0.9761801 0.1731932
vt 0.4838739 0.9995016
v 164.527 58.2484 -251.63
vn -0.1731932 0.9604353 0.2046829
vt 0.5483273 0.8383832
v 135.493 63.8249 -300.02
vn -0.1180863 0.9761801 0.1968105
vt 0.4516624 0.9995016
v 125.815 63.1422 -300.02
vn -0.06297936 0.9761801 0.2046829
vt 0.4194509 0.9995016
v 135.493 55.7335 -261.308
vn -0.1417036 0.9683077 0.2125553
vt 0.4516624 0.8705947
v 116.137 62.548 -300.02
vn -0.04723452 0.9761801 0.1968105
vt 0.3872089 0.9995016
v 106.459 62.1679 -300.02
vn -0.1023415 0.9683077 0.2361726
vt 0.3549974 0.9995016
v 96.7806 60.8263 -300.02
vn -0.1417036 0.9683077 0.2204278
vt 0.3227554 0.9995016
v 87.1026 59.2937 -300.02
vn -0.2125553 0.9525629 0.2125553
vt 0.2905439 0.9995016
v 77.4245 56.473 -300.02
vn -0.2519175 0.9446905 0.2046829
vt 0.2583019 0.9995016
v 67.7464 54.0717 -300.02
vn -0.2283002 0.9525629 0.1889381
vt 0.2260905 0.9995016
v 58.0684 51.8324 -300.02
vn -0.1889381 0.9761801 0.1259587
vt 0.1938485 0.9995016
v 48.3903 50.3671 -300.02
vn -0.1810657 0.9683077 0.1574484
vt 0.161637 0.9995016
v 48.3903 45.3267 -270.986
vn -0.149576 0.9604353 0.244045
vt 0.161637 0.9028367
v 38.7123 49.1488 -300.02
vn -0.1259587 0.9761801 0.1731932
vt 0.129395 0.9995016
v 29.0342 47.9488 -300.02
vn -0.1102139 0.9840525 0.1574484
vt 0.09718352 0.9995016
v 87.1026 54.9432 -280.664
vn -0.1574484 0.9525629 0.2519175
vt 0.2905439 0.9350482
v 77.4245 32.8153 -212.917
vn -0.1653208 0.9525629 0.2676623
vt 0.2583019 0.7094763
v 9.67806 42.6358 -280.664
vn -0.1653208 0.9604353 0.2125553
vt 0.03273004 0.9350482
v 19.3561 46.6953 -300.02
vn -0.1259587 0.9840525 0.1417036
vt 0.06494153 0.9995016
v 9.67806 45.4313 -300.02
vn -0.1653208 0.9761801 0.1417036
vt 0.03273004 0.9995016
v 0 43.413 -300.02
vn -0.2204278 0.9683077 0.149576
vt 0.0004880528 0.9995016
v 0 41.783 -290.342
vn -0.3148968 0.9210732 0.2361726
vt 0.0004880528 0.9672902
v 0 38.4079 -280.664
vn -0.299152 0.9132007 0.2834071
vt 0.0004880528 0.9350482
v 19.3561 38.3636 -261.308
vn -0.1574484 0.9525629 0.2597899
vt 0.06494153 0.8705947
v 0 36.7201 -270.986
vn -0.2125553 0.936818 0.2676623
vt 0.0004880528 0.9028367
v 0 32.8997 -261.308
vn -0.2597899 0.9210732 0.2912796
vt 0.0004880528 0.8705947
v 0 30.6135 -251.63
vn -0.2597899 0.9446905 0.1968105
vt 0.0004880528 0.8383832
v 67.7464 29.5506 -203.239
vn -0.08659662 0.9840525 0.149576
vt 0.2260905 0.6772343
v 106.459 34.4538 -193.561
vn -0.2125553 0.9525629 0.2125553
vt 0.3549974 0.6450228
v 96.7806 27.4603 -164.527
vn -0.1023415 0.9840525 0.1259587
vt 0.3227554 0.5483273
v 9.67806 29.4277 -232.274
vn -0.1023415 0.9840525 0.149576
vt 0.03273004 0.7739298
v 0 29.273 -241.952
vn -0.1417036 0.9840525 0.1259587
vt 0.0004880528 0.8061413
v 0 28.1667 -232.274
vn -0.1259587 0.9840525 0.1180863
vt 0.0004880528 0.7739298
v 0 27.0011 -222.595
vn -0.1102139 0.9840525 0.1180863
vt 0.0004880528 0.7416878
v 48.3903 25.6213 -164.527
vn -0.04723452 0.9997974 0.05510694
vt 0.161637 0.5483273
v 67.7464 26.5033 -164.527
vn -0.0393621 0.9997974 0.07872421
vt 0.2260905 0.5483273
v 87.1026 25.7756 -145.171
vn -0.03148968 0.9997974 0.07085178
vt 0.2905439 0.4838739

f 5/5/5 6/6/6 7/7/7
f 7/7/7 6/6/6 8/8/8
f 6/6/6 9/9/9 8/8/8
f 9/9/9 10/10/10 8/8/8
f 10/10/10 11/11/11 8/8/8
f 11/11/11 12/12/12 8/8/8
f 12/12/12 13/13/13 8/8/8
f 13/13/13 14/14/14 8/8/8
f 7/7/7 8/8/8 15/15/15
f 15/15/15 8/8/8 16/16/16
f 16/16/16 8/8/8 17/17/17
f 16/16/16 17/17/17 18/18/18
f 18/18/18 17/17/17 19/19/19
f 19/19/19 17/17/17 20/20/20
f 20/20/20 17/17/17 21/21/21
f 21/21/21 17/17/17 22/22/22
f 22/22/22 17/17/17 23/23/23
f 23/23/23 17/17/17 24/24/24
f 8/8/8 14/14/14 25/25/25
f 14/14/14 26/26/26 25/25/25
f 26/26/26 27/27/27 25/25/25
f 27/27/27 28/28/28 25/25/25
f 28/28/28 29/29/29 25/25/25
f 29/29/29 30/30/30 25/25/25
f 30/30/30 31/31/31 25/25/25
f 31/31/31 32/32/32 25/25/25
f 8/8/8 33/33/33 17/17/17
f 8/8/8 25/25/25 33/33/33
f 17/17/17 34/34/34 24/24/24
f 17/17/17 33/33/33 34/34/34
f 24/24/24 34/34/34 35/35/35
f 35/35/35 34/34/34 36/36/36
f 36/36/36 34/34/34 37/37/37
f 37/37/37 34/34/34 38/38/38
f 38/38/38 34/34/34 39/39/39
f 33/33/33 25/25/25 40/40/40
f 33/33/33 41/41/41 34/34/34
f 33/33/33 40/40/40 41/41/41
f 34/34/34 42/42/42 39/39/39
f 34/34/34 41/41/41 42/42/42
f 41/41/41 40/40/40 43/43/43
f 41/41/41 43/43/43 42/42/42
f 39/39/39 42/42/42 44/44/44
f 44/44/44 42/42/42 45/45/45
f 42/42/42 43/43/43 46/46/46
f 42/42/42 46/46/46 45/45/45
f 45/45/45 46/46/46 47/47/47
f 47/47/47 46/46/46 48/48/48
f 48/48/48 46/46/46 49/49/49
f 49/49/49 46/46/46 50/50/50
f 50/50/50 46/46/46 51/51/51
f 51/51/51 46/46/46 52/52/52
f 40/40/40 25/25/25 53/53/53
f 40/40/40 54/54/54 43/43/43
f 40/40/40 53/53/53 54/54/54
f 53/53/53 25/25/25 55/55/55
f 53/53/53 55/55/55 54/54/54
f 55/55/55 25/25/25 56/56/56
f 25/25/25 32/32/32 56/56/56
f 55/55/55 56/56/56 54/54/54
f 32/32/32 57/57/57 56/56/56
f 57/57/57 58/58/58 56/56/56
f 58/58/58 59/59/59 56/56/56
f 56/56/56 60/60/60 54/54/54
f 56/56/56 59/59/59 61/61/61
f 56/56/56 61/61/61 60/60/60
f 60/60/60 62/62/62 54/54/54
f 60/60/60 61/61/61 62/62/62
f 59/59/59 63/63/63 61/61/61
f 63/63/63 64/64/64 61/61/61
f 64/64/64 65/65/65 61/61/61
f 65/65/65 66/66/66 61/61/61
f 66/66/66 67/67/67 61/61/61
f 67/67/67 68/68/68 61/61/61
f 61/61/61 69/69/69 62/62/62
f 61/61/61 68/68/68 69/69/69
f 68/68/68 70/70/70 69/69/69
f 70/70/70 71/71/71 69/69/69
f 71/71/71 72/72/72 69/69/69
f 54/54/54 73/73/73 43/43/43
f 54/54/54 62/62/62 74/74/74
f 54/54/54 74/74/74 73/73/73
f 69/69/69 72/72/72 75/75/75
f 72/72/72 76/76/76 75/75/75
f 76/76/76 77/77/77 75/75/75
f 77/77/77 78/78/78 75/75/75
f 78/78/78 79/79/79 75/75/75
f 79/79/79 80/80/80 75/75/75
f 80/80/80 81/81/81 75/75/75
f 81/81/81 82/82/82 75/75/75
f 82/82/82 83/83/83 75/75/75
f 83/83/83 84/84/84 75/75/75
f 84/84/84 85/85/85 75/75/75
f 69/69/69 86/86/86 62/62/62
f 69/69/69 75/75/75 86/86/86
f 62/62/62 87/87/87 74/74/74
f 62/62/62 86/86/86 87/87/87
f 74/74/74 88/88/88 73/73/73
f 74/74/74 87/87/87 89/89/89
f 74/74/74 89/89/89 88/88/88
f 88/88/88 90/90/90 73/73/73
f 88/88/88 89/89/89 90/90/90
f 73/73/73 91/91/91 92/92/92
f 73/73/73 90/90/90 91/91/91
f 86/86/86 75/75/75 93/93/93
f 86/86/86 94/94/94 87/87/87
f 86/86/86 93/93/93 94/94/94
f 93/93/93 75/75/75 95/95/95
f 93/93/93 95/95/95 94/94/94
f 75/75/75 85/85/85 96/96/96
f 75/75/75 96/96/96 95/95/95
f 85/85/85 97/97/97 96/96/96
f 97/97/97 98/98/98 96/96/96
f 96/96/96 99/99/99 95/95/95
f 96/96/96 98/98/98 99/99/99
f 99/99/99 100/100/100 95/95/95
f 100/100/100 101/101/101 95/95/95
f 95/95/95 102/102/102 94/94/94
f 95/95/95 101/101/101 102/102/102
f 101/101/101 103/103/103 102/102/102
f 103/103/103 104/104/104 102/102/102
f 104/104/104 105/105/105 102/102/102
f 102/102/102 106/106/106 94/94/94
f 102/102/102 105/105/105 106/106/106
f 105/105/105 107/107/107 106/106/106
f 87/87/87 108/108/108 89/89/89
f 87/87/87 94/94/94 108/108/108
f 90/90/90 109/109/109 110/110/110
f 90/90/90 110/110/110 91/91/91
f 90/90/90 89/89/89 109/109/109
f 89/89/89 108/108/108 111/111/111
f 89/89/89 111/111/111 109/109/109
f 108/108/108 94/94/94 112/112/112
f 108/108/108 112/112/112 111/111/111
f 94/94/94 106/106/106 113/113/113
f 94/94/94 113/113/113 112/112/112
f 106/106/106 107/107/107 114/114/114
f 106/106/106 114/114/114 113/113/113
f 107/107/107 115/115/115 114/114/114
f 115/115/115 116/116/116 114/114/114
f 116/116/116 117/117/117 114/114/114
f 117/117/117 118/118/118 114/114/114
f 118/118/118 119/119/119 114/114/114
f 114/114/114 120/120/120 113/113/113
f 114/114/114 119/119/119 120/120/120
f 119/119/119 121/121/121 120/120/120
f 121/121/121 122/122/122 120/120/120
f 122/122/122 123/123/123 120/120/120
f 123/123/123 124/124/124 120/120/120
f 120/120/120 125/125/125 113/113/113
f 113/113/113 125/125/125 112/112/112
f 120/120/120 124/124/124 125/125/125
f 124/124/124 126/126/126 125/125/125
f 112/112/112 127/127/127 111/111/111
f 112/112/112 125/125/125 127/127/127
f 109/109/109 128/128/128 110/110/110
f 109/109/109 111/111/111 129/129/129
f 109/109/109 129/129/129 128/128/128
f 125/125/125 126/126/126 130/130/130
f 126/126/126 131/131/131 130/130/130
f 131/131/131 132/132/132 130/130/130
f 132/132/132 133/133/133 130/130/130
f 130/130/130 134/134/134 125/125/125
f 125/125/125 134/134/134 127/127/127
f 130/130/130 133/133/133 134/134/134
f 133/133/133 135/135/135 134/134/134
f 135/135/135 136/136/136 134/134/134
f 136/136/136 137/137/137 134/134/134
f 128/128/128 138/138/138 110/110/110
f 128/128/128 129/129/129 139/139/139
f 128/128/128 139/139/139 138/138/138
f 127/127/127 140/140/140 111/111/111
f 127/127/127 134/134/134 141/141/141
f 127/127/127 141/141/141 140/140/140
f 140/140/140 142/142/142 111/111/111
f 142/142/142 140/140/140 143/143/143
f 143/143/143 140/140/140 144/144/144
f 140/140/140 141/141/141 144/144/144
f 144/144/144 141/141/141 145/145/145
f 145/145/145 141/141/141 146/146/146
f 146/146/146 141/141/141 147/147/147
f 147/147/147 141/141/141 148/148/148
f 148/148/148 141/141/141 149/149/149
f 141/141/141 134/134/134 149/149/149
f 149/149/149 134/134/134 150/150/150
f 150/150/150 134/134/134 151/151/151
f 151/151/151 134/134/134 152/152/152
f 152/152/152 134/134/134 153/153/153
f 153/153/153 134/134/134 154/154/154
f 154/154/154 134/134/134 155/155/155
f 155/155/155 134/134/134 156/156/156
f 134/134/134 137/137/137 156/156/156
f 156/156/156 137/137/137 157/157/157
f 142/142/142 158/158/158 159/159/159
f 159/159/159 160/160/160 129/129/129
f 159/159/159 158/158/158 160/160/160
f 160/160/160 161/161/161 162/162/162
f 161/161/161 163/163/163 162/162/162
f 162/162/162 164/164/164 139/139/139
f 162/162/162 163/163/163 164/164/164
f 164/164/164 165/165/165 139/139/139
f 165/165/165 166/166/166 139/139/139
f 166/166/166 167/167/167 139/139/139
f 167/167/167 168/168/168 139/139/139
f 168/168/168 169/169/169 139/139/139
f 169/169/169 170/170/170 139/139/139
f 139/139/139 170/170/170 171/171/171
f 170/170/170 172/172/172 171/171/171
f 172/172/172 173/173/173 171/171/171
f 174/174/174 171/171/171 175/175/175
f 171/171/171 173/173/173 176/176/176
f 173/173/173 177/177/177 176/176/176
f 177/177/177 178/178/178 176/176/176
f 178/178/178 179/179/179 176/176/176
f 179/179/179 180/180/180 176/176/176
f 180/180/180 181/181/181 176/176/176
f 176/176/176 182/182/182 171/171/171
f 171/171/171 182/182/182 175/175/175
f 176/176/176 181/181/181 182/182/182
f 181/181/181 183/183/183 182/182/182
f 183/183/183 184/184/184 182/182/182
f 184/184/184 185/185/185 182/182/182
f 182/182/182 186/186/186 175/175/175
f 175/175/175 186/186/186 187/187/187
f 187/187/187 186/186/186 188/188/188
f 182/182/182 185/185/185 189/189/189
f 182/182/182 189/189/189 186/186/186
f 185/185/185 190/190/190 189/189/189
f 190/190/190 191/191/191 189/189/189
f 191/191/191 192/192/192 189/189/189
f 189/189/189 193/193/193 186/186/186
f 189/189/189 192/192/192 193/193/193
f 186/186/186 194/194/194 188/188/188
f 186/186/186 193/193/193 194/194/194
f 194/194/194 195/195/195 188/188/188
f 195/195/195 194/194/194 193/193/193

