g Plane001

usemtl water.png

v 0 3 -300
vn 0 0 0
vt 0 299.9999
v 0 3 0
vn 0 0 0
vt 0 0
v 300 3 -300
vn 0 0 0
vt 299.9999 299.9999
v 300 3 0
vn 0 0 0
vt 299.9999 0

f 1/1/1 2/2/2 3/3/3
f 4/4/4 3/3/3 2/2/2

g TerrainMesh

usemtl image_x09_y07.png

v 0 16.7181 -300.02
vn 0.07086176 0.9999382 0.02362059
vt 0.0004880528 0.9995016
v 0 16.5077 -290.342
vn 0.07086176 0.9999382 0.03149412
vt 0.0004880528 0.9672902
v 9.67806 15.9933 -300.02
vn 0.07873529 0.9999382 0.02362059
vt 0.03273004 0.9995016
v 9.67806 15.4829 -280.664
vn 0.05511471 0.9999382 0.02362059
vt 0.03273004 0.9350482
v 0 16.0672 -280.664
vn 0.06298824 0.9999382 0.05511471
vt 0.0004880528 0.9350482
v 0 15.4852 -270.986
vn 0.04724118 0.9999382 0.04724118
vt 0.0004880528 0.9028367
v 0 15.0919 -261.308
vn 0.03149412 0.9999382 0.03149412
vt 0.0004880528 0.8705947
v 19.3561 15.1296 -300.02
vn 0.06298824 0.9999382 0.00787353
vt 0.06494153 0.9995016
v 38.7123 13.7651 -261.308
vn 0.05511471 0.9999382 0.01574706
vt 0.129395 0.8705947
v 0 14.9877 -251.63
vn 0.03936765 0.9999382 0.00787353
vt 0.0004880528 0.8383832
v 48.3903 13.4945 -290.342
vn 0.05511471 0.9999382 0.01574706
vt 0.161637 0.9672902
v 29.0342 14.4918 -300.02
vn 0.06298824 0.9999382 -0.02362059
vt 0.09718352 0.9995016
v 38.7123 13.906 -300.02
vn 0.05511471 0.9999382 -0.00787353
vt 0.129395 0.9995016
v 48.3903 13.4498 -300.02
vn 0.03936765 0.9999382 -0.00787353
vt 0.161637 0.9995016
v 58.0684 13.1517 -300.02
vn 0.03149412 0.9999382 0
vt 0.1938485 0.9995016
v 67.7464 12.8393 -300.02
vn 0.05511471 0.9999382 0.02362059
vt 0.2260905 0.9995016
v 58.0684 12.5696 -232.274
vn 0.05511471 0.9999382 0
vt 0.1938485 0.7739298
v 0 15.1 -241.952
vn 0.04724118 0.9999382 -0.00787353
vt 0.0004880528 0.8061413
v 0 15.1546 -232.274
vn 0.04724118 0.9999382 0.00787353
vt 0.0004880528 0.7739298
v 0 15.0217 -222.595
vn 0.04724118 0.9999382 0.00787353
vt 0.0004880528 0.7416878
v 0 14.9743 -212.917
vn 0.03936765 0.9999382 -0.00787353
vt 0.0004880528 0.7094763
v 77.4245 11.1069 -261.308
vn 0.07873529 0.9999382 0.01574706
vt 0.2583019 0.8705947
v 87.1026 11.216 -280.664
vn 0.08660883 0.9920647 0.02362059
vt 0.2905439 0.9350482
v 77.4245 12.2135 -300.02
vn 0.07873529 0.9999382 0.00787353
vt 0.2583019 0.9995016
v 87.1026 11.239 -300.02
vn 0.1417235 0.9920647 -0.00787353
vt 0.2905439 0.9995016
v 87.1026 10.1881 -232.274
vn 0.1102294 0.9920647 0.01574706
vt 0.2905439 0.7739298
v 116.137 7.23157 -270.986
vn 0.1181029 0.9920647 0.01574706
vt 0.3872089 0.9028367
v 116.137 7.16561 -280.664
vn 0.1495971 0.9920647 -0.02362059
vt 0.3872089 0.9350482
v 96.7806 9.52988 -300.02
vn 0.1732177 0.9841912 -0.05511471
vt 0.3227554 0.9995016
v 106.459 7.82396 -300.02
vn 0.1653441 0.9841912 -0.04724118
vt 0.3549974 0.9995016
v 116.137 6.2214 -300.02
vn 0.1259765 0.9920647 -0.03149412
vt 0.3872089 0.9995016
v 125.815 6.02035 -270.986
vn 0.07086176 0.9999382 0
vt 0.4194509 0.9028367
v 125.815 5.49833 -300.02
vn 0.07086176 0.9999382 -0.01574706
vt 0.4194509 0.9995016
v 135.493 4.79227 -300.02
vn 0.06298824 0.9999382 -0.02362059
vt 0.4516624 0.9995016
v 116.137 6.30562 -232.274
vn 0.08660883 0.9999382 0.00787353
vt 0.3872089 0.7739298
v 96.7806 8.64449 -222.595
vn 0.1023559 0.9920647 0
vt 0.3227554 0.7416878
v 183.883 2.32982 -280.664
vn 0.04724118 0.9999382 -0.00787353
vt 0.6127808 0.9350482
v 145.171 4.13628 -300.02
vn 0.06298824 0.9999382 -0.03149412
vt 0.4838739 0.9995016
v 154.849 3.60786 -300.02
vn 0.05511471 0.9999382 -0.01574706
vt 0.5161158 0.9995016
v 164.527 3.07737 -300.02
vn 0.04724118 0.9999382 -0.00787353
vt 0.5483273 0.9995016
v 174.205 2.63936 -300.02
vn 0.04724118 0.9999382 -0.00787353
vt 0.5805693 0.9995016
v 183.883 2.20972 -300.02
vn 0.03936765 0.9999382 -0.00787353
vt 0.6127808 0.9995016
v 193.561 1.82321 -300.02
vn 0.03149412 0.9999382 -0.00787353
vt 0.6450228 0.9995016
v 164.527 3.46395 -222.595
vn 0.04724118 0.9999382 -0.00787353
vt 0.5483273 0.7416878
v 125.815 5.87772 -212.917
vn 0.07086176 0.9999382 -0.00787353
vt 0.4194509 0.7094763
v 67.7464 11.8939 -212.917
vn 0.09448235 0.9920647 0.00787353
vt 0.2260905 0.7094763
v 87.1026 9.53602 -203.239
vn 0.09448235 0.9920647 0
vt 0.2905439 0.6772343
v 58.0684 12.1878 -203.239
vn 0.07873529 0.9999382 0
vt 0.1938485 0.6772343
v 164.527 3.81212 -174.205
vn 0.04724118 0.9999382 -0.00787353
vt 0.5483273 0.5805693
v 116.137 6.74171 -193.561
vn 0.08660883 0.9999382 -0.00787353
vt 0.3872089 0.6450228
v 77.4245 10.9298 -183.883
vn 0.1023559 0.9920647 -0.02362059
vt 0.2583019 0.6127808
v 222.595 1.40449 -212.917
vn 0.03149412 0.9999382 -0.00787353
vt 0.7416878 0.7094763
v 222.595 1.9527 -145.171
vn 0.03149412 0.9999382 -0.01574706
vt 0.7416878 0.4838739
v 58.0684 12.5696 -232.274
vn 0.05511471 0.9999382 0
vt 0.1938485 0.7739298
v 29.0342 14.3598 -174.205
vn 0.03936765 0.9999382 -0.00787353
vt 0.09718352 0.5805693
v 0 14.9743 -212.917
vn 0.03936765 0.9999382 -0.00787353
vt 0.0004880528 0.7094763
v 0 14.9937 -203.239
vn 0.02362059 0.9999382 0
vt 0.0004880528 0.6772343
v 0 15.0379 -193.561
vn 0.02362059 0.9999382 0
vt 0.0004880528 0.6450228
v 0 14.9428 -183.883
vn 0.01574706 0.9999382 0
vt 0.0004880528 0.6127808
v 48.3903 13.1623 -183.883
vn 0.06298824 0.9999382 -0.03149412
vt 0.161637 0.6127808
v 125.815 6.33127 -174.205
vn 0.06298824 0.9999382 0
vt 0.4194509 0.5805693
v 154.849 4.37514 -145.171
vn 0.04724118 0.9999382 -0.01574706
vt 0.5161158 0.4838739
v 116.137 7.04406 -164.527
vn 0.1181029 0.9920647 -0.01574706
vt 0.3872089 0.5483273
v 116.137 6.7786 -145.171
vn 0.09448235 0.9920647 0
vt 0.3872089 0.4838739
v 77.4245 11.9464 -164.527
vn 0.09448235 0.9920647 -0.04724118
vt 0.2583019 0.5483273
v 77.4245 12.6446 -145.171
vn 0.1259765 0.9920647 -0.00787353
vt 0.2583019 0.4838739
v 48.3903 14.5347 -145.171
vn 0.03149412 0.9999382 -0.03149412
vt 0.161637 0.4838739
v 58.0684 14.2679 -145.171
vn 0.06298824 0.9999382 -0.03936765
vt 0.1938485 0.4838739
v 58.0684 14.9566 -116.137
vn 0.1023559 0.9920647 -0.00787353
vt 0.1938485 0.3872089
v 19.3561 14.7028 -164.527
vn 0.01574706 0.9999382 -0.00787353
vt 0.06494153 0.5483273
v 0 14.9482 -174.205
vn 0.00787353 0.9999382 0.00787353
vt 0.0004880528 0.5805693
v 0 14.7986 -164.527
vn 0.00787353 0.9999382 -0.00787353
vt 0.0004880528 0.5483273
v 0 15.0047 -154.849
vn 0.01574706 0.9999382 -0.02362059
vt 0.0004880528 0.5161158
v 0 15.1933 -145.171
vn 0.01574706 0.9999382 -0.02362059
vt 0.0004880528 0.4838739
v 0 15.4408 -135.493
vn 0.00787353 0.9999382 -0.03936765
vt 0.0004880528 0.4516624
v 0 15.8854 -125.815
vn 0.00787353 0.9999382 -0.04724118
vt 0.0004880528 0.4194509
v 48.3903 15.904 -116.137
vn 0.03936765 0.9999382 0
vt 0.161637 0.3872089
v 0 16.423 -116.137
vn 0.00787353 0.9999382 -0.04724118
vt 0.0004880528 0.3872089
v 0 16.8077 -106.459
vn 0.01574706 0.9999382 -0.02362059
vt 0.0004880528 0.3549974
v 0 16.8448 -96.7806
vn 0.02362059 0.9999382 0.00787353
vt 0.0004880528 0.3227554
v 125.815 6.66811 -106.459
vn 0.08660883 0.9920647 -0.02362059
vt 0.4194509 0.3549974
v 96.7806 9.46699 -125.815
vn 0.1417235 0.9920647 -0.02362059
vt 0.3227554 0.4194509
v 87.1026 11.4812 -116.137
vn 0.1259765 0.9920647 -0.01574706
vt 0.2905439 0.3872089
v 77.4245 12.7007 -87.1026
vn 0.1023559 0.9920647 0.03149412
vt 0.2583019 0.2905439
v 116.137 8.51739 -87.1026
vn 0.1023559 0.9920647 0.00787353
vt 0.3872089 0.2905439
v 145.171 6.00868 -87.1026
vn 0.03936765 0.9999382 -0.01574706
vt 0.4838739 0.2905439
v 58.0684 13.3217 -67.7464
vn 0.07086176 0.9999382 0.03936765
vt 0.1938485 0.2260905
v 96.7806 9.34684 -67.7464
vn 0.09448235 0.9920647 0.03936765
vt 0.3227554 0.2260905
v 19.3561 16.2544 -87.1026
vn 0.02362059 0.9999382 0.03936765
vt 0.06494153 0.2905439
v 0 16.4346 -87.1026
vn 0.00787353 0.9999382 0.05511471
vt 0.0004880528 0.2905439
v 0 15.8395 -77.4245
vn 0.00787353 0.9999382 0.06298824
vt 0.0004880528 0.2583019
v 0 15.2178 -67.7464
vn 0 0.9999382 0.05511471
vt 0.0004880528 0.2260905
v 0 14.8401 -58.0684
vn -0.01574706 0.9999382 0.03936765
vt 0.0004880528 0.1938485
v 0 14.5116 -48.3903
vn 0.01574706 0.9999382 0.04724118
vt 0.0004880528 0.161637
v 29.0342 14.9281 -67.7464
vn 0.04724118 0.9999382 0.04724118
vt 0.09718352 0.2260905
v 19.3561 13.6566 -38.7123
vn 0.03936765 0.9999382 0.03936765
vt 0.06494153 0.129395
v 58.0684 13.2191 -58.0684
vn 0.07086176 0.9920647 0.05511471
vt 0.1938485 0.1938485
v 0 14.1462 -38.7123
vn 0.02362059 0.9999382 0.03149412
vt 0.0004880528 0.129395
v 0 13.9205 -29.0342
vn 0.01574706 0.9999382 0.01574706
vt 0.0004880528 0.09718352
v 0 13.9167 -19.3561
vn 0.01574706 0.9999382 0
vt 0.0004880528 0.06494153
v 0 13.8846 -9.67806
vn 0.03149412 0.9999382 0.00787353
vt 0.0004880528 0.03273004
v 0 13.7006 0
vn 0.02362059 0.9999382 0.00787353
vt 0.0004880528 0.0004880528
v 9.67806 13.5333 0
vn 0.03936765 0.9999382 0.01574706
vt 0.03273004 0.0004880528
v 19.3561 13.0141 0
vn 0.06298824 0.9999382 0.01574706
vt 0.06494153 0.0004880528
v 29.0342 12.3252 0
vn 0.07086176 0.9999382 0.01574706
vt 0.09718352 0.0004880528
v 38.7123 11.6603 0
vn 0.06298824 0.9999382 0.01574706
vt 0.129395 0.0004880528
v 135.493 6.18867 -67.7464
vn 0.03936765 0.9999382 0.00787353
vt 0.4516624 0.2260905
v 116.137 7.09311 -48.3903
vn 0.06298824 0.9999382 0.02362059
vt 0.3872089 0.161637
v 96.7806 9.32883 -58.0684
vn 0.09448235 0.9920647 0.05511471
vt 0.3227554 0.1938485
v 87.1026 8.68515 -38.7123
vn 0.09448235 0.9920647 0.05511471
vt 0.2905439 0.129395
v 48.3903 12.63 -38.7123
vn 0.07086176 0.9999382 0.04724118
vt 0.161637 0.129395
v 77.4245 9.50681 -9.67806
vn 0.06298824 0.9999382 0.01574706
vt 0.2583019 0.03273004
v 48.3903 11.1608 0
vn 0.04724118 0.9999382 -0.03149412
vt 0.161637 0.0004880528
v 58.0684 10.7606 0
vn 0.03936765 0.9999382 -0.04724118
vt 0.1938485 0.0004880528
v 67.7464 10.3323 0
vn 0.03936765 0.9999382 -0.04724118
vt 0.2260905 0.0004880528
v 77.4245 9.96294 0
vn 0.01574706 0.9999382 -0.04724118
vt 0.2583019 0.0004880528
v 87.1026 9.97354 0
vn 0.02362059 0.9999382 -0.07086176
vt 0.2905439 0.0004880528
v 174.205 5.59753 -67.7464
vn 0.02362059 0.9999382 -0.01574706
vt 0.5805693 0.2260905
v 145.171 6.00868 -87.1026
vn 0.03936765 0.9999382 -0.01574706
vt 0.4838739 0.2905439
v 145.171 6.23316 -29.0342
vn 0.01574706 0.9999382 -0.01574706
vt 0.4838739 0.09718352
v 96.7806 7.56276 -29.0342
vn 0.03936765 0.9999382 -0.01574706
vt 0.3227554 0.09718352
v 87.1026 8.31988 -29.0342
vn 0.1102294 0.9920647 0.01574706
vt 0.2905439 0.09718352
v 87.1026 8.42887 -19.3561
vn 0.04724118 0.9999382 -0.07086176
vt 0.2905439 0.06494153
v 135.493 7.17539 -9.67806
vn 0.02362059 0.9999382 -0.05511471
vt 0.4516624 0.03273004
v 96.7806 9.6692 0
vn 0.03149412 0.9999382 -0.07873529
vt 0.3227554 0.0004880528
v 106.459 9.41879 0
vn 0.04724118 0.9920647 -0.09448235
vt 0.3549974 0.0004880528
v 116.137 8.79824 0
vn 0.04724118 0.9920647 -0.08660883
vt 0.3872089 0.0004880528
v 125.815 8.29028 0
vn 0.03149412 0.9999382 -0.07873529
vt 0.4194509 0.0004880528
v 135.493 8.14805 0
vn 0.01574706 0.9920647 -0.1023559
vt 0.4516624 0.0004880528
v 145.171 8.04655 0
vn -0.01574706 0.9999382 -0.07873529
vt 0.4838739 0.0004880528
v 154.849 6.73637 -19.3561
vn -0.01574706 0.9999382 -0.06298824
vt 0.5161158 0.06494153
v 154.849 8.35267 0
vn -0.00787353 0.9999382 -0.08660883
vt 0.5161158 0.0004880528
v 164.527 8.25048 0
vn 0 0.9999382 -0.07873529
vt 0.5483273 0.0004880528
v 174.205 8.37533 0
vn -0.03149412 0.9999382 -0.06298824
vt 0.5805693 0.0004880528
v 183.883 6.10855 -38.7123
vn 0 0.9999382 -0.04724118
vt 0.6127808 0.129395
v 183.883 8.90082 0
vn -0.02362059 0.9999382 -0.07086176
vt 0.6127808 0.0004880528
v 193.561 8.78166 0
vn 0.02362059 0.9999382 -0.07873529
vt 0.6450228 0.0004880528
v 203.239 6.11996 -29.0342
vn 0.03936765 0.9999382 -0.05511471
vt 0.6772343 0.09718352
v 203.239 8.65664 0
vn 0.03149412 0.9920647 -0.08660883
vt 0.6772343 0.0004880528
v 212.917 8.17766 0
vn 0.06298824 0.9920647 -0.09448235
vt 0.7094763 0.0004880528
v 222.595 7.47048 0
vn 0.09448235 0.9920647 -0.1102294
vt 0.7416878 0.0004880528
v 232.274 6.39758 0
vn 0.05511471 0.9999382 -0.06298824
vt 0.7739298 0.0004880528
v 183.883 4.96338 -87.1026
vn 0.03149412 0.9999382 -0.02362059
vt 0.6127808 0.2905439
v 154.849 4.37514 -145.171
vn 0.04724118 0.9999382 -0.01574706
vt 0.5161158 0.4838739
v 222.595 1.9527 -145.171
vn 0.03149412 0.9999382 -0.01574706
vt 0.7416878 0.4838739
v 222.595 3.76951 -67.7464
vn 0.03936765 0.9999382 -0.03149412
vt 0.7416878 0.2260905
v 251.63 5.09301 -9.67806
vn 0.03936765 0.9999382 -0.03936765
vt 0.8383832 0.03273004
v 270.986 2.50124 -58.0684
vn 0.03149412 0.9999382 -0.03149412
vt 0.9028367 0.1938485
v 241.952 5.93686 0
vn 0.05511471 0.9999382 -0.03149412
vt 0.8061413 0.0004880528
v 251.63 5.34071 0
vn 0.05511471 0.9999382 -0.02362059
vt 0.8383832 0.0004880528
v 261.308 4.85777 0
vn 0.04724118 0.9999382 -0.02362059
vt 0.8705947 0.0004880528
v 270.986 4.3586 0
vn 0.04724118 0.9999382 -0.01574706
vt 0.9028367 0.0004880528
v 280.664 3.71316 -9.67806
vn 0.03936765 0.9999382 -0.02362059
vt 0.9350482 0.03273004
v 280.664 3.84637 0
vn 0.05511471 0.9999382 -0.01574706
vt 0.9350482 0.0004880528
v 290.342 3.30201 0
vn 0.04724118 0.9999382 -0.00787353
vt 0.9672902 0.0004880528
v 300.02 2.86921 0
vn 0.04724118 0.9999382 -0.00787353
vt 0.9995016 0.0004880528
v 300.02 2.76479 -9.67806
vn 0.04724118 0.9999382 -0.01574706
vt 0.9995016 0.03273004
v 300.02 2.60798 -19.3561
vn 0.04724118 0.9999382 -0.01574706
vt 0.9995016 0.06494153
v 300.02 2.40215 -29.0342
vn 0.04724118 0.9999382 -0.02362059
vt 0.9995016 0.09718352
v 300.02 2.20767 -38.7123
vn 0.03149412 0.9999382 -0.03149412
vt 0.9995016 0.129395
v 300.02 1.92373 -48.3903
vn 0.03149412 0.9999382 -0.03149412
vt 0.9995016 0.161637
v 300.02 1.66207 -58.0684
vn 0.03149412 0.9999382 -0.02362059
vt 0.9995016 0.1938485
v 300.02 1.44516 -67.7464
vn 0.03149412 0.9999382 -0.01574706
vt 0.9995016 0.2260905
v 300.02 1.28496 -77.4245
vn 0.02362059 0.9999382 -0.02362059
vt 0.9995016 0.2583019
v 300.02 1.13206 -87.1026
vn 0.02362059 0.9999382 -0.01574706
vt 0.9995016 0.2905439
v 300.02 0.967056 -96.7806
vn 0.02362059 0.9999382 -0.01574706
vt 0.9995016 0.3227554
v 300.02 0.85594 -106.459
vn 0.01574706 0.9999382 -0.00787353
vt 0.9995016 0.3549974
v 300.02 0.778586 -116.137
vn 0.02362059 0.9999382 -0.01574706
vt 0.9995016 0.3872089
v 300.02 0.579144 -125.815
vn 0.02362059 0.9999382 -0.02362059
vt 0.9995016 0.4194509
v 290.342 0.577592 -135.493
vn 0.02362059 0.9999382 -0.01574706
vt 0.9672902 0.4516624
v 270.986 0.728991 -154.849
vn 0.02362059 0.9999382 -0.00787353
vt 0.9028367 0.5161158
v 261.308 0.81622 -174.205
vn 0.02362059 0.9999382 -0.00787353
vt 0.8705947 0.5805693
v 232.274 1.28716 -203.239
vn 0.02362059 0.9999382 -0.00787353
vt 0.7739298 0.6772343
v 222.595 1.40449 -212.917
vn 0.03149412 0.9999382 -0.00787353
vt 0.7416878 0.7094763
v 241.952 0.956929 -222.595
vn 0.02362059 0.9999382 -0.00787353
vt 0.8061413 0.7416878
v 241.952 0.944475 -232.274
vn 0.02362059 0.9999382 0
vt 0.8061413 0.7739298
v 183.883 2.32982 -280.664
vn 0.04724118 0.9999382 -0.00787353
vt 0.6127808 0.9350482
v 222.595 1.26714 -261.308
vn 0.03149412 0.9999382 -0.00787353
vt 0.7416878 0.8705947
v 212.917 1.43304 -280.664
vn 0.03149412 0.9999382 -0.00787353
vt 0.7094763 0.9350482
v 212.917 1.30398 -290.342
vn 0.03149412 0.9999382 -0.00787353
vt 0.7094763 0.9672902
v 193.561 1.82321 -300.02
vn 0.03149412 0.9999382 -0.00787353
vt 0.6450228 0.9995016
v 203.239 1.54656 -300.02
vn 0.02362059 0.9999382 0
vt 0.6772343 0.9995016
v 212.917 1.2957 -300.02
vn 0.02362059 0.9999382 0
vt 0.7094763 0.9995016
v 222.595 1.0595 -300.02
vn 0.02362059 0.9999382 0
vt 0.7416878 0.9995016
v 232.274 0.863997 -300.02
vn 0.02362059 0.9999382 -0.00787353
vt 0.7739298 0.9995016

f 5/5/5 6/6/6 7/7/7
f 7/7/7 6/6/6 8/8/8
f 6/6/6 9/9/9 8/8/8
f 9/9/9 10/10/10 8/8/8
f 10/10/10 11/11/11 8/8/8
f 7/7/7 8/8/8 12/12/12
f 8/8/8 11/11/11 13/13/13
f 11/11/11 14/14/14 13/13/13
f 8/8/8 15/15/15 12/12/12
f 8/8/8 13/13/13 15/15/15
f 12/12/12 15/15/15 16/16/16
f 16/16/16 15/15/15 17/17/17
f 17/17/17 15/15/15 18/18/18
f 18/18/18 15/15/15 19/19/19
f 19/19/19 15/15/15 20/20/20
f 13/13/13 14/14/14 21/21/21
f 14/14/14 22/22/22 21/21/21
f 22/22/22 23/23/23 21/21/21
f 23/23/23 24/24/24 21/21/21
f 24/24/24 25/25/25 21/21/21
f 13/13/13 26/26/26 15/15/15
f 13/13/13 21/21/21 26/26/26
f 15/15/15 27/27/27 20/20/20
f 15/15/15 26/26/26 27/27/27
f 20/20/20 27/27/27 28/28/28
f 28/28/28 27/27/27 29/29/29
f 26/26/26 21/21/21 30/30/30
f 26/26/26 31/31/31 27/27/27
f 26/26/26 30/30/30 31/31/31
f 27/27/27 32/32/32 29/29/29
f 27/27/27 31/31/31 32/32/32
f 29/29/29 32/32/32 33/33/33
f 33/33/33 32/32/32 34/34/34
f 34/34/34 32/32/32 35/35/35
f 32/32/32 31/31/31 36/36/36
f 32/32/32 36/36/36 35/35/35
f 35/35/35 36/36/36 37/37/37
f 37/37/37 36/36/36 38/38/38
f 31/31/31 30/30/30 39/39/39
f 31/31/31 39/39/39 36/36/36
f 30/30/30 21/21/21 40/40/40
f 30/30/30 40/40/40 39/39/39
f 36/36/36 41/41/41 38/38/38
f 38/38/38 41/41/41 42/42/42
f 42/42/42 41/41/41 43/43/43
f 43/43/43 41/41/41 44/44/44
f 44/44/44 41/41/41 45/45/45
f 45/45/45 41/41/41 46/46/46
f 46/46/46 41/41/41 47/47/47
f 36/36/36 39/39/39 48/48/48
f 36/36/36 48/48/48 41/41/41
f 39/39/39 40/40/40 49/49/49
f 39/39/39 49/49/49 48/48/48
f 40/40/40 21/21/21 50/50/50
f 40/40/40 51/51/51 49/49/49
f 40/40/40 50/50/50 51/51/51
f 50/50/50 21/21/21 52/52/52
f 50/50/50 52/52/52 51/51/51
f 49/49/49 53/53/53 48/48/48
f 49/49/49 51/51/51 54/54/54
f 49/49/49 54/54/54 53/53/53
f 51/51/51 52/52/52 55/55/55
f 51/51/51 55/55/55 54/54/54
f 48/48/48 56/56/56 41/41/41
f 48/48/48 53/53/53 57/57/57
f 48/48/48 57/57/57 56/56/56
f 52/52/52 58/58/58 59/59/59
f 58/58/58 60/60/60 59/59/59
f 60/60/60 61/61/61 59/59/59
f 61/61/61 62/62/62 59/59/59
f 62/62/62 63/63/63 59/59/59
f 52/52/52 64/64/64 55/55/55
f 52/52/52 59/59/59 64/64/64
f 54/54/54 65/65/65 53/53/53
f 53/53/53 66/66/66 57/57/57
f 53/53/53 65/65/65 66/66/66
f 54/54/54 55/55/55 67/67/67
f 54/54/54 67/67/67 65/65/65
f 65/65/65 68/68/68 66/66/66
f 65/65/65 67/67/67 68/68/68
f 55/55/55 64/64/64 69/69/69
f 55/55/55 69/69/69 67/67/67
f 67/67/67 70/70/70 68/68/68
f 67/67/67 69/69/69 70/70/70
f 64/64/64 59/59/59 71/71/71
f 64/64/64 71/71/71 69/69/69
f 69/69/69 72/72/72 70/70/70
f 69/69/69 71/71/71 72/72/72
f 72/72/72 73/73/73 70/70/70
f 72/72/72 71/71/71 73/73/73
f 59/59/59 63/63/63 74/74/74
f 59/59/59 74/74/74 71/71/71
f 63/63/63 75/75/75 74/74/74
f 74/74/74 76/76/76 71/71/71
f 74/74/74 75/75/75 76/76/76
f 76/76/76 77/77/77 71/71/71
f 77/77/77 78/78/78 71/71/71
f 78/78/78 79/79/79 71/71/71
f 79/79/79 80/80/80 71/71/71
f 71/71/71 81/81/81 73/73/73
f 71/71/71 80/80/80 81/81/81
f 80/80/80 82/82/82 81/81/81
f 82/82/82 83/83/83 81/81/81
f 83/83/83 84/84/84 81/81/81
f 68/68/68 85/85/85 66/66/66
f 68/68/68 70/70/70 86/86/86
f 68/68/68 86/86/86 85/85/85
f 86/86/86 70/70/70 87/87/87
f 70/70/70 73/73/73 87/87/87
f 86/86/86 87/87/87 85/85/85
f 73/73/73 81/81/81 88/88/88
f 73/73/73 88/88/88 87/87/87
f 87/87/87 89/89/89 85/85/85
f 87/87/87 88/88/88 89/89/89
f 85/85/85 90/90/90 66/66/66
f 85/85/85 89/89/89 90/90/90
f 88/88/88 81/81/81 91/91/91
f 88/88/88 92/92/92 89/89/89
f 88/88/88 91/91/91 92/92/92
f 81/81/81 84/84/84 93/93/93
f 84/84/84 94/94/94 93/93/93
f 94/94/94 95/95/95 93/93/93
f 95/95/95 96/96/96 93/93/93
f 96/96/96 97/97/97 93/93/93
f 97/97/97 98/98/98 93/93/93
f 81/81/81 99/99/99 91/91/91
f 81/81/81 93/93/93 99/99/99
f 93/93/93 98/98/98 100/100/100
f 93/93/93 100/100/100 99/99/99
f 99/99/99 101/101/101 91/91/91
f 91/91/91 101/101/101 92/92/92
f 99/99/99 100/100/100 101/101/101
f 98/98/98 102/102/102 100/100/100
f 102/102/102 103/103/103 100/100/100
f 103/103/103 104/104/104 100/100/100
f 104/104/104 105/105/105 100/100/100
f 105/105/105 106/106/106 100/100/100
f 106/106/106 107/107/107 100/100/100
f 107/107/107 108/108/108 100/100/100
f 108/108/108 109/109/109 100/100/100
f 109/109/109 110/110/110 100/100/100
f 89/89/89 111/111/111 90/90/90
f 89/89/89 92/92/92 112/112/112
f 89/89/89 112/112/112 111/111/111
f 92/92/92 101/101/101 113/113/113
f 92/92/92 113/113/113 112/112/112
f 113/113/113 101/101/101 114/114/114
f 113/113/113 114/114/114 112/112/112
f 101/101/101 100/100/100 115/115/115
f 101/101/101 115/115/115 114/114/114
f 115/115/115 100/100/100 116/116/116
f 100/100/100 110/110/110 116/116/116
f 115/115/115 116/116/116 114/114/114
f 110/110/110 117/117/117 116/116/116
f 117/117/117 118/118/118 116/116/116
f 118/118/118 119/119/119 116/116/116
f 119/119/119 120/120/120 116/116/116
f 120/120/120 121/121/121 116/116/116
f 111/111/111 122/122/122 123/123/123
f 111/111/111 112/112/112 124/124/124
f 111/111/111 124/124/124 122/122/122
f 112/112/112 114/114/114 125/125/125
f 112/112/112 125/125/125 124/124/124
f 114/114/114 116/116/116 126/126/126
f 114/114/114 126/126/126 125/125/125
f 126/126/126 116/116/116 127/127/127
f 116/116/116 121/121/121 127/127/127
f 126/126/126 127/127/127 125/125/125
f 125/125/125 128/128/128 124/124/124
f 125/125/125 127/127/127 128/128/128
f 121/121/121 129/129/129 127/127/127
f 129/129/129 130/130/130 127/127/127
f 127/127/127 131/131/131 128/128/128
f 127/127/127 130/130/130 131/131/131
f 131/131/131 132/132/132 128/128/128
f 132/132/132 133/133/133 128/128/128
f 133/133/133 134/134/134 128/128/128
f 128/128/128 135/135/135 124/124/124
f 128/128/128 134/134/134 135/135/135
f 134/134/134 136/136/136 135/135/135
f 136/136/136 137/137/137 135/135/135
f 137/137/137 138/138/138 135/135/135
f 135/135/135 139/139/139 124/124/124
f 124/124/124 139/139/139 122/122/122
f 135/135/135 138/138/138 139/139/139
f 138/138/138 140/140/140 139/139/139
f 140/140/140 141/141/141 139/139/139
f 139/139/139 142/142/142 122/122/122
f 139/139/139 141/141/141 142/142/142
f 141/141/141 143/143/143 142/142/142
f 143/143/143 144/144/144 142/142/142
f 144/144/144 145/145/145 142/142/142
f 145/145/145 146/146/146 142/142/142
f 122/122/122 147/147/147 123/123/123
f 123/123/123 147/147/147 148/148/148
f 148/148/148 147/147/147 149/149/149
f 147/147/147 122/122/122 150/150/150
f 122/122/122 142/142/142 150/150/150
f 147/147/147 150/150/150 149/149/149
f 142/142/142 146/146/146 151/151/151
f 142/142/142 151/151/151 150/150/150
f 150/150/150 152/152/152 149/149/149
f 150/150/150 151/151/151 152/152/152
f 146/146/146 153/153/153 151/151/151
f 153/153/153 154/154/154 151/151/151
f 154/154/154 155/155/155 151/151/151
f 155/155/155 156/156/156 151/151/151
f 151/151/151 157/157/157 152/152/152
f 151/151/151 156/156/156 157/157/157
f 156/156/156 158/158/158 157/157/157
f 158/158/158 159/159/159 157/157/157
f 159/159/159 160/160/160 157/157/157
f 160/160/160 161/161/161 157/157/157
f 161/161/161 162/162/162 157/157/157
f 162/162/162 163/163/163 157/157/157
f 157/157/157 164/164/164 152/152/152
f 157/157/157 163/163/163 164/164/164
f 164/164/164 165/165/165 152/152/152
f 165/165/165 166/166/166 152/152/152
f 166/166/166 167/167/167 152/152/152
f 152/152/152 168/168/168 149/149/149
f 152/152/152 167/167/167 168/168/168
f 168/168/168 169/169/169 149/149/149
f 169/169/169 170/170/170 149/149/149
f 170/170/170 171/171/171 149/149/149
f 171/171/171 172/172/172 149/149/149
f 172/172/172 173/173/173 149/149/149
f 173/173/173 174/174/174 149/149/149
f 174/174/174 175/175/175 149/149/149
f 175/175/175 176/176/176 149/149/149
f 176/176/176 177/177/177 149/149/149
f 149/149/149 177/177/177 178/178/178
f 177/177/177 179/179/179 178/178/178
f 179/179/179 180/180/180 178/178/178
f 178/178/178 180/180/180 181/181/181
f 180/180/180 182/182/182 181/181/181
f 182/182/182 183/183/183 181/181/181
f 183/183/183 184/184/184 181/181/181
f 181/181/181 184/184/184 185/185/185
f 185/185/185 184/184/184 186/186/186
f 186/186/186 184/184/184 187/187/187
f 187/187/187 184/184/184 188/188/188
f 188/188/188 184/184/184 189/189/189

