g Plane001

usemtl water.png

v 0 3 -300
vn 0 0 0
vt 0 299.9999
v 0 3 0
vn 0 0 0
vt 0 0
v 300 3 -300
vn 0 0 0
vt 299.9999 299.9999
v 300 3 0
vn 0 0 0
vt 299.9999 0

f 1/1/1 2/2/2 3/3/3
f 4/4/4 3/3/3 2/2/2

g TerrainMesh

usemtl image_x04_y09.png

v 0 18.6777 0
vn 0.1732284 0.9291344 -0.3228348
vt 0.0004880528 0.0004880528
v 9.67806 16.8994 0
vn 0.1968505 0.9291344 -0.3070868
vt 0.03273004 0.0004880528
v 0 15.2996 -9.67806
vn 0.1496064 0.9370084 -0.3149608
vt 0.0004880528 0.03273004
v 9.67806 7.39182 -29.0342
vn 0.1417324 0.9527565 -0.2834647
vt 0.03273004 0.09718352
v 19.3561 14.3086 0
vn 0.2047245 0.9291344 -0.2992128
vt 0.06494153 0.0004880528
v 0 11.9701 -19.3561
vn 0.1259843 0.9370084 -0.3228348
vt 0.0004880528 0.06494153
v 29.0342 13.4278 0
vn 0.1102363 0.9448825 -0.3149608
vt 0.09718352 0.0004880528
v 19.3561 11.3547 -9.67806
vn 0.1023623 0.9606305 -0.2598427
vt 0.06494153 0.03273004
v 0 8.72846 -29.0342
vn 0.1338584 0.9527565 -0.2834647
vt 0.0004880528 0.09718352
v 38.7123 12.0085 0
vn 0.1023623 0.9606305 -0.2677167
vt 0.129395 0.0004880528
v 0 6.11209 -38.7123
vn 0.09448825 0.9763785 -0.1889765
vt 0.0004880528 0.129395
v 48.3903 11.1329 0
vn 0.08661422 0.9606305 -0.2519687
vt 0.161637 0.0004880528
v 58.0684 7.6762 -9.67806
vn 0.06299216 0.9763785 -0.2125985
vt 0.1938485 0.03273004
v 19.3561 6.03971 -29.0342
vn 0.0393701 0.9921266 -0.1181103
vt 0.06494153 0.09718352
v 0 5.06168 -48.3903
vn 0.04724412 0.9921266 -0.09448825
vt 0.0004880528 0.161637
v 58.0684 10.2245 0
vn 0.07086618 0.9685045 -0.2519687
vt 0.1938485 0.0004880528
v 0 4.20406 -58.0684
vn 0.0393701 0.9921266 -0.0787402
vt 0.0004880528 0.1938485
v 67.7464 9.76399 0
vn 0.02362206 0.9842526 -0.1889765
vt 0.2260905 0.0004880528
v 29.0342 3.03741 -58.0684
vn 0.02362206 1.000001 -0.05511814
vt 0.09718352 0.1938485
v 77.4245 9.09122 0
vn 0.0393701 0.9842526 -0.1732284
vt 0.2583019 0.0004880528
v 67.7464 4.51935 -29.0342
vn 0.02362206 0.9921266 -0.1417324
vt 0.2260905 0.09718352
v 0 3.77199 -67.7464
vn 0.04724412 1.000001 -0.05511814
vt 0.0004880528 0.2260905
v 87.1026 9.15153 0
vn 0.04724412 0.9842526 -0.1889765
vt 0.2905439 0.0004880528
v 87.1026 7.28325 -9.67806
vn 0.03149608 0.9842526 -0.1496064
vt 0.2905439 0.03273004
v 87.1026 3.05183 -38.7123
vn 0.01574804 1.000001 -0.08661422
vt 0.2905439 0.129395
v 0 3.1243 -77.4245
vn 0.04724412 1.000001 -0.06299216
vt 0.0004880528 0.2583019
v 96.7806 8.18603 0
vn 0.08661422 0.9763785 -0.1811025
vt 0.3227554 0.0004880528
v 116.137 1.90607 -58.0684
vn 0.00787402 1.000001 -0.03149608
vt 0.3872089 0.1938485
v 0 2.5906 -87.1026
vn 0.0393701 1.000001 -0.05511814
vt 0.0004880528 0.2905439
v 106.459 7.39289 0
vn 0.0393701 0.9921266 -0.1338584
vt 0.3549974 0.0004880528
v 135.493 2.89987 -38.7123
vn 0 1.000001 -0.0787402
vt 0.4516624 0.129395
v 0 2.07763 -96.7806
vn 0.03149608 1.000001 -0.04724412
vt 0.0004880528 0.3227554
v 116.137 7.58542 0
vn 0.01574804 0.9921266 -0.1496064
vt 0.3872089 0.0004880528
v 106.459 4.88643 -19.3561
vn 0.02362206 0.9921266 -0.1181103
vt 0.3549974 0.06494153
v 96.7806 0.619001 -125.815
vn 0.00787402 1.000001 -0.02362206
vt 0.3227554 0.4194509
v 77.4245 0.789603 -125.815
vn 0.00787402 1.000001 -0.02362206
vt 0.2583019 0.4194509
v 0 1.60885 -106.459
vn 0.01574804 1.000001 -0.0393701
vt 0.0004880528 0.3549974
v 125.815 7.06963 0
vn 0.03149608 0.9921266 -0.1338584
vt 0.4194509 0.0004880528
v 174.205 3.18494 -38.7123
vn -0.00787402 1.000001 -0.06299216
vt 0.5805693 0.129395
v 106.459 0.580422 -125.815
vn 0.00787402 1.000001 -0.02362206
vt 0.3549974 0.4194509
v 58.0684 1.03549 -116.137
vn 0 1.000001 -0.02362206
vt 0.1938485 0.3872089
v 48.3903 1.90019 -77.4245
vn 0.00787402 1.000001 -0.02362206
vt 0.161637 0.2583019
v 0 1.27824 -116.137
vn 0.01574804 1.000001 -0.0393701
vt 0.0004880528 0.3872089
v 135.493 6.53462 0
vn 0.01574804 0.9921266 -0.09448825
vt 0.4516624 0.0004880528
v 135.493 5.62354 -9.67806
vn 0 0.9921266 -0.1023623
vt 0.4516624 0.03273004
v 212.917 2.59747 -48.3903
vn 0.00787402 1.000001 -0.07086618
vt 0.7094763 0.161637
v 183.883 1.01371 -77.4245
vn 0 1.000001 -0.03149608
vt 0.6127808 0.2583019
v 116.137 0.511249 -125.815
vn 0.01574804 1.000001 -0.02362206
vt 0.3872089 0.4194509
v 48.3903 0.849981 -125.815
vn 0 1.000001 -0.02362206
vt 0.161637 0.4194509
v 0 1.02207 -125.815
vn 0.00787402 1.000001 -0.02362206
vt 0.0004880528 0.4194509
v 145.171 6.81648 0
vn -0.02362206 0.9921266 -0.1181103
vt 0.4838739 0.0004880528
v 164.527 4.8195 -19.3561
vn -0.01574804 0.9921266 -0.1023623
vt 0.5483273 0.06494153
v 222.595 0.900527 -77.4245
vn 0 1.000001 -0.0393701
vt 0.7416878 0.2583019
v 135.493 0.681633 -106.459
vn 0.00787402 1.000001 -0.02362206
vt 0.4516624 0.3549974
v 125.815 0.737575 -106.459
vn 0.01574804 1.000001 -0.02362206
vt 0.4194509 0.3549974
v 38.7123 0.822049 -125.815
vn 0.00787402 1.000001 -0.02362206
vt 0.129395 0.4194509
v 0 0.826117 -135.493
vn 0 1.000001 -0.02362206
vt 0.0004880528 0.4516624
v 154.849 7.25923 0
vn -0.02362206 0.9921266 -0.1338584
vt 0.5161158 0.0004880528
v 183.883 4.17855 -29.0342
vn -0.00787402 0.9921266 -0.1023623
vt 0.6127808 0.09718352
v 241.952 4.93967 -19.3561
vn 0.01574804 0.9921266 -0.1102363
vt 0.8061413 0.06494153
v 251.63 2.79968 -38.7123
vn 0.01574804 1.000001 -0.06299216
vt 0.8383832 0.129395
v 183.883 0.111074 -125.815
vn 0.00787402 1.000001 -0.01574804
vt 0.6127808 0.4194509
v 164.527 0.138144 -125.815
vn 0 1.000001 -0.01574804
vt 0.5483273 0.4194509
v 145.171 0.433108 -116.137
vn 0.00787402 1.000001 -0.02362206
vt 0.4838739 0.3872089
v 19.3561 0.768907 -135.493
vn 0.00787402 1.000001 -0.02362206
vt 0.06494153 0.4516624
v 9.67806 0.788107 -135.493
vn 0 1.000001 -0.02362206
vt 0.03273004 0.4516624
v 0 0.644616 -145.171
vn 0 1.000001 -0.01574804
vt 0.0004880528 0.4838739
v 164.527 7.20272 0
vn -0.00787402 0.9921266 -0.1259843
vt 0.5483273 0.0004880528
v 174.205 7.40136 0
vn -0.02362206 0.9921266 -0.1181103
vt 0.5805693 0.0004880528
v 183.883 7.61116 0
vn -0.00787402 0.9921266 -0.1181103
vt 0.6127808 0.0004880528
v 270.986 0.422416 -87.1026
vn 0.00787402 1.000001 -0.03149608
vt 0.9028367 0.2905439
v 232.274 7.78085 0
vn 0 0.9921266 -0.1496064
vt 0.7739298 0.0004880528
v 241.952 8.0006 0
vn 0.0393701 0.9842526 -0.1574804
vt 0.8061413 0.0004880528
v 193.561 0.00969343 -125.815
vn 0.00787402 1.000001 -0.01574804
vt 0.6450228 0.4194509
v 154.849 0.201512 -125.815
vn 0.00787402 1.000001 -0.02362206
vt 0.5161158 0.4194509
v 145.171 0.221794 -125.815
vn 0 1.000001 -0.02362206
vt 0.4838739 0.4194509
v 193.561 7.68555 0
vn -0.01574804 0.9921266 -0.1417324
vt 0.6450228 0.0004880528
v 212.917 6.57377 -9.67806
vn 0 0.9921266 -0.1338584
vt 0.7094763 0.03273004
v 232.274 0.163241 -106.459
vn 0 1.000001 -0.01574804
vt 0.7739298 0.3549974
v 183.883 1.01371 -77.4245
vn 0 1.000001 -0.03149608
vt 0.6127808 0.2583019
v 300.02 4.70626 -9.67806
vn 0.01574804 0.9921266 -0.1023623
vt 0.9995016 0.03273004
v 300.02 3.7209 -19.3561
vn 0.02362206 0.9921266 -0.1023623
vt 0.9995016 0.06494153
v 222.595 7.96426 0
vn 0.01574804 0.9842526 -0.1574804
vt 0.7416878 0.0004880528
v 251.63 7.02119 0
vn 0.07086618 0.9842526 -0.1417324
vt 0.8383832 0.0004880528
v 203.239 7.85517 0
vn -0.01574804 0.9921266 -0.1496064
vt 0.6772343 0.0004880528
v 212.917 0.00180102 -125.815
vn 0 1.000001 -0.00787402
vt 0.7094763 0.4194509
v 300.02 0.981692 -58.0684
vn 0.02362206 1.000001 -0.0393701
vt 0.9995016 0.1938485
v 300.02 0.607178 -67.7464
vn 0.01574804 1.000001 -0.03149608
vt 0.9995016 0.2260905
v 300.02 2.72656 -29.0342
vn 0.01574804 0.9921266 -0.08661422
vt 0.9995016 0.09718352
v 261.308 4.37811 -19.3561
vn 0.02362206 0.9921266 -0.1102363
vt 0.8705947 0.06494153
v 300.02 5.98465 0
vn 0.01574804 0.9921266 -0.1181103
vt 0.9995016 0.0004880528
v 212.917 8.04177 0
vn -0.00787402 0.9921266 -0.1496064
vt 0.7094763 0.0004880528
v 261.308 6.68348 0
vn 0.02362206 0.9921266 -0.1181103
vt 0.8705947 0.0004880528
v 241.952 4.93967 -19.3561
vn 0.01574804 0.9921266 -0.1102363
vt 0.8061413 0.06494153
v 251.63 2.79968 -38.7123
vn 0.01574804 1.000001 -0.06299216
vt 0.8383832 0.129395
v 261.308 0.00175242 -116.137
vn 0 1.000001 -0.00787402
vt 0.8705947 0.3872089
v 222.595 0.00044643 -125.815
vn 0 1.000001 -0.00787402
vt 0.7416878 0.4194509
v 300.02 0.444402 -77.4245
vn 0.00787402 1.000001 -0.01574804
vt 0.9995016 0.2583019
v 300.02 1.45511 -48.3903
vn 0.01574804 1.000001 -0.05511814
vt 0.9995016 0.161637
v 300.02 2.00822 -38.7123
vn 0.01574804 1.000001 -0.06299216
vt 0.9995016 0.129395
v 290.342 6.00354 0
vn 0.01574804 0.9921266 -0.1102363
vt 0.9672902 0.0004880528
v 270.986 6.6591 0
vn 0.02362206 0.9921266 -0.1259843
vt 0.9028367 0.0004880528
v 280.664 0 -116.137
vn 0 1.000001 -0.01574804
vt 0.9350482 0.3872089
v 270.986 0.422416 -87.1026
vn 0.00787402 1.000001 -0.03149608
vt 0.9028367 0.2905439
v 300.02 0.276419 -87.1026
vn 0.00787402 1.000001 -0.01574804
vt 0.9995016 0.2905439
v 280.664 6.29922 0
vn 0.03149608 0.9921266 -0.1338584
vt 0.9350482 0.0004880528
v 290.342 0 -116.137
vn 0.00787402 1.000001 -0.00787402
vt 0.9672902 0.3872089
v 300.02 0.0843285 -96.7806
vn 0.00787402 1.000001 -0.01574804
vt 0.9995016 0.3227554
v 300.02 0 -106.459
vn 0.00787402 1.000001 -0.00787402
vt 0.9995016 0.3549974
v 300.02 0 -116.137
vn 0 1.000001 0
vt 0.9995016 0.3872089

f 5/5/5 6/6/6 7/7/7
f 6/6/6 8/8/8 7/7/7
f 6/6/6 9/9/9 8/8/8
f 7/7/7 8/8/8 10/10/10
f 9/9/9 11/11/11 12/12/12
f 9/9/9 12/12/12 8/8/8
f 10/10/10 8/8/8 13/13/13
f 11/11/11 14/14/14 12/12/12
f 8/8/8 15/15/15 13/13/13
f 14/14/14 16/16/16 17/17/17
f 12/12/12 14/14/14 17/17/17
f 12/12/12 17/17/17 8/8/8
f 15/15/15 18/18/18 19/19/19
f 8/8/8 17/17/17 18/18/18
f 8/8/8 18/18/18 15/15/15
f 16/16/16 20/20/20 17/17/17
f 19/19/19 18/18/18 21/21/21
f 20/20/20 22/22/22 17/17/17
f 18/18/18 23/23/23 21/21/21
f 22/22/22 24/24/24 25/25/25
f 17/17/17 25/25/25 18/18/18
f 17/17/17 22/22/22 25/25/25
f 23/23/23 26/26/26 21/21/21
f 24/24/24 27/27/27 28/28/28
f 24/24/24 28/28/28 25/25/25
f 18/18/18 25/25/25 29/29/29
f 25/25/25 28/28/28 29/29/29
f 18/18/18 29/29/29 23/23/23
f 26/26/26 23/23/23 30/30/30
f 27/27/27 31/31/31 28/28/28
f 29/29/29 32/32/32 23/23/23
f 30/30/30 23/23/23 33/33/33
f 31/31/31 34/34/34 28/28/28
f 29/29/29 35/35/35 32/32/32
f 23/23/23 36/36/36 33/33/33
f 34/34/34 37/37/37 38/38/38
f 29/29/29 28/28/28 38/38/38
f 28/28/28 34/34/34 38/38/38
f 29/29/29 38/38/38 35/35/35
f 32/32/32 39/39/39 40/40/40
f 23/23/23 41/41/41 36/36/36
f 37/37/37 42/42/42 38/38/38
f 35/35/35 43/43/43 32/32/32
f 39/39/39 32/32/32 44/44/44
f 40/40/40 45/45/45 46/46/46
f 40/40/40 46/46/46 32/32/32
f 23/23/23 47/47/47 41/41/41
f 23/23/23 46/46/46 47/47/47
f 23/23/23 32/32/32 46/46/46
f 42/42/42 48/48/48 49/49/49
f 38/38/38 42/42/42 49/49/49
f 38/38/38 49/49/49 35/35/35
f 43/43/43 50/50/50 51/51/51
f 44/44/44 32/32/32 52/52/52
f 45/45/45 53/53/53 46/46/46
f 47/47/47 46/46/46 54/54/54
f 48/48/48 55/55/55 49/49/49
f 35/35/35 56/56/56 43/43/43
f 49/49/49 55/55/55 56/56/56
f 49/49/49 56/56/56 35/35/35
f 50/50/50 57/57/57 51/51/51
f 32/32/32 58/58/58 59/59/59
f 32/32/32 59/59/59 52/52/52
f 32/32/32 43/43/43 51/51/51
f 32/32/32 51/51/51 58/58/58
f 53/53/53 60/60/60 46/46/46
f 54/54/54 46/46/46 61/61/61
f 55/55/55 62/62/62 56/56/56
f 50/50/50 63/63/63 64/64/64
f 43/43/43 63/63/63 50/50/50
f 43/43/43 56/56/56 63/63/63
f 57/57/57 50/50/50 65/65/65
f 50/50/50 64/64/64 65/65/65
f 51/51/51 66/66/66 67/67/67
f 58/58/58 51/51/51 68/68/68
f 60/60/60 69/69/69 46/46/46
f 61/61/61 70/70/70 71/71/71
f 70/70/70 46/46/46 69/69/69
f 46/46/46 70/70/70 61/61/61
f 62/62/62 72/72/72 56/56/56
f 63/63/63 73/73/73 74/74/74
f 73/73/73 56/56/56 72/72/72
f 56/56/56 73/73/73 63/63/63
f 57/57/57 65/65/65 75/75/75
f 64/64/64 76/76/76 77/77/77
f 66/66/66 51/51/51 78/78/78
f 67/67/67 79/79/79 51/51/51
f 68/68/68 79/79/79 80/80/80
f 79/79/79 68/68/68 51/51/51
f 74/74/74 81/81/81 82/82/82
f 63/63/63 74/74/74 82/82/82
f 63/63/63 82/82/82 64/64/64
f 57/57/57 83/83/83 84/84/84
f 84/84/84 83/83/83 78/78/78
f 57/57/57 75/75/75 83/83/83
f 65/65/65 85/85/85 86/86/86
f 76/76/76 82/82/82 87/87/87
f 76/76/76 64/64/64 82/82/82
f 77/77/77 88/88/88 64/64/64
f 81/81/81 89/89/89 82/82/82
f 78/78/78 83/83/83 90/90/90
f 75/75/75 91/91/91 92/92/92
f 65/65/65 86/86/86 93/93/93
f 85/85/85 94/94/94 95/95/95
f 85/85/85 65/65/65 94/94/94
f 87/87/87 82/82/82 96/96/96
f 96/96/96 82/82/82 89/89/89
f 88/88/88 97/97/97 98/98/98
f 98/98/98 94/94/94 99/99/99
f 98/98/98 97/97/97 94/94/94
f 83/83/83 100/100/100 101/101/101
f 101/101/101 90/90/90 83/83/83
f 75/75/75 92/92/92 102/102/102
f 91/91/91 99/99/99 103/103/103
f 91/91/91 75/75/75 99/99/99
f 93/93/93 104/104/104 99/99/99
f 99/99/99 104/104/104 103/103/103
f 95/95/95 94/94/94 105/105/105
f 97/97/97 106/106/106 94/94/94
f 100/100/100 83/83/83 107/107/107
f 83/83/83 108/108/108 107/107/107
f 102/102/102 109/109/109 108/108/108
f 105/105/105 94/94/94 110/110/110
f 110/110/110 94/94/94 106/106/106
f 107/107/107 108/108/108 111/111/111
f 109/109/109 112/112/112 108/108/108
f 111/111/111 113/113/113 114/114/114
f 113/113/113 108/108/108 112/112/112
f 108/108/108 113/113/113 111/111/111

