g Plane001

usemtl water.png

v 0 3 -300
vn 0 0 0
vt 0 299.9999
v 0 3 0
vn 0 0 0
vt 0 0
v 300 3 -300
vn 0 0 0
vt 299.9999 299.9999
v 300 3 0
vn 0 0 0
vt 299.9999 0

f 1/1/1 2/2/2 3/3/3
f 4/4/4 3/3/3 2/2/2

g TerrainMesh

usemtl shadowmap.png

v 0 5.98465 0
vn 0.03149608 0.9921266 -0.1338584
vt 0.0005049378 0.0005049378
v 9.67806 5.6609 0
vn 0.03149608 0.9921266 -0.1102363
vt 0.03272745 0.0005049378
v 0 4.70626 -9.67806
vn 0.01574804 0.9921266 -0.1102363
vt 0.0005049378 0.03272745
v 9.67806 4.64064 -9.67806
vn 0.02362206 0.9921266 -0.1023623
vt 0.03272745 0.03272745
v 19.3561 5.12539 0
vn 0.03149608 0.9921266 -0.08661422
vt 0.06494996 0.0005049378
v 0 3.7209 -19.3561
vn 0.01574804 0.9921266 -0.1023623
vt 0.0005049378 0.06494996
v 29.0342 5.00824 0
vn 0.02362206 0.9921266 -0.1023623
vt 0.09717247 0.0005049378
v 19.3561 4.31576 -9.67806
vn 0.03149608 0.9921266 -0.09448825
vt 0.06494996 0.03272745
v 9.67806 3.54674 -19.3561
vn 0.01574804 0.9921266 -0.1023623
vt 0.03272745 0.06494996
v 0 2.72656 -29.0342
vn 0.01574804 0.9921266 -0.09448825
vt 0.0005049378 0.09717247
v 38.7123 4.84667 0
vn 0.00787402 0.9921266 -0.1023623
vt 0.129395 0.0005049378
v 29.0342 3.90838 -9.67806
vn 0.02362206 0.9921266 -0.1023623
vt 0.09717247 0.03272745
v 9.67806 2.61394 -29.0342
vn 0.01574804 0.9921266 -0.08661422
vt 0.03272745 0.09717247
v 0 2.00822 -38.7123
vn 0.01574804 1.000001 -0.07086618
vt 0.0005049378 0.129395
v 48.3903 4.6577 0
vn 0.02362206 0.9921266 -0.09448825
vt 0.1616362 0.0005049378
v 38.7123 3.91943 -9.67806
vn 0.00787402 0.9921266 -0.09448825
vt 0.129395 0.03272745
v 19.3561 3.37253 -19.3561
vn 0.03149608 0.9921266 -0.09448825
vt 0.06494996 0.06494996
v 9.67806 1.81972 -38.7123
vn 0.01574804 1.000001 -0.06299216
vt 0.03272745 0.129395
v 0 1.45511 -48.3903
vn 0.01574804 1.000001 -0.05511814
vt 0.0005049378 0.1616362
v 58.0684 4.48047 0
vn 0.01574804 0.9921266 -0.1023623
vt 0.1938587 0.0005049378
v 48.3903 3.7098 -9.67806
vn 0.02362206 0.9921266 -0.09448825
vt 0.1616362 0.03272745
v 29.0342 3.03982 -19.3561
vn 0.01574804 0.9921266 -0.08661422
vt 0.09717247 0.06494996
v 9.67806 1.289 -48.3903
vn 0.01574804 1.000001 -0.04724412
vt 0.03272745 0.1616362
v 0 0.981692 -58.0684
vn 0.00787402 1.000001 -0.0393701
vt 0.0005049378 0.1938587
v 19.3561 2.41806 -29.0342
vn 0.02362206 1.000001 -0.08661422
vt 0.06494996 0.09717247
v 67.7464 4.35607 0
vn 0.01574804 0.9921266 -0.09448825
vt 0.2260812 0.0005049378
v 58.0684 3.49231 -9.67806
vn 0.00787402 0.9921266 -0.09448825
vt 0.1938587 0.03272745
v 38.7123 3.02092 -19.3561
vn 0.01574804 0.9921266 -0.08661422
vt 0.129395 0.06494996
v 9.67806 0.899278 -58.0684
vn 0.00787402 1.000001 -0.0393701
vt 0.03272745 0.1938587
v 0 0.607178 -67.7464
vn 0.00787402 1.000001 -0.03149608
vt 0.0005049378 0.2260812
v 29.0342 2.24458 -29.0342
vn 0.01574804 1.000001 -0.0787402
vt 0.09717247 0.09717247
v 19.3561 1.72902 -38.7123
vn 0.01574804 1.000001 -0.06299216
vt 0.06494996 0.129395
v 77.4245 4.07034 0
vn 0.01574804 0.9921266 -0.09448825
vt 0.2583037 0.0005049378
v 67.7464 3.48008 -9.67806
vn 0.01574804 0.9921266 -0.08661422
vt 0.2260812 0.03272745
v 48.3903 2.81494 -19.3561
vn 0.02362206 0.9921266 -0.08661422
vt 0.1616362 0.06494996
v 9.67806 0.571204 -67.7464
vn 0.00787402 1.000001 -0.03149608
vt 0.03272745 0.2260812
v 0 0.444402 -77.4245
vn 0.00787402 1.000001 -0.02362206
vt 0.0005049378 0.2583037
v 38.7123 2.13627 -29.0342
vn 0.01574804 1.000001 -0.0787402
vt 0.129395 0.09717247
v 29.0342 1.49522 -38.7123
vn 0.01574804 1.000001 -0.06299216
vt 0.09717247 0.129395
v 19.3561 1.19175 -48.3903
vn 0.01574804 1.000001 -0.04724412
vt 0.06494996 0.1616362
v 87.1026 4.10493 0
vn 0.02362206 0.9921266 -0.09448825
vt 0.2905262 0.0005049378
v 87.1026 3.1766 -9.67806
vn 0.01574804 0.9921266 -0.08661422
vt 0.2905262 0.03272745
v 77.4245 3.1977 -9.67806
vn 0.01574804 1.000001 -0.08661422
vt 0.2583037 0.03272745
v 67.7464 2.6541 -19.3561
vn 0.01574804 1.000001 -0.08661422
vt 0.2260812 0.06494996
v 58.0684 2.61453 -19.3561
vn 0.00787402 1.000001 -0.08661422
vt 0.1938587 0.06494996
v 9.67806 0.30798 -77.4245
vn 0.00787402 1.000001 -0.02362206
vt 0.03272745 0.2583037
v 0 0.276419 -87.1026
vn 0.01574804 1.000001 -0.01574804
vt 0.0005049378 0.2905262
v 38.7123 1.44653 -38.7123
vn 0.00787402 1.000001 -0.06299216
vt 0.129395 0.129395
v 29.0342 1.02305 -48.3903
vn 0.00787402 1.000001 -0.04724412
vt 0.09717247 0.1616362
v 19.3561 0.736933 -58.0684
vn 0.01574804 1.000001 -0.0393701
vt 0.06494996 0.1938587
v 96.7806 3.63823 0
vn 0.0393701 0.9921266 -0.08661422
vt 0.3227488 0.0005049378
v 48.3903 1.98913 -29.0342
vn 0.01574804 1.000001 -0.0787402
vt 0.1616362 0.09717247
v 77.4245 2.40216 -19.3561
vn 0.01574804 1.000001 -0.0787402
vt 0.2583037 0.06494996
v 9.67806 0.115592 -87.1026
vn 0.00787402 1.000001 -0.01574804
vt 0.03272745 0.2905262
v 0 0.0843285 -96.7806
vn 0.00787402 1.000001 -0.01574804
vt 0.0005049378 0.3227488
v 29.0342 0.627177 -58.0684
vn 0.00787402 1.000001 -0.03149608
vt 0.09717247 0.1938587
v 19.3561 0.439341 -67.7464
vn 0.00787402 1.000001 -0.02362206
vt 0.06494996 0.2260812
v 106.459 3.25522 0
vn 0.0393701 1.000001 -0.0787402
vt 0.35499 0.0005049378
v 96.7806 2.85486 -9.67806
vn 0.03149608 1.000001 -0.0787402
vt 0.3227488 0.03272745
v 67.7464 1.83203 -29.0342
vn 0.00787402 1.000001 -0.0787402
vt 0.2260812 0.09717247
v 58.0684 1.86907 -29.0342
vn 0.00787402 1.000001 -0.07086618
vt 0.1938587 0.09717247
v 48.3903 1.333 -38.7123
vn 0.01574804 1.000001 -0.06299216
vt 0.1616362 0.129395
v 9.67806 0.0378452 -96.7806
vn 0 1.000001 -0.00787402
vt 0.03272745 0.3227488
v 0 0 -106.459
vn 0 1.000001 -0.00787402
vt 0.0005049378 0.35499
v 38.7123 0.951041 -48.3903
vn 0.00787402 1.000001 -0.04724412
vt 0.129395 0.1616362
v 29.0342 0.377941 -67.7464
vn 0.00787402 1.000001 -0.02362206
vt 0.09717247 0.2260812
v 19.3561 0.266505 -77.4245
vn 0.00787402 1.000001 -0.01574804
vt 0.06494996 0.2583037
v 116.137 2.81308 0
vn 0.03149608 1.000001 -0.06299216
vt 0.3872125 0.0005049378
v 106.459 2.53995 -9.67806
vn 0.03149608 1.000001 -0.07086618
vt 0.35499 0.03272745
v 87.1026 2.34962 -19.3561
vn 0.01574804 1.000001 -0.0787402
vt 0.2905262 0.06494996
v 77.4245 1.7455 -29.0342
vn 0.00787402 1.000001 -0.07086618
vt 0.2583037 0.09717247
v 58.0684 1.1912 -38.7123
vn 0.00787402 1.000001 -0.06299216
vt 0.1938587 0.129395
v 9.67806 0 -106.459
vn 0 1.000001 0
vt 0.03272745 0.35499
v 0 0 -116.137
vn 0 1.000001 0
vt 0.0005049378 0.3872125
v 38.7123 0.574964 -58.0684
vn 0.00787402 1.000001 -0.03149608
vt 0.129395 0.1938587
v 19.3561 0.122249 -87.1026
vn 0 1.000001 -0.01574804
vt 0.06494996 0.2905262
v 125.815 2.6234 0
vn 0.03149608 1.000001 -0.06299216
vt 0.419435 0.0005049378
v 116.137 2.22543 -9.67806
vn 0.02362206 1.000001 -0.06299216
vt 0.3872125 0.03272745
v 96.7806 2.14301 -19.3561
vn 0.02362206 1.000001 -0.07086618
vt 0.3227488 0.06494996
v 77.4245 1.10558 -38.7123
vn 0.00787402 1.000001 -0.05511814
vt 0.2583037 0.129395
v 67.7464 1.0815 -38.7123
vn 0.00787402 1.000001 -0.05511814
vt 0.2260812 0.129395
v 48.3903 0.844311 -48.3903
vn 0.00787402 1.000001 -0.04724412
vt 0.1616362 0.1616362
v 19.3561 0 -96.7806
vn 0 1.000001 -0.00787402
vt 0.06494996 0.3227488
v 29.0342 0.207998 -77.4245
vn 0 1.000001 -0.01574804
vt 0.09717247 0.2583037
v 135.493 2.16473 0
vn 0.0393701 1.000001 -0.06299216
vt 0.4516575 0.0005049378
v 125.815 1.95996 -9.67806
vn 0.03149608 1.000001 -0.06299216
vt 0.419435 0.03272745
v 87.1026 1.62331 -29.0342
vn 0.01574804 1.000001 -0.07086618
vt 0.2905262 0.09717247
v 106.459 1.78443 -19.3561
vn 0.02362206 1.000001 -0.07086618
vt 0.35499 0.06494996
v 67.7464 0.661821 -48.3903
vn 0.00787402 1.000001 -0.0393701
vt 0.2260812 0.1616362
v 58.0684 0.757055 -48.3903
vn 0.00787402 1.000001 -0.0393701
vt 0.1938587 0.1616362
v 48.3903 0.435773 -58.0684
vn 0.00787402 1.000001 -0.03149608
vt 0.1616362 0.1938587
v 29.0342 0 -96.7806
vn 0 1.000001 -0.00787402
vt 0.09717247 0.3227488
v 38.7123 0.348512 -67.7464
vn 0.00787402 1.000001 -0.01574804
vt 0.129395 0.2260812
v 145.171 1.87581 0
vn 0.03149608 1.000001 -0.05511814
vt 0.48388 0.0005049378
v 135.493 1.63337 -9.67806
vn 0.03149608 1.000001 -0.05511814
vt 0.4516575 0.03272745
v 87.1026 0.905993 -38.7123
vn 0.01574804 1.000001 -0.05511814
vt 0.2905262 0.129395
v 116.137 1.65247 -19.3561
vn 0.02362206 1.000001 -0.06299216
vt 0.3872125 0.06494996
v 96.7806 1.46879 -29.0342
vn 0.02362206 1.000001 -0.07086618
vt 0.3227488 0.09717247
v 58.0684 0.443312 -58.0684
vn 0 1.000001 -0.02362206
vt 0.1938587 0.1938587
v 29.0342 0.132309 -87.1026
vn 0 1.000001 -0.01574804
vt 0.09717247 0.2905262
v 48.3903 0.263939 -67.7464
vn 0.00787402 1.000001 -0.01574804
vt 0.1616362 0.2260812
v 38.7123 0.195801 -77.4245
vn 0.00787402 1.000001 -0.01574804
vt 0.129395 0.2583037
v 154.849 1.51402 0
vn 0.02362206 1.000001 -0.0393701
vt 0.5161025 0.0005049378
v 145.171 1.3752 -9.67806
vn 0.02362206 1.000001 -0.04724412
vt 0.48388 0.03272745
v 77.4245 0.612542 -48.3903
vn 0.01574804 1.000001 -0.0393701
vt 0.2583037 0.1616362
v 125.815 1.31863 -19.3561
vn 0.03149608 1.000001 -0.05511814
vt 0.419435 0.06494996
v 106.459 1.20089 -29.0342
vn 0.01574804 1.000001 -0.05511814
vt 0.35499 0.09717247
v 38.7123 0.0372904 -87.1026
vn 0.00787402 1.000001 -0.00787402
vt 0.129395 0.2905262
v 67.7464 0.398229 -58.0684
vn 0.00787402 1.000001 -0.02362206
vt 0.2260812 0.1938587
v 58.0684 0.231126 -67.7464
vn 0 1.000001 -0.01574804
vt 0.1938587 0.2260812
v 164.527 1.29727 0
vn 0.02362206 1.000001 -0.0393701
vt 0.5483437 0.0005049378
v 154.849 1.19605 -9.67806
vn 0.02362206 1.000001 -0.0393701
vt 0.5161025 0.03272745
v 96.7806 0.818827 -38.7123
vn 0.01574804 1.000001 -0.05511814
vt 0.3227488 0.129395
v 87.1026 0.493736 -48.3903
vn 0.00787402 1.000001 -0.03149608
vt 0.2905262 0.1616362
v 135.493 1.09528 -19.3561
vn 0.02362206 1.000001 -0.04724412
vt 0.4516575 0.06494996
v 116.137 1.08672 -29.0342
vn 0.02362206 1.000001 -0.05511814
vt 0.3872125 0.09717247
v 38.7123 0 -96.7806
vn 0 1.000001 0
vt 0.129395 0.3227488
v 48.3903 0.108069 -77.4245
vn 0.00787402 1.000001 -0.01574804
vt 0.1616362 0.2583037
v 77.4245 0.24692 -58.0684
vn 0.00787402 1.000001 -0.02362206
vt 0.2583037 0.1938587
v 174.205 1.07561 0
vn 0.01574804 1.000001 -0.0393701
vt 0.5805662 0.0005049378
v 164.527 0.903867 -9.67806
vn 0.02362206 1.000001 -0.0393701
vt 0.5483437 0.03272745
v 96.7806 0.397405 -48.3903
vn 0.00787402 1.000001 -0.03149608
vt 0.3227488 0.1616362
v 145.171 0.910833 -19.3561
vn 0.01574804 1.000001 -0.04724412
vt 0.48388 0.06494996
v 125.815 0.848669 -29.0342
vn 0.02362206 1.000001 -0.04724412
vt 0.419435 0.09717247
v 106.459 0.702872 -38.7123
vn 0.00787402 1.000001 -0.04724412
vt 0.35499 0.129395
v 48.3903 0 -87.1026
vn 0 1.000001 -0.00787402
vt 0.1616362 0.2905262
v 67.7464 0.212491 -67.7464
vn 0.00787402 1.000001 -0.01574804
vt 0.2260812 0.2260812
v 58.0684 0.0435034 -77.4245
vn 0 1.000001 -0.01574804
vt 0.1938587 0.2583037
v 183.883 0.916003 0
vn 0.01574804 1.000001 -0.03149608
vt 0.6127887 0.0005049378
v 174.205 0.756476 -9.67806
vn 0.01574804 1.000001 -0.03149608
vt 0.5805662 0.03272745
v 87.1026 0.305818 -58.0684
vn 0 1.000001 -0.02362206
vt 0.2905262 0.1938587
v 154.849 0.761316 -19.3561
vn 0.02362206 1.000001 -0.0393701
vt 0.5161025 0.06494996
v 135.493 0.626147 -29.0342
vn 0.01574804 1.000001 -0.0393701
vt 0.4516575 0.09717247
v 116.137 0.565049 -38.7123
vn 0.01574804 1.000001 -0.0393701
vt 0.3872125 0.129395
v 58.0684 0 -87.1026
vn 0 1.000001 0
vt 0.1938587 0.2905262
v 77.4245 0.0453352 -67.7464
vn 0.00787402 1.000001 -0.01574804
vt 0.2583037 0.2260812
v 164.527 0.560887 -19.3561
vn 0.01574804 1.000001 -0.0393701
vt 0.5483437 0.06494996
v 106.459 0.38422 -48.3903
vn 0.00787402 1.000001 -0.02362206
vt 0.35499 0.1616362
v 87.1026 0.107829 -67.7464
vn 0 1.000001 -0.01574804
vt 0.2905262 0.2260812
v 145.171 0.485576 -29.0342
vn 0.01574804 1.000001 -0.0393701
vt 0.48388 0.09717247
v 125.815 0.445315 -38.7123
vn 0.01574804 1.000001 -0.03149608
vt 0.419435 0.129395
v 67.7464 0.0379946 -77.4245
vn 0.00787402 1.000001 -0.00787402
vt 0.2260812 0.2583037
v 154.849 0.332949 -29.0342
vn 0.01574804 1.000001 -0.03149608
vt 0.5161025 0.09717247
v 96.7806 0.21583 -58.0684
vn 0.00787402 1.000001 -0.01574804
vt 0.3227488 0.1938587
v 135.493 0.332343 -38.7123
vn 0.00787402 1.000001 -0.02362206
vt 0.4516575 0.129395
v 116.137 0.304901 -48.3903
vn 0.00787402 1.000001 -0.02362206
vt 0.3872125 0.1616362
v 87.1026 0 -77.4245
vn 0 1.000001 -0.00787402
vt 0.2905262 0.2583037
v 77.4245 0 -77.4245
vn 0 1.000001 -0.00787402
vt 0.2583037 0.2583037
v 67.7464 0 -87.1026
vn 0 1.000001 0
vt 0.2260812 0.2905262
v 164.527 0.235588 -29.0342
vn 0.00787402 1.000001 -0.03149608
vt 0.5483437 0.09717247
v 96.7806 0.0722427 -67.7464
vn 0.00787402 1.000001 -0.01574804
vt 0.3227488 0.2260812
v 145.171 0.238775 -38.7123
vn 0.01574804 1.000001 -0.02362206
vt 0.48388 0.129395
v 125.815 0.24618 -48.3903
vn 0.00787402 1.000001 -0.01574804
vt 0.419435 0.1616362
v 106.459 0.173489 -58.0684
vn 0.00787402 1.000001 -0.01574804
vt 0.35499 0.1938587
v 154.849 0.0906819 -38.7123
vn 0.01574804 1.000001 -0.02362206
vt 0.5161025 0.129395
v 96.7806 0 -77.4245
vn 0 1.000001 -0.00787402
vt 0.3227488 0.2583037
v 135.493 0.123238 -48.3903
vn 0.00787402 1.000001 -0.01574804
vt 0.4516575 0.1616362
v 116.137 0.130067 -58.0684
vn 0 1.000001 -0.01574804
vt 0.3872125 0.1938587
v 106.459 0 -67.7464
vn 0 1.000001 -0.01574804
vt 0.35499 0.2260812
v 125.815 0.140868 -58.0684
vn 0 1.000001 -0.01574804
vt 0.419435 0.1938587
v 125.815 0 -67.7464
vn 0 1.000001 -0.01574804
vt 0.419435 0.2260812

f 5/5/5 6/6/6 7/7/7
f 6/6/6 8/8/8 7/7/7
f 6/6/6 9/9/9 8/8/8
f 7/7/7 8/8/8 10/10/10
f 9/9/9 11/11/11 12/12/12
f 9/9/9 12/12/12 8/8/8
f 10/10/10 13/13/13 14/14/14
f 8/8/8 12/12/12 13/13/13
f 8/8/8 13/13/13 10/10/10
f 11/11/11 15/15/15 16/16/16
f 11/11/11 16/16/16 12/12/12
f 14/14/14 17/17/17 18/18/18
f 14/14/14 13/13/13 17/17/17
f 15/15/15 19/19/19 20/20/20
f 15/15/15 20/20/20 16/16/16
f 12/12/12 16/16/16 21/21/21
f 13/13/13 21/21/21 17/17/17
f 13/13/13 12/12/12 21/21/21
f 18/18/18 22/22/22 23/23/23
f 18/18/18 17/17/17 22/22/22
f 19/19/19 24/24/24 25/25/25
f 19/19/19 25/25/25 20/20/20
f 16/16/16 20/20/20 26/26/26
f 16/16/16 26/26/26 21/21/21
f 23/23/23 27/27/27 28/28/28
f 23/23/23 22/22/22 27/27/27
f 17/17/17 21/21/21 29/29/29
f 21/21/21 26/26/26 29/29/29
f 17/17/17 29/29/29 22/22/22
f 24/24/24 30/30/30 31/31/31
f 24/24/24 31/31/31 25/25/25
f 20/20/20 32/32/32 26/26/26
f 20/20/20 25/25/25 32/32/32
f 28/28/28 33/33/33 34/34/34
f 28/28/28 27/27/27 33/33/33
f 29/29/29 26/26/26 35/35/35
f 26/26/26 32/32/32 35/35/35
f 22/22/22 29/29/29 36/36/36
f 29/29/29 35/35/35 36/36/36
f 22/22/22 36/36/36 27/27/27
f 30/30/30 37/37/37 38/38/38
f 30/30/30 38/38/38 31/31/31
f 25/25/25 39/39/39 32/32/32
f 25/25/25 31/31/31 39/39/39
f 34/34/34 40/40/40 41/41/41
f 34/34/34 33/33/33 40/40/40
f 35/35/35 32/32/32 42/42/42
f 32/32/32 39/39/39 42/42/42
f 36/36/36 43/43/43 44/44/44
f 36/36/36 44/44/44 27/27/27
f 35/35/35 42/42/42 43/43/43
f 35/35/35 43/43/43 36/36/36
f 27/27/27 44/44/44 33/33/33
f 37/37/37 45/45/45 46/46/46
f 38/38/38 37/37/37 47/47/47
f 37/37/37 46/46/46 47/47/47
f 31/31/31 48/48/48 49/49/49
f 31/31/31 49/49/49 39/39/39
f 38/38/38 48/48/48 31/31/31
f 38/38/38 47/47/47 48/48/48
f 41/41/41 50/50/50 51/51/51
f 41/41/41 40/40/40 50/50/50
f 42/42/42 52/52/52 43/43/43
f 44/44/44 43/43/43 53/53/53
f 43/43/43 52/52/52 53/53/53
f 33/33/33 44/44/44 54/54/54
f 44/44/44 53/53/53 54/54/54
f 33/33/33 54/54/54 40/40/40
f 45/45/45 55/55/55 46/46/46
f 49/49/49 56/56/56 39/39/39
f 42/42/42 39/39/39 56/56/56
f 42/42/42 56/56/56 52/52/52
f 47/47/47 46/46/46 57/57/57
f 47/47/47 57/57/57 48/48/48
f 51/51/51 58/58/58 59/59/59
f 51/51/51 50/50/50 58/58/58
f 53/53/53 60/60/60 54/54/54
f 40/40/40 54/54/54 61/61/61
f 54/54/54 60/60/60 61/61/61
f 40/40/40 61/61/61 50/50/50
f 55/55/55 62/62/62 63/63/63
f 55/55/55 63/63/63 46/46/46
f 49/49/49 48/48/48 64/64/64
f 48/48/48 57/57/57 64/64/64
f 56/56/56 65/65/65 66/66/66
f 56/56/56 66/66/66 52/52/52
f 49/49/49 64/64/64 65/65/65
f 49/49/49 65/65/65 56/56/56
f 59/59/59 67/67/67 68/68/68
f 59/59/59 58/58/58 67/67/67
f 53/53/53 52/52/52 69/69/69
f 52/52/52 66/66/66 69/69/69
f 53/53/53 69/69/69 60/60/60
f 61/61/61 60/60/60 70/70/70
f 50/50/50 71/71/71 58/58/58
f 61/61/61 70/70/70 71/71/71
f 61/61/61 71/71/71 50/50/50
f 62/62/62 72/72/72 73/73/73
f 62/62/62 73/73/73 63/63/63
f 46/46/46 63/63/63 74/74/74
f 46/46/46 74/74/74 57/57/57
f 64/64/64 57/57/57 75/75/75
f 57/57/57 74/74/74 75/75/75
f 65/65/65 76/76/76 66/66/66
f 65/65/65 64/64/64 76/76/76
f 68/68/68 77/77/77 78/78/78
f 68/68/68 67/67/67 77/77/77
f 69/69/69 79/79/79 60/60/60
f 60/60/60 79/79/79 70/70/70
f 58/58/58 71/71/71 80/80/80
f 58/58/58 80/80/80 67/67/67
f 72/72/72 81/81/81 82/82/82
f 72/72/72 82/82/82 73/73/73
f 63/63/63 83/83/83 74/74/74
f 63/63/63 73/73/73 83/83/83
f 75/75/75 84/84/84 85/85/85
f 64/64/64 75/75/75 85/85/85
f 64/64/64 85/85/85 76/76/76
f 66/66/66 76/76/76 86/86/86
f 69/69/69 66/66/66 86/86/86
f 69/69/69 86/86/86 79/79/79
f 77/77/77 67/67/67 87/87/87
f 67/67/67 80/80/80 87/87/87
f 70/70/70 88/88/88 71/71/71
f 71/71/71 88/88/88 80/80/80
f 81/81/81 89/89/89 90/90/90
f 81/81/81 90/90/90 82/82/82
f 74/74/74 83/83/83 91/91/91
f 75/75/75 91/91/91 84/84/84
f 75/75/75 74/74/74 91/91/91
f 73/73/73 82/82/82 92/92/92
f 73/73/73 92/92/92 83/83/83
f 85/85/85 84/84/84 93/93/93
f 76/76/76 94/94/94 86/86/86
f 85/85/85 93/93/93 94/94/94
f 85/85/85 94/94/94 76/76/76
f 79/79/79 86/86/86 95/95/95
f 86/86/86 94/94/94 95/95/95
f 87/87/87 80/80/80 96/96/96
f 70/70/70 79/79/79 97/97/97
f 79/79/79 95/95/95 97/97/97
f 70/70/70 97/97/97 88/88/88
f 89/89/89 98/98/98 99/99/99
f 89/89/89 99/99/99 90/90/90
f 91/91/91 100/100/100 84/84/84
f 82/82/82 90/90/90 101/101/101
f 82/82/82 101/101/101 92/92/92
f 83/83/83 92/92/92 102/102/102
f 91/91/91 83/83/83 102/102/102
f 91/91/91 102/102/102 100/100/100
f 93/93/93 103/103/103 94/94/94
f 94/94/94 103/103/103 95/95/95
f 80/80/80 104/104/104 96/96/96
f 80/80/80 88/88/88 104/104/104
f 97/97/97 105/105/105 106/106/106
f 97/97/97 95/95/95 105/105/105
f 88/88/88 97/97/97 106/106/106
f 88/88/88 106/106/106 104/104/104
f 95/95/95 103/103/103 105/105/105
f 98/98/98 107/107/107 108/108/108
f 98/98/98 108/108/108 99/99/99
f 84/84/84 100/100/100 109/109/109
f 84/84/84 109/109/109 93/93/93
f 90/90/90 110/110/110 101/101/101
f 90/90/90 99/99/99 110/110/110
f 92/92/92 111/111/111 102/102/102
f 92/92/92 101/101/101 111/111/111
f 96/96/96 104/104/104 112/112/112
f 104/104/104 106/106/106 112/112/112
f 103/103/103 113/113/113 114/114/114
f 103/103/103 114/114/114 105/105/105
f 93/93/93 109/109/109 113/113/113
f 93/93/93 113/113/113 103/103/103
f 107/107/107 115/115/115 116/116/116
f 107/107/107 116/116/116 108/108/108
f 100/100/100 117/117/117 118/118/118
f 100/100/100 102/102/102 117/117/117
f 102/102/102 111/111/111 117/117/117
f 100/100/100 118/118/118 109/109/109
f 99/99/99 119/119/119 110/110/110
f 99/99/99 108/108/108 119/119/119
f 101/101/101 110/110/110 120/120/120
f 101/101/101 120/120/120 111/111/111
f 96/96/96 112/112/112 121/121/121
f 106/106/106 122/122/122 112/112/112
f 105/105/105 114/114/114 122/122/122
f 105/105/105 122/122/122 106/106/106
f 113/113/113 109/109/109 123/123/123
f 109/109/109 118/118/118 123/123/123
f 115/115/115 124/124/124 125/125/125
f 115/115/115 125/125/125 116/116/116
f 117/117/117 126/126/126 118/118/118
f 108/108/108 116/116/116 127/127/127
f 108/108/108 127/127/127 119/119/119
f 110/110/110 119/119/119 128/128/128
f 110/110/110 128/128/128 120/120/120
f 111/111/111 120/120/120 129/129/129
f 117/117/117 111/111/111 129/129/129
f 117/117/117 129/129/129 126/126/126
f 121/121/121 112/112/112 130/130/130
f 112/112/112 122/122/122 130/130/130
f 114/114/114 131/131/131 132/132/132
f 114/114/114 113/113/113 131/131/131
f 122/122/122 114/114/114 132/132/132
f 122/122/122 132/132/132 130/130/130
f 113/113/113 123/123/123 131/131/131
f 124/124/124 133/133/133 134/134/134
f 124/124/124 134/134/134 125/125/125
f 118/118/118 135/135/135 123/123/123
f 118/118/118 126/126/126 135/135/135
f 116/116/116 136/136/136 127/127/127
f 116/116/116 125/125/125 136/136/136
f 119/119/119 137/137/137 128/128/128
f 119/119/119 127/127/127 137/137/137
f 120/120/120 138/138/138 129/129/129
f 120/120/120 128/128/128 138/138/138
f 121/121/121 130/130/130 139/139/139
f 130/130/130 132/132/132 139/139/139
f 131/131/131 123/123/123 140/140/140
f 134/134/134 141/141/141 125/125/125
f 125/125/125 141/141/141 136/136/136
f 126/126/126 129/129/129 142/142/142
f 129/129/129 138/138/138 142/142/142
f 135/135/135 143/143/143 123/123/123
f 123/123/123 143/143/143 140/140/140
f 127/127/127 136/136/136 144/144/144
f 127/127/127 144/144/144 137/137/137
f 128/128/128 137/137/137 145/145/145
f 128/128/128 145/145/145 138/138/138
f 132/132/132 131/131/131 146/146/146
f 131/131/131 140/140/140 146/146/146
f 132/132/132 146/146/146 139/139/139
f 141/141/141 147/147/147 136/136/136
f 136/136/136 147/147/147 144/144/144
f 126/126/126 148/148/148 135/135/135
f 135/135/135 148/148/148 143/143/143
f 126/126/126 142/142/142 148/148/148
f 137/137/137 144/144/144 149/149/149
f 137/137/137 149/149/149 145/145/145
f 138/138/138 145/145/145 150/150/150
f 138/138/138 150/150/150 142/142/142
f 140/140/140 143/143/143 151/151/151
f 146/146/146 140/140/140 152/152/152
f 140/140/140 151/151/151 152/152/152
f 139/139/139 146/146/146 153/153/153
f 153/153/153 146/146/146 152/152/152
f 141/141/141 154/154/154 147/147/147
f 148/148/148 155/155/155 143/143/143
f 143/143/143 155/155/155 151/151/151
f 144/144/144 156/156/156 149/149/149
f 144/144/144 147/147/147 156/156/156
f 145/145/145 157/157/157 150/150/150
f 145/145/145 149/149/149 157/157/157
f 142/142/142 150/150/150 158/158/158
f 148/148/148 142/142/142 158/158/158
f 148/148/148 158/158/158 155/155/155
f 154/154/154 159/159/159 147/147/147
f 147/147/147 159/159/159 156/156/156
f 151/151/151 155/155/155 160/160/160
f 149/149/149 156/156/156 161/161/161
f 149/149/149 161/161/161 157/157/157
f 150/150/150 162/162/162 158/158/158
f 150/150/150 157/157/157 162/162/162
f 155/155/155 158/158/158 163/163/163
f 158/158/158 162/162/162 163/163/163
f 155/155/155 163/163/163 160/160/160
f 161/161/161 164/164/164 157/157/157
f 157/157/157 164/164/164 162/162/162
f 163/163/163 162/162/162 165/165/165
f 165/165/165 162/162/162 164/164/164

